<svg width="512" height="272" viewBox="0 0 512 272" fill="none" xmlns="http://www.w3.org/2000/svg">
<mask id="mask0" mask-type="alpha" maskUnits="userSpaceOnUse" x="0" y="0" width="512" height="272">
<rect width="512" height="272" fill="#C4C4C4"/>
</mask>
<g mask="url(#mask0)">
<path d="M408.931 239.82C408.927 238.454 408.604 237.108 407.987 235.889C407.975 235.876 407.959 235.867 407.941 235.864C407.924 235.86 407.905 235.862 407.889 235.87C407.873 235.877 407.859 235.889 407.85 235.904C407.84 235.92 407.836 235.937 407.837 235.955C408.557 237.398 408.174 238.944 408.018 240.462C407.957 241.194 408.087 241.929 408.396 242.595C408.857 243.338 409.472 243.973 410.2 244.458C410.365 244.588 410.511 244.321 410.433 244.199C410.163 243.829 409.916 243.442 409.694 243.04C409.532 242.667 409.394 242.284 409.283 241.892C409.108 241.212 408.99 240.519 408.931 239.82Z" fill="#263238"/>
<path d="M447.714 195.398C444.39 198.895 441.378 202.677 438.713 206.7C438.688 206.73 438.676 206.768 438.68 206.807C438.683 206.846 438.702 206.882 438.732 206.907C438.762 206.931 438.801 206.943 438.84 206.94C438.878 206.936 438.914 206.917 438.939 206.887C442.049 203.215 445.295 199.579 448.162 195.763C448.186 195.733 448.204 195.699 448.215 195.663C448.226 195.627 448.229 195.588 448.226 195.551C448.222 195.513 448.21 195.476 448.192 195.443C448.174 195.409 448.15 195.38 448.12 195.356C448.091 195.332 448.057 195.314 448.021 195.303C447.984 195.292 447.946 195.289 447.908 195.293C447.871 195.296 447.834 195.308 447.801 195.326C447.767 195.344 447.738 195.368 447.714 195.398V195.398Z" fill="#455A64"/>
<path d="M411.639 317.982L393.503 273.168L345.167 272.547L420.766 217.027L430.422 219.15L435.908 227.376L411.639 317.982Z" fill="#F9701F"/>
<path d="M485.512 131.242L492.504 136.013L431.282 231.465L418.633 222.831L485.512 131.242Z" fill="#A6A6A6"/>
<path d="M410.209 264.286L395.026 255.092L393.55 257.529L408.733 266.723L410.209 264.286Z" fill="#263238"/>
<path d="M418.085 252.962L403.43 242.947L398.595 250.021L413.25 260.036L418.085 252.962Z" fill="#263238"/>
<path d="M413.88 254.992L403.078 247.611L401.681 249.655L412.483 257.037L413.88 254.992Z" fill="white"/>
<path d="M404.62 246.765C404.593 246.818 404.555 246.863 404.509 246.9C404.463 246.937 404.409 246.963 404.352 246.977C404.295 246.992 404.236 246.994 404.178 246.984C404.12 246.974 404.064 246.951 404.016 246.918C403.967 246.885 403.926 246.842 403.895 246.792C403.864 246.742 403.844 246.686 403.837 246.627C403.829 246.569 403.834 246.51 403.851 246.453C403.868 246.397 403.896 246.345 403.935 246.3C404.002 246.223 404.095 246.173 404.196 246.16C404.297 246.147 404.4 246.171 404.484 246.228C404.569 246.286 404.629 246.372 404.654 246.471C404.679 246.57 404.667 246.675 404.62 246.765Z" fill="white"/>
<path d="M406.064 247.757C406.018 247.826 405.952 247.879 405.876 247.911C405.799 247.942 405.715 247.95 405.634 247.934C405.553 247.917 405.479 247.877 405.421 247.818C405.363 247.76 405.323 247.685 405.308 247.604C405.292 247.522 405.301 247.438 405.333 247.362C405.366 247.286 405.42 247.222 405.489 247.176C405.559 247.131 405.64 247.108 405.722 247.109C405.805 247.11 405.886 247.135 405.954 247.182C406.044 247.244 406.106 247.34 406.127 247.447C406.147 247.555 406.124 247.666 406.064 247.757Z" fill="white"/>
<path d="M407.507 248.749C407.461 248.814 407.397 248.864 407.323 248.893C407.249 248.921 407.168 248.928 407.09 248.911C407.012 248.894 406.941 248.854 406.886 248.797C406.83 248.741 406.792 248.668 406.778 248.59C406.763 248.512 406.771 248.431 406.802 248.358C406.832 248.284 406.884 248.222 406.95 248.177C407.016 248.133 407.094 248.109 407.173 248.108C407.253 248.108 407.331 248.13 407.397 248.174C407.443 248.204 407.483 248.242 407.513 248.288C407.544 248.333 407.565 248.384 407.575 248.438C407.585 248.492 407.584 248.547 407.573 248.6C407.561 248.654 407.539 248.704 407.507 248.749V248.749Z" fill="white"/>
<path d="M408.961 249.736C408.899 249.826 408.804 249.888 408.696 249.909C408.588 249.929 408.477 249.907 408.386 249.846C408.309 249.779 408.259 249.686 408.246 249.585C408.233 249.484 408.257 249.381 408.314 249.297C408.372 249.212 408.458 249.152 408.557 249.127C408.656 249.102 408.76 249.114 408.851 249.161C408.941 249.223 409.003 249.318 409.024 249.426C409.045 249.534 409.022 249.645 408.961 249.736V249.736Z" fill="white"/>
<path d="M410.4 250.718C410.355 250.784 410.291 250.835 410.216 250.865C410.142 250.895 410.06 250.902 409.982 250.885C409.903 250.868 409.831 250.829 409.775 250.771C409.719 250.714 409.682 250.641 409.667 250.562C409.652 250.483 409.661 250.402 409.693 250.328C409.724 250.254 409.777 250.192 409.844 250.148C409.911 250.104 409.99 250.081 410.07 250.082C410.15 250.083 410.229 250.108 410.295 250.153C410.34 250.182 410.379 250.22 410.409 250.265C410.439 250.309 410.46 250.36 410.469 250.412C410.479 250.465 410.478 250.52 410.466 250.572C410.455 250.625 410.432 250.674 410.4 250.718Z" fill="white"/>
<path d="M411.844 251.71C411.799 251.776 411.735 251.827 411.66 251.857C411.585 251.886 411.504 251.893 411.425 251.877C411.347 251.86 411.275 251.821 411.219 251.763C411.163 251.706 411.125 251.633 411.111 251.554C411.096 251.475 411.105 251.394 411.136 251.32C411.168 251.246 411.221 251.184 411.288 251.14C411.355 251.096 411.434 251.073 411.514 251.074C411.594 251.075 411.672 251.099 411.739 251.145C411.784 251.174 411.823 251.212 411.853 251.256C411.883 251.301 411.903 251.351 411.913 251.404C411.923 251.457 411.922 251.512 411.91 251.564C411.898 251.617 411.876 251.666 411.844 251.71V251.71Z" fill="white"/>
<path d="M413.298 252.697C413.252 252.763 413.188 252.814 413.114 252.844C413.039 252.873 412.958 252.88 412.879 252.864C412.801 252.847 412.729 252.808 412.673 252.75C412.617 252.693 412.579 252.62 412.564 252.541C412.55 252.462 412.559 252.381 412.59 252.307C412.622 252.233 412.674 252.171 412.742 252.127C412.809 252.083 412.887 252.06 412.968 252.061C413.048 252.062 413.126 252.086 413.192 252.132C413.236 252.162 413.274 252.2 413.303 252.245C413.332 252.29 413.352 252.34 413.362 252.392C413.372 252.445 413.371 252.499 413.36 252.551C413.349 252.603 413.328 252.653 413.298 252.697Z" fill="white"/>
<path d="M414.741 253.689C414.712 253.734 414.673 253.774 414.627 253.804C414.582 253.835 414.531 253.856 414.477 253.866C414.424 253.876 414.368 253.876 414.315 253.864C414.261 253.852 414.211 253.83 414.166 253.798C414.089 253.732 414.039 253.639 414.026 253.538C414.013 253.436 414.037 253.334 414.095 253.249C414.152 253.165 414.238 253.104 414.337 253.079C414.436 253.054 414.541 253.067 414.631 253.114C414.677 253.143 414.717 253.182 414.747 253.227C414.778 253.273 414.799 253.324 414.809 253.378C414.819 253.431 414.818 253.487 414.807 253.54C414.795 253.593 414.773 253.644 414.741 253.689Z" fill="white"/>
<path d="M406.332 238.632L420.987 248.647L425.821 241.573L411.166 231.558L406.332 238.632Z" fill="#263238"/>
<path d="M409.44 236.031L420.274 243.405L421.663 241.364L410.83 233.99L409.44 236.031Z" fill="white"/>
<path d="M419.808 244.817C419.87 244.727 419.965 244.666 420.073 244.647C420.18 244.627 420.291 244.652 420.38 244.714C420.47 244.776 420.531 244.871 420.55 244.979C420.569 245.086 420.545 245.197 420.483 245.286C420.454 245.331 420.416 245.37 420.371 245.4C420.326 245.43 420.276 245.451 420.223 245.461C420.17 245.471 420.116 245.47 420.063 245.458C420.011 245.446 419.961 245.423 419.918 245.392C419.872 245.362 419.833 245.323 419.802 245.278C419.772 245.232 419.751 245.181 419.74 245.127C419.73 245.074 419.731 245.019 419.742 244.965C419.754 244.912 419.776 244.861 419.808 244.817V244.817Z" fill="white"/>
<path d="M418.359 243.839C418.404 243.773 418.468 243.722 418.543 243.692C418.617 243.663 418.699 243.656 418.777 243.672C418.856 243.689 418.928 243.728 418.984 243.786C419.04 243.843 419.078 243.916 419.092 243.995C419.107 244.074 419.098 244.155 419.066 244.229C419.035 244.303 418.982 244.366 418.915 244.409C418.848 244.453 418.769 244.476 418.689 244.475C418.609 244.474 418.53 244.45 418.464 244.404C418.42 244.374 418.382 244.336 418.353 244.291C418.324 244.246 418.304 244.196 418.294 244.144C418.285 244.091 418.285 244.037 418.296 243.985C418.307 243.933 418.329 243.883 418.359 243.839V243.839Z" fill="white"/>
<path d="M416.915 242.848C416.945 242.804 416.984 242.766 417.029 242.737C417.073 242.708 417.123 242.688 417.176 242.678C417.228 242.668 417.282 242.669 417.334 242.68C417.387 242.691 417.436 242.712 417.48 242.742C417.524 242.772 417.562 242.811 417.591 242.856C417.62 242.9 417.64 242.95 417.65 243.003C417.66 243.055 417.659 243.109 417.648 243.161C417.637 243.214 417.616 243.263 417.586 243.307C417.555 243.351 417.517 243.389 417.472 243.418C417.427 243.447 417.377 243.467 417.325 243.477C417.272 243.487 417.219 243.486 417.166 243.475C417.114 243.464 417.065 243.443 417.021 243.413C416.977 243.382 416.939 243.344 416.91 243.299C416.881 243.254 416.861 243.204 416.851 243.152C416.841 243.099 416.842 243.046 416.853 242.993C416.864 242.941 416.885 242.892 416.915 242.848V242.848Z" fill="white"/>
<path d="M415.471 241.856C415.501 241.811 415.539 241.772 415.583 241.742C415.628 241.712 415.678 241.691 415.731 241.681C415.784 241.672 415.838 241.673 415.891 241.684C415.943 241.696 415.993 241.719 416.036 241.751C416.127 241.813 416.189 241.908 416.209 242.016C416.23 242.123 416.207 242.235 416.146 242.326C416.081 242.413 415.984 242.472 415.876 242.491C415.769 242.509 415.658 242.486 415.567 242.425C415.481 242.361 415.422 242.266 415.405 242.16C415.387 242.054 415.411 241.945 415.471 241.856V241.856Z" fill="white"/>
<path d="M414.018 240.869C414.048 240.823 414.086 240.784 414.132 240.753C414.177 240.723 414.228 240.702 414.282 240.691C414.336 240.681 414.391 240.682 414.444 240.693C414.498 240.705 414.548 240.727 414.593 240.759C414.661 240.805 414.715 240.87 414.746 240.947C414.778 241.023 414.786 241.107 414.769 241.188C414.753 241.269 414.713 241.344 414.654 241.402C414.595 241.46 414.52 241.499 414.439 241.515C414.358 241.53 414.274 241.521 414.198 241.489C414.122 241.457 414.057 241.402 414.012 241.333C413.967 241.264 413.943 241.183 413.944 241.1C413.945 241.017 413.971 240.937 414.018 240.869V240.869Z" fill="white"/>
<path d="M412.574 239.877C412.62 239.812 412.684 239.762 412.758 239.733C412.832 239.704 412.913 239.698 412.991 239.715C413.069 239.732 413.14 239.771 413.196 239.828C413.251 239.885 413.289 239.957 413.304 240.035C413.319 240.114 413.31 240.194 413.28 240.268C413.249 240.341 413.197 240.404 413.131 240.449C413.065 240.493 412.988 240.517 412.908 240.517C412.829 240.518 412.751 240.495 412.684 240.452C412.638 240.422 412.599 240.383 412.568 240.338C412.538 240.293 412.517 240.242 412.506 240.188C412.496 240.134 412.497 240.079 412.508 240.025C412.52 239.972 412.542 239.922 412.574 239.877Z" fill="white"/>
<path d="M411.13 238.885C411.193 238.796 411.288 238.735 411.395 238.715C411.502 238.696 411.613 238.72 411.703 238.783C411.792 238.845 411.853 238.94 411.872 239.047C411.892 239.155 411.867 239.265 411.805 239.355C411.743 239.444 411.648 239.505 411.54 239.525C411.433 239.544 411.322 239.52 411.233 239.457C411.143 239.395 411.082 239.3 411.063 239.193C411.044 239.085 411.068 238.975 411.13 238.885V238.885Z" fill="white"/>
<path d="M409.677 237.898C409.723 237.829 409.788 237.776 409.864 237.744C409.941 237.713 410.025 237.705 410.106 237.721C410.187 237.738 410.261 237.778 410.32 237.837C410.378 237.895 410.417 237.97 410.432 238.051C410.448 238.133 410.439 238.217 410.407 238.293C410.374 238.369 410.32 238.434 410.251 238.479C410.182 238.524 410.1 238.547 410.018 238.546C409.935 238.545 409.855 238.52 409.786 238.473C409.696 238.411 409.634 238.315 409.614 238.208C409.593 238.1 409.616 237.989 409.677 237.898V237.898Z" fill="white"/>
<path d="M484.991 122.489L487.436 127.542L485.512 131.242L492.504 136.013L511.215 114.066L507.36 113.744L484.991 122.489Z" fill="#263238"/>
<path d="M392.687 263.121L403.801 247.354L414.976 231.643L437.409 200.245L465.264 161.16C472.816 150.754 480.382 140.352 487.963 129.957L487.962 123.334L488.036 129.96C480.607 140.465 473.161 150.957 465.698 161.436L437.942 200.585L415.372 231.888L404.049 247.508L392.687 263.121Z" fill="white"/>
<path d="M402.549 269.811L414.534 251.348L426.598 232.957L456.046 188.415L480.389 151.767L492.568 133.445L494.101 131.164C494.599 130.393 495.187 129.691 495.723 128.951L499.025 124.548L505.634 115.75L499.145 124.602L495.909 129.048C495.388 129.794 494.804 130.506 494.32 131.283L492.826 133.595L480.747 151.98L456.63 188.816L426.973 233.235L414.844 251.534L402.549 269.811Z" fill="white"/>
<path d="M399.785 261.186L410.422 245.557L421.11 229.966L442.584 198.835L469.475 160.009C476.685 149.641 483.915 139.348 491.195 129.057L495.247 120.274L491.381 129.154C484.306 139.583 477.15 149.963 470.023 160.354L443.157 199.265L421.578 230.346L410.722 245.832L399.785 261.186Z" fill="white"/>
<path d="M396.693 261.616L407.578 245.926L418.481 230.276L440.38 199.053L467.704 160.12C475.106 149.755 482.493 139.409 489.864 129.081L491.656 121.716L489.953 129.174C482.743 139.614 475.475 150.047 468.148 160.475L440.956 199.434L418.918 230.562L407.819 246.119L396.693 261.616Z" fill="white"/>
<path d="M401.736 262.541L412.31 246.796L422.931 231.079L444.274 199.707L471.03 160.628L481.793 145.015L492.6 129.419L492.594 129.434L498.61 118.695L492.781 129.531L492.771 129.535L482.164 145.259L471.519 160.975L444.834 200.082L423.354 231.359L412.566 246.971L401.736 262.541Z" fill="white"/>
<path d="M402.545 265.621L414.216 247.967L425.935 230.34L454.8 187.384L478.466 152.292C486.376 140.609 494.372 128.984 502.126 117.191L496.419 126.105L493.586 130.541L490.671 134.953L478.958 152.566L455.416 187.747L426.427 230.614L414.541 248.135L402.545 265.621Z" fill="white"/>
<path d="M487.585 118.638L485.308 119.558L485.932 121.103L488.209 120.183L487.585 118.638Z" fill="#263238"/>
<path d="M487.297 119.008L486.809 119.206L487.658 121.298L488.146 121.1L487.297 119.008Z" fill="#263238"/>
<path d="M491.415 116.45L489.138 117.374L489.765 118.919L492.042 117.995L491.415 116.45Z" fill="#263238"/>
<path d="M490.828 117.574L490.34 117.772L491.19 119.865L491.677 119.667L490.828 117.574Z" fill="#263238"/>
<path d="M494.648 115.782L492.371 116.703L492.996 118.247L495.272 117.327L494.648 115.782Z" fill="#263238"/>
<path d="M494.374 116.147L493.886 116.345L494.736 118.437L495.223 118.239L494.374 116.147Z" fill="#263238"/>
<path d="M498.188 114.375L495.911 115.295L496.536 116.84L498.812 115.92L498.188 114.375Z" fill="#263238"/>
<path d="M497.598 115.489L497.11 115.686L497.957 117.78L498.445 117.582L497.598 115.489Z" fill="#263238"/>
<path d="M502.004 112.139L499.728 113.063L500.355 114.608L502.631 113.684L502.004 112.139Z" fill="#263238"/>
<path d="M501.129 114.035L500.641 114.232L501.488 116.326L501.976 116.129L501.129 114.035Z" fill="#263238"/>
<path d="M505.248 111.484L502.972 112.405L503.596 113.95L505.873 113.029L505.248 111.484Z" fill="#263238"/>
<path d="M504.964 111.836L504.476 112.034L505.326 114.126L505.813 113.928L504.964 111.836Z" fill="#263238"/>
<path d="M488.33 123.568C488.256 123.674 488.143 123.746 488.016 123.768C487.888 123.791 487.757 123.762 487.651 123.687C487.546 123.613 487.474 123.5 487.451 123.373C487.429 123.246 487.458 123.115 487.532 123.009C487.609 122.905 487.723 122.835 487.851 122.814C487.979 122.794 488.109 122.824 488.215 122.899C488.267 122.935 488.312 122.981 488.346 123.034C488.38 123.087 488.404 123.147 488.414 123.209C488.425 123.272 488.423 123.335 488.409 123.397C488.394 123.459 488.367 123.517 488.33 123.568V123.568Z" fill="#A6A6A6"/>
<path d="M492.02 122.023C491.964 122.101 491.888 122.16 491.799 122.194C491.71 122.228 491.613 122.234 491.52 122.213C491.428 122.192 491.343 122.144 491.278 122.076C491.212 122.007 491.168 121.92 491.152 121.826C491.135 121.733 491.147 121.636 491.185 121.549C491.223 121.462 491.286 121.388 491.366 121.337C491.446 121.285 491.539 121.259 491.634 121.26C491.729 121.261 491.822 121.291 491.9 121.345C491.953 121.381 491.998 121.427 492.033 121.481C492.068 121.535 492.091 121.596 492.102 121.659C492.114 121.722 492.112 121.787 492.098 121.849C492.084 121.912 492.057 121.971 492.02 122.023Z" fill="#A6A6A6"/>
<path d="M495.526 120.524C495.449 120.628 495.335 120.698 495.207 120.718C495.079 120.739 494.949 120.708 494.843 120.633C494.738 120.559 494.668 120.445 494.647 120.319C494.626 120.192 494.656 120.062 494.731 119.957C494.805 119.853 494.918 119.782 495.045 119.761C495.172 119.74 495.302 119.77 495.406 119.845C495.459 119.881 495.504 119.928 495.539 119.982C495.574 120.036 495.598 120.096 495.609 120.159C495.62 120.222 495.618 120.287 495.604 120.35C495.59 120.412 495.563 120.471 495.526 120.524Z" fill="#A6A6A6"/>
<path d="M499.01 118.974C498.933 119.078 498.819 119.148 498.691 119.169C498.563 119.189 498.433 119.159 498.327 119.084C498.224 119.008 498.155 118.895 498.135 118.769C498.116 118.643 498.147 118.514 498.222 118.411C498.258 118.359 498.303 118.314 498.357 118.28C498.41 118.245 498.469 118.222 498.532 118.211C498.594 118.201 498.658 118.203 498.72 118.217C498.781 118.232 498.839 118.258 498.89 118.296C498.943 118.332 498.988 118.378 499.023 118.432C499.058 118.486 499.082 118.547 499.093 118.61C499.104 118.673 499.102 118.738 499.088 118.8C499.074 118.863 499.047 118.922 499.01 118.974V118.974Z" fill="#A6A6A6"/>
<path d="M502.521 117.485C502.441 117.58 502.328 117.641 502.205 117.657C502.083 117.673 501.958 117.642 501.857 117.57C501.756 117.499 501.686 117.392 501.66 117.27C501.634 117.149 501.655 117.023 501.718 116.916C501.795 116.812 501.909 116.742 502.037 116.722C502.165 116.701 502.295 116.732 502.401 116.807C502.454 116.843 502.499 116.889 502.534 116.943C502.568 116.997 502.592 117.058 502.603 117.121C502.614 117.184 502.613 117.249 502.599 117.311C502.584 117.374 502.558 117.433 502.521 117.485V117.485Z" fill="#A6A6A6"/>
<path d="M506.067 116.076C506.011 116.153 505.935 116.212 505.846 116.246C505.757 116.28 505.66 116.287 505.567 116.266C505.475 116.245 505.39 116.197 505.324 116.128C505.259 116.059 505.215 115.972 505.199 115.879C505.182 115.785 505.194 115.689 505.232 115.602C505.27 115.515 505.333 115.441 505.413 115.389C505.493 115.338 505.586 115.311 505.681 115.312C505.776 115.314 505.869 115.343 505.947 115.397C506 115.433 506.045 115.48 506.08 115.534C506.115 115.588 506.138 115.648 506.149 115.711C506.16 115.774 506.159 115.839 506.145 115.902C506.13 115.964 506.104 116.023 506.067 116.076Z" fill="#A6A6A6"/>
<path d="M370.833 248.868L365.021 253.098L367.316 256.252L373.128 252.022L370.833 248.868Z" fill="#37474F"/>
<path d="M455.143 120.887C455.33 121.089 455.559 121.249 455.813 121.354C456.068 121.459 456.342 121.507 456.618 121.496L467.542 121.137C468.022 121.122 468.478 120.927 468.82 120.591C469.162 120.255 469.365 119.803 469.388 119.324L469.995 107.996C470.007 107.731 469.965 107.466 469.872 107.218C469.778 106.97 469.636 106.743 469.452 106.552L454.799 91.5833C454.46 91.2371 454.002 91.0322 453.518 91.0101C453.034 90.9879 452.559 91.1501 452.19 91.464L440.109 101.822C439.913 101.99 439.753 102.196 439.639 102.427C439.524 102.659 439.458 102.911 439.443 103.168C439.429 103.426 439.467 103.684 439.554 103.927C439.642 104.17 439.778 104.392 439.954 104.581L455.143 120.887ZM465.576 117.157C465.777 116.997 466.02 116.9 466.276 116.879C466.532 116.858 466.788 116.913 467.013 117.037C467.237 117.161 467.42 117.349 467.537 117.577C467.655 117.805 467.702 118.063 467.674 118.318C467.645 118.573 467.541 118.814 467.376 119.01C467.21 119.206 466.99 119.348 466.743 119.42C466.497 119.491 466.235 119.487 465.99 119.409C465.746 119.331 465.53 119.183 465.37 118.982C465.16 118.71 465.067 118.365 465.112 118.024C465.156 117.683 465.334 117.374 465.606 117.164L465.576 117.157Z" fill="#F9701F"/>
<path d="M481.886 131.93C472.873 129.761 467.069 119.889 466.781 119.459C466.745 119.401 466.721 119.337 466.71 119.27C466.699 119.203 466.702 119.134 466.718 119.068C466.734 119.002 466.763 118.94 466.803 118.885C466.843 118.83 466.894 118.783 466.952 118.748C467.009 118.712 467.072 118.689 467.138 118.678C467.205 118.667 467.272 118.669 467.338 118.685C467.403 118.701 467.464 118.729 467.518 118.769C467.573 118.809 467.618 118.859 467.653 118.917C467.726 119.051 475.406 132.002 486.295 131.264C486.43 131.257 486.563 131.303 486.664 131.393C486.765 131.483 486.827 131.609 486.836 131.744C486.843 131.812 486.836 131.88 486.816 131.945C486.796 132.01 486.762 132.07 486.718 132.121C486.674 132.173 486.62 132.215 486.559 132.246C486.498 132.276 486.432 132.294 486.364 132.298C484.861 132.405 483.351 132.281 481.886 131.93V131.93Z" fill="#263238"/>
<path d="M456.662 99.0684L454.239 101.946C453.916 101.766 453.571 101.629 453.213 101.539C452.901 101.505 452.585 101.529 452.282 101.609L454.181 103.793C455.467 103.054 456.892 102.588 458.367 102.423C458.947 102.422 459.52 102.549 460.045 102.796C460.57 103.042 461.034 103.402 461.403 103.849C461.867 104.372 462.192 105.002 462.347 105.683C462.502 106.326 462.524 106.993 462.411 107.645C462.309 108.252 462.095 108.835 461.778 109.363C461.4 109.957 460.944 110.498 460.422 110.971L460.755 111.354C460.819 111.426 460.867 111.509 460.899 111.6C460.93 111.69 460.943 111.786 460.937 111.881C460.93 111.977 460.905 112.07 460.863 112.156C460.821 112.242 460.762 112.318 460.689 112.381V112.381C460.617 112.445 460.533 112.494 460.442 112.525C460.351 112.556 460.254 112.569 460.158 112.562C460.062 112.556 459.968 112.53 459.882 112.486C459.796 112.443 459.719 112.382 459.657 112.309L459.324 111.926C458.679 112.423 457.968 112.83 457.212 113.134C456.631 113.354 456.014 113.461 455.393 113.449C454.833 113.441 454.28 113.332 453.759 113.129C453.206 112.897 452.692 112.583 452.233 112.197L454.977 109.194C455.357 109.532 455.799 109.791 456.279 109.957C456.701 110.041 457.137 110.015 457.546 109.881L455.232 107.22C454.33 107.677 453.393 108.061 452.429 108.368C451.726 108.544 450.987 108.515 450.299 108.286C449.612 108.056 449.004 107.635 448.547 107.072C448.174 106.662 447.891 106.178 447.717 105.653C447.542 105.127 447.48 104.57 447.535 104.019C447.743 102.679 448.426 101.459 449.46 100.581L449.291 100.387C449.227 100.315 449.178 100.231 449.147 100.139C449.116 100.048 449.103 99.9516 449.11 99.8555C449.116 99.7593 449.142 99.6654 449.186 99.5794C449.229 99.4934 449.29 99.4169 449.363 99.3545V99.3545C449.435 99.2917 449.519 99.2438 449.61 99.2137C449.701 99.1836 449.797 99.1718 449.892 99.179C449.988 99.1862 450.081 99.2123 450.166 99.2557C450.251 99.2992 450.327 99.3591 450.389 99.432L450.558 99.6266C451.483 98.827 452.627 98.3237 453.842 98.182C454.858 98.1281 455.859 98.4429 456.662 99.0684ZM451.151 102.526C450.951 102.815 450.838 103.155 450.824 103.506C450.834 103.771 450.937 104.025 451.116 104.221C451.293 104.436 451.539 104.584 451.811 104.641C452.163 104.68 452.519 104.619 452.837 104.465L451.151 102.526ZM458.709 109.001C459.015 108.636 459.2 108.186 459.241 107.712C459.259 107.347 459.134 106.99 458.892 106.715C458.683 106.49 458.401 106.345 458.096 106.306C457.59 106.283 457.086 106.388 456.631 106.61L458.709 109.001Z" fill="white"/>
<path d="M207.977 2.52173L210.075 1.31594C210.188 1.25351 210.319 1.23582 210.444 1.26633C210.569 1.29685 210.677 1.37333 210.748 1.48051L211.216 2.30795C211.25 2.36288 211.272 2.4239 211.282 2.48747C211.292 2.55104 211.289 2.61593 211.274 2.67842C211.258 2.7409 211.231 2.79976 211.193 2.8516C211.155 2.90345 211.107 2.94728 211.052 2.98055L210.687 3.18485L212.008 5.49968L210.643 6.27702L209.318 3.98198L208.954 4.18627C208.841 4.2487 208.71 4.26647 208.585 4.23595C208.46 4.20543 208.352 4.12888 208.281 4.0217L207.793 3.18943C207.734 3.07541 207.72 2.94322 207.754 2.81939C207.788 2.69555 207.868 2.58924 207.977 2.52173V2.52173Z" fill="black"/>
<path d="M203.279 5.27166L205.372 4.08562C205.426 4.04927 205.488 4.02459 205.552 4.01318C205.616 4.00178 205.682 4.00386 205.745 4.01935C205.808 4.03484 205.868 4.0634 205.919 4.10314C205.971 4.14289 206.014 4.19299 206.045 4.25021L206.513 5.07765C206.547 5.13259 206.569 5.19355 206.579 5.25712C206.589 5.32069 206.586 5.38559 206.571 5.44807C206.555 5.51056 206.528 5.56942 206.49 5.62126C206.452 5.67311 206.404 5.71694 206.349 5.75022L205.984 5.95452L207.305 8.26942L205.941 9.04678L204.62 6.73188L204.275 6.9411C204.22 6.97456 204.159 6.99686 204.096 7.00671C204.032 7.01655 203.967 7.01373 203.905 6.99844C203.842 6.98315 203.784 6.95569 203.732 6.9176C203.68 6.87952 203.636 6.83156 203.603 6.77651L203.134 5.86508C203.087 5.76438 203.076 5.65075 203.102 5.54289C203.129 5.43502 203.191 5.33936 203.279 5.27166V5.27166Z" fill="black"/>
<path d="M198.423 7.98248L200.516 6.79644C200.571 6.76298 200.632 6.74068 200.695 6.73083C200.759 6.72099 200.824 6.72381 200.886 6.7391C200.949 6.75439 201.008 6.78185 201.06 6.81994C201.111 6.85802 201.155 6.90598 201.188 6.96103L201.657 7.78847C201.69 7.84341 201.713 7.90443 201.722 7.968C201.732 8.03157 201.729 8.09647 201.714 8.15895C201.699 8.22144 201.671 8.2803 201.633 8.33215C201.595 8.38399 201.547 8.42776 201.492 8.46104L201.128 8.66541L202.448 10.9802L201.084 11.7576L199.763 9.44277L199.399 9.64708C199.344 9.68055 199.283 9.70285 199.22 9.71269C199.156 9.72253 199.091 9.71971 199.029 9.70442C198.966 9.68913 198.907 9.66167 198.855 9.62359C198.804 9.58551 198.76 9.53756 198.726 9.48251L198.258 8.65505C198.225 8.60011 198.202 8.53909 198.192 8.47552C198.183 8.41195 198.185 8.34712 198.201 8.28463C198.216 8.22215 198.243 8.16328 198.282 8.11144C198.32 8.05959 198.368 8.01576 198.423 7.98248V7.98248Z" fill="black"/>
<path d="M193.561 10.7133L195.659 9.50748C195.714 9.47402 195.775 9.45178 195.839 9.44194C195.903 9.4321 195.967 9.43486 196.03 9.45015C196.092 9.46544 196.151 9.49296 196.203 9.53104C196.255 9.56912 196.299 9.61702 196.332 9.67207L196.82 10.5044C196.883 10.6166 196.9 10.7482 196.87 10.873C196.839 10.9977 196.763 11.1063 196.656 11.177L196.291 11.3813L197.612 13.6962L196.247 14.4735L194.927 12.1586L194.558 12.3827C194.445 12.4452 194.314 12.4629 194.189 12.4324C194.064 12.4019 193.956 12.3253 193.885 12.2181L193.417 11.3907C193.381 11.3368 193.357 11.2764 193.346 11.2131C193.334 11.1498 193.335 11.0849 193.348 11.0219C193.362 10.959 193.387 10.8993 193.424 10.8464C193.461 10.7934 193.507 10.7482 193.561 10.7133V10.7133Z" fill="black"/>
<path d="M188.843 13.4588L190.941 12.253C191.053 12.1906 191.185 12.1728 191.31 12.2033C191.435 12.2339 191.543 12.3104 191.614 12.4176L192.082 13.245C192.116 13.3 192.138 13.361 192.148 13.4246C192.158 13.4881 192.155 13.553 192.14 13.6155C192.124 13.678 192.097 13.7368 192.059 13.7886C192.021 13.8405 191.973 13.8843 191.918 13.9176L191.568 14.1465L192.893 16.4416L191.529 17.219L190.204 14.9239L189.839 15.1282C189.784 15.1617 189.723 15.184 189.66 15.1939C189.596 15.2037 189.531 15.2009 189.469 15.1856C189.406 15.1703 189.348 15.1428 189.296 15.1048C189.244 15.0667 189.2 15.0187 189.167 14.9637L188.679 14.1314C188.616 14.0192 188.598 13.8875 188.629 13.7628C188.659 13.6381 188.736 13.5295 188.843 13.4588V13.4588Z" fill="black"/>
<path d="M184.066 16.1891L186.159 15.0031C186.214 14.9697 186.275 14.9474 186.338 14.9375C186.402 14.9277 186.467 14.9305 186.529 14.9458C186.592 14.9611 186.651 14.9885 186.702 15.0266C186.754 15.0647 186.798 15.1126 186.831 15.1677L187.3 15.9952C187.333 16.0501 187.356 16.1111 187.365 16.1747C187.375 16.2383 187.373 16.3031 187.357 16.3656C187.342 16.4281 187.314 16.487 187.276 16.5388C187.238 16.5907 187.19 16.6344 187.135 16.6677L186.771 16.8721L188.091 19.1869L186.727 19.9643L185.407 17.6494L185.042 17.8537C184.987 17.8872 184.926 17.9095 184.863 17.9193C184.799 17.9292 184.734 17.9264 184.672 17.9111C184.609 17.8958 184.55 17.8683 184.498 17.8302C184.447 17.7921 184.403 17.7442 184.369 17.6891L183.901 16.8617C183.868 16.8067 183.845 16.7458 183.835 16.6822C183.826 16.6187 183.828 16.5538 183.844 16.4913C183.859 16.4288 183.886 16.3699 183.925 16.3181C183.963 16.2662 184.011 16.2224 184.066 16.1891V16.1891Z" fill="black"/>
<g opacity="0.2">
<path opacity="0.2" d="M207.977 2.52107L210.075 1.31525C210.188 1.25282 210.319 1.23512 210.444 1.26564C210.569 1.29616 210.677 1.37264 210.748 1.47982L211.216 2.30727C211.25 2.36221 211.272 2.42323 211.282 2.4868C211.292 2.55037 211.289 2.61526 211.274 2.67775C211.259 2.74023 211.231 2.7991 211.193 2.85094C211.155 2.90278 211.107 2.94661 211.052 2.97989L210.687 3.18419L212.008 5.49907L210.644 6.27641L209.318 3.98134L208.954 4.18563C208.842 4.24807 208.71 4.26584 208.585 4.23532C208.461 4.2048 208.352 4.12825 208.281 4.02106L207.793 3.18878C207.734 3.07476 207.72 2.94257 207.754 2.81873C207.788 2.69489 207.868 2.58858 207.977 2.52107V2.52107Z" fill="white"/>
<path opacity="0.2" d="M203.279 5.27129L205.372 4.08525C205.426 4.0489 205.488 4.02422 205.552 4.01282C205.616 4.00141 205.682 4.00349 205.745 4.01898C205.808 4.03447 205.868 4.06303 205.919 4.10278C205.971 4.14252 206.014 4.19262 206.045 4.24984L206.513 5.07729C206.547 5.13222 206.569 5.19318 206.579 5.25676C206.589 5.32033 206.586 5.38522 206.571 5.4477C206.555 5.51019 206.528 5.56905 206.49 5.6209C206.452 5.67274 206.404 5.71657 206.349 5.74985L205.984 5.95416L207.305 8.26906L205.941 9.04642L204.62 6.73152L204.275 6.94073C204.22 6.9742 204.159 6.9965 204.096 7.00634C204.032 7.01618 203.967 7.01336 203.905 6.99807C203.842 6.98278 203.784 6.95532 203.732 6.91724C203.68 6.87915 203.636 6.8312 203.603 6.77614L203.134 5.86471C203.087 5.76401 203.076 5.65039 203.102 5.54252C203.129 5.43465 203.191 5.339 203.279 5.27129V5.27129Z" fill="white"/>
<path opacity="0.2" d="M198.423 7.98224L200.516 6.7962C200.571 6.76273 200.632 6.74043 200.695 6.73059C200.759 6.72075 200.824 6.72357 200.886 6.73886C200.949 6.75415 201.008 6.78161 201.06 6.81969C201.111 6.85777 201.155 6.90573 201.189 6.96078L201.657 7.78823C201.69 7.84317 201.713 7.90419 201.723 7.96776C201.732 8.03133 201.73 8.09622 201.714 8.15871C201.699 8.22119 201.671 8.28006 201.633 8.3319C201.595 8.38375 201.547 8.42752 201.492 8.4608L201.128 8.66516L202.448 10.98L201.084 11.7574L199.764 9.44253L199.399 9.64684C199.344 9.6803 199.283 9.7026 199.22 9.71245C199.156 9.72229 199.091 9.71947 199.029 9.70418C198.966 9.68889 198.907 9.66143 198.855 9.62334C198.804 9.58526 198.76 9.53732 198.727 9.48227L198.258 8.65481C198.225 8.59987 198.202 8.53885 198.192 8.47528C198.183 8.41171 198.185 8.34687 198.201 8.28439C198.216 8.2219 198.244 8.16304 198.282 8.11119C198.32 8.05935 198.368 8.01552 198.423 7.98224V7.98224Z" fill="white"/>
<path opacity="0.2" d="M193.561 10.7132L195.659 9.50736C195.714 9.4739 195.775 9.45166 195.839 9.44181C195.903 9.43197 195.967 9.43474 196.03 9.45002C196.092 9.46531 196.151 9.49284 196.203 9.53092C196.255 9.569 196.299 9.6169 196.332 9.67195L196.82 10.5043C196.883 10.6165 196.9 10.7481 196.87 10.8728C196.839 10.9976 196.763 11.1062 196.656 11.1768L196.291 11.3812L197.612 13.696L196.247 14.4734L194.927 12.1585L194.558 12.3826C194.445 12.445 194.314 12.4628 194.189 12.4323C194.064 12.4018 193.956 12.3252 193.885 12.218L193.417 11.3906C193.381 11.3366 193.357 11.2763 193.346 11.213C193.334 11.1497 193.335 11.0848 193.348 11.0218C193.362 10.9589 193.387 10.8992 193.424 10.8462C193.461 10.7933 193.507 10.7481 193.561 10.7132V10.7132Z" fill="white"/>
<path opacity="0.2" d="M188.843 13.4586L190.941 12.2528C191.053 12.1903 191.185 12.1726 191.31 12.2031C191.435 12.2336 191.543 12.3101 191.614 12.4173L192.082 13.2448C192.116 13.2997 192.138 13.3607 192.148 13.4243C192.158 13.4879 192.155 13.5528 192.14 13.6153C192.124 13.6777 192.097 13.7365 192.059 13.7884C192.021 13.8402 191.973 13.8841 191.918 13.9173L191.568 14.1463L192.893 16.4414L191.529 17.2187L190.204 14.9236L189.839 15.128C189.784 15.1615 189.723 15.1838 189.66 15.1936C189.596 15.2035 189.531 15.2006 189.469 15.1853C189.406 15.1701 189.348 15.1426 189.296 15.1045C189.244 15.0664 189.2 15.0185 189.167 14.9634L188.679 14.1311C188.616 14.0189 188.598 13.8873 188.629 13.7625C188.659 13.6378 188.736 13.5293 188.843 13.4586V13.4586Z" fill="white"/>
<path opacity="0.2" d="M184.066 16.1891L186.159 15.0031C186.214 14.9697 186.275 14.9474 186.338 14.9375C186.402 14.9277 186.467 14.9305 186.529 14.9458C186.592 14.9611 186.651 14.9885 186.702 15.0266C186.754 15.0647 186.798 15.1126 186.831 15.1677L187.3 15.9952C187.333 16.0501 187.356 16.1111 187.365 16.1747C187.375 16.2383 187.373 16.3031 187.357 16.3656C187.342 16.4281 187.314 16.487 187.276 16.5388C187.238 16.5907 187.19 16.6344 187.135 16.6677L186.771 16.8721L188.091 19.1869L186.727 19.9643L185.407 17.6494L185.042 17.8537C184.987 17.8872 184.926 17.9095 184.863 17.9193C184.799 17.9292 184.734 17.9264 184.672 17.9111C184.609 17.8958 184.55 17.8683 184.498 17.8302C184.447 17.7921 184.403 17.7442 184.369 17.6891L183.901 16.8617C183.868 16.8067 183.845 16.7458 183.835 16.6822C183.826 16.6187 183.828 16.5538 183.844 16.4913C183.859 16.4288 183.886 16.3699 183.925 16.3181C183.963 16.2662 184.011 16.2224 184.066 16.1891V16.1891Z" fill="white"/>
</g>
<path d="M181.186 29.0704C182.259 27.1294 182.795 24.9376 182.74 22.7206C182.748 22.2265 182.887 21.7432 183.141 21.3196C183.396 20.896 183.757 20.5471 184.19 20.3079L212.75 4.69536C213.723 4.16066 214.868 4.03149 215.936 4.33596C217.003 4.64044 217.908 5.35392 218.453 6.32145V6.32145C218.936 7.14674 219.122 8.11309 218.978 9.05875C218.835 10.0044 218.371 10.8721 217.664 11.5166C214.711 14.2551 212.039 17.2815 209.688 20.5508C207.1 24.3219 204.918 28.3559 203.179 32.5858C202.952 33.1018 202.579 33.5398 202.105 33.8452C201.632 34.1506 201.079 34.3099 200.515 34.3032C199.128 34.2246 197.742 34.486 196.479 35.0648C195.215 35.6435 194.113 36.522 193.266 37.624L181.186 29.0704Z" fill="#263238"/>
<path opacity="0.1" d="M181.186 29.0704C182.259 27.1294 182.795 24.9376 182.74 22.7206C182.748 22.2265 182.887 21.7432 183.141 21.3196C183.396 20.896 183.757 20.5471 184.19 20.3079L212.75 4.69536C213.723 4.16066 214.868 4.03149 215.936 4.33596C217.003 4.64044 217.908 5.35392 218.453 6.32145V6.32145C218.936 7.14674 219.122 8.11309 218.978 9.05875C218.835 10.0044 218.371 10.8721 217.664 11.5166C214.711 14.2551 212.039 17.2815 209.688 20.5508C207.1 24.3219 204.918 28.3559 203.179 32.5858C202.952 33.1018 202.579 33.5398 202.105 33.8452C201.632 34.1506 201.079 34.3099 200.515 34.3032C199.128 34.2246 197.742 34.486 196.479 35.0648C195.215 35.6435 194.113 36.522 193.266 37.624L181.186 29.0704Z" fill="white"/>
<path d="M4.33955 187.843C24.7081 159.01 47.5925 168.048 59.5359 154.282C70.566 141.592 61.3803 114.185 82.9505 99.4623C83.4052 99.1452 83.9445 98.9717 84.4989 98.9645C85.0532 98.9573 85.5969 99.1166 86.0597 99.4218C86.5225 99.727 86.883 100.164 87.0947 100.676C87.3064 101.189 87.3594 101.753 87.247 102.296C84.747 113.026 80.7626 133.08 102.065 139.928L112.647 156.061C116.025 166.846 134.409 169.94 142.419 158.629C143.743 156.73 146.939 158.749 146.728 161.067C146.454 164.979 145.21 168.762 143.108 172.072C141.006 175.383 138.112 178.118 134.687 180.03C126.777 184.593 121.077 187.497 117.772 192.181C104.975 210.204 121.859 230.143 102.647 257.331C89.8704 275.275 57.6565 274.29 30.5033 255.109C3.35013 235.927 -8.36805 205.846 4.33955 187.843Z" fill="#F9701F"/>
<path d="M137.772 166.821C138.022 166.642 138.326 166.555 138.633 166.575C138.94 166.595 139.23 166.722 139.454 166.933C139.677 167.144 139.82 167.426 139.859 167.731C139.897 168.036 139.828 168.345 139.663 168.605C136.972 172.747 131.563 178.573 120.85 184.569C103.306 194.406 111.357 229.02 108.269 236.756C105.181 244.491 99.8687 233.044 95.1792 222.734C83.703 197.577 54.0399 208.873 56.129 186.112C57.2763 173.541 67.2715 174.163 74.9518 163.253C83.0591 151.798 79.8471 141.619 85.8045 140.75C91.7618 139.88 97.8743 152.257 97.8743 152.257L107.818 153.349C107.818 153.349 107.406 161.886 116.99 167.271C120.132 169.198 123.762 170.181 127.447 170.101C131.133 170.021 134.717 168.883 137.772 166.821V166.821Z" fill="white"/>
<path d="M99.1893 217.741C99.6586 218.076 100.217 218.264 100.793 218.282C101.37 218.3 101.939 218.146 102.428 217.84C102.917 217.534 103.304 217.09 103.54 216.563C103.776 216.037 103.85 215.453 103.754 214.884C103.657 214.315 103.394 213.788 102.998 213.369C102.601 212.95 102.089 212.659 101.526 212.531C100.964 212.404 100.376 212.446 99.8378 212.653C99.2994 212.86 98.8346 213.222 98.5023 213.694C98.0594 214.322 97.883 215.101 98.0117 215.859C98.1404 216.617 98.5637 217.293 99.1893 217.741V217.741Z" fill="#263238"/>
<path d="M103.152 228.794C103.524 229.055 103.965 229.2 104.419 229.211C104.874 229.221 105.321 229.097 105.705 228.854C106.089 228.61 106.392 228.259 106.576 227.843C106.761 227.428 106.818 226.967 106.741 226.519C106.663 226.071 106.455 225.656 106.143 225.327C105.83 224.997 105.426 224.767 104.983 224.666C104.54 224.565 104.077 224.598 103.652 224.76C103.228 224.922 102.861 225.206 102.597 225.577C102.421 225.824 102.296 226.104 102.229 226.4C102.162 226.695 102.153 227.002 102.205 227.301C102.256 227.6 102.367 227.886 102.529 228.142C102.692 228.398 102.903 228.62 103.152 228.794V228.794Z" fill="#263238"/>
<path d="M73.3847 216.087L79.661 207.206C80.2063 206.435 80.0228 205.367 79.2513 204.822L61.6393 192.375C60.8677 191.83 59.8002 192.013 59.255 192.785L52.9787 201.666C52.4334 202.437 52.6168 203.505 53.3884 204.05L71.0004 216.497C71.7719 217.042 72.8394 216.859 73.3847 216.087Z" fill="black"/>
<path d="M82.3191 164.762C82.4547 164.567 82.6279 164.401 82.8284 164.274C83.0289 164.146 83.2527 164.059 83.487 164.019C83.7212 163.979 83.9611 163.986 84.1927 164.039C84.4243 164.092 84.6429 164.191 84.8359 164.33L97.9763 173.604C98.171 173.743 98.3364 173.918 98.4632 174.121C98.59 174.323 98.6758 174.549 98.7155 174.784C98.7552 175.02 98.748 175.261 98.6946 175.494C98.6411 175.726 98.5424 175.946 98.4039 176.141C98.2654 176.336 98.0899 176.501 97.8875 176.628C97.6851 176.755 97.4596 176.841 97.2241 176.88C96.9885 176.92 96.7475 176.913 96.5147 176.859C96.2819 176.806 96.0619 176.707 95.8673 176.569L82.7467 167.299C82.5513 167.161 82.3852 166.986 82.2579 166.784C82.1306 166.581 82.0446 166.355 82.0048 166.12C81.9651 165.884 81.9723 165.643 82.0263 165.41C82.0802 165.177 82.1797 164.957 82.3191 164.762Z" fill="#263238"/>
<path d="M75.232 174.79C75.3677 174.595 75.5409 174.428 75.7414 174.301C75.9419 174.173 76.1657 174.087 76.4 174.047C76.6342 174.006 76.8741 174.013 77.1056 174.066C77.3372 174.12 77.5559 174.219 77.7489 174.357L90.8893 183.632C91.0839 183.77 91.2494 183.946 91.3762 184.148C91.503 184.35 91.5888 184.576 91.6285 184.811C91.6682 185.047 91.6611 185.288 91.6076 185.521C91.5542 185.754 91.4554 185.974 91.3169 186.168C91.1784 186.363 91.0029 186.528 90.8005 186.655C90.5981 186.782 90.3727 186.868 90.1371 186.908C89.9016 186.947 89.6605 186.94 89.4277 186.887C89.1949 186.833 88.9748 186.734 88.7802 186.596L75.6596 177.326C75.4643 177.188 75.2982 177.013 75.1709 176.811C75.0436 176.608 74.9576 176.383 74.9178 176.147C74.8781 175.911 74.8854 175.67 74.9393 175.437C74.9932 175.204 75.0927 174.984 75.232 174.79V174.79Z" fill="#263238"/>
<path d="M69.9087 182.922C70.2827 182.619 70.7607 182.475 71.2396 182.522C71.7186 182.568 72.1599 182.801 72.4685 183.171L82.6856 195.566C82.9927 195.936 83.1403 196.413 83.0959 196.892C83.0515 197.37 82.8188 197.812 82.449 198.119C82.0791 198.426 81.6024 198.573 81.1238 198.529C80.6451 198.485 80.2037 198.252 79.8967 197.882L69.6598 185.481C69.357 185.107 69.2133 184.629 69.2599 184.151C69.3065 183.672 69.5395 183.23 69.9087 182.922V182.922Z" fill="#263238"/>
<path opacity="0.4" d="M73.3847 216.087L79.661 207.206C80.2063 206.435 80.0228 205.367 79.2513 204.822L61.6393 192.375C60.8677 191.83 59.8002 192.013 59.255 192.785L52.9787 201.666C52.4334 202.437 52.6168 203.505 53.3884 204.05L71.0004 216.497C71.7719 217.042 72.8394 216.859 73.3847 216.087Z" fill="white"/>
<path d="M89.8773 155.122L181.186 29.0702L193.266 37.6238L104.926 165.765C104.658 166.15 104.316 166.479 103.921 166.732C103.525 166.985 103.084 167.157 102.622 167.238C102.159 167.32 101.686 167.31 101.227 167.208C100.769 167.106 100.336 166.915 99.9518 166.645L90.6578 160.072C90.2815 159.799 89.9629 159.453 89.72 159.057C89.4771 158.66 89.3148 158.219 89.2423 157.759C89.1698 157.299 89.1887 156.83 89.2976 156.377C89.4066 155.925 89.6035 155.499 89.8773 155.122V155.122Z" fill="black"/>
<path opacity="0.4" d="M89.8773 155.122L181.186 29.0702L193.266 37.6238L104.926 165.765C104.658 166.15 104.316 166.479 103.921 166.732C103.525 166.985 103.084 167.157 102.622 167.238C102.159 167.32 101.686 167.31 101.227 167.208C100.769 167.106 100.336 166.915 99.9518 166.645L90.6578 160.072C90.2815 159.799 89.9629 159.453 89.72 159.057C89.4771 158.66 89.3148 158.219 89.2423 157.759C89.1698 157.299 89.1887 156.83 89.2976 156.377C89.4066 155.925 89.6035 155.499 89.8773 155.122V155.122Z" fill="white"/>
<path opacity="0.2" d="M184.66 47.0915C184.709 47.0268 184.745 46.9527 184.764 46.8737C184.784 46.7947 184.787 46.7126 184.773 46.6324C184.759 46.5522 184.729 46.4758 184.684 46.4079C184.639 46.34 184.581 46.282 184.513 46.2377L175.952 40.1806C175.888 40.1312 175.813 40.0956 175.734 40.0763C175.655 40.0569 175.573 40.054 175.493 40.0679C175.413 40.0817 175.336 40.112 175.269 40.1567C175.201 40.2015 175.143 40.2598 175.098 40.328C175.052 40.3937 175.019 40.4679 175.001 40.5465C174.983 40.625 174.981 40.7062 174.995 40.7856C175.008 40.8649 175.038 40.9408 175.081 41.0087C175.124 41.0767 175.18 41.1356 175.246 41.1818L183.841 47.2684C183.974 47.3489 184.133 47.3754 184.286 47.3425C184.438 47.3096 184.572 47.2198 184.66 47.0915V47.0915Z" fill="white"/>
<path opacity="0.2" d="M178.505 55.8794C178.594 55.7451 178.628 55.5819 178.601 55.4232C178.574 55.2644 178.487 55.1222 178.358 55.0256L169.773 48.9834C169.708 48.934 169.634 48.8985 169.555 48.8791C169.476 48.8598 169.394 48.8569 169.314 48.8707C169.233 48.8846 169.157 48.9148 169.089 48.9596C169.021 49.0044 168.963 49.0627 168.919 49.1309C168.83 49.2652 168.796 49.4284 168.823 49.5871C168.851 49.7458 168.938 49.888 169.066 49.9846L177.632 56.022C177.698 56.072 177.773 56.108 177.853 56.128C177.934 56.1479 178.017 56.1513 178.099 56.138C178.181 56.1246 178.259 56.0948 178.329 56.0504C178.398 56.0059 178.459 55.9477 178.505 55.8794V55.8794Z" fill="white"/>
<path opacity="0.2" d="M172.286 64.6728C172.375 64.5386 172.409 64.3754 172.382 64.2167C172.354 64.0579 172.267 63.9157 172.139 63.8191L163.578 57.7619C163.512 57.7153 163.438 57.6821 163.36 57.6643C163.281 57.6465 163.2 57.6444 163.121 57.6581C163.041 57.6718 162.965 57.7011 162.897 57.7442C162.829 57.7873 162.771 57.8435 162.724 57.9094C162.675 57.974 162.639 58.0482 162.62 58.1272C162.601 58.2062 162.598 58.2883 162.612 58.3685C162.625 58.4486 162.656 58.5251 162.701 58.593C162.745 58.6609 162.804 58.7188 162.872 58.7631L171.432 64.8204C171.498 64.867 171.572 64.9001 171.651 64.9179C171.729 64.9357 171.81 64.9378 171.89 64.9241C171.969 64.9104 172.045 64.8812 172.113 64.8381C172.181 64.7949 172.24 64.7388 172.286 64.6728V64.6728Z" fill="white"/>
<path opacity="0.2" d="M166.067 73.4661C166.116 73.4014 166.152 73.3272 166.171 73.2482C166.19 73.1692 166.193 73.0871 166.179 73.007C166.166 72.9268 166.135 72.8504 166.091 72.7825C166.046 72.7146 165.988 72.6566 165.919 72.6123L157.359 66.5551C157.294 66.5057 157.22 66.4702 157.141 66.4508C157.062 66.4314 156.98 66.4286 156.9 66.4425C156.82 66.4563 156.743 66.4865 156.675 66.5313C156.607 66.5761 156.549 66.6344 156.505 66.7026C156.459 66.7683 156.425 66.8425 156.408 66.921C156.39 66.9995 156.388 67.0808 156.401 67.1601C156.415 67.2395 156.444 67.3153 156.488 67.3833C156.531 67.4513 156.587 67.5102 156.653 67.5564L165.213 73.6135C165.279 73.6601 165.353 73.6933 165.431 73.7111C165.51 73.7289 165.591 73.731 165.671 73.7173C165.75 73.7036 165.826 73.6743 165.894 73.6312C165.962 73.5881 166.021 73.532 166.067 73.4661V73.4661Z" fill="white"/>
<path opacity="0.2" d="M159.873 82.2446C159.962 82.1103 159.996 81.9471 159.969 81.7883C159.941 81.6296 159.854 81.4874 159.725 81.3908L151.145 75.3288C151.011 75.2398 150.848 75.2055 150.689 75.2329C150.53 75.2604 150.388 75.3474 150.291 75.4762C150.201 75.6131 150.165 75.779 150.192 75.941C150.218 76.1029 150.305 76.2489 150.434 76.3498L158.999 82.3872C159.134 82.4827 159.302 82.5213 159.465 82.4946C159.629 82.4679 159.775 82.3781 159.873 82.2446Z" fill="white"/>
<path opacity="0.2" d="M153.653 91.0376C153.742 90.9034 153.777 90.7402 153.749 90.5815C153.722 90.4228 153.635 90.2806 153.506 90.1839L144.946 84.1267C144.88 84.0801 144.806 84.047 144.727 84.0292C144.649 84.0114 144.567 84.0092 144.488 84.0229C144.409 84.0367 144.333 84.0659 144.265 84.109C144.197 84.1521 144.138 84.2083 144.092 84.2742C144.042 84.3389 144.007 84.413 143.988 84.492C143.968 84.571 143.965 84.6532 143.979 84.7333C143.993 84.8135 144.023 84.8899 144.068 84.9578C144.113 85.0257 144.171 85.0836 144.239 85.128L152.899 91.2094C153.025 91.2723 153.169 91.2896 153.307 91.2583C153.444 91.227 153.567 91.149 153.653 91.0376V91.0376Z" fill="white"/>
<path opacity="0.2" d="M147.434 99.8312C147.484 99.7666 147.519 99.6924 147.539 99.6134C147.558 99.5344 147.561 99.4523 147.547 99.3722C147.533 99.292 147.503 99.2156 147.458 99.1477C147.413 99.0798 147.355 99.0218 147.287 98.9775L138.726 92.9203C138.662 92.871 138.588 92.8354 138.509 92.8161C138.43 92.7967 138.347 92.7938 138.267 92.8077C138.187 92.8215 138.111 92.8517 138.043 92.8965C137.975 92.9413 137.917 92.9996 137.873 93.0678C137.826 93.1335 137.793 93.2077 137.775 93.2862C137.757 93.3648 137.755 93.446 137.769 93.5254C137.783 93.6047 137.812 93.6805 137.855 93.7485C137.898 93.8165 137.954 93.8754 138.02 93.9216L146.561 99.9739C146.627 100.024 146.702 100.06 146.783 100.08C146.863 100.1 146.946 100.103 147.028 100.09C147.11 100.076 147.188 100.047 147.258 100.002C147.328 99.9578 147.388 99.8996 147.434 99.8312V99.8312Z" fill="white"/>
<path opacity="0.2" d="M141.24 108.609C141.329 108.475 141.364 108.312 141.336 108.153C141.309 107.994 141.222 107.852 141.093 107.756L132.513 101.694C132.378 101.605 132.215 101.57 132.057 101.598C131.898 101.625 131.756 101.712 131.659 101.841C131.568 101.978 131.533 102.144 131.559 102.306C131.586 102.468 131.672 102.614 131.802 102.715L140.367 108.752C140.502 108.848 140.669 108.886 140.833 108.859C140.996 108.833 141.143 108.743 141.24 108.609Z" fill="white"/>
<path opacity="0.2" d="M135.021 117.403C135.068 117.337 135.101 117.263 135.119 117.185C135.136 117.106 135.139 117.025 135.125 116.946C135.111 116.866 135.082 116.79 135.039 116.722C134.996 116.654 134.939 116.596 134.874 116.549L126.313 110.492C126.248 110.445 126.173 110.412 126.095 110.395C126.016 110.377 125.935 110.375 125.856 110.388C125.776 110.402 125.7 110.431 125.632 110.474C125.564 110.517 125.506 110.574 125.459 110.64C125.41 110.704 125.375 110.778 125.355 110.857C125.336 110.936 125.333 111.019 125.347 111.099C125.361 111.179 125.391 111.255 125.436 111.323C125.48 111.391 125.539 111.449 125.607 111.493L134.167 117.551C134.302 117.64 134.465 117.674 134.624 117.646C134.782 117.619 134.924 117.532 135.021 117.403Z" fill="white"/>
<path opacity="0.2" d="M128.802 126.196C128.851 126.131 128.887 126.057 128.906 125.978C128.926 125.899 128.929 125.817 128.915 125.737C128.901 125.657 128.871 125.58 128.826 125.512C128.781 125.445 128.723 125.387 128.655 125.342L120.094 119.285C120.03 119.236 119.955 119.2 119.876 119.181C119.797 119.161 119.715 119.159 119.635 119.172C119.555 119.186 119.478 119.217 119.411 119.261C119.343 119.306 119.285 119.364 119.24 119.433C119.194 119.498 119.161 119.573 119.143 119.651C119.125 119.73 119.123 119.811 119.137 119.89C119.15 119.969 119.18 120.045 119.223 120.113C119.266 120.181 119.322 120.24 119.388 120.286L127.948 126.344C128.014 126.39 128.088 126.423 128.167 126.441C128.245 126.459 128.327 126.461 128.406 126.447C128.485 126.434 128.561 126.404 128.629 126.361C128.697 126.318 128.756 126.262 128.802 126.196V126.196Z" fill="white"/>
<path opacity="0.2" d="M122.598 135.014C122.687 134.88 122.721 134.717 122.694 134.558C122.667 134.399 122.579 134.257 122.451 134.16L113.87 128.098C113.736 128.009 113.573 127.975 113.414 128.003C113.256 128.03 113.113 128.117 113.017 128.246C112.97 128.312 112.937 128.386 112.919 128.464C112.901 128.543 112.899 128.624 112.913 128.703C112.927 128.783 112.956 128.859 112.999 128.927C113.042 128.995 113.098 129.053 113.164 129.1L121.725 135.157C121.86 135.252 122.027 135.291 122.191 135.264C122.354 135.238 122.5 135.148 122.598 135.014V135.014Z" fill="white"/>
<path opacity="0.2" d="M116.389 143.768C116.435 143.703 116.468 143.628 116.486 143.55C116.504 143.471 116.506 143.39 116.492 143.311C116.479 143.231 116.45 143.156 116.406 143.088C116.363 143.02 116.307 142.961 116.241 142.915L107.681 136.857C107.615 136.811 107.541 136.778 107.462 136.76C107.384 136.742 107.303 136.74 107.223 136.754C107.144 136.767 107.068 136.797 107 136.84C106.932 136.883 106.873 136.939 106.827 137.005C106.778 137.069 106.742 137.144 106.723 137.223C106.703 137.302 106.7 137.384 106.714 137.464C106.728 137.544 106.758 137.621 106.803 137.688C106.848 137.756 106.906 137.814 106.974 137.859L115.535 143.916C115.669 144.005 115.832 144.039 115.991 144.012C116.15 143.984 116.292 143.897 116.389 143.768Z" fill="white"/>
<path opacity="0.2" d="M110.17 152.561C110.265 152.426 110.304 152.259 110.277 152.095C110.251 151.932 110.161 151.786 110.027 151.688L101.462 145.65C101.397 145.601 101.323 145.566 101.244 145.546C101.165 145.527 101.083 145.524 101.003 145.538C100.923 145.552 100.846 145.582 100.778 145.627C100.711 145.671 100.653 145.73 100.608 145.798C100.562 145.864 100.529 145.938 100.511 146.016C100.493 146.095 100.491 146.176 100.504 146.255C100.518 146.335 100.547 146.411 100.591 146.479C100.634 146.547 100.69 146.605 100.756 146.652L109.311 152.729C109.378 152.775 109.454 152.808 109.534 152.824C109.614 152.841 109.696 152.842 109.776 152.826C109.856 152.81 109.932 152.779 110 152.733C110.067 152.688 110.125 152.629 110.17 152.561V152.561Z" fill="white"/>
<path opacity="0.2" d="M103.975 161.34C104.064 161.205 104.099 161.042 104.071 160.883C104.044 160.725 103.957 160.583 103.828 160.486L95.2476 154.424C95.1133 154.335 94.9501 154.301 94.7914 154.328C94.6327 154.356 94.4904 154.443 94.3938 154.571C94.3472 154.637 94.3141 154.711 94.2963 154.79C94.2785 154.868 94.2763 154.95 94.29 155.029C94.3037 155.108 94.333 155.184 94.3761 155.252C94.4192 155.32 94.4754 155.379 94.5413 155.425L103.102 161.482C103.237 161.578 103.404 161.616 103.568 161.59C103.731 161.563 103.877 161.473 103.975 161.34V161.34Z" fill="white"/>
<path d="M129.05 35.9697C129.47 35.7918 129.848 35.528 130.16 35.1952C130.472 34.8625 130.71 34.4681 130.86 34.0375L136.703 16.7317C136.966 15.9755 136.932 15.148 136.608 14.416C136.284 13.6839 135.695 13.1018 134.96 12.7869L117.62 5.17208C117.215 4.99922 116.778 4.91142 116.338 4.91415C115.898 4.91688 115.462 5.01007 115.06 5.18794L83.0686 19.1851C82.3291 19.517 81.7424 20.116 81.4258 20.8621C81.1092 21.6082 81.0861 22.4463 81.3611 23.2087L90.3686 48.1439C90.5133 48.5497 90.739 48.9218 91.0319 49.2378C91.3249 49.5537 91.6789 49.8068 92.0727 49.9818C92.4664 50.1567 92.8916 50.2498 93.3224 50.2555C93.7532 50.2611 94.1806 50.1791 94.5788 50.0145L129.05 35.9697ZM129.382 17.4479C129.294 17.1755 129.261 16.8884 129.284 16.6032C129.308 16.3179 129.388 16.0402 129.52 15.786C129.651 15.5318 129.832 15.3062 130.051 15.1222C130.27 14.9383 130.524 14.7997 130.797 14.7143C131.068 14.6242 131.354 14.5891 131.639 14.6108C131.924 14.6326 132.201 14.7109 132.455 14.8411C132.709 14.9713 132.935 15.1509 133.119 15.3693C133.303 15.5876 133.441 15.8405 133.526 16.113C133.655 16.6484 133.577 17.2127 133.308 17.6929C133.038 18.1732 132.598 18.5339 132.073 18.7027C131.549 18.8715 130.981 18.836 130.481 18.6033C129.982 18.3707 129.59 17.9579 129.382 17.4479Z" fill="#F9701F"/>
<path opacity="0.6" d="M129.05 35.9697C129.47 35.7918 129.848 35.528 130.16 35.1952C130.472 34.8625 130.71 34.4681 130.86 34.0375L136.703 16.7317C136.966 15.9755 136.932 15.148 136.608 14.416C136.284 13.6839 135.695 13.1018 134.96 12.7869L117.62 5.17208C117.215 4.99922 116.778 4.91142 116.338 4.91415C115.898 4.91688 115.462 5.01007 115.06 5.18794L83.0686 19.1851C82.3291 19.517 81.7424 20.116 81.4258 20.8621C81.1092 21.6082 81.0861 22.4463 81.3611 23.2087L90.3686 48.1439C90.5133 48.5497 90.739 48.9218 91.0319 49.2378C91.3249 49.5537 91.6789 49.8068 92.0727 49.9818C92.4664 50.1567 92.8916 50.2498 93.3224 50.2555C93.7532 50.2611 94.1806 50.1791 94.5788 50.0145L129.05 35.9697ZM129.382 17.4479C129.294 17.1755 129.261 16.8884 129.284 16.6032C129.308 16.3179 129.388 16.0402 129.52 15.786C129.651 15.5318 129.832 15.3062 130.051 15.1222C130.27 14.9383 130.524 14.7997 130.797 14.7143C131.068 14.6242 131.354 14.5891 131.639 14.6108C131.924 14.6326 132.201 14.7109 132.455 14.8411C132.709 14.9713 132.935 15.1509 133.119 15.3693C133.303 15.5876 133.441 15.8405 133.526 16.113C133.655 16.6484 133.577 17.2127 133.308 17.6929C133.038 18.1732 132.598 18.5339 132.073 18.7027C131.549 18.8715 130.981 18.836 130.481 18.6033C129.982 18.3707 129.59 17.9579 129.382 17.4479Z" fill="white"/>
<path d="M185.446 28.7799C185.541 28.9904 185.548 29.23 185.466 29.4458C185.384 29.6617 185.22 29.8362 185.009 29.9309C184.799 30.0257 184.559 30.0329 184.343 29.951C184.128 29.8691 183.953 29.7049 183.858 29.4943C168.863 6.98044 131.965 17.3189 131.604 17.4342C131.384 17.4938 131.149 17.4634 130.952 17.3499C130.754 17.2364 130.609 17.049 130.55 16.829C130.49 16.6089 130.521 16.3742 130.634 16.1765C130.748 15.9789 130.935 15.8343 131.155 15.7748C131.537 15.6716 169.688 4.95876 185.329 28.5445C185.383 28.6144 185.423 28.6945 185.446 28.7799Z" fill="#263238"/>
<path d="M94.6578 21.2902L97.9517 26.6353C97.4976 27.053 97.0999 27.5283 96.7688 28.049C96.5522 28.5254 96.4252 29.0377 96.3942 29.5602L100.848 27.6932C100.349 25.2678 100.356 22.7658 100.866 20.3429C101.167 19.423 101.668 18.5812 102.334 17.8783C102.999 17.1753 103.812 16.6285 104.714 16.2772C105.784 15.8151 106.954 15.6301 108.115 15.7394C109.214 15.83 110.283 16.1448 111.256 16.6645C112.165 17.1431 112.977 17.788 113.648 18.5657C114.393 19.4754 115.012 20.4811 115.488 21.5559L116.269 21.2287C116.416 21.1652 116.573 21.1315 116.733 21.1294C116.893 21.1274 117.051 21.1571 117.199 21.2167C117.347 21.2763 117.482 21.3648 117.596 21.4769C117.71 21.5891 117.8 21.7227 117.862 21.87V21.87C117.926 22.0176 117.96 22.1765 117.961 22.3374C117.963 22.4983 117.932 22.6579 117.871 22.8068C117.81 22.9557 117.72 23.0909 117.606 23.2045C117.492 23.3181 117.357 23.4078 117.208 23.4683L116.427 23.7955C116.877 25.0786 117.15 26.4172 117.237 27.7742C117.282 28.8099 117.129 29.8447 116.785 30.8227C116.479 31.7047 116.018 32.5249 115.423 33.2445C114.766 33.9992 113.999 34.6504 113.148 35.1761L109.824 29.2568C110.557 28.8311 111.199 28.2654 111.714 27.5919C112.068 26.9674 112.254 26.2621 112.255 25.5444L106.829 27.8191C107.082 29.4879 107.2 31.1742 107.182 32.8619C107.093 34.0686 106.661 35.2247 105.938 36.1944C105.214 37.1641 104.229 37.9071 103.097 38.336C102.253 38.7131 101.339 38.9087 100.414 38.9102C99.4896 38.9116 98.5749 38.7189 97.7293 38.3444C95.7149 37.3136 94.1388 35.5923 93.289 33.4951L92.8923 33.6614C92.7446 33.7253 92.5857 33.759 92.4248 33.7606C92.2639 33.7622 92.1044 33.7317 91.9555 33.6708C91.8066 33.6098 91.6713 33.5197 91.5577 33.4058C91.4442 33.2919 91.3545 33.1564 91.294 33.0073V33.0073C91.2322 32.86 91.2003 32.7019 91.2001 32.5422C91.1999 32.3825 91.2313 32.2243 91.2927 32.0768C91.354 31.9294 91.444 31.7955 91.5574 31.6831C91.6708 31.5706 91.8055 31.4818 91.9535 31.4218L92.3502 31.2555C91.5668 29.3712 91.3674 27.2951 91.778 25.2962C92.2241 23.6576 93.2467 22.2351 94.6578 21.2902ZM97.2563 31.832C97.6089 32.3001 98.0877 32.6578 98.6366 32.8633C99.0627 32.9861 99.5183 32.9548 99.9237 32.7752C100.357 32.6059 100.72 32.2946 100.953 31.8923C101.199 31.3553 101.288 30.7598 101.211 30.1743L97.2563 31.832ZM111.47 23.2405C111.051 22.5657 110.435 22.036 109.705 21.7232C109.136 21.5042 108.504 21.5155 107.943 21.7547C107.476 21.9687 107.099 22.3397 106.878 22.8031C106.576 23.5933 106.479 24.4466 106.594 25.2845L111.47 23.2405Z" fill="#F9701F"/>
<path d="M264.926 277.588C282.652 252.665 268.805 236.562 276.549 222.867C283.757 210.218 308.788 209.889 314.653 188.044C314.788 187.583 314.78 187.092 314.63 186.635C314.48 186.179 314.195 185.779 313.813 185.487C313.431 185.196 312.97 185.027 312.491 185.003C312.011 184.978 311.535 185.1 311.126 185.351C303.053 190.453 287.816 199.458 276.112 183.999L259.906 179.978C250.123 180.306 242.32 166.143 249.282 156.386C250.447 154.762 247.962 152.699 246.062 153.565C242.941 154.907 240.204 157.005 238.098 159.67C235.991 162.334 234.581 165.482 233.994 168.827C232.546 176.608 231.783 182.101 228.913 186.119C217.789 201.731 196.713 193.659 180.011 217.138C168.961 232.649 179.021 258.764 202.461 275.462C225.902 292.16 253.882 293.115 264.926 277.588Z" fill="#F9701F"/>
<path opacity="0.6" d="M264.926 277.588C282.652 252.665 268.805 236.562 276.549 222.867C283.757 210.218 308.788 209.889 314.653 188.044C314.788 187.583 314.78 187.092 314.63 186.635C314.48 186.179 314.195 185.779 313.813 185.487C313.431 185.196 312.97 185.027 312.491 185.003C312.011 184.978 311.535 185.1 311.126 185.351C303.053 190.453 287.816 199.458 276.112 183.999L259.906 179.978C250.123 180.306 242.32 166.143 249.282 156.386C250.447 154.762 247.962 152.699 246.062 153.565C242.941 154.907 240.204 157.005 238.098 159.67C235.991 162.334 234.581 165.482 233.994 168.827C232.546 176.608 231.783 182.101 228.913 186.119C217.789 201.731 196.713 193.659 180.011 217.138C168.961 232.649 179.021 258.764 202.461 275.462C225.902 292.16 253.882 293.115 264.926 277.588Z" fill="white"/>
<path d="M243.948 162.495C244.013 162.241 243.991 161.973 243.883 161.734C243.776 161.495 243.591 161.299 243.358 161.18C243.125 161.06 242.858 161.023 242.601 161.075C242.344 161.127 242.113 161.265 241.945 161.466C239.338 164.87 236.072 170.999 234.235 181.427C231.236 198.568 200.701 201.889 195.199 206.646C189.696 211.403 200.637 212.444 210.414 213.344C234.239 215.509 233.533 242.992 251.52 234.766C261.469 230.237 258.16 222.191 264.816 212.823C271.824 202.883 281.1 202.644 280.091 197.545C279.082 192.445 267.235 191.005 267.235 191.005L263.505 183.184C263.505 183.184 256.648 185.974 249.49 179.678C247.009 177.652 245.167 174.952 244.184 171.904C243.201 168.856 243.119 165.588 243.948 162.495Z" fill="#F9701F"/>
<path d="M213.362 208.611C212.816 208.222 212.447 207.633 212.336 206.973C212.225 206.312 212.381 205.635 212.769 205.089C213.158 204.544 213.747 204.175 214.407 204.064C215.067 203.953 215.745 204.109 216.29 204.497C216.56 204.689 216.79 204.933 216.966 205.214C217.142 205.495 217.261 205.808 217.316 206.135C217.371 206.462 217.361 206.796 217.287 207.12C217.212 207.443 217.075 207.748 216.883 208.018C216.691 208.288 216.447 208.518 216.166 208.694C215.885 208.87 215.572 208.989 215.245 209.044C214.918 209.099 214.583 209.089 214.26 209.014C213.937 208.94 213.632 208.803 213.362 208.611V208.611Z" fill="white"/>
<path d="M203.173 208.582C202.959 208.431 202.777 208.239 202.637 208.017C202.497 207.795 202.403 207.548 202.358 207.29C202.314 207.031 202.321 206.767 202.379 206.511C202.437 206.255 202.545 206.014 202.696 205.8C202.848 205.586 203.04 205.404 203.262 205.264C203.483 205.124 203.731 205.029 203.989 204.985C204.247 204.941 204.512 204.948 204.768 205.006C205.023 205.064 205.265 205.172 205.479 205.323C205.693 205.475 205.875 205.667 206.015 205.888C206.155 206.11 206.249 206.357 206.293 206.616C206.338 206.874 206.331 207.139 206.273 207.394C206.215 207.65 206.107 207.892 205.955 208.106C205.804 208.32 205.612 208.502 205.39 208.642C205.168 208.781 204.921 208.876 204.663 208.92C204.404 208.965 204.14 208.957 203.884 208.899C203.629 208.841 203.387 208.734 203.173 208.582Z" fill="white"/>
<path d="M239.719 241.82L245.194 234.127C245.665 233.466 245.51 232.549 244.849 232.078L229.606 221.228C228.946 220.758 228.028 220.912 227.558 221.573L222.082 229.266C221.612 229.927 221.766 230.844 222.427 231.314L237.67 242.164C238.331 242.635 239.248 242.48 239.719 241.82Z" fill="black"/>
<path d="M261.501 207.249C261.744 206.911 261.842 206.49 261.775 206.078C261.708 205.667 261.48 205.299 261.142 205.056L249.802 196.989C249.64 196.836 249.447 196.719 249.236 196.646C249.025 196.573 248.801 196.546 248.579 196.566C248.357 196.586 248.141 196.653 247.947 196.763C247.753 196.873 247.584 197.023 247.452 197.203C247.32 197.383 247.228 197.588 247.182 197.807C247.136 198.025 247.136 198.251 247.184 198.469C247.231 198.687 247.325 198.892 247.458 199.071C247.591 199.25 247.76 199.399 247.955 199.508L259.296 207.575C259.462 207.698 259.651 207.788 259.851 207.839C260.052 207.889 260.261 207.9 260.466 207.87C260.671 207.839 260.868 207.769 261.045 207.663C261.223 207.556 261.378 207.416 261.501 207.249V207.249Z" fill="white"/>
<path d="M255.332 215.904C255.453 215.736 255.539 215.546 255.586 215.345C255.632 215.144 255.638 214.935 255.603 214.732C255.568 214.528 255.493 214.333 255.382 214.159C255.272 213.985 255.127 213.834 254.957 213.716L243.633 205.644C243.298 205.457 242.906 205.399 242.532 205.481C242.157 205.562 241.825 205.778 241.598 206.088C241.371 206.397 241.265 206.779 241.3 207.161C241.334 207.543 241.508 207.899 241.787 208.162L253.127 216.229C253.292 216.355 253.481 216.447 253.682 216.499C253.883 216.551 254.093 216.562 254.298 216.532C254.504 216.501 254.701 216.43 254.879 216.322C255.056 216.215 255.211 216.072 255.332 215.904V215.904Z" fill="white"/>
<path d="M250.215 222.566C250.356 222.185 250.344 221.764 250.18 221.393C250.015 221.021 249.712 220.729 249.335 220.578L236.28 215.762C236.083 215.676 235.871 215.63 235.656 215.629C235.441 215.628 235.228 215.671 235.03 215.755C234.832 215.839 234.653 215.963 234.505 216.119C234.357 216.275 234.243 216.46 234.169 216.662C234.095 216.864 234.063 217.079 234.076 217.294C234.088 217.509 234.144 217.718 234.241 217.911C234.338 218.103 234.473 218.273 234.638 218.411C234.803 218.549 234.995 218.651 235.201 218.712L248.256 223.528C248.643 223.652 249.064 223.621 249.429 223.441C249.794 223.262 250.076 222.948 250.215 222.566V222.566Z" fill="white"/>
<path d="M358.119 58.0969L358.517 56.0969C358.53 56.042 358.531 55.985 358.521 55.9296C358.51 55.8742 358.488 55.8217 358.455 55.7755C358.423 55.7293 358.381 55.6904 358.333 55.6613C358.285 55.6322 358.231 55.6136 358.175 55.6068L357.358 55.4534C357.304 55.4433 357.247 55.4441 357.193 55.4559C357.139 55.4677 357.087 55.4903 357.041 55.5222C356.996 55.554 356.957 55.5947 356.927 55.6417C356.897 55.6888 356.877 55.7413 356.868 55.7962L356.804 56.135L354.538 55.7207L354.297 57.07L356.563 57.4844L356.488 57.8455C356.478 57.9003 356.478 57.9565 356.49 58.0109C356.502 58.0653 356.525 58.1168 356.556 58.1624C356.588 58.208 356.629 58.2468 356.676 58.2766C356.723 58.3064 356.776 58.3264 356.83 58.3357L357.647 58.4891C357.76 58.4946 357.872 58.4574 357.959 58.3848C358.047 58.3122 358.104 58.2095 358.119 58.0969V58.0969Z" fill="black"/>
<path d="M357.255 62.7898L357.653 60.7898C357.674 60.6764 357.649 60.5596 357.583 60.4648C357.518 60.3699 357.418 60.3046 357.305 60.2831L356.494 60.1462C356.44 60.1351 356.385 60.1346 356.33 60.145C356.276 60.1553 356.225 60.1763 356.179 60.2066C356.133 60.2369 356.093 60.2759 356.062 60.3216C356.031 60.3672 356.009 60.4185 355.998 60.4725L355.94 60.8278L353.674 60.4135L353.41 61.7523L355.682 62.1831L355.624 62.5384C355.614 62.5931 355.614 62.6493 355.626 62.7037C355.638 62.7581 355.661 62.8096 355.692 62.8552C355.724 62.9008 355.765 62.9397 355.812 62.9694C355.859 62.9992 355.912 63.0193 355.966 63.0285L356.783 63.1819C356.896 63.1874 357.008 63.1502 357.095 63.0776C357.183 63.005 357.24 62.9023 357.255 62.7898V62.7898Z" fill="black"/>
<path d="M356.392 67.483L356.79 65.483C356.81 65.3696 356.785 65.2529 356.72 65.158C356.654 65.0631 356.554 64.9978 356.441 64.9763L355.631 64.8395C355.577 64.8283 355.521 64.8279 355.467 64.8382C355.413 64.8486 355.361 64.8695 355.315 64.8998C355.269 64.9301 355.229 64.9692 355.198 65.0148C355.167 65.0604 355.146 65.1117 355.134 65.1657L355.076 65.521L352.81 65.1067L352.547 66.4455L354.818 66.8763L354.76 67.2316C354.75 67.2863 354.751 67.3425 354.762 67.3969C354.774 67.4513 354.797 67.5028 354.829 67.5484C354.861 67.594 354.901 67.6329 354.948 67.6626C354.995 67.6924 355.048 67.7125 355.103 67.7217L355.919 67.8751C356.033 67.8806 356.144 67.8434 356.232 67.7708C356.319 67.6983 356.376 67.5956 356.392 67.483V67.483Z" fill="black"/>
<path d="M355.528 72.1755L355.926 70.1755C355.946 70.0621 355.921 69.9454 355.856 69.8505C355.79 69.7556 355.69 69.6903 355.577 69.6688L354.767 69.532C354.713 69.5208 354.657 69.5204 354.603 69.5307C354.549 69.5411 354.497 69.562 354.451 69.5923C354.405 69.6226 354.365 69.6617 354.334 69.7073C354.303 69.7529 354.282 69.8042 354.271 69.8582L354.196 70.2194L351.93 69.8051L351.683 71.138L353.955 71.5688L353.896 71.9241C353.886 71.9788 353.887 72.035 353.899 72.0894C353.91 72.1438 353.933 72.1953 353.965 72.2409C353.997 72.2865 354.037 72.3254 354.084 72.3551C354.131 72.3849 354.184 72.405 354.239 72.4142L355.049 72.5511C355.106 72.5593 355.163 72.556 355.218 72.5414C355.273 72.5267 355.324 72.5011 355.369 72.4659C355.414 72.4308 355.451 72.3869 355.478 72.337C355.506 72.2871 355.522 72.2321 355.528 72.1755V72.1755Z" fill="black"/>
<path d="M354.664 76.8683L355.062 74.8683C355.078 74.7556 355.051 74.6409 354.987 74.5471C354.922 74.4533 354.825 74.3871 354.714 74.3617L353.903 74.2248C353.849 74.2136 353.793 74.2132 353.739 74.2236C353.685 74.2339 353.633 74.2548 353.587 74.2851C353.541 74.3155 353.502 74.3545 353.471 74.4002C353.44 74.4458 353.418 74.4971 353.407 74.5511L353.332 74.9123L351.066 74.4979L350.819 75.8309L353.091 76.2616L353.032 76.6169C353.022 76.6717 353.023 76.7279 353.035 76.7823C353.047 76.8367 353.069 76.8882 353.101 76.9338C353.133 76.9794 353.174 77.0182 353.221 77.048C353.268 77.0777 353.32 77.0978 353.375 77.1071L354.186 77.244C354.242 77.2522 354.299 77.2489 354.354 77.2342C354.409 77.2196 354.461 77.1939 354.506 77.1588C354.55 77.1237 354.587 77.0798 354.615 77.0299C354.642 76.9799 354.659 76.925 354.664 76.8683V76.8683Z" fill="black"/>
<path d="M353.718 81.5909L354.116 79.5909C354.128 79.4787 354.1 79.3659 354.036 79.273C353.972 79.18 353.877 79.1131 353.768 79.0842L352.957 78.9473C352.903 78.9362 352.847 78.9357 352.793 78.9461C352.739 78.9564 352.687 78.9774 352.641 79.0077C352.595 79.038 352.556 79.0771 352.525 79.1227C352.494 79.1683 352.472 79.2196 352.461 79.2736L352.386 79.6348L350.12 79.2205L349.873 80.5534L352.145 80.9842L352.086 81.3394C352.076 81.3942 352.077 81.4504 352.089 81.5048C352.101 81.5592 352.123 81.6107 352.155 81.6563C352.187 81.7019 352.228 81.7407 352.275 81.7705C352.322 81.8003 352.374 81.8204 352.429 81.8296L353.24 81.9665C353.296 81.9747 353.353 81.9714 353.408 81.9568C353.463 81.9421 353.515 81.9164 353.56 81.8813C353.604 81.8462 353.641 81.8023 353.669 81.7524C353.696 81.7024 353.713 81.6475 353.718 81.5909Z" fill="black"/>
<path opacity="0.2" d="M239.719 241.82L245.194 234.127C245.665 233.466 245.51 232.549 244.849 232.078L229.606 221.228C228.946 220.758 228.028 220.912 227.558 221.573L222.082 229.266C221.612 229.927 221.766 230.844 222.427 231.314L237.67 242.164C238.331 242.635 239.248 242.48 239.719 241.82Z" fill="white"/>
<path d="M267.209 198.295L344.095 87.6008L333.643 80.2L254.223 189.109C253.983 189.435 253.81 189.807 253.714 190.201C253.619 190.595 253.602 191.004 253.666 191.405C253.73 191.805 253.873 192.189 254.087 192.534C254.3 192.879 254.58 193.178 254.911 193.413L262.941 199.136C263.276 199.364 263.653 199.522 264.049 199.603C264.445 199.683 264.854 199.684 265.251 199.606C265.648 199.528 266.025 199.372 266.361 199.147C266.697 198.922 266.986 198.632 267.209 198.295Z" fill="black"/>
<path opacity="0.2" d="M267.209 198.295L344.095 87.6008L333.643 80.2L254.223 189.109C253.983 189.435 253.81 189.807 253.714 190.201C253.619 190.595 253.602 191.004 253.666 191.405C253.73 191.805 253.873 192.189 254.087 192.534C254.3 192.879 254.58 193.178 254.911 193.413L262.941 199.136C263.276 199.364 263.653 199.522 264.049 199.603C264.445 199.683 264.854 199.684 265.251 199.606C265.648 199.528 266.025 199.372 266.361 199.147C266.697 198.922 266.986 198.632 267.209 198.295Z" fill="white"/>
<path opacity="0.2" d="M358.119 58.0969L358.517 56.0969C358.53 56.042 358.531 55.985 358.521 55.9296C358.51 55.8742 358.488 55.8217 358.455 55.7755C358.423 55.7293 358.381 55.6904 358.333 55.6613C358.285 55.6322 358.231 55.6136 358.175 55.6068L357.358 55.4534C357.304 55.4433 357.247 55.4441 357.193 55.4559C357.139 55.4677 357.087 55.4903 357.041 55.5222C356.996 55.554 356.957 55.5947 356.927 55.6417C356.897 55.6888 356.877 55.7413 356.868 55.7962L356.804 56.135L354.538 55.7207L354.297 57.07L356.563 57.4844L356.488 57.8455C356.478 57.9003 356.478 57.9565 356.49 58.0109C356.502 58.0653 356.525 58.1168 356.556 58.1624C356.588 58.208 356.629 58.2468 356.676 58.2766C356.723 58.3064 356.776 58.3264 356.83 58.3357L357.647 58.4891C357.76 58.4946 357.872 58.4574 357.959 58.3848C358.047 58.3122 358.104 58.2095 358.119 58.0969V58.0969Z" fill="white"/>
<path opacity="0.2" d="M357.255 62.7898L357.653 60.7898C357.674 60.6764 357.649 60.5596 357.583 60.4648C357.518 60.3699 357.418 60.3046 357.305 60.2831L356.494 60.1462C356.44 60.1351 356.385 60.1346 356.33 60.145C356.276 60.1553 356.225 60.1763 356.179 60.2066C356.133 60.2369 356.093 60.2759 356.062 60.3216C356.031 60.3672 356.009 60.4185 355.998 60.4725L355.94 60.8278L353.674 60.4135L353.41 61.7523L355.682 62.1831L355.624 62.5384C355.614 62.5931 355.614 62.6493 355.626 62.7037C355.638 62.7581 355.661 62.8096 355.692 62.8552C355.724 62.9008 355.765 62.9397 355.812 62.9694C355.859 62.9992 355.912 63.0193 355.966 63.0285L356.783 63.1819C356.896 63.1874 357.008 63.1502 357.095 63.0776C357.183 63.005 357.24 62.9023 357.255 62.7898V62.7898Z" fill="white"/>
<path opacity="0.2" d="M356.392 67.483L356.79 65.483C356.81 65.3696 356.785 65.2529 356.72 65.158C356.654 65.0631 356.554 64.9978 356.441 64.9763L355.631 64.8395C355.577 64.8283 355.521 64.8279 355.467 64.8382C355.413 64.8486 355.361 64.8695 355.315 64.8998C355.269 64.9301 355.229 64.9692 355.198 65.0148C355.167 65.0604 355.146 65.1117 355.134 65.1657L355.076 65.521L352.81 65.1067L352.547 66.4455L354.818 66.8763L354.76 67.2316C354.75 67.2863 354.751 67.3425 354.762 67.3969C354.774 67.4513 354.797 67.5028 354.829 67.5484C354.861 67.594 354.901 67.6329 354.948 67.6626C354.995 67.6924 355.048 67.7125 355.103 67.7218L355.919 67.8751C356.033 67.8806 356.144 67.8434 356.232 67.7709C356.319 67.6983 356.376 67.5956 356.392 67.483V67.483Z" fill="white"/>
<path opacity="0.2" d="M355.528 72.1755L355.926 70.1755C355.946 70.0621 355.921 69.9453 355.856 69.8505C355.79 69.7556 355.69 69.6903 355.577 69.6688L354.767 69.532C354.713 69.5208 354.657 69.5204 354.603 69.5307C354.549 69.5411 354.497 69.562 354.451 69.5923C354.405 69.6226 354.365 69.6617 354.334 69.7073C354.303 69.7529 354.282 69.8042 354.271 69.8582L354.196 70.2194L351.93 69.8051L351.683 71.138L353.955 71.5688L353.896 71.924C353.886 71.9788 353.887 72.035 353.899 72.0894C353.91 72.1438 353.933 72.1953 353.965 72.2409C353.997 72.2865 354.037 72.3253 354.084 72.3551C354.131 72.3848 354.184 72.405 354.239 72.4142L355.049 72.5511C355.106 72.5593 355.163 72.556 355.218 72.5414C355.273 72.5267 355.324 72.501 355.369 72.4659C355.414 72.4308 355.451 72.3869 355.478 72.337C355.506 72.287 355.522 72.2321 355.528 72.1755V72.1755Z" fill="white"/>
<path opacity="0.2" d="M354.664 76.8683L355.062 74.8683C355.078 74.7556 355.051 74.6409 354.987 74.5471C354.922 74.4533 354.825 74.3871 354.714 74.3617L353.903 74.2248C353.849 74.2136 353.793 74.2132 353.739 74.2236C353.685 74.2339 353.633 74.2548 353.587 74.2851C353.541 74.3154 353.502 74.3545 353.471 74.4002C353.44 74.4458 353.418 74.4971 353.407 74.5511L353.332 74.9123L351.066 74.4979L350.819 75.8309L353.091 76.2616L353.032 76.6169C353.022 76.6717 353.023 76.7279 353.035 76.7823C353.047 76.8367 353.069 76.8882 353.101 76.9338C353.133 76.9794 353.174 77.0182 353.221 77.048C353.268 77.0777 353.32 77.0978 353.375 77.1071L354.186 77.244C354.242 77.2522 354.299 77.2489 354.354 77.2342C354.409 77.2196 354.461 77.1939 354.506 77.1588C354.55 77.1237 354.587 77.0798 354.615 77.0299C354.642 76.9799 354.659 76.925 354.664 76.8683V76.8683Z" fill="white"/>
<path opacity="0.2" d="M353.718 81.5909L354.116 79.5909C354.128 79.4787 354.1 79.3659 354.036 79.273C353.972 79.18 353.877 79.1131 353.768 79.0842L352.957 78.9473C352.903 78.9362 352.847 78.9357 352.793 78.9461C352.739 78.9564 352.687 78.9774 352.641 79.0077C352.595 79.038 352.556 79.077 352.525 79.1227C352.494 79.1683 352.472 79.2196 352.461 79.2736L352.386 79.6348L350.12 79.2205L349.873 80.5534L352.145 80.9842L352.086 81.3394C352.076 81.3942 352.077 81.4504 352.089 81.5048C352.101 81.5592 352.123 81.6107 352.155 81.6563C352.187 81.7019 352.228 81.7407 352.275 81.7705C352.322 81.8002 352.374 81.8204 352.429 81.8296L353.24 81.9665C353.296 81.9747 353.353 81.9714 353.408 81.9568C353.463 81.9421 353.515 81.9164 353.56 81.8813C353.604 81.8462 353.641 81.8023 353.669 81.7524C353.696 81.7024 353.713 81.6475 353.718 81.5909Z" fill="white"/>
<path d="M344.095 87.601C345.37 86.1632 347.005 85.0904 348.832 84.4925C349.231 84.34 349.584 84.0873 349.857 83.7586C350.129 83.4299 350.313 83.0364 350.389 82.6161L354.954 54.8101C355.113 53.8626 354.892 52.8909 354.339 52.1051C353.787 51.3192 352.947 50.7826 352.002 50.6113V50.6113C351.188 50.4607 350.348 50.5891 349.617 50.9757C348.885 51.3624 348.306 51.9846 347.973 52.7416C346.593 55.9398 344.891 58.9891 342.892 61.8422C340.538 65.0406 337.858 67.986 334.896 70.6314C334.536 70.9572 334.281 71.3835 334.166 71.8554C334.05 72.3272 334.078 72.823 334.247 73.2785C334.701 74.3938 334.878 75.6022 334.764 76.8009C334.65 77.9996 334.248 79.1529 333.592 80.1626L344.095 87.601Z" fill="#F9701F"/>
<path d="M328.343 89.8806C328.43 89.7682 328.556 89.6932 328.697 89.6705C328.837 89.6479 328.98 89.6794 329.098 89.7587L336.549 95.0027C336.605 95.0432 336.653 95.0946 336.69 95.1538C336.726 95.2131 336.751 95.279 336.761 95.3477C336.772 95.4164 336.769 95.4866 336.753 95.5542C336.736 95.6218 336.706 95.6854 336.665 95.7413C336.627 95.8002 336.578 95.8508 336.52 95.8897C336.462 95.9287 336.396 95.9552 336.327 95.9677C336.258 95.9801 336.188 95.9782 336.12 95.962C336.052 95.9458 335.988 95.9158 335.932 95.8737L328.476 90.6133C328.419 90.574 328.37 90.5239 328.332 90.4657C328.295 90.4076 328.269 90.3426 328.257 90.2745C328.245 90.2064 328.246 90.1365 328.261 90.0689C328.275 90.0013 328.304 89.9373 328.343 89.8806V89.8806Z" fill="#F9701F"/>
<path d="M322.948 97.4784C322.985 97.4194 323.035 97.3689 323.093 97.3299C323.151 97.291 323.216 97.2644 323.285 97.252C323.354 97.2396 323.424 97.2415 323.492 97.2577C323.56 97.2738 323.624 97.3039 323.68 97.346L331.137 102.606C331.194 102.646 331.242 102.696 331.28 102.754C331.317 102.812 331.343 102.877 331.355 102.945C331.368 103.013 331.366 103.083 331.352 103.151C331.337 103.218 331.309 103.282 331.269 103.339C331.182 103.451 331.056 103.526 330.916 103.549C330.775 103.572 330.632 103.54 330.514 103.461L323.064 98.217C323.005 98.1781 322.955 98.1274 322.917 98.0682C322.879 98.0091 322.854 97.9426 322.843 97.8732C322.832 97.8037 322.836 97.7328 322.854 97.6648C322.872 97.5968 322.904 97.5334 322.948 97.4784Z" fill="#F9701F"/>
<path d="M317.57 105.125C317.611 105.069 317.662 105.021 317.721 104.984C317.78 104.948 317.846 104.924 317.915 104.913C317.984 104.902 318.054 104.905 318.121 104.922C318.189 104.938 318.253 104.968 318.309 105.009L325.759 110.253C325.848 110.344 325.903 110.463 325.913 110.59C325.923 110.717 325.889 110.843 325.815 110.947C325.742 111.051 325.634 111.126 325.511 111.158C325.388 111.19 325.257 111.179 325.142 111.124L317.686 105.864C317.575 105.779 317.502 105.655 317.48 105.518C317.459 105.38 317.491 105.24 317.57 105.125V105.125Z" fill="#F9701F"/>
<path d="M312.128 112.647C312.21 112.53 312.334 112.449 312.475 112.424C312.615 112.398 312.76 112.428 312.878 112.508L320.334 117.769C320.444 117.853 320.518 117.977 320.54 118.115C320.561 118.252 320.529 118.393 320.45 118.507C320.409 118.564 320.358 118.612 320.299 118.648C320.239 118.685 320.174 118.709 320.105 118.72C320.036 118.731 319.966 118.728 319.898 118.711C319.831 118.694 319.767 118.665 319.711 118.623L312.261 113.379C312.204 113.34 312.155 113.29 312.118 113.232C312.08 113.174 312.054 113.109 312.042 113.04C312.03 112.972 312.031 112.902 312.046 112.835C312.061 112.767 312.089 112.703 312.128 112.647V112.647Z" fill="#F9701F"/>
<path d="M306.733 120.244C306.773 120.188 306.825 120.14 306.884 120.103C306.943 120.067 307.009 120.042 307.078 120.032C307.146 120.021 307.217 120.024 307.284 120.04C307.352 120.057 307.415 120.087 307.471 120.128L314.922 125.372C314.981 125.41 315.031 125.459 315.07 125.517C315.109 125.575 315.136 125.641 315.148 125.71C315.161 125.778 315.159 125.849 315.142 125.917C315.126 125.985 315.096 126.049 315.054 126.105C314.973 126.222 314.848 126.302 314.708 126.328C314.568 126.354 314.423 126.323 314.305 126.243L306.849 120.983C306.792 120.942 306.744 120.891 306.708 120.832C306.671 120.772 306.647 120.707 306.636 120.638C306.625 120.569 306.628 120.499 306.645 120.431C306.661 120.364 306.691 120.3 306.733 120.244V120.244Z" fill="#F9701F"/>
<path d="M301.337 127.842C301.375 127.783 301.424 127.732 301.482 127.693C301.54 127.654 301.606 127.628 301.675 127.615C301.743 127.603 301.814 127.605 301.882 127.621C301.95 127.637 302.014 127.667 302.07 127.709L309.526 132.97C309.583 133.01 309.631 133.061 309.667 133.121C309.704 133.18 309.728 133.246 309.739 133.315C309.75 133.383 309.747 133.454 309.73 133.521C309.714 133.589 309.684 133.652 309.642 133.708C309.558 133.819 309.434 133.892 309.296 133.914C309.159 133.935 309.018 133.903 308.904 133.824L301.453 128.58C301.397 128.54 301.349 128.488 301.312 128.429C301.276 128.37 301.251 128.304 301.241 128.235C301.23 128.166 301.233 128.096 301.249 128.029C301.266 127.961 301.296 127.897 301.337 127.842V127.842Z" fill="#F9701F"/>
<path d="M295.919 135.429C296.006 135.317 296.132 135.242 296.273 135.219C296.413 135.196 296.556 135.228 296.674 135.307L304.125 140.551C304.181 140.592 304.229 140.643 304.266 140.702C304.302 140.762 304.327 140.827 304.337 140.896C304.348 140.965 304.345 141.035 304.328 141.103C304.312 141.17 304.282 141.234 304.241 141.29C304.203 141.349 304.154 141.399 304.096 141.438C304.038 141.477 303.972 141.504 303.903 141.516C303.834 141.529 303.764 141.527 303.696 141.51C303.628 141.494 303.564 141.464 303.508 141.422L296.052 136.162C295.995 136.122 295.946 136.072 295.908 136.014C295.871 135.956 295.845 135.891 295.833 135.823C295.821 135.755 295.822 135.685 295.837 135.617C295.851 135.55 295.88 135.486 295.919 135.429V135.429Z" fill="#F9701F"/>
<path d="M290.524 143.026C290.561 142.968 290.611 142.917 290.669 142.878C290.727 142.839 290.792 142.813 290.861 142.8C290.93 142.788 291 142.79 291.068 142.806C291.136 142.822 291.2 142.852 291.256 142.894L298.713 148.154C298.77 148.194 298.818 148.244 298.856 148.302C298.893 148.36 298.919 148.425 298.931 148.493C298.944 148.561 298.942 148.631 298.927 148.699C298.913 148.766 298.885 148.83 298.845 148.887C298.758 148.999 298.632 149.075 298.492 149.097C298.351 149.12 298.208 149.088 298.09 149.009L290.639 143.765C290.581 143.726 290.531 143.675 290.493 143.616C290.455 143.557 290.43 143.491 290.419 143.421C290.408 143.352 290.412 143.281 290.43 143.213C290.448 143.145 290.48 143.081 290.524 143.026V143.026Z" fill="#F9701F"/>
<path d="M285.122 150.608C285.163 150.551 285.214 150.503 285.273 150.467C285.332 150.43 285.398 150.406 285.467 150.395C285.536 150.384 285.606 150.387 285.674 150.404C285.741 150.42 285.805 150.45 285.861 150.492L293.311 155.736C293.4 155.826 293.455 155.945 293.465 156.072C293.475 156.199 293.441 156.325 293.367 156.429C293.294 156.533 293.186 156.608 293.063 156.64C292.94 156.673 292.809 156.661 292.694 156.607L285.238 151.346C285.128 151.261 285.054 151.138 285.032 151C285.011 150.863 285.043 150.722 285.122 150.608V150.608Z" fill="#F9701F"/>
<path d="M279.71 158.211C279.792 158.094 279.916 158.014 280.057 157.988C280.197 157.962 280.342 157.993 280.46 158.073L287.916 163.333C288.026 163.418 288.1 163.542 288.122 163.679C288.143 163.817 288.111 163.957 288.032 164.072C287.991 164.128 287.94 164.176 287.881 164.213C287.821 164.249 287.756 164.274 287.687 164.284C287.618 164.295 287.548 164.292 287.48 164.276C287.413 164.259 287.349 164.229 287.293 164.188L279.843 158.944C279.786 158.904 279.737 158.854 279.7 158.796C279.662 158.738 279.636 158.673 279.624 158.605C279.612 158.537 279.613 158.467 279.628 158.399C279.643 158.332 279.671 158.268 279.71 158.211V158.211Z" fill="#F9701F"/>
<path d="M274.292 165.798C274.333 165.742 274.384 165.694 274.443 165.657C274.503 165.621 274.569 165.596 274.637 165.586C274.706 165.575 274.776 165.578 274.844 165.594C274.911 165.611 274.975 165.641 275.031 165.682L282.481 170.926C282.54 170.964 282.591 171.013 282.63 171.071C282.669 171.129 282.695 171.195 282.708 171.264C282.72 171.332 282.718 171.403 282.702 171.471C282.686 171.539 282.656 171.603 282.614 171.659C282.532 171.776 282.408 171.856 282.268 171.882C282.127 171.908 281.983 171.877 281.865 171.797L274.408 166.537C274.352 166.496 274.304 166.445 274.267 166.386C274.231 166.326 274.206 166.261 274.196 166.192C274.185 166.123 274.188 166.053 274.204 165.985C274.221 165.918 274.251 165.854 274.292 165.798V165.798Z" fill="#F9701F"/>
<path d="M268.913 173.39C268.951 173.331 269 173.28 269.058 173.241C269.116 173.202 269.182 173.176 269.251 173.164C269.319 173.151 269.39 173.153 269.458 173.169C269.526 173.185 269.59 173.215 269.646 173.257L277.102 178.518C277.159 178.558 277.207 178.61 277.243 178.669C277.28 178.728 277.304 178.794 277.315 178.863C277.326 178.932 277.323 179.002 277.306 179.069C277.289 179.137 277.26 179.201 277.218 179.257C277.133 179.367 277.01 179.441 276.872 179.462C276.735 179.484 276.594 179.452 276.48 179.372L269.029 174.128C268.973 174.088 268.925 174.037 268.888 173.977C268.852 173.918 268.827 173.852 268.817 173.783C268.806 173.715 268.809 173.645 268.825 173.577C268.842 173.509 268.872 173.446 268.913 173.39V173.39Z" fill="#F9701F"/>
<path d="M263.495 180.977C263.582 180.865 263.709 180.789 263.849 180.767C263.989 180.744 264.133 180.776 264.25 180.855L271.701 186.099C271.757 186.14 271.805 186.191 271.842 186.25C271.878 186.309 271.903 186.375 271.913 186.444C271.924 186.513 271.921 186.583 271.905 186.651C271.888 186.718 271.858 186.782 271.817 186.838C271.779 186.897 271.73 186.947 271.672 186.986C271.614 187.025 271.548 187.052 271.479 187.064C271.411 187.076 271.34 187.074 271.272 187.058C271.204 187.042 271.14 187.012 271.084 186.97L263.628 181.71C263.571 181.67 263.522 181.62 263.485 181.562C263.447 181.504 263.421 181.439 263.409 181.371C263.397 181.303 263.398 181.233 263.413 181.165C263.428 181.098 263.456 181.034 263.495 180.977V180.977Z" fill="#F9701F"/>
<path d="M258.099 188.575C258.137 188.516 258.186 188.465 258.245 188.426C258.303 188.387 258.368 188.361 258.437 188.348C258.506 188.336 258.576 188.338 258.644 188.354C258.712 188.37 258.776 188.4 258.832 188.442L266.289 193.703C266.346 193.742 266.394 193.792 266.432 193.85C266.469 193.908 266.495 193.973 266.507 194.041C266.52 194.11 266.518 194.179 266.503 194.247C266.489 194.315 266.461 194.379 266.421 194.435C266.334 194.548 266.208 194.623 266.067 194.645C265.927 194.668 265.784 194.637 265.666 194.557L258.215 189.313C258.157 189.274 258.107 189.224 258.069 189.165C258.031 189.105 258.006 189.039 257.995 188.97C257.984 188.9 257.988 188.829 258.006 188.761C258.024 188.693 258.056 188.63 258.099 188.575V188.575Z" fill="#F9701F"/>
<path d="M315.602 88.8281C315.937 88.8528 316.273 88.8044 316.587 88.6861C316.901 88.5679 317.186 88.3827 317.421 88.1435L326.863 78.7184C327.274 78.3046 327.517 77.7523 327.544 77.1693C327.571 76.5862 327.379 76.014 327.007 75.5643L318.1 64.9588C317.892 64.7133 317.635 64.5128 317.347 64.3696C317.058 64.2263 316.744 64.1433 316.422 64.1256L290.935 62.9846C290.342 62.9539 289.76 63.1512 289.308 63.5359C288.856 63.9207 288.569 64.4638 288.504 65.0538L286.323 84.2975C286.283 84.6113 286.307 84.9298 286.394 85.234C286.48 85.5381 286.628 85.8214 286.828 86.0668C287.027 86.3122 287.274 86.5146 287.554 86.6616C287.834 86.8087 288.141 86.8974 288.457 86.9223L315.602 88.8281ZM321.84 76.8154C321.887 76.5058 322.025 76.2171 322.236 75.9857C322.447 75.7543 322.722 75.5908 323.026 75.5157C323.33 75.4406 323.649 75.4574 323.944 75.5639C324.238 75.6704 324.494 75.8618 324.68 76.114C324.866 76.3662 324.972 76.6678 324.987 76.9806C325.001 77.2934 324.922 77.6034 324.76 77.8714C324.598 78.1393 324.36 78.3533 324.076 78.486C323.793 78.6188 323.476 78.6644 323.167 78.6172C322.961 78.5875 322.763 78.5171 322.584 78.4101C322.405 78.3031 322.25 78.1617 322.126 77.994C322.003 77.8263 321.914 77.6358 321.865 77.4334C321.816 77.2311 321.807 77.021 321.84 76.8154Z" fill="#F9701F"/>
<path opacity="0.6" d="M315.602 88.8281C315.937 88.8528 316.273 88.8044 316.587 88.6861C316.901 88.5679 317.186 88.3827 317.421 88.1435L326.863 78.7184C327.274 78.3046 327.517 77.7523 327.544 77.1693C327.571 76.5862 327.379 76.014 327.007 75.5643L318.1 64.9588C317.892 64.7133 317.635 64.5128 317.347 64.3696C317.058 64.2263 316.744 64.1433 316.422 64.1256L290.935 62.9846C290.342 62.9539 289.76 63.1512 289.308 63.5359C288.856 63.9207 288.569 64.4638 288.504 65.0538L286.323 84.2975C286.283 84.6113 286.307 84.9298 286.394 85.234C286.48 85.5381 286.628 85.8214 286.828 86.0668C287.027 86.3122 287.274 86.5146 287.554 86.6616C287.834 86.8087 288.141 86.8974 288.457 86.9223L315.602 88.8281ZM321.84 76.8154C321.887 76.5058 322.025 76.2171 322.236 75.9857C322.447 75.7543 322.722 75.5908 323.026 75.5157C323.33 75.4406 323.649 75.4574 323.944 75.5639C324.238 75.6704 324.494 75.8618 324.68 76.114C324.866 76.3662 324.972 76.6678 324.987 76.9806C325.001 77.2934 324.922 77.6034 324.76 77.8714C324.598 78.1393 324.36 78.3533 324.076 78.486C323.793 78.6188 323.476 78.6644 323.167 78.6172C322.961 78.5875 322.763 78.5171 322.584 78.4101C322.405 78.3031 322.25 78.1617 322.126 77.994C322.003 77.8263 321.914 77.6358 321.865 77.4334C321.816 77.2311 321.807 77.021 321.84 76.8154Z" fill="white"/>
<path d="M322.972 76.798C323.045 76.6729 323.156 76.5737 323.288 76.5138C323.471 76.4432 327.822 74.8242 333.612 78.8362C333.68 78.8828 333.739 78.9424 333.784 79.0117C333.83 79.0809 333.861 79.1584 333.877 79.2398C333.892 79.3212 333.891 79.4048 333.874 79.4859C333.858 79.5669 333.825 79.644 333.778 79.7124C333.732 79.7809 333.672 79.8395 333.603 79.885C333.534 79.9304 333.456 79.9617 333.375 79.9772C333.293 79.9927 333.21 79.992 333.129 79.9751C333.048 79.9583 332.971 79.9256 332.902 79.879C327.712 76.2872 323.896 77.6429 323.754 77.6648C323.678 77.6951 323.596 77.7097 323.514 77.7079C323.432 77.706 323.351 77.6877 323.275 77.654C323.2 77.6203 323.133 77.5718 323.077 77.5116C323.021 77.4513 322.977 77.3804 322.949 77.3031C322.916 77.2223 322.901 77.1353 322.905 77.0481C322.909 76.9609 322.932 76.8755 322.972 76.798Z" fill="#F9701F"/>
<path d="M308.576 83.078L308.27 78.5C308.706 78.3849 309.125 78.2134 309.517 77.9898C309.82 77.7558 310.076 77.468 310.275 77.1409L306.759 76.8282C306.254 78.5658 305.397 80.1807 304.24 81.5724C303.732 82.0642 303.121 82.4372 302.451 82.6645C301.781 82.8919 301.069 82.968 300.366 82.8873C299.517 82.8209 298.698 82.5414 297.985 82.0748C297.306 81.6412 296.722 81.0731 296.271 80.4053C295.846 79.7858 295.542 79.0923 295.373 78.3606C295.202 77.5186 295.145 76.6575 295.204 75.8003L294.588 75.7455C294.471 75.7365 294.358 75.7045 294.254 75.6513C294.15 75.5982 294.058 75.5249 293.982 75.4358C293.907 75.3467 293.85 75.2436 293.815 75.1323C293.78 75.0211 293.767 74.9039 293.777 74.7876V74.7876C293.786 74.6704 293.819 74.5562 293.872 74.4516C293.926 74.3471 294 74.2544 294.091 74.179C294.181 74.1035 294.285 74.0469 294.398 74.0123C294.51 73.9778 294.628 73.966 294.745 73.9778L295.361 74.0326C295.508 73.0498 295.788 72.0916 296.195 71.1849C296.519 70.5002 296.971 69.8838 297.527 69.369C298.026 68.9034 298.604 68.5307 299.234 68.2686C299.916 68.0048 300.633 67.8456 301.363 67.7962L301.492 72.7556C300.873 72.7807 300.265 72.9272 299.702 73.1869C299.261 73.4698 298.9 73.862 298.654 74.3256L302.937 74.7065C303.343 73.5418 303.842 72.4116 304.429 71.3269C304.898 70.5775 305.571 69.9776 306.37 69.5977C307.168 69.2179 308.059 69.0739 308.936 69.1826C309.611 69.2269 310.268 69.4123 310.866 69.7269C311.464 70.0414 311.99 70.478 312.408 71.0084C313.359 72.3618 313.79 74.0119 313.624 75.6572L313.937 75.6851C314.054 75.6941 314.168 75.7265 314.273 75.7804C314.377 75.8342 314.47 75.9084 314.546 75.9986C314.621 76.0888 314.678 76.1931 314.712 76.3055C314.747 76.4179 314.759 76.536 314.747 76.653V76.653C314.736 76.7693 314.703 76.8823 314.649 76.9856C314.594 77.0889 314.52 77.1804 314.43 77.2548C314.34 77.3292 314.236 77.385 314.125 77.419C314.013 77.4529 313.896 77.4644 313.78 77.4527L313.467 77.4249C313.33 78.9099 312.751 80.3197 311.803 81.4715C310.956 82.3783 309.81 82.9488 308.576 83.078ZM310.492 75.3787C310.424 74.9559 310.237 74.5613 309.952 74.2412C309.719 74.0166 309.414 73.8813 309.09 73.8591C308.753 73.8208 308.412 73.8981 308.124 74.0786C307.782 74.3417 307.521 74.6961 307.371 75.101L310.492 75.3787ZM298.376 76.0824C298.416 76.6613 298.633 77.2138 298.998 77.665C299.292 78.0007 299.704 78.209 300.148 78.2458C300.523 78.2668 300.893 78.1556 301.194 77.9316C301.659 77.5237 302.013 77.0055 302.224 76.4248L298.376 76.0824Z" fill="#323334"/>
</g>
</svg>
