<svg width="91" height="91" viewBox="0 0 91 91" fill="none" xmlns="http://www.w3.org/2000/svg">
<g clip-path="url(#clip0)">
<path d="M64.7199 46.2845V30.9871H76.0949L86.2932 29.0259L85.5087 45.1078L87.8621 50.9914C88.5159 59.7515 89.8233 77.4285 89.8233 78.0561C89.8233 78.6836 88.5159 80.4095 87.8621 81.194H81.9785V85.1164H76.0949L70.9958 89.4311L67.0733 85.1164H60.7975V64.7198L57.2673 63.5431C56.6397 52.8742 61.9742 47.592 64.7199 46.2845Z" fill="#F9701F"/>
<path d="M91 19.5508C91 17.0954 89.3311 15.0234 87.0683 14.4066C87.3108 13.7981 87.4453 13.1355 87.4453 12.4414C87.4453 9.98601 85.7764 7.91398 83.5137 7.29724C83.7561 6.68868 83.8906 6.02608 83.8906 5.33203C83.8906 2.39195 81.4987 0 78.5586 0H59.3988C55.4185 0 51.397 0.948746 47.762 2.74706L46.1468 3.55469H26.6602C25.9663 3.55469 25.3035 3.68941 24.6949 3.93166C24.0782 1.66893 22.0062 0 19.5508 0C17.0954 0 15.0234 1.66893 14.4066 3.93166C13.7981 3.68941 13.1353 3.55469 12.4414 3.55469C9.98601 3.55469 7.91398 5.22361 7.29724 7.48635C6.68868 7.2441 6.02591 7.10938 5.33203 7.10938C2.39195 7.10938 0 9.50132 0 12.4414V31.6012C0 39.0929 3.22339 43.9889 3.55469 44.8532V64.3398C3.55469 65.0337 3.68941 65.6965 3.93166 66.3051C1.66893 66.9218 0 68.9938 0 71.4492C0 73.9046 1.66893 75.9766 3.93166 76.5934C3.68941 77.202 3.55469 77.8647 3.55469 78.5586C3.55469 81.014 5.22361 83.086 7.48635 83.7028C7.2441 84.3113 7.10938 84.9741 7.10938 85.668C7.10938 88.6081 9.50132 91 12.4414 91H16.7246C17.7063 91 18.502 90.2043 18.502 89.2227C18.502 88.241 17.7063 87.4453 16.7246 87.4453H12.4414C11.4614 87.4453 10.6641 86.648 10.6641 85.668C10.6641 84.6879 11.4614 83.8906 12.4414 83.8906H15.9961C16.9777 83.8906 17.7734 83.0949 17.7734 82.1133C17.7734 81.1317 16.9777 80.3359 15.9961 80.3359C13.5096 80.3359 11.3732 80.3359 8.88672 80.3359C7.90669 80.3359 7.10938 79.5386 7.10938 78.5586C7.10938 77.5786 7.90669 76.7812 8.88672 76.7812H15.9961C16.9777 76.7812 17.7734 75.9855 17.7734 75.0039C17.7734 74.0223 16.9777 73.2266 15.9961 73.2266C14.3787 73.2266 8.13526 73.2266 5.33203 73.2266C4.352 73.2266 3.55469 72.4292 3.55469 71.4492C3.55469 70.4692 4.352 69.6719 5.33203 69.6719H15.9961C16.9777 69.6719 17.7734 68.8762 17.7734 67.8945C17.7734 66.9129 16.9777 66.1172 15.9961 66.1172H8.88672C7.90669 66.1172 7.10938 65.3199 7.10938 64.3398C7.10938 63.3598 7.90669 62.5625 8.88672 62.5625H26.6602C27.6418 62.5625 28.4375 61.7668 28.4375 60.7852V59.0078H32.9164C37.1657 59.0078 40.9687 61.3535 42.8413 65.1295C43.1415 65.7345 43.7584 66.1172 44.4336 66.1172H59.0078V82.1133C59.0078 82.7364 59.1162 83.3343 59.3135 83.8906H47.9883C47.7123 83.8906 47.4402 83.9548 47.1935 84.0783L45.2094 85.0703C42.0688 86.624 38.5924 87.4453 35.1559 87.4453H32.6857C31.7041 87.4453 30.9084 88.241 30.9084 89.2227C30.9084 90.2043 31.7041 91 32.6857 91H35.1559C39.1362 91 43.1576 90.0513 46.7925 88.2529L48.4079 87.4453H64.3398C65.0337 87.4453 65.6965 87.3106 66.3051 87.0683C66.922 89.3311 68.9938 91 71.4492 91C73.9046 91 75.9766 89.3311 76.5934 87.0683C77.2021 87.3106 77.8647 87.4453 78.5586 87.4453C81.014 87.4453 83.086 85.7764 83.7028 83.5137C84.3115 83.7559 84.9741 83.8906 85.668 83.8906C88.6081 83.8906 91 81.4987 91 78.5586V57.2305C91 56.9603 90.938 56.7054 90.8303 56.4762C90.484 53.4739 89.6114 50.5077 88.2529 47.7622L87.4453 46.147V26.6602C87.4453 25.9663 87.3106 25.3035 87.0683 24.6949C89.3313 24.0782 91 22.0064 91 19.5508ZM24.8828 59.0078H8.88672C8.26358 59.0078 7.66568 59.1162 7.10938 59.3135V44.4336C7.10938 44.1577 7.04521 43.8856 6.92169 43.6388C6.5177 42.6068 3.55469 38.25 3.55469 31.6012V12.4414C3.55469 11.4614 4.352 10.6641 5.33203 10.6641C6.31206 10.6641 7.10938 11.4614 7.10938 12.4414V15.9961C7.10938 16.9777 7.90509 17.7734 8.88672 17.7734C9.86835 17.7734 10.6641 16.9777 10.6641 15.9961V8.88672C10.6641 7.90669 11.4614 7.10938 12.4414 7.10938C13.4214 7.10938 14.2188 7.90669 14.2188 8.88672V15.9961C14.2188 16.9777 15.0145 17.7734 15.9961 17.7734C16.9777 17.7734 17.7734 16.9777 17.7734 15.9961C17.7734 14.3787 17.7734 8.13526 17.7734 5.33203C17.7734 4.352 18.5708 3.55469 19.5508 3.55469C20.5308 3.55469 21.3281 4.352 21.3281 5.33203V15.9961C21.3281 16.9777 22.1238 17.7734 23.1055 17.7734C24.0871 17.7734 24.8828 16.9777 24.8828 15.9961V8.88672C24.8828 7.90669 25.6801 7.10938 26.6602 7.10938C27.6402 7.10938 28.4375 7.90669 28.4375 8.88672V26.6602C28.4375 27.6418 29.2332 28.4375 30.2148 28.4375H31.9922V32.9164C31.9922 37.1012 29.5892 40.9969 25.8705 42.8413C25.2655 43.1415 24.8828 43.7584 24.8828 44.4336V59.0078ZM32.9164 55.4531H28.4375V45.4886C32.8499 42.8663 35.5469 38.1459 35.5469 32.9164V28.4375H45.5116C48.1337 32.8499 52.8539 35.5469 58.0836 35.5469H62.5625V45.5114C58.1501 48.1337 55.4531 52.8539 55.4531 58.0836V62.5625H45.4886C42.8663 58.1502 38.1461 55.4531 32.9164 55.4531ZM87.4453 78.5586C87.4453 79.5386 86.648 80.3359 85.668 80.3359C84.6879 80.3359 83.8906 79.5386 83.8906 78.5586V75.0039C83.8906 74.0223 83.0947 73.2266 82.1133 73.2266C81.1318 73.2266 80.3359 74.0223 80.3359 75.0039V82.1133C80.3359 83.0933 79.5386 83.8906 78.5586 83.8906C77.5786 83.8906 76.7812 83.0933 76.7812 82.1133V75.0039C76.7812 74.0223 75.9854 73.2266 75.0039 73.2266C74.0225 73.2266 73.2266 74.0223 73.2266 75.0039V85.668C73.2266 86.648 72.4292 87.4453 71.4492 87.4453C70.4692 87.4453 69.6719 86.648 69.6719 85.668V75.0039C69.6719 74.0223 68.876 73.2266 67.8945 73.2266C66.9131 73.2266 66.1172 74.0223 66.1172 75.0039V82.1133C66.1172 83.0933 65.3199 83.8906 64.3398 83.8906C63.3598 83.8906 62.5625 83.0933 62.5625 82.1133V64.3398C62.5625 63.3582 61.7666 62.5625 60.7852 62.5625H59.0078V58.0836C59.0078 53.8343 61.3535 50.0313 65.1295 48.1587C65.7345 47.8587 66.1172 47.2418 66.1172 46.5664V31.9922H82.1133C82.7364 31.9922 83.3343 31.8838 83.8906 31.6865V46.5664C83.8906 46.8423 83.9548 47.1144 84.0783 47.3612L85.0703 49.3453C86.624 52.4859 87.4453 55.9623 87.4453 59.3988V78.5586ZM85.668 21.3281H75.0039C74.0225 21.3281 73.2266 22.1238 73.2266 23.1055C73.2266 24.0871 74.0225 24.8828 75.0039 24.8828H82.1133C83.0933 24.8828 83.8906 25.6801 83.8906 26.6602C83.8906 27.6402 83.0933 28.4375 82.1133 28.4375H64.3398C63.3584 28.4375 62.5625 29.2332 62.5625 30.2148V31.9922H58.0836C53.8987 31.9922 50.0029 29.5892 48.1587 25.8705C47.8587 25.2657 47.2418 24.8828 46.5664 24.8828H31.9922V8.88672C31.9922 8.26358 31.8838 7.66568 31.6865 7.10938H46.5664C46.8424 7.10938 47.1145 7.04521 47.3614 6.92169C48.3921 6.51841 52.7498 3.55469 59.3988 3.55469H78.5586C79.5386 3.55469 80.3359 4.352 80.3359 5.33203C80.3359 6.31206 79.5386 7.10938 78.5586 7.10938H75.0039C74.0225 7.10938 73.2266 7.90509 73.2266 8.88672C73.2266 9.86835 74.0225 10.6641 75.0039 10.6641H82.1133C83.0933 10.6641 83.8906 11.4614 83.8906 12.4414C83.8906 13.4214 83.0933 14.2188 82.1133 14.2188H75.0039C74.0225 14.2188 73.2266 15.0145 73.2266 15.9961C73.2266 16.9777 74.0225 17.7734 75.0039 17.7734H85.668C86.648 17.7734 87.4453 18.5708 87.4453 19.5508C87.4453 20.5308 86.648 21.3281 85.668 21.3281Z" fill="#323334"/>
<path d="M24.8828 90.4668C25.8644 90.4668 26.6602 89.6711 26.6602 88.6895C26.6602 87.7079 25.8644 86.9121 24.8828 86.9121C23.9012 86.9121 23.1055 87.7079 23.1055 88.6895C23.1055 89.6711 23.9012 90.4668 24.8828 90.4668Z" fill="#323334"/>
</g>
<defs>
<clipPath id="clip0">
<rect width="91" height="91" fill="white"/>
</clipPath>
</defs>
</svg>
