<svg width="116" height="114" viewBox="0 0 116 114" fill="none" xmlns="http://www.w3.org/2000/svg">
<path d="M10.5218 108.287L21.9479 108.287" stroke="#F9701F" stroke-width="4"/>
<path d="M16.2349 102.574L16.2349 114" stroke="#F9701F" stroke-width="4"/>
<path d="M1 89.2432L12.4261 89.2432" stroke="#F9701F" stroke-width="4"/>
<path d="M6.71307 83.5303L6.71307 94.9564" stroke="#F9701F" stroke-width="4"/>
<path d="M103.835 87.3389L115.261 87.3389" stroke="#F9701F" stroke-width="4"/>
<path d="M109.548 81.626L109.548 93.0521" stroke="#F9701F" stroke-width="4"/>
<mask id="path-7-inside-1" fill="white">
<path fill-rule="evenodd" clip-rule="evenodd" d="M101.931 114C105.086 114 107.644 111.442 107.644 108.287C107.644 105.132 105.086 102.574 101.931 102.574C98.7757 102.574 96.2178 105.132 96.2178 108.287C96.2178 111.442 98.7757 114 101.931 114ZM101.931 110.191C102.983 110.191 103.835 109.339 103.835 108.287C103.835 107.235 102.983 106.383 101.931 106.383C100.879 106.383 100.027 107.235 100.027 108.287C100.027 109.339 100.879 110.191 101.931 110.191Z"/>
</mask>
<path fill-rule="evenodd" clip-rule="evenodd" d="M101.931 114C105.086 114 107.644 111.442 107.644 108.287C107.644 105.132 105.086 102.574 101.931 102.574C98.7757 102.574 96.2178 105.132 96.2178 108.287C96.2178 111.442 98.7757 114 101.931 114ZM101.931 110.191C102.983 110.191 103.835 109.339 103.835 108.287C103.835 107.235 102.983 106.383 101.931 106.383C100.879 106.383 100.027 107.235 100.027 108.287C100.027 109.339 100.879 110.191 101.931 110.191Z" fill="#F9701F"/>
<path d="M106.644 108.287C106.644 110.89 104.534 113 101.931 113V115C105.638 115 108.644 111.994 108.644 108.287H106.644ZM101.931 103.574C104.534 103.574 106.644 105.684 106.644 108.287H108.644C108.644 104.579 105.638 101.574 101.931 101.574V103.574ZM97.2178 108.287C97.2178 105.684 99.3279 103.574 101.931 103.574V101.574C98.2234 101.574 95.2178 104.579 95.2178 108.287H97.2178ZM101.931 113C99.3279 113 97.2178 110.89 97.2178 108.287H95.2178C95.2178 111.994 98.2234 115 101.931 115V113ZM102.835 108.287C102.835 108.786 102.43 109.191 101.931 109.191V111.191C103.535 111.191 104.835 109.891 104.835 108.287H102.835ZM101.931 107.383C102.43 107.383 102.835 107.787 102.835 108.287H104.835C104.835 106.683 103.535 105.383 101.931 105.383V107.383ZM101.027 108.287C101.027 107.787 101.431 107.383 101.931 107.383V105.383C100.327 105.383 99.0266 106.683 99.0266 108.287H101.027ZM101.931 109.191C101.431 109.191 101.027 108.786 101.027 108.287H99.0266C99.0266 109.891 100.327 111.191 101.931 111.191V109.191Z" fill="#F9701F" mask="url(#path-7-inside-1)"/>
<path d="M112.762 66.153L109.072 47.9426C101.931 51.3705 84.8314 51.672 77.1743 51.3943L82.6493 66.153C95.7894 69.7713 108.199 67.6607 112.762 66.153Z" fill="#F9701F"/>
<path d="M8.14134 56.8693L2.90436 40.0871C13.1879 38.6589 24.7251 33.3822 29.2083 30.9224L32.2632 40.0871L42.5388 30.9224L55.3932 49.2519C49.4818 56.7503 33.3503 71.033 16.1158 68.1764L12.5452 56.1084C10.8896 56.4375 9.38592 56.6915 8.14134 56.8693Z" fill="#F9701F"/>
<path d="M63.7248 45.0861L54.56 22.7099C68.9379 21.9481 84.4346 8.66525 90.3858 2.11902L112.405 20.6865C96.4083 42.3962 73.2862 45.9986 63.7248 45.0861Z" fill="#F9701F"/>
<path d="M13.8544 28.3039L2.90436 9.26036C6.55438 7.39568 15.7112 3.88055 23.1382 4.73751C30.5651 5.59447 39.1665 3.26957 42.5388 2L47.8948 17.1158C44.9192 19.2582 37.3256 23.3764 30.7556 22.7099C24.1855 22.0434 16.7506 26.1615 13.8544 28.3039Z" fill="#F9701F"/>
<path d="M93.9564 60.559H99.6695M16.1158 45.5622L21.3528 43.6578M32.2632 40.0871L34.5643 46.9904C30.8913 51.5231 20.1254 54.6019 12.5452 56.1084M32.2632 40.0871L29.2083 30.9224C24.7251 33.3822 13.1879 38.6589 2.90436 40.0871L8.14134 56.8693C9.38592 56.6915 10.8896 56.4375 12.5452 56.1084M32.2632 40.0871L42.5388 30.9224L55.3932 49.2519C49.4818 56.7503 33.3503 71.0329 16.1158 68.1764L12.5452 56.1084M69.0808 26.2806L65.6291 28.3039L69.0808 37.8257L74.5558 36.1594M86.6961 16.7588L90.3858 13.3071L101.336 22.7099L98.1222 26.2806M23.7333 14.9734H29.2083M109.072 47.9426L112.762 66.153C108.199 67.6606 95.7894 69.7713 82.6493 66.153L77.1743 51.3943C84.8314 51.672 101.931 51.3705 109.072 47.9426ZM54.56 22.7099L63.7248 45.0861C73.2862 45.9986 96.4083 42.3962 112.405 20.6865L90.3858 2.11902C84.4346 8.66525 68.9379 21.9481 54.56 22.7099ZM2.90436 9.26036L13.8544 28.3039C16.7506 26.1615 24.1855 22.0434 30.7556 22.7099C37.3256 23.3764 44.9192 19.2582 47.8948 17.1158L42.5388 2C39.1665 3.26957 30.5651 5.59447 23.1382 4.73751C15.7112 3.88055 6.55438 7.39568 2.90436 9.26036Z" stroke="#323334" stroke-width="3"/>
<path fill-rule="evenodd" clip-rule="evenodd" d="M83.3634 32.1127C86.5187 32.1127 89.0765 29.5548 89.0765 26.3996C89.0765 23.2444 86.5187 20.6865 83.3634 20.6865C80.2082 20.6865 77.6504 23.2444 77.6504 26.3996C77.6504 29.5548 80.2082 32.1127 83.3634 32.1127ZM83.3634 28.3039C84.4152 28.3039 85.2678 27.4513 85.2678 26.3996C85.2678 25.3478 84.4152 24.4952 83.3634 24.4952C82.3117 24.4952 81.4591 25.3478 81.4591 26.3996C81.4591 27.4513 82.3117 28.3039 83.3634 28.3039Z" fill="#323334"/>
<path fill-rule="evenodd" clip-rule="evenodd" d="M33.4931 59.2498C38.1602 59.2498 41.9437 55.4663 41.9437 50.7992C41.9437 46.1321 38.1602 42.3486 33.4931 42.3486C34.6833 47.8237 30.8746 49.0139 25.0425 50.7992C25.0425 55.4663 28.826 59.2498 33.4931 59.2498ZM33.4931 53.616C35.0488 53.616 36.31 52.3548 36.31 50.7991C36.31 49.2434 35.0488 47.9822 33.4931 47.9822C31.9374 47.9822 30.6763 49.2434 30.6763 50.7991C30.6763 52.3548 31.9374 53.616 33.4931 53.616Z" fill="#323334"/>
<path d="M35.2784 110.191C35.2784 106.564 35.2784 100.466 35.2784 98.432C35.2784 95.6514 37.449 94.9562 38.5342 94.9562C39.338 94.9562 40.2004 94.9562 41.1105 94.9562M35.2784 110.191C35.2784 111.523 35.2784 111.183 35.2784 112.095H81.221V98.432C81.221 97.2734 80.4734 94.9562 77.4829 94.9562C75.4351 94.9562 63.4315 94.9562 52.2986 94.9562M35.2784 110.191L27.1849 93.8542M37.1828 87.8149C35.2784 84.387 37.9763 83.4507 39.5632 83.4111H47.6568M37.1828 87.8149C39.0871 91.2427 40.5948 94.004 41.1105 94.9562M37.1828 87.8149L27.1849 93.8542M41.1105 94.9562C44.3893 94.9562 48.2874 94.9562 52.2986 94.9562M80.6259 110.191L88.8811 93.528M78.7216 87.8149C80.6259 84.387 77.9281 83.4507 76.3411 83.4111H62.5345C60.9476 83.4507 57.7737 82.5779 57.7737 78.7692C57.7737 74.9605 61.265 73.9289 63.0106 73.8893H69.5569M78.7216 87.8149C76.8172 91.2427 75.3096 94.004 74.7938 94.9562M78.7216 87.8149L88.8811 93.528M88.8811 93.528L93.4803 84.2442C94.9483 80.7926 95.7418 73.8893 87.1722 73.8893H69.5569M27.1849 93.8542L22.424 84.2442C20.9561 80.7926 20.1626 73.8893 28.7322 73.8893C34.5481 73.8893 41.5335 73.8893 46.8236 73.8893M52.2986 94.9562V90.1953C52.378 89.6002 52.2748 88.291 51.2274 87.8149C50.18 87.3388 47.9741 84.6806 47.6568 83.4111M47.6568 83.4111H53.3698C54.9568 83.4507 58.1307 82.5779 58.1307 78.7692C58.1307 74.9605 54.6394 73.9289 52.8937 73.8893C51.4531 73.8893 49.3284 73.8893 46.8236 73.8893M63.8438 94.9562V90.1953C63.7644 89.6002 63.8676 88.291 64.915 87.8149C65.9624 87.3388 68.6444 84.6806 68.9617 83.4111M46.8236 73.8893C46.7442 70.1599 48.8946 62.7012 58.1307 62.7012C67.3668 62.7012 69.5965 70.1599 69.5569 73.8893" stroke="#323334" stroke-width="3"/>
</svg>
