<svg width="113" height="112" viewBox="0 0 113 112" fill="none" xmlns="http://www.w3.org/2000/svg">
<path d="M58.4032 47.9461C58.1579 47.9176 57.9093 47.9381 57.672 48.0063C57.4346 48.0746 57.2132 48.1893 57.0205 48.3438C56.8278 48.4983 56.6677 48.6896 56.5494 48.9064C56.4312 49.1233 56.3571 49.3614 56.3316 49.6071L56.033 52.4625C55.9936 52.8103 55.8572 53.1399 55.6394 53.4138C55.4216 53.6877 55.1311 53.8948 54.8012 54.0116L42.3715 58.3414C41.9887 58.4746 41.6597 58.7287 41.4341 59.0654C41.2085 59.4021 41.0986 59.8031 41.1211 60.2078V76.874C41.1197 77.1196 41.1668 77.3631 41.2596 77.5905C41.3525 77.8179 41.4894 78.0247 41.6623 78.1991L51.7778 88.3519C52.0982 88.6838 52.2844 89.1226 52.3004 89.5836V106.381C52.3004 106.876 52.1037 107.35 51.7537 107.7C51.4037 108.05 50.929 108.247 50.434 108.247C49.9391 108.247 49.4644 108.05 49.1144 107.7C48.7644 107.35 48.5677 106.876 48.5677 106.381V91.1327C48.5691 90.8871 48.5221 90.6436 48.4292 90.4162C48.3363 90.1888 48.1995 89.982 48.0265 89.8076L37.2205 78.927C37.0461 78.754 36.8393 78.6171 36.6119 78.5243C36.3845 78.4314 36.141 78.3843 35.8954 78.3857H31.7709C31.2759 78.3857 30.8012 78.5824 30.4512 78.9324C30.1012 79.2824 29.9045 79.7571 29.9045 80.252V95.1826C29.9029 95.49 29.8254 95.7922 29.6789 96.0625C29.5324 96.3327 29.3214 96.5626 29.0647 96.7317L12.2678 107.93C11.8564 108.2 11.3548 108.296 10.8725 108.198C10.3901 108.101 9.96593 107.816 9.69229 107.407C9.42217 106.996 9.32553 106.494 9.4234 106.012C9.52128 105.529 9.80574 105.105 10.2149 104.831L25.332 94.7347C25.5888 94.5656 25.7998 94.3358 25.9463 94.0655C26.0928 93.7953 26.1703 93.493 26.1719 93.1856V80.252C26.1719 79.7571 25.9753 79.2824 25.6253 78.9324C25.2753 78.5824 24.8006 78.3857 24.3056 78.3857C23.8106 78.3857 23.3359 78.5824 22.9859 78.9324C22.6359 79.2824 22.4393 79.7571 22.4393 80.252V92.1778L8.14324 101.715C7.1407 102.38 6.37901 103.35 5.97102 104.482C5.56303 105.614 5.53042 106.847 5.87804 107.998C6.22566 109.15 6.935 110.159 7.901 110.876C8.867 111.593 10.0383 111.98 11.2413 111.979C12.3434 111.98 13.4211 111.655 14.3394 111.046L31.1363 99.8484C31.9057 99.3373 32.5366 98.6438 32.973 97.8297C33.4093 97.0157 33.6375 96.1063 33.6372 95.1826V82.1184H35.1116L44.8351 91.8979V106.381C44.8351 107.865 45.425 109.29 46.475 110.34C47.525 111.39 48.9491 111.979 50.434 111.979C51.919 111.979 53.3431 111.39 54.3931 110.34C55.4431 109.29 56.033 107.865 56.033 106.381V89.5836C56.0367 88.1019 55.4528 86.6791 54.4093 85.6271L44.8351 76.0155V61.4395L56.033 57.5389C57.0323 57.1931 57.9132 56.5713 58.5738 55.7456C59.2343 54.9199 59.6476 53.924 59.7656 52.8731L60.0829 50.0177C60.1113 49.7709 60.0902 49.5209 60.0208 49.2825C59.9513 49.044 59.835 48.8217 59.6785 48.6288C59.5221 48.4359 59.3287 48.2761 59.1097 48.1588C58.8907 48.0416 58.6505 47.9693 58.4032 47.9461Z" fill="black"/>
<path d="M20.349 70.9202L22.4392 69.2405V72.7865C22.4392 73.2815 22.6359 73.7562 22.9859 74.1062C23.3359 74.4562 23.8106 74.6529 24.3056 74.6529C24.8005 74.6529 25.2753 74.4562 25.6253 74.1062C25.9753 73.7562 26.1719 73.2815 26.1719 72.7865V65.3213C26.1709 64.9695 26.0705 64.6251 25.8823 64.328C25.6941 64.0308 25.4257 63.7928 25.1081 63.6416C24.8066 63.5078 24.4751 63.4564 24.1472 63.4924C23.8194 63.5285 23.507 63.6508 23.2418 63.8469L18.128 67.9154C17.9283 68.0759 17.6976 68.1936 17.4503 68.261C17.2031 68.3284 16.9446 68.3442 16.691 68.3074L5.49306 66.609H5.19445C4.74273 66.502 4.34711 66.2304 4.08484 65.8474C3.82257 65.4643 3.71247 64.9973 3.77605 64.5374C3.85473 64.0502 4.12314 63.6141 4.52258 63.3243C4.91786 63.028 5.41451 62.9005 5.90365 62.9697L15.5152 64.4254C15.7675 64.4648 16.0253 64.4521 16.2724 64.3878C16.5196 64.3236 16.751 64.2094 16.9523 64.0522L26.5452 56.4189C27.0238 56.2164 27.5251 56.0723 28.0382 55.9897H29.9045C30.3995 55.9897 30.8742 55.793 31.2242 55.443C31.5742 55.093 31.7708 54.6183 31.7708 54.1233V53.3395C31.7721 52.9752 31.6668 52.6186 31.4678 52.3135C31.2688 52.0084 30.9849 51.7682 30.6511 51.6225C29.0792 50.9364 27.7914 49.7301 27.0044 48.2063C26.2173 46.6824 25.979 44.9341 26.3294 43.2552C26.6798 41.5763 27.5976 40.0693 28.9284 38.9875C30.2593 37.9057 31.9221 37.3151 33.6372 37.3151C35.3522 37.3151 37.015 37.9057 38.3459 38.9875C39.6768 40.0693 40.5946 41.5763 40.945 43.2552C41.2954 44.9341 41.057 46.6824 40.27 48.2063C39.4829 49.7301 38.1952 50.9364 36.6233 51.6225C36.2894 51.7682 36.0055 52.0084 35.8065 52.3135C35.6076 52.6186 35.5022 52.9752 35.5035 53.3395V54.1233C35.5035 54.6183 35.7001 55.093 36.0501 55.443C36.4001 55.793 36.8748 55.9897 37.3698 55.9897H38.5269C39.0074 55.9877 39.4687 55.8006 39.8147 55.4671C40.0051 55.2773 40.2343 55.1309 40.4866 55.0378L51.3299 51.3052C51.6633 51.1913 51.9576 50.9854 52.1789 50.7113C52.4002 50.4372 52.5393 50.106 52.5803 49.7561L54.1667 35.2548C54.223 34.7656 54.4703 34.3185 54.8549 34.0108C55.2394 33.7032 55.73 33.56 56.2196 33.6125C56.4635 33.6383 56.7101 33.6159 56.9453 33.5464C57.1805 33.4769 57.3997 33.3617 57.5904 33.2075C57.781 33.0532 57.9394 32.8629 58.0565 32.6474C58.1735 32.4318 58.247 32.1954 58.2726 31.9515C58.3251 31.4618 58.1819 30.9713 57.8742 30.5867C57.5666 30.2022 57.1195 29.9548 56.6302 29.8985C55.8985 29.8155 55.1575 29.8776 54.4499 30.0813C53.7422 30.2851 53.0816 30.6264 52.506 31.0858C51.9305 31.5453 51.4512 32.1137 51.0956 32.7586C50.7401 33.4036 50.5153 34.1123 50.434 34.8443L48.9597 48.1325L43.4913 49.9988C44.4649 48.1656 44.9098 46.0979 44.7763 44.0266C44.6429 41.9552 43.9364 39.9618 42.7356 38.2687C41.5349 36.5756 39.8872 35.2495 37.9766 34.4386C36.0659 33.6277 33.9674 33.3637 31.9155 33.6763C29.8635 33.9888 27.9388 34.8655 26.3562 36.2085C24.7736 37.5515 23.5954 39.308 22.9532 41.2818C22.3109 43.2555 22.2299 45.369 22.7192 47.3861C23.2085 49.4033 24.2488 51.2447 25.724 52.7049L24.8095 53.0595L24.3989 53.3022L15.2539 60.5808L6.44489 59.2557C5.06691 59.0672 3.66811 59.3984 2.52088 60.1846C1.37365 60.9709 0.560127 62.156 0.238723 63.5092C-0.0826815 64.8623 0.111047 66.2867 0.782183 67.5048C1.45332 68.723 2.55381 69.6477 3.86937 70.099C4.16271 70.1934 4.46197 70.2682 4.7652 70.323L15.9631 72.0213C16.7305 72.1529 17.517 72.1228 18.2722 71.9333C19.0273 71.7437 19.7347 71.3986 20.349 70.9202Z" fill="black"/>
<path d="M110.044 16.2558C109.428 15.7151 108.701 15.3162 107.915 15.0872C107.128 14.8583 106.3 14.8048 105.49 14.9307C104.152 15.1906 102.949 15.9162 102.095 16.9787C101.241 18.0413 100.791 19.3721 100.825 20.7349V44.7918H96.1029C97.2168 43.5343 98.0361 42.044 98.5011 40.4297C98.966 38.8153 99.0648 37.1176 98.7904 35.4602C98.4046 33.2728 97.377 31.2496 95.8384 29.6478C94.2997 28.046 92.3194 26.9379 90.1493 26.4645C88.5063 26.1175 86.8066 26.14 85.1733 26.5306C83.5401 26.9212 82.0141 27.6699 80.7057 28.7228C78.6908 30.358 77.3062 32.6422 76.7888 35.1851C76.2714 37.728 76.6532 40.3716 77.8689 42.6642L72.4006 40.7979L70.9449 27.7336C70.8394 26.3114 70.2106 24.9787 69.18 23.9929C68.1494 23.0071 66.7901 22.4382 65.3646 22.396C64.5819 22.4002 63.8088 22.5684 63.0951 22.8899C62.3815 23.2113 61.7432 23.6789 61.2214 24.2623C60.6855 24.8433 60.2788 25.5312 60.0279 26.2807C59.777 27.0302 59.6876 27.8243 59.7656 28.6108L61.632 45.4077C61.75 46.4585 62.1633 47.4544 62.8238 48.2801C63.4844 49.1058 64.3653 49.7276 65.3646 50.0735L76.5625 53.9741V68.55L66.9883 78.1616C65.9448 79.2136 65.3609 80.6364 65.3646 82.1182V98.7098C65.3308 100.073 65.7809 101.403 66.635 102.466C67.4891 103.529 68.6921 104.254 70.0304 104.514C70.8398 104.651 71.6694 104.608 72.4604 104.389C73.2515 104.169 73.9846 103.779 74.6079 103.245C75.2311 102.71 75.7293 102.046 76.0671 101.297C76.4049 100.549 76.574 99.7359 76.5625 98.9151V84.4324L86.286 74.6529H87.7604V106.175C87.7266 107.538 88.1767 108.869 89.0308 109.931C89.885 110.994 91.0879 111.719 92.4262 111.979C92.7367 112.007 93.049 112.007 93.3594 111.979C94.8443 111.979 96.2684 111.389 97.3185 110.339C98.3685 109.289 98.9584 107.865 98.9584 106.38V61.5887C98.9584 61.0937 98.7617 60.619 98.4117 60.269C98.0617 59.919 97.587 59.7224 97.092 59.7224C96.5971 59.7224 96.1223 59.919 95.7723 60.269C95.4223 60.619 95.2257 61.0937 95.2257 61.5887V106.38C95.2297 106.655 95.1732 106.926 95.0603 107.176C94.9473 107.426 94.7807 107.648 94.5722 107.826C94.3637 108.004 94.1185 108.135 93.8541 108.207C93.5896 108.28 93.3124 108.293 93.0421 108.247C92.587 108.135 92.1843 107.87 91.902 107.496C91.6198 107.122 91.4753 106.662 91.4931 106.194V72.7866C91.4931 72.2916 91.2964 71.8169 90.9464 71.4669C90.5964 71.1169 90.1217 70.9203 89.6268 70.9203H85.5022C85.2566 70.9189 85.0131 70.9659 84.7857 71.0588C84.5583 71.1517 84.3515 71.2885 84.1771 71.4615L73.3711 82.3422C73.1981 82.5165 73.0613 82.7234 72.9684 82.9508C72.8755 83.1781 72.8285 83.4216 72.8299 83.6672V98.9151C72.8339 99.1893 72.7774 99.461 72.6644 99.711C72.5515 99.9609 72.3848 100.183 72.1763 100.361C71.9679 100.539 71.7227 100.669 71.4582 100.742C71.1938 100.815 70.9165 100.828 70.6463 100.781C70.1911 100.67 69.7884 100.405 69.5062 100.031C69.2239 99.6567 69.0795 99.1967 69.0972 98.7284V82.1182C69.0958 81.8726 69.1429 81.6291 69.2358 81.4017C69.3286 81.1743 69.4655 80.9675 69.6385 80.7931L79.7539 70.6403C79.9269 70.4659 80.0637 70.2591 80.1566 70.0317C80.2495 69.8043 80.2966 69.5609 80.2952 69.3152V52.649C80.2975 52.26 80.1782 51.88 79.954 51.5621C79.7298 51.2442 79.4119 51.0044 79.0447 50.876L66.615 46.5461C66.2851 46.4294 65.9947 46.2222 65.7769 45.9483C65.5591 45.6744 65.4227 45.3448 65.3833 44.9971L63.5169 28.2002C63.4877 27.9427 63.5125 27.6819 63.5896 27.4345C63.6667 27.1871 63.7945 26.9585 63.9649 26.7631C64.1397 26.5641 64.355 26.4045 64.5964 26.2951C64.8377 26.1857 65.0996 26.1289 65.3646 26.1286C65.8441 26.1742 66.2928 26.3854 66.6334 26.7261C66.9741 27.0667 67.1853 27.5154 67.2309 27.9949L68.7986 42.2536C68.8396 42.6035 68.9788 42.9346 69.2001 43.2088C69.4213 43.4829 69.7157 43.6888 70.0491 43.8026L80.8924 47.5353C81.1446 47.6283 81.3738 47.7747 81.5643 47.9645C81.9102 48.298 82.3715 48.4852 82.852 48.4871H84.0278C84.5228 48.4871 84.9975 48.2905 85.3475 47.9405C85.6975 47.5905 85.8941 47.1158 85.8941 46.6208V45.8369C85.8954 45.4727 85.79 45.116 85.5911 44.8109C85.3921 44.5058 85.1082 44.2656 84.7743 44.1199C83.2024 43.4339 81.9147 42.2275 81.1276 40.7037C80.3406 39.1799 80.1022 37.4315 80.4526 35.7526C80.803 34.0737 81.7208 32.5667 83.0517 31.4849C84.3826 30.4031 86.0454 29.8126 87.7604 29.8126C89.4755 29.8126 91.1383 30.4031 92.4692 31.4849C93.8 32.5667 94.7178 34.0737 95.0682 35.7526C95.4187 37.4315 95.1803 39.1799 94.3932 40.7037C93.6062 42.2275 92.3184 43.4339 90.7465 44.1199C90.4127 44.2656 90.1288 44.5058 89.9298 44.8109C89.7308 45.116 89.6255 45.4727 89.6268 45.8369V46.6581C89.6268 47.1531 89.8234 47.6278 90.1734 47.9778C90.5234 48.3278 90.9981 48.5244 91.4931 48.5244H100.825C101.815 48.5244 102.764 48.1312 103.464 47.4312C104.164 46.7312 104.557 45.7817 104.557 44.7918V20.7349C104.539 20.2692 104.68 19.8112 104.959 19.4375C105.238 19.0638 105.636 18.7971 106.088 18.682C106.362 18.6336 106.643 18.647 106.911 18.7213C107.179 18.7956 107.427 18.9288 107.637 19.1112C107.842 19.2865 108.006 19.504 108.119 19.7488C108.232 19.9937 108.29 20.2601 108.29 20.5296V44.7918C108.29 46.7717 107.503 48.6705 106.103 50.0705C104.703 51.4706 102.805 52.2571 100.825 52.2571H97.092C96.5971 52.2571 96.1223 52.4537 95.7723 52.8037C95.4223 53.1537 95.2257 53.6284 95.2257 54.1234C95.2257 54.6184 95.4223 55.0931 95.7723 55.4431C96.1223 55.7931 96.5971 55.9897 97.092 55.9897H100.825C103.795 55.9897 106.643 54.8099 108.743 52.7099C110.843 50.6099 112.023 47.7617 112.023 44.7918V20.5296C112.023 19.7163 111.846 18.9127 111.505 18.1746C111.163 17.4365 110.665 16.7817 110.044 16.2558Z" fill="black"/>
<path d="M5.6424 22.3958C7.12733 22.3958 8.55145 21.806 9.60146 20.7559C10.6515 19.7059 11.2414 18.2818 11.2414 16.7969V11.1979H22.4393V15.2665C21.3181 14.8701 20.0998 14.841 18.961 15.1834C17.8221 15.5258 16.8219 16.2219 16.1052 17.1708C15.3884 18.1198 14.9925 19.2723 14.9746 20.4613C14.9568 21.6504 15.3181 22.8142 16.006 23.7842C16.694 24.7543 17.6729 25.48 18.8009 25.8564C19.929 26.2328 21.1476 26.2402 22.2802 25.8776C23.4128 25.515 24.4004 24.8012 25.1002 23.8396C25.7999 22.8781 26.1753 21.7187 26.1719 20.5295V1.86632C26.1719 1.37134 25.9753 0.896635 25.6253 0.546632C25.2753 0.196629 24.8006 0 24.3056 0H9.37504C8.88006 0 8.40535 0.196629 8.05535 0.546632C7.70535 0.896635 7.50872 1.37134 7.50872 1.86632V11.5339C6.73866 11.2544 5.91668 11.1474 5.10075 11.2203C4.28482 11.2932 3.49482 11.5442 2.78649 11.9557C2.07816 12.3672 1.46876 12.9291 1.00126 13.6018C0.53377 14.2745 0.219582 15.0416 0.0808619 15.8489C-0.0578578 16.6563 -0.017729 17.4842 0.198417 18.2744C0.414564 19.0645 0.801462 19.7976 1.33182 20.4219C1.86217 21.0463 2.52306 21.5466 3.26787 21.8877C4.01267 22.2287 4.82324 22.4022 5.6424 22.3958ZM20.573 22.3958C20.2038 22.3958 19.843 22.2864 19.5361 22.0813C19.2292 21.8762 18.99 21.5848 18.8487 21.2437C18.7074 20.9027 18.6705 20.5274 18.7425 20.1654C18.8145 19.8034 18.9923 19.4708 19.2533 19.2098C19.5143 18.9488 19.8468 18.7711 20.2089 18.6991C20.5709 18.627 20.9461 18.664 21.2872 18.8053C21.6282 18.9465 21.9197 19.1857 22.1247 19.4926C22.3298 19.7996 22.4393 20.1604 22.4393 20.5295C22.4393 21.0245 22.2426 21.4992 21.8926 21.8492C21.5426 22.1992 21.0679 22.3958 20.573 22.3958ZM11.2414 3.73264H22.4393V7.46528H11.2414V3.73264ZM5.6424 14.9306C6.01152 14.9306 6.37235 15.04 6.67927 15.2451C6.98618 15.4502 7.2254 15.7416 7.36665 16.0827C7.50791 16.4237 7.54487 16.799 7.47286 17.161C7.40085 17.523 7.22309 17.8556 6.96208 18.1166C6.70108 18.3776 6.36853 18.5553 6.0065 18.6273C5.64447 18.6994 5.26921 18.6624 4.92819 18.5211C4.58716 18.3799 4.29568 18.1407 4.09061 17.8338C3.88554 17.5268 3.77608 17.166 3.77608 16.7969C3.77608 16.3019 3.97271 15.8272 4.32271 15.4772C4.67271 15.1272 5.14742 14.9306 5.6424 14.9306Z" fill="#F9701F"/>
<path d="M73.3152 20.3054C74.2083 20.8899 75.2526 21.2012 76.32 21.2012C77.2569 21.195 78.1782 20.9607 79.0041 20.5184C79.8301 20.0762 80.5359 19.4393 81.0604 18.663L86.0622 10.7871L93.938 15.8075C94.2384 16.0016 94.5882 16.1052 94.9458 16.1062C95.2581 16.1056 95.5653 16.0268 95.8391 15.8768C96.113 15.7268 96.3449 15.5105 96.5135 15.2476L100.526 8.93949C100.675 8.7279 100.779 8.48754 100.831 8.23371C100.882 7.97988 100.88 7.71812 100.825 7.46509C100.709 6.98349 100.416 6.5634 100.004 6.28931L90.5227 0.298425C90.1067 0.0318335 89.602 -0.0589348 89.1192 0.046021C88.6364 0.150977 88.2149 0.443092 87.9471 0.858321L84.0279 7.14782L80.7431 12.1682C80.3562 11.6597 79.8823 11.2237 79.3434 10.8805C78.0952 10.1547 76.6148 9.93921 75.2115 10.279C73.8082 10.6188 72.5904 11.4875 71.8124 12.7039C71.0344 13.9202 70.7564 15.3901 71.0364 16.8066C71.3165 18.223 72.1329 19.4766 73.3152 20.3054ZM90.1121 4.44166L96.4016 8.45424L94.3673 11.6083L88.0778 7.59574L90.1121 4.44166ZM74.6963 14.5944C74.8666 14.3289 75.1014 14.1109 75.3788 13.9608C75.6563 13.8107 75.9672 13.7333 76.2826 13.7359C76.6374 13.7389 76.985 13.8355 77.2904 14.0159C77.7028 14.2864 77.9913 14.7091 78.093 15.1917C78.1998 15.672 78.1126 16.175 77.8503 16.5914C77.7192 16.7985 77.5486 16.9778 77.3482 17.119C77.1478 17.2601 76.9216 17.3605 76.6824 17.4142C76.4433 17.4679 76.1959 17.474 75.9543 17.4321C75.7128 17.3902 75.4819 17.3011 75.2748 17.17C75.0677 17.0389 74.8884 16.8682 74.7473 16.6678C74.6061 16.4675 74.5058 16.2412 74.452 16.002C74.3983 15.7629 74.3922 15.5155 74.4341 15.2739C74.476 15.0324 74.5651 14.8015 74.6963 14.5944Z" fill="#F9701F"/>
<path d="M37.3699 17.4128C37.6416 18.6575 38.3297 19.7722 39.3205 20.573C40.3113 21.3738 41.5456 21.8127 42.8195 21.8174C43.227 21.8108 43.6331 21.7671 44.0326 21.6867C45.4796 21.3681 46.7413 20.4889 47.5413 19.2418L53.5695 9.79826C53.8361 9.38229 53.9269 8.87757 53.8219 8.39477C53.717 7.91198 53.4249 7.4905 53.0096 7.22274C52.5937 6.95615 52.0889 6.86538 51.6061 6.97034C51.1233 7.07529 50.7019 7.36741 50.4341 7.78264L47.224 12.7844C46.8433 12.277 46.3757 11.841 45.843 11.4966C44.5928 10.6986 43.077 10.4292 41.6284 10.7476C40.1798 11.066 38.9167 11.9462 38.1164 13.195C37.7125 13.8107 37.4381 14.5021 37.3097 15.2272C37.1814 15.9523 37.2019 16.6959 37.3699 17.4128ZM41.2518 15.2106C41.384 15.0029 41.5559 14.8235 41.7577 14.6826C41.9595 14.5416 42.1871 14.442 42.4276 14.3894C42.5638 14.37 42.702 14.37 42.8382 14.3894C43.1701 14.3921 43.4952 14.4832 43.7802 14.6533C44.0651 14.8235 44.2996 15.0666 44.4593 15.3575C44.619 15.6484 44.6983 15.9767 44.6889 16.3084C44.6795 16.6402 44.5818 16.9634 44.4059 17.2449C44.2737 17.4525 44.1018 17.632 43.9 17.7729C43.6982 17.9139 43.4706 18.0135 43.2301 18.0661C42.8707 18.1448 42.496 18.1155 42.1532 17.9819C41.8103 17.8484 41.5146 17.6164 41.3032 17.3153C41.0918 17.0141 40.9741 16.6572 40.965 16.2894C40.9559 15.9215 41.0556 15.5592 41.2518 15.2479V15.2106Z" fill="#F9701F"/>
<path d="M63.4983 14.9303C63.9933 14.9303 64.468 14.7337 64.818 14.3837C65.168 14.0337 65.3646 13.559 65.3646 13.064V5.59874C65.3646 5.10376 65.168 4.62906 64.818 4.27905C64.468 3.92905 63.9933 3.73242 63.4983 3.73242C63.0033 3.73242 62.5286 3.92905 62.1786 4.27905C61.8286 4.62906 61.632 5.10376 61.632 5.59874V13.064C61.632 13.559 61.8286 14.0337 62.1786 14.3837C62.5286 14.7337 63.0033 14.9303 63.4983 14.9303Z" fill="#F9701F"/>
<path d="M5.6424 37.3263V42.9252C5.6424 43.4202 5.83902 43.8949 6.18903 44.2449C6.53903 44.5949 7.01374 44.7916 7.50872 44.7916C8.00369 44.7916 8.4784 44.5949 8.8284 44.2449C9.17841 43.8949 9.37504 43.4202 9.37504 42.9252V37.3263C9.37504 36.8313 9.17841 36.3566 8.8284 36.0066C8.4784 35.6566 8.00369 35.46 7.50872 35.46C7.01374 35.46 6.53903 35.6566 6.18903 36.0066C5.83902 36.3566 5.6424 36.8313 5.6424 37.3263Z" fill="#F9701F"/>
<path d="M44.8351 31.7273C45.8659 31.7273 46.7015 30.8917 46.7015 29.8609C46.7015 28.8302 45.8659 27.9946 44.8351 27.9946C43.8044 27.9946 42.9688 28.8302 42.9688 29.8609C42.9688 30.8917 43.8044 31.7273 44.8351 31.7273Z" fill="#F9701F"/>
<path d="M35.5035 5.59885C36.5343 5.59885 37.3698 4.76327 37.3698 3.73253C37.3698 2.70179 36.5343 1.86621 35.5035 1.86621C34.4728 1.86621 33.6372 2.70179 33.6372 3.73253C33.6372 4.76327 34.4728 5.59885 35.5035 5.59885Z" fill="#F9701F"/>
</svg>
