<svg width="391" height="260" viewBox="0 0 391 260" fill="none" xmlns="http://www.w3.org/2000/svg">
<mask id="mask0" mask-type="alpha" maskUnits="userSpaceOnUse" x="0" y="0" width="391" height="260">
<rect width="391" height="260" fill="#C4C4C4"/>
</mask>
<g mask="url(#mask0)">
<path d="M280.378 51.395C280.392 42.0424 277.798 32.871 272.889 24.9101C267.981 16.9492 260.95 10.5138 252.587 6.32617C244.225 2.13851 234.86 0.364279 225.545 1.20257C216.23 2.04086 207.333 5.4585 199.852 11.072C192.372 16.6854 186.603 24.2726 183.194 32.982C179.786 41.6914 178.872 51.1784 180.555 60.3784C182.238 69.5784 186.452 78.1273 192.723 85.0658C198.994 92.0043 207.075 97.0577 216.059 99.6591L230.056 113.656L244.038 99.6591C254.502 96.63 263.701 90.2879 270.254 81.5852C276.807 72.8824 280.359 62.2888 280.378 51.395Z" fill="#F9701F"/>
<path opacity="0.6" d="M232.469 17.7238H227.628V84.101H232.469C241.271 84.101 249.713 80.6044 255.937 74.3803C262.161 68.1562 265.657 59.7146 265.657 50.9124C265.657 42.1102 262.161 33.6686 255.937 27.4445C249.713 21.2204 241.271 17.7238 232.469 17.7238Z" fill="#FAFAFA"/>
<path d="M251.099 74.3837C264.06 61.4227 264.06 40.4088 251.099 27.4479C238.138 14.4869 217.124 14.4869 204.163 27.4479C191.203 40.4088 191.202 61.4227 204.163 74.3837C217.124 87.3446 238.138 87.3446 251.099 74.3837Z" fill="#FAFAFA"/>
<path opacity="0.2" d="M246.494 33.4379C241.622 28.9456 235.207 26.503 228.582 26.6178C221.956 26.7325 215.629 29.3957 210.916 34.0539C206.203 38.7121 203.466 45.0072 203.274 51.631C203.082 58.2548 205.449 64.698 209.884 69.6217C207.38 67.2465 205.378 64.392 203.999 61.228C202.62 58.0639 201.891 54.6549 201.855 51.2035C201.819 47.752 202.478 44.3287 203.792 41.1369C205.106 37.9451 207.048 35.05 209.503 32.6236C211.957 30.1973 214.875 28.2892 218.082 27.0129C221.289 25.7366 224.72 25.118 228.171 25.194C231.621 25.2699 235.022 26.0389 238.169 27.4551C241.317 28.8713 244.148 30.9059 246.494 33.4379Z" fill="#F9701F"/>
<g opacity="0.2">
<path d="M237.465 43.9851L231.12 44.9788C230.906 44.3851 230.615 43.822 230.254 43.3037C229.89 42.9109 229.457 42.5885 228.977 42.3527V47.2926C231.462 47.7816 233.82 48.777 235.904 50.2169C236.653 50.8647 237.249 51.6705 237.649 52.5763C238.049 53.482 238.243 54.4651 238.218 55.4549C238.231 56.6475 237.942 57.8241 237.38 58.876C236.86 59.8773 236.14 60.7613 235.265 61.4737C234.454 62.1422 233.525 62.6526 232.525 62.9784C231.373 63.3214 230.179 63.5076 228.977 63.5321V64.398C228.979 64.5613 228.948 64.7235 228.887 64.8749C228.826 65.0264 228.735 65.1642 228.62 65.2804C228.505 65.3966 228.368 65.4889 228.218 65.5518C228.067 65.6148 227.905 65.6472 227.742 65.6472V65.6472C227.577 65.6491 227.414 65.6181 227.261 65.556C227.109 65.4938 226.971 65.4019 226.854 65.2855C226.738 65.1691 226.646 65.0307 226.584 64.8783C226.522 64.7258 226.491 64.5625 226.492 64.398V63.5321C225.104 63.4495 223.733 63.1772 222.418 62.7229C221.424 62.3557 220.508 61.8016 219.721 61.0905C219.01 60.453 218.419 59.6934 217.975 58.8476C217.523 57.9296 217.212 56.9485 217.053 55.9376L223.952 55.1426C224.063 56.0026 224.343 56.8322 224.775 57.5842C225.224 58.165 225.816 58.6198 226.492 58.9044V52.8856C224.818 52.4642 223.18 51.9088 221.595 51.2247C220.492 50.6634 219.572 49.7988 218.943 48.7326C218.315 47.6664 218.004 46.4429 218.046 45.2059C218.024 44.2602 218.201 43.3205 218.566 42.4475C218.93 41.5745 219.474 40.7878 220.161 40.1382C221.931 38.6454 224.178 37.8392 226.492 37.8669V37.4269C226.491 37.2623 226.522 37.099 226.584 36.9466C226.646 36.7942 226.738 36.6557 226.854 36.5393C226.971 36.423 227.109 36.331 227.261 36.2689C227.414 36.2068 227.577 36.1758 227.742 36.1777V36.1777C227.905 36.1777 228.067 36.2101 228.218 36.273C228.368 36.336 228.505 36.4282 228.62 36.5444C228.735 36.6606 228.826 36.7984 228.887 36.9499C228.948 37.1014 228.979 37.2635 228.977 37.4269V37.8669C231.064 37.8731 233.102 38.5061 234.825 39.6839C236.195 40.7528 237.132 42.2802 237.465 43.9851ZM226.492 42.2675C225.911 42.415 225.385 42.7253 224.974 43.1618C224.689 43.5152 224.539 43.9575 224.548 44.411C224.536 44.8866 224.686 45.352 224.974 45.7311C225.383 46.1756 225.909 46.4954 226.492 46.6538V42.2675ZM228.977 59.0747C229.779 58.9466 230.522 58.5749 231.106 58.0101C231.538 57.5597 231.777 56.9589 231.773 56.335C231.756 55.81 231.555 55.3076 231.205 54.9155C230.579 54.3186 229.813 53.889 228.977 53.6663V59.0747Z" fill="#F9701F"/>
</g>
<path d="M113.257 96.1672C116.805 80.6233 109.083 71.879 97.2443 66.8965C85.4055 61.9139 61.5289 64.0574 63.7008 84.9387C64.0153 88.5584 64.9769 92.0923 66.5399 95.3723C61.0179 103.35 62.2813 115.572 72.9704 118.085C85.0506 120.924 112.575 117.304 120.78 112.747C115.386 113.769 110.446 108.489 113.257 96.1672Z" fill="#263238"/>
<path d="M121.135 111.512C119.549 111.512 118.025 110.902 116.876 109.809C115.201 108.233 112.618 104.23 114.165 94.9465C116.465 81.2622 110.73 72.234 96.6054 67.1804C96.5636 67.1617 96.5303 67.128 96.5119 67.086C96.4936 67.0441 96.4915 66.9967 96.5061 66.9533C96.5124 66.9302 96.5235 66.9087 96.5387 66.8901C96.5539 66.8716 96.5728 66.8565 96.5942 66.8457C96.6157 66.835 96.6391 66.829 96.6631 66.8279C96.687 66.8269 96.7109 66.8309 96.7332 66.8397C111.028 71.9075 116.848 81.1202 114.52 95.0032C112.987 104.117 115.485 108.035 117.118 109.539C117.849 110.237 118.748 110.734 119.728 110.983C120.708 111.231 121.735 111.223 122.711 110.959C122.758 110.95 122.806 110.96 122.846 110.987C122.885 111.013 122.913 111.054 122.924 111.101C122.93 111.123 122.932 111.147 122.929 111.17C122.925 111.193 122.918 111.215 122.906 111.235C122.894 111.255 122.878 111.272 122.859 111.286C122.84 111.299 122.819 111.309 122.796 111.314C122.252 111.443 121.694 111.51 121.135 111.512Z" fill="#263238"/>
<path d="M71.2528 117.191C69.2689 116.976 67.3955 116.17 65.8763 114.876C64.3572 113.582 63.2628 111.861 62.7356 109.937C61.896 107.335 61.816 104.549 62.5049 101.903C63.1939 99.2582 64.6232 96.8645 66.6251 95.0032C66.6419 94.9883 66.6614 94.9769 66.6826 94.9695C66.7038 94.9622 66.7263 94.9591 66.7487 94.9604C66.7711 94.9617 66.793 94.9674 66.8132 94.9772C66.8334 94.987 66.8515 95.0007 66.8664 95.0175C66.8813 95.0342 66.8928 95.0538 66.9002 95.075C66.9075 95.0962 66.9106 95.1186 66.9093 95.141C66.908 95.1635 66.9023 95.1854 66.8925 95.2056C66.8827 95.2258 66.869 95.2439 66.8522 95.2588C64.9043 97.077 63.5146 99.4124 62.8459 101.992C62.1772 104.571 62.2571 107.288 63.0763 109.823C63.5722 111.681 64.6187 113.345 66.078 114.596C67.5374 115.848 69.3414 116.629 71.2528 116.836C71.2978 116.846 71.338 116.871 71.3665 116.907C71.395 116.943 71.41 116.988 71.4089 117.034C71.4032 117.074 71.3849 117.11 71.3568 117.138C71.3286 117.167 71.2922 117.185 71.2528 117.191Z" fill="#263238"/>
<path d="M125.237 147.355C125.55 150.748 125.961 154.453 126.472 157.988C126.983 161.522 127.494 165.085 128.204 168.663C129.497 175.666 131.305 182.565 133.613 189.303L134.549 191.744L134.975 192.866C134.975 192.866 134.975 192.866 134.862 192.866C134.586 192.593 134.225 192.423 133.84 192.383C133.627 192.383 133.911 192.482 134.365 192.383C135.675 192.031 136.932 191.501 138.098 190.807C139.567 189.977 140.988 189.068 142.357 188.082C145.196 186.052 148.035 183.823 150.746 181.396C153.458 178.968 156.24 176.513 158.866 174.043L163.579 178.032C159.145 184.379 154.059 190.246 148.404 195.534C146.861 196.909 145.24 198.194 143.549 199.381C141.622 200.776 139.498 201.876 137.247 202.646C135.633 203.175 133.924 203.354 132.236 203.171C129.978 202.887 127.903 201.787 126.401 200.077C125.77 199.349 125.235 198.543 124.811 197.678C124.731 197.536 124.659 197.389 124.598 197.238L124.442 196.897L124.13 196.216L122.909 193.49C119.952 186.265 117.676 178.78 116.11 171.133C115.286 167.357 114.577 163.567 114.037 159.776C113.498 155.986 113.044 152.21 112.816 148.165L125.237 147.355Z" fill="#FFC3BD"/>
<path d="M120.525 133.316C124.783 134.409 127.253 162.842 127.253 162.842L115.812 169.713C115.812 169.713 108.899 148.704 109.963 139.633C110.73 133.061 117.288 132.493 120.525 133.316Z" fill="#FFC3BD"/>
<path d="M158.724 173.248L165.297 162.857L169.03 174.667C169.03 174.667 163.636 180.345 158.753 178.926L158.724 173.248Z" fill="#FFC3BD"/>
<path d="M174.95 159.422L177.533 169.472L169.03 174.667L165.297 162.857L174.95 159.422Z" fill="#FFC3BD"/>
<path d="M121.291 133.288C121.291 133.288 127.097 135.332 115.471 206.791H66.0006C66.8381 186.662 66.8665 174.256 57.2421 132.976C64.1635 131.529 71.1798 130.58 78.2369 130.137C85.7178 129.603 93.2272 129.603 100.708 130.137C110.347 131.059 121.291 133.288 121.291 133.288Z" fill="#263238"/>
<path d="M80.4655 104.883C81.885 112.109 83.3045 125.353 78.2368 130.165C84.5542 136.87 91.912 142.512 100.027 146.873C107.053 135.517 100.708 130.179 100.708 130.179C92.6451 128.249 92.858 122.272 94.2491 116.651L80.4655 104.883Z" fill="#FFC3BD"/>
<path opacity="0.2" d="M86.0868 109.681L94.2491 116.651C93.9006 117.958 93.6678 119.293 93.5536 120.64C90.4732 120.186 86.243 116.807 85.9165 113.542C85.7479 112.255 85.8056 110.949 86.0868 109.681Z" fill="black"/>
<path d="M72.8426 91.6388C75.6817 103.393 76.6327 108.418 83.702 113.457C94.3627 121.037 108.175 114.976 108.899 102.626C109.566 91.4969 104.825 74.1502 92.3612 71.4815C89.6152 70.8804 86.7611 70.9911 84.0699 71.803C81.3787 72.6149 78.9397 74.1011 76.9842 76.1205C75.0288 78.1399 73.6219 80.6256 72.8971 83.3415C72.1722 86.0574 72.1535 88.9136 72.8426 91.6388Z" fill="#FFC3BD"/>
<path d="M115.471 206.791C115.471 206.791 125.081 300.608 124.272 337.743C123.449 376.383 115.755 424.15 115.755 424.15H94.5189C94.5189 424.15 95.4274 378.64 93.9795 340.696C92.3896 299.345 79.2448 206.791 79.2448 206.791H115.471Z" fill="#F9701F"/>
<path opacity="0.2" d="M94.1356 230.143C106.287 254.573 96.5772 299.16 92.276 315.74C90.0757 290.827 86.3565 260.379 83.4607 238.021C85.3487 225.373 88.5284 218.871 94.1356 230.143Z" fill="black"/>
<path d="M102.383 206.791C102.383 206.791 91.1687 304.327 82.7083 335.642C72.6722 372.82 52.1316 413.858 52.1316 413.858L30.8386 407.854C30.8386 407.854 42.7769 357.744 50.4565 338.155C66.8521 296.364 52.8271 234.075 65.9152 206.791H102.383Z" fill="#F9701F"/>
<path d="M92.6875 91.866C92.8721 92.8313 93.5109 93.5269 94.1071 93.4133C94.7033 93.2997 95.1149 92.4196 94.9446 91.4543C94.7743 90.489 94.1213 89.7935 93.5251 89.907C92.9289 90.0206 92.5172 90.9007 92.6875 91.866Z" fill="#263238"/>
<path d="M103.632 89.9214C103.803 90.9009 104.456 91.5822 105.052 91.4829C105.648 91.3835 106.06 90.4892 105.889 89.5239C105.719 88.5586 105.066 87.8631 104.47 87.9766C103.874 88.0902 103.462 88.9561 103.632 89.9214Z" fill="#263238"/>
<path d="M104.186 88.0758L106.4 86.9969C106.4 86.9969 105.52 89.0269 104.186 88.0758Z" fill="#263238"/>
<path d="M100.523 91.9938C101.777 94.0468 103.305 95.919 105.066 97.5583C104.638 97.9979 104.119 98.3377 103.544 98.5536C102.97 98.7695 102.356 98.8562 101.744 98.8075L100.523 91.9938Z" fill="#ED847E"/>
<path d="M96.6199 103.378C97.1722 103.373 97.723 103.321 98.2665 103.222C98.304 103.217 98.34 103.204 98.3725 103.185C98.4051 103.166 98.4334 103.14 98.4559 103.11C98.4784 103.079 98.4945 103.045 98.5034 103.008C98.5124 102.971 98.5139 102.933 98.5078 102.896C98.494 102.819 98.4505 102.751 98.3868 102.706C98.3231 102.66 98.2442 102.642 98.1671 102.654C96.9696 102.897 95.7317 102.852 94.5548 102.524C93.3778 102.196 92.2953 101.594 91.396 100.767C91.339 100.717 91.2659 100.689 91.1902 100.689C91.1144 100.689 91.0413 100.717 90.9843 100.767C90.9314 100.822 90.9019 100.896 90.9019 100.972C90.9019 101.049 90.9314 101.123 90.9843 101.178C92.506 102.615 94.527 103.404 96.6199 103.378Z" fill="#263238"/>
<path d="M86.9953 69.182C94.5614 71.1551 98.9052 72.2056 101.361 74.3917C108.459 80.6944 82.1831 81.4893 82.9781 82.5256C86.8392 96.8628 77.2148 107.665 71.6218 95.7556C66.0289 83.8457 62.0684 78.0966 71.1534 73.1851C80.2384 68.2735 86.9953 69.182 86.9953 69.182Z" fill="#263238"/>
<path d="M72.3458 100.483C72.7913 101.551 73.4431 102.521 74.264 103.337C75.0849 104.153 76.0587 104.799 77.1296 105.238C79.9687 106.402 81.7714 103.904 81.2604 100.979C80.8062 98.3817 78.7478 94.6483 75.7242 94.7193C75.0588 94.7439 74.4102 94.9359 73.8386 95.2776C73.267 95.6193 72.7908 96.0996 72.4541 96.6741C72.1173 97.2487 71.9308 97.8988 71.9119 98.5645C71.893 99.2301 72.0422 99.8898 72.3458 100.483Z" fill="#FFC3BD"/>
<path d="M88.4574 85.393C88.5375 85.3949 88.6171 85.3794 88.6906 85.3475C88.7641 85.3156 88.8299 85.2682 88.8833 85.2084C89.3635 84.6689 89.9659 84.2521 90.64 83.9928C91.3142 83.7336 92.0406 83.6393 92.7586 83.7179C92.9107 83.7431 93.0666 83.7084 93.1937 83.621C93.3207 83.5337 93.409 83.4005 93.4399 83.2495C93.4648 83.0991 93.4296 82.9449 93.342 82.8202C93.2544 82.6954 93.1214 82.61 92.9715 82.5823C92.0625 82.4698 91.1398 82.5789 90.282 82.9002C89.4243 83.2215 88.6571 83.7456 88.0457 84.4277C87.9921 84.4805 87.9495 84.5435 87.9204 84.613C87.8913 84.6824 87.8763 84.757 87.8763 84.8323C87.8763 84.9076 87.8913 84.9821 87.9204 85.0516C87.9495 85.121 87.9921 85.184 88.0457 85.2368C88.1587 85.3383 88.3055 85.394 88.4574 85.393Z" fill="#263238"/>
<path d="M106.358 83.9166C106.47 83.9141 106.579 83.879 106.672 83.8158C106.765 83.7526 106.837 83.6638 106.881 83.5603C106.925 83.4567 106.937 83.3428 106.917 83.2322C106.898 83.1217 106.846 83.0192 106.769 82.9372C106.155 82.2555 105.385 81.7329 104.525 81.414C103.664 81.0951 102.74 80.9894 101.829 81.106C101.679 81.1368 101.547 81.2257 101.462 81.3533C101.377 81.4808 101.346 81.6368 101.375 81.7873C101.389 81.8612 101.417 81.9315 101.458 81.9944C101.499 82.0573 101.552 82.1114 101.614 82.1537C101.676 82.1959 101.746 82.2254 101.819 82.2405C101.893 82.2556 101.969 82.256 102.042 82.2416C102.764 82.1665 103.494 82.2622 104.172 82.5212C104.85 82.7801 105.458 83.1949 105.946 83.7321C105.999 83.7887 106.063 83.8342 106.133 83.8659C106.204 83.8976 106.28 83.9148 106.358 83.9166Z" fill="#263238"/>
<path d="M63.4169 150.663C60.9611 157.079 58.6047 163.822 56.5322 170.451C54.4381 176.989 52.8156 183.668 51.6774 190.438C51.5212 191.276 51.4503 192.071 51.3651 192.88L51.2373 194.086V194.612C51.3787 195.554 51.7226 196.455 52.2452 197.252C53.929 199.991 55.8835 202.554 58.0795 204.903C62.6362 209.985 67.8884 214.84 73.0697 219.638L69.4925 224.649C63.031 220.922 56.9334 216.597 51.2799 211.731C48.225 209.156 45.4937 206.22 43.146 202.987C41.5436 200.851 40.4863 198.356 40.0656 195.719C40.0265 195.246 40.0265 194.772 40.0656 194.299C40.0656 194.001 40.0656 193.987 40.0656 193.831V193.462V192.042C40.0656 191.049 40.165 190.069 40.2786 189.118C41.0733 181.616 42.5559 174.204 44.7075 166.973C46.7041 159.837 49.1118 152.822 51.9187 145.964L63.4169 150.663Z" fill="#FFC3BD"/>
<path d="M57.2846 132.933C52.444 134.92 46.3684 161.48 46.3684 161.48L56.6884 169.997C56.6884 169.997 66.398 150.195 66.8239 141.067C67.1503 134.225 61.5858 131.187 57.2846 132.933Z" fill="#FFC3BD"/>
<path d="M65.2622 203.895L64.0556 208.324C63.8852 208.665 64.2969 209.02 64.8647 209.02H115.769C116.209 209.02 116.578 208.793 116.607 208.509L117.061 204.094C117.061 203.782 116.706 203.526 116.209 203.526H66.0713C65.916 203.512 65.7595 203.538 65.6176 203.603C65.4757 203.668 65.3531 203.769 65.2622 203.895Z" fill="#F9701F"/>
<path opacity="0.8" d="M65.2622 203.895L64.0556 208.324C63.8852 208.665 64.2969 209.02 64.8647 209.02H115.769C116.209 209.02 116.578 208.793 116.607 208.509L117.061 204.094C117.061 203.782 116.706 203.526 116.209 203.526H66.0713C65.916 203.512 65.7595 203.538 65.6176 203.603C65.4757 203.668 65.3531 203.769 65.2622 203.895Z" fill="white"/>
<path d="M71.9907 209.46H70.6564C70.3867 209.46 70.1879 209.332 70.2021 209.162L70.8267 203.413C70.8267 203.242 71.0822 203.1 71.3519 203.1H72.6863C72.956 203.1 73.1547 203.242 73.1405 203.413L72.516 209.162C72.4876 209.361 72.2604 209.46 71.9907 209.46Z" fill="#F9701F"/>
<path d="M111.936 209.46H110.602C110.332 209.46 110.134 209.332 110.148 209.162L110.772 203.413C110.772 203.242 111.028 203.1 111.298 203.1H112.646C112.902 203.1 113.115 203.242 113.086 203.413L112.462 209.162C112.447 209.361 112.206 209.46 111.936 209.46Z" fill="#F9701F"/>
<path d="M91.9637 209.46H90.6293C90.3596 209.46 90.1608 209.332 90.175 209.162L90.7996 203.413C90.7996 203.242 91.0552 203.1 91.3249 203.1H92.6592C92.9289 203.1 93.1419 203.242 93.1135 203.413L92.4889 209.162C92.4463 209.361 92.2334 209.46 91.9637 209.46Z" fill="#F9701F"/>
<path d="M68.7118 291.495L129.113 292.488L119.02 206.791L121.859 168.279L115.003 161.366C115.712 137.234 112.164 131.329 112.164 131.329L107.309 130.562C111.567 136.823 110.858 154.155 110.148 160.074C100.126 158.3 85.8314 160.074 85.8314 160.074C85.0932 142.557 74.1344 129.767 74.1344 129.767L69.8758 130.491C79.5854 141.621 81.5302 161.295 81.5302 161.295L71.1534 170.678L72.5729 179.778C70.2154 180.392 67.7583 180.528 65.3475 180.175L65.6314 184.164C68.1493 184.722 70.7785 184.484 73.155 183.483L76.6612 206.266L68.7118 291.495Z" fill="white"/>
<path d="M71.6359 218.545L84.7524 219.666L75.9939 228.411C75.9939 228.411 68.4846 226.239 67.4767 221.313L71.6359 218.545Z" fill="#FFC3BD"/>
<path d="M92.2475 226.636L84.511 233.578L74.1343 227.729L84.7524 219.667L92.2475 226.636Z" fill="#FFC3BD"/>
<path d="M93.2555 90.0066L95.47 88.9277C95.47 88.9277 94.5899 90.9577 93.2555 90.0066Z" fill="#263238"/>
<path d="M0.403931 227.63H230.453C233.19 227.63 235.815 228.717 237.75 230.653C239.686 232.588 240.773 235.213 240.773 237.95V480.988H0.403931V227.63Z" fill="#F9701F"/>
<path opacity="0.3" d="M56.6457 227.63H0.403931V480.988H56.6457V227.63Z" fill="black"/>
<path opacity="0.3" d="M240.773 235.423H0.403931V243.216H240.773V235.423Z" fill="black"/>
<path d="M234.655 227.63H0.432373V238.163H245.188C245.188 235.369 244.078 232.69 242.103 230.715C240.128 228.74 237.448 227.63 234.655 227.63Z" fill="#263238"/>
<path d="M172.153 192.426H136.75C132.127 192.426 127.55 193.336 123.28 195.106C119.009 196.875 115.13 199.468 111.862 202.738C108.594 206.007 106.002 209.888 104.234 214.159C102.467 218.43 101.558 223.007 101.56 227.63H172.153V192.426Z" fill="#F9701F"/>
<path opacity="0.5" d="M172.153 192.426H136.75C132.127 192.426 127.55 193.336 123.28 195.106C119.009 196.875 115.13 199.468 111.862 202.738C108.594 206.007 106.002 209.888 104.234 214.159C102.467 218.43 101.558 223.007 101.56 227.63H172.153V192.426Z" fill="white"/>
<path d="M172.153 192.426H211.985C212.339 192.426 212.678 192.566 212.929 192.816C213.179 193.067 213.319 193.406 213.319 193.76V227.63H172.153V192.426Z" fill="#F9701F"/>
<path opacity="0.7" d="M172.153 192.426H211.985C212.339 192.426 212.678 192.566 212.929 192.816C213.179 193.067 213.319 193.406 213.319 193.76V227.63H172.153V192.426Z" fill="white"/>
<path d="M161.634 187.699H205.64C206.876 187.725 208.053 188.234 208.918 189.118C209.783 190.001 210.268 191.189 210.268 192.426H156.907C156.907 191.172 157.405 189.97 158.292 189.083C159.178 188.197 160.381 187.699 161.634 187.699Z" fill="#F9701F"/>
<path opacity="0.3" d="M161.634 187.699C160.381 187.699 159.178 188.197 158.292 189.083C157.405 189.97 156.907 191.172 156.907 192.426H171.387C171.387 191.804 171.509 191.188 171.748 190.613C171.986 190.039 172.336 189.517 172.776 189.078C173.217 188.639 173.739 188.291 174.314 188.054C174.89 187.818 175.506 187.697 176.128 187.699H161.634Z" fill="black"/>
<path d="M221.001 159.326L235.818 178.284C236.392 179.019 237.454 179.149 238.189 178.575L247.461 171.328C248.196 170.754 248.326 169.692 247.752 168.957L232.935 149.999C232.36 149.264 231.299 149.134 230.564 149.708L221.292 156.955C220.557 157.53 220.426 158.591 221.001 159.326Z" fill="#F9701F"/>
<path d="M226.15 153.164L243.047 174.783L246.157 172.353L229.259 150.734L226.15 153.164Z" fill="#263238"/>
<path d="M223.422 158.784L228.763 165.618L231.872 163.188L226.531 156.354L223.422 158.784Z" fill="white"/>
<path d="M378.908 140.783C379.263 141.322 379.447 141.606 379.674 141.989L380.313 143.04C380.725 143.75 381.08 144.459 381.449 145.155C382.158 146.575 382.868 147.994 383.436 149.414C384.626 152.233 385.65 155.119 386.502 158.059C388.223 163.863 389.35 169.827 389.866 175.859L389.98 176.981C389.998 177.208 389.998 177.436 389.98 177.662V178.415C389.997 179.402 389.94 180.389 389.81 181.367C389.544 183.181 389.068 184.958 388.39 186.662C387.152 189.713 385.499 192.579 383.479 195.179C379.732 199.993 375.276 204.21 370.263 207.685L366.416 203.043C369.981 199.017 373.138 194.647 375.841 189.998C377.058 187.889 378.011 185.639 378.681 183.298C378.952 182.306 379.109 181.287 379.149 180.26C379.193 179.821 379.193 179.379 379.149 178.94V178.642C379.163 178.51 379.163 178.376 379.149 178.244L378.979 177.251C378.066 171.96 376.775 166.742 375.118 161.636C374.294 159.095 373.286 156.639 372.278 154.24C371.767 153.033 371.214 151.855 370.646 150.72L369.752 149.045L369.326 148.264L368.957 147.639L378.908 140.783Z" fill="#FF8B7B"/>
<path d="M365.649 207.714L370.802 218.573L374.933 209.46C374.933 209.46 371.313 201.511 366.416 202.249L365.649 207.714Z" fill="#FF8B7B"/>
<path d="M378.95 218.573L383.039 211.873L374.876 209.389L370.802 218.573H378.95Z" fill="#FF8B7B"/>
<path d="M353.64 99.205C352.221 106.303 349.14 121.648 354.08 126.361C354.08 126.361 352.15 133.458 339.047 133.458C324.625 133.458 332.148 126.361 332.148 126.361C340.027 124.487 339.814 118.638 338.451 113.159L353.64 99.205Z" fill="#FF8B7B"/>
<path d="M329.508 82.5678C329.593 82.5811 329.679 82.5811 329.764 82.5678C329.831 82.5346 329.891 82.4884 329.941 82.4318C329.99 82.3751 330.028 82.3092 330.051 82.2379C330.075 82.1666 330.085 82.0913 330.079 82.0164C330.073 81.9414 330.053 81.8683 330.019 81.8013C329.632 80.9957 329.059 80.2929 328.349 79.7502C327.639 79.2075 326.81 78.8403 325.931 78.6783C325.783 78.6659 325.636 78.7105 325.52 78.8028C325.404 78.8951 325.327 79.0283 325.306 79.1751C325.29 79.3237 325.333 79.4725 325.426 79.5894C325.519 79.7064 325.655 79.7819 325.803 79.7997C326.498 79.9355 327.151 80.234 327.709 80.6707C328.267 81.1074 328.713 81.67 329.011 82.3123C329.064 82.3951 329.138 82.4624 329.225 82.5073C329.312 82.5522 329.41 82.5731 329.508 82.5678Z" fill="#263238"/>
<path d="M325.249 88.7997C324.132 90.8718 322.737 92.7821 321.104 94.4778C321.546 94.8823 322.071 95.1858 322.642 95.3672C323.214 95.5486 323.817 95.6036 324.412 95.5283L325.249 88.7997Z" fill="#FF5652"/>
<path d="M326.328 87.1955C326.201 88.1466 325.604 88.8564 324.98 88.7854C324.355 88.7144 323.958 87.8769 324.071 86.9258C324.185 85.9747 324.795 85.265 325.406 85.3359C326.016 85.4069 326.442 86.2444 326.328 87.1955Z" fill="#263238"/>
<path d="M325.675 85.4212L323.475 84.4844C323.475 84.4844 324.426 86.4149 325.675 85.4212Z" fill="#263238"/>
<path d="M374.55 129.058C379.49 130.151 384.756 147.909 384.756 147.909L370.802 162.771C370.802 162.771 359.205 146.078 361.575 139.931C364.031 133.543 368.716 127.78 374.55 129.058Z" fill="#F9701F"/>
<path opacity="0.4" d="M366.714 140.371C364.216 138.086 362.526 138.767 361.377 140.584C360.241 145.865 366.969 156.923 369.681 161.111C370.93 156.114 372.364 145.581 366.714 140.371Z" fill="black"/>
<path d="M312.02 129.413C312.02 129.413 306.341 131.4 317.698 201.17H365.962C365.153 181.523 365.124 169.401 374.479 129.058C367.716 127.662 360.86 126.761 353.967 126.361C346.666 125.835 339.336 125.835 332.035 126.361C322.694 127.226 312.02 129.413 312.02 129.413Z" fill="#F9701F"/>
<path d="M325.661 124.884C327.563 123.905 342.568 120.895 353.753 121.364C360.141 121.633 363.804 122.457 366.529 124.032C369.255 125.608 365.578 134.111 363.548 135.19C364.769 138.37 360.397 142.586 357.87 144.601C357.104 147.653 346.514 150.734 339.487 144.445C334.093 139.619 320.224 127.666 325.661 124.884Z" fill="#263238"/>
<path opacity="0.4" d="M311.579 156.185C311.892 159.577 312.303 163.396 312.843 167.711C316.803 164.148 320.04 154.013 318.847 148.108C316.018 150.404 313.566 153.13 311.579 156.185Z" fill="black"/>
<path d="M316.732 145.581C314.088 152.25 311.103 158.779 307.789 165.142C306.157 168.35 304.411 171.516 302.508 174.639C300.593 177.866 298.458 180.958 296.121 183.894L295.198 185.03L294.971 185.314L294.573 185.739C294.312 186.027 294.032 186.297 293.736 186.549C292.581 187.58 291.242 188.385 289.789 188.919C287.338 189.747 284.726 189.98 282.167 189.601C278.164 188.952 274.298 187.642 270.725 185.725C264.267 182.271 258.264 178.028 252.853 173.091L256.516 168.308C259.355 170.011 262.435 171.714 265.445 173.233C268.386 174.787 271.426 176.148 274.544 177.307C277.305 178.43 280.219 179.133 283.189 179.394C284.119 179.47 285.055 179.319 285.914 178.954C286.105 178.863 286.271 178.727 286.397 178.557L287.376 177.137C291.016 171.592 294.247 165.79 297.043 159.776C299.982 153.644 302.792 147.27 305.461 141.053L316.732 145.581Z" fill="#FF8B7B"/>
<path d="M312.019 129.413C306.1 130.832 298.832 147.072 298.832 147.072L311.097 165.1C311.097 165.1 327.421 144.531 325.491 138.256C323.461 131.712 319.188 127.652 312.019 129.413Z" fill="#F9701F"/>
<path d="M255.479 174.043L244.208 174.17L247.431 164.461C247.431 164.461 256.26 165.667 259.057 169.741L255.479 174.043Z" fill="#FF8B7B"/>
<path d="M235.805 172.921L237.962 164.461H247.431L244.208 174.17L235.805 172.921Z" fill="#FF8B7B"/>
<path d="M358.736 87.8911C356.564 99.4887 355.897 104.457 349.254 109.723C339.317 117.644 325.477 112.449 324.128 100.44C322.921 89.6229 326.669 72.475 338.678 69.2101C341.327 68.4805 344.119 68.4412 346.787 69.0959C349.456 69.7505 351.913 71.0774 353.923 72.95C355.934 74.8227 357.432 77.1788 358.274 79.7942C359.117 82.4095 359.276 85.1969 358.736 87.8911Z" fill="#FF8B7B"/>
<path d="M333.596 87.6214C331.311 90.5315 315.142 109.142 324.426 116.367C353.342 114.11 361.589 124.132 369.61 109.851C377.63 95.5708 378.865 70.9704 356.55 66.7969C334.235 62.6235 321.999 67.819 333.596 87.6214Z" fill="#263238"/>
<path d="M329.153 87.0962C327.594 88.7543 326.739 90.9527 326.768 93.2286C326.839 96.2522 329.678 96.8342 332.021 95.2301C334.136 93.8106 336.634 90.4889 335.442 87.8202C335.17 87.2487 334.757 86.7559 334.242 86.3878C333.727 86.0198 333.127 85.7888 332.498 85.7164C331.869 85.644 331.232 85.7327 330.647 85.974C330.062 86.2154 329.548 86.6016 329.153 87.0962Z" fill="#FF8B7B"/>
<path d="M330.445 201.17C330.445 201.17 337.344 282.778 344.512 328.771C350.29 365.92 354.847 452.753 354.847 452.753H371.072C371.072 452.753 376.835 368.518 373.911 331.781C366.487 238.801 383.053 231.221 366.004 201.184L330.445 201.17Z" fill="#263238"/>
<path opacity="0.4" d="M343.931 228.41C339.7 234.825 336.666 241.952 334.973 249.448C336.393 263.217 337.968 278.449 339.729 293.098C344.243 280.89 349.183 256.162 343.931 228.41Z" fill="black"/>
<path d="M317.697 201.17C317.697 201.17 304.297 292.729 299.584 328.7C294.687 366.105 280.378 449.957 280.378 449.957L296.262 452.398C296.262 452.398 323.361 372.734 328.401 335.997C333.894 295.966 354.605 201.141 354.605 201.141L317.697 201.17Z" fill="#263238"/>
<path d="M366.714 198.331L368.886 202.66C369.056 203.001 368.659 203.342 368.105 203.342H317.456C317.016 203.342 316.661 203.129 316.633 202.845L316.193 198.586C316.193 198.288 316.548 198.033 317.016 198.033H365.919C366.066 198.013 366.215 198.029 366.354 198.081C366.493 198.133 366.616 198.219 366.714 198.331Z" fill="#EBEBEB"/>
<path d="M360.141 203.782H361.447C361.717 203.782 361.916 203.64 361.887 203.484L361.277 197.806C361.277 197.635 361.036 197.507 360.766 197.507H359.46C359.205 197.507 359.006 197.635 359.02 197.806L359.63 203.484C359.659 203.668 359.886 203.782 360.141 203.782Z" fill="#263238"/>
<path d="M328.401 203.782H329.707C329.962 203.782 330.161 203.64 330.147 203.484L329.536 197.806C329.536 197.635 329.281 197.507 329.025 197.507H327.719C327.45 197.507 327.251 197.635 327.279 197.806L327.89 203.484C327.904 203.668 328.088 203.782 328.401 203.782Z" fill="#263238"/>
</g>
</svg>
