<svg width="128" height="113" viewBox="0 0 128 113" fill="none" xmlns="http://www.w3.org/2000/svg">
<path d="M28.5802 84.3636L48.0548 78L56.0443 94.9697L64.0339 78L85.0065 85.4242L90 97.0909V113H24.0861L22.0887 110.879C21.2898 94.7576 26.0835 86.4848 28.5802 84.3636Z" fill="#F9701F"/>
<path d="M76.6531 78.9722L66 76L65.8291 71.2278C65.8291 71.2278 67.5 69 69.9831 67.9092C69.9831 67.9092 73.7693 63.7046 74.5211 59.7018C75.273 55.699 75.2654 48.6664 75.1946 45.5C75.1238 42.3336 74.5211 37.982 74.5211 37.982C72.2028 29.9532 64.7878 24.0645 56.0228 24.0645C47.2434 24.0645 39.8182 29.9718 37.5128 38.0203C34.865 35.0125 30.9905 33.1093 26.6777 33.1093C18.7165 33.1093 12.2397 39.5861 12.2397 47.5468V55.699C12.2397 60.8346 14.9373 65.3494 18.9877 67.9092V70.8037L11.6907 72.5469C4.80725 74.191 0 80.2817 0 87.358V102.063C0 103.271 0.979563 104.25 2.1875 104.25H19.6794V110.813C19.6794 112.021 20.659 113 21.8669 113H45.8647C45.8647 113 45.8647 112.021 45.8647 110.813C45.8647 109.604 45.8647 108.625 45.8647 108.625H36.099V98.9975C36.099 97.7893 35.1194 96.81 33.9115 96.81C32.7036 96.81 31.724 97.7893 31.724 98.9975V108.625H24.0542V98.7555C24.0542 91.3369 29.0929 84.9483 36.3075 83.2195L47.0662 80.6413L53.9888 96.3904C54.3379 97.1847 55.1235 97.6977 55.991 97.6977C56.8586 97.6977 57.6446 97.1849 57.9937 96.3906L64.9092 80.6645L75.6367 83.2271C82.8579 84.952 87.901 91.3419 87.901 98.7658V101.207C87.7892 101.47 87.7271 101.759 87.7271 102.062C87.7271 102.366 87.7892 102.655 87.901 102.918V108.625H80.276V98.9975C80.276 97.7893 79.2964 96.81 78.0885 96.81C76.8806 96.81 75.901 97.7893 75.901 98.9975V108.625H45.8647C45.8647 108.625 45.8647 109.604 45.8647 110.813C45.8647 112.021 45.8647 113 45.8647 113H90.0885C91.2964 113 92.276 112.021 92.276 110.813V104.25C92.276 104.25 92.276 97.5063 92.276 93.5C92.276 90.5 89.5 87 87.901 85.5C86.3019 84 84.3113 82.047 81.5 80.6645C79.7009 79.7798 76.6531 78.9722 76.6531 78.9722ZM41.1469 43.3147C41.1469 35.1124 47.8201 28.4397 56.0225 28.4397C64.2248 28.4397 70.898 35.1126 70.898 43.3147V43.5999L62.7791 38.8301C61.8579 38.2887 60.6806 38.4923 59.9944 39.3111C56.84 43.0754 52.2139 45.2344 47.3023 45.2344H41.1469V43.3147ZM16.6143 48.0887V47.5468C16.6143 41.9982 21.1286 37.4843 26.6772 37.4843C31.2432 37.4843 35.1085 40.5409 36.3346 44.7153C32.2416 47.0673 27.5975 48.3085 22.871 48.3085H16.6143V48.0887ZM16.6143 55.699V52.6833H22.8712C27.6907 52.6833 32.4365 51.5729 36.7402 49.4539V55.699C36.7402 61.2476 32.2258 65.7615 26.6772 65.7615C21.1286 65.7615 16.6143 61.2474 16.6143 55.699ZM19.6794 98.7555V99.8751H13.125V90.1563C13.125 88.9481 12.1454 87.9688 10.9375 87.9688C9.72956 87.9688 8.75 88.9481 8.75 90.1563V99.8751H4.375V87.358C4.375 82.3147 7.80106 77.9741 12.7065 76.8022L19.6405 75.1456L24.166 85.9858C21.3356 89.502 19.6794 93.9588 19.6794 98.7555ZM26.6777 80.6457L23.3555 72.6878C23.3592 72.6355 23.3623 72.5832 23.3623 72.5303V69.7482C24.4274 69.9993 25.5364 70.1365 26.6772 70.1365C27.813 70.1365 28.9168 70.0004 29.9777 69.7515V72.3918C29.9753 72.4329 29.9742 72.474 29.9742 72.5152C29.9742 72.5841 29.9808 72.6525 29.9873 72.721L26.6777 80.6457ZM35.2881 78.965C33.9964 79.2746 32.762 79.7053 31.5899 80.2364L33.7205 75.1347L40.6556 76.7965C41.1935 76.9254 41.7176 77.0958 42.2249 77.3027L35.2881 78.965ZM46.146 74.4056C44.7727 73.5538 43.2659 72.9231 41.6752 72.5421L34.3527 70.7875V67.9186C36.1738 66.7708 37.7206 65.2282 38.8736 63.4108C40.5228 66.6328 43.0539 69.3308 46.146 71.1867V74.4056ZM61.4541 77.653L55.9917 90.0749L50.521 77.6287V73.1172C52.2648 73.6382 54.1113 73.9193 56.0223 73.9193C57.9079 73.9193 59.7308 73.6455 61.4541 73.1377V77.653ZM56.0225 69.5445C47.8198 69.5443 41.1469 62.8714 41.1469 54.6693V49.6096H47.3021C52.8854 49.6096 58.1772 47.4029 62.0867 43.4975L70.8851 48.6664V55.1827C70.6129 63.1476 64.0528 69.5445 56.0225 69.5445Z" fill="black"/>
<path d="M50.2095 52.2269C49.8028 51.82 49.2384 51.5859 48.6631 51.5859C48.0878 51.5859 47.5234 51.82 47.1166 52.2269C46.7097 52.6337 46.4756 53.1981 46.4756 53.7734C46.4756 54.3488 46.7095 54.9131 47.1166 55.32C47.5236 55.7269 48.0878 55.9609 48.6631 55.9609C49.2406 55.9609 49.8028 55.7269 50.2095 55.32C50.6185 54.9131 50.8506 54.3488 50.8506 53.7734C50.8506 53.1981 50.6185 52.6337 50.2095 52.2269Z" fill="black"/>
<path d="M23.5604 54.4395C23.2815 54.1605 22.8945 54 22.5 54C22.1055 54 21.7185 54.1605 21.4395 54.4395C21.1605 54.7185 21 55.1055 21 55.5C21 55.8945 21.1603 56.2815 21.4395 56.5605C21.7186 56.8395 22.1055 57 22.5 57C22.896 57 23.2815 56.8395 23.5604 56.5605C23.8409 56.2815 24 55.8945 24 55.5C24 55.1055 23.8409 54.7185 23.5604 54.4395Z" fill="black"/>
<path d="M64.8373 52.2269C64.4306 51.82 63.8662 51.5859 63.2909 51.5859C62.7156 51.5859 62.1512 51.82 61.7444 52.2269C61.3375 52.6337 61.1034 53.1981 61.1034 53.7734C61.1034 54.3488 61.3373 54.9131 61.7444 55.32C62.1515 55.7269 62.7156 55.9609 63.2909 55.9609C63.8662 55.9609 64.4306 55.7269 64.8373 55.32C65.2463 54.9131 65.4784 54.3488 65.4784 53.7734C65.4784 53.1981 65.2463 52.6337 64.8373 52.2269Z" fill="black"/>
<path d="M31.5604 54.4395C31.2815 54.1605 30.8945 54 30.5 54C30.1055 54 29.7185 54.1605 29.4395 54.4395C29.1605 54.7185 29 55.1055 29 55.5C29 55.8945 29.1604 56.2815 29.4395 56.5605C29.7187 56.8395 30.1055 57 30.5 57C30.8945 57 31.2815 56.8395 31.5604 56.5605C31.8409 56.2815 32 55.8945 32 55.5C32 55.1055 31.8409 54.7185 31.5604 54.4395Z" fill="black"/>
<path d="M60.2103 59.5904C59.3558 58.7362 57.9712 58.7362 57.1165 59.5904C56.4697 60.2372 55.4172 60.2372 54.7704 59.5904C53.916 58.7362 52.5313 58.7362 51.6766 59.5904C50.8224 60.4446 50.8224 61.8297 51.6766 62.6841C52.8531 63.8604 54.3981 64.4486 55.9433 64.4486C57.4886 64.4486 59.0336 63.8606 60.2101 62.6841C61.0645 61.8297 61.0645 60.4446 60.2103 59.5904Z" fill="black"/>
<path d="M29.5431 60.466C28.9337 59.8447 27.9462 59.8447 27.3366 60.466C26.8753 60.9366 26.1247 60.9366 25.6634 60.466C25.054 59.8447 24.0665 59.8447 23.4569 60.466C22.8477 61.0874 22.8477 62.095 23.4569 62.7165C24.296 63.5721 25.3979 64 26.4999 64C27.602 64 28.7039 63.5723 29.5429 62.7165C30.1523 62.095 30.1523 61.0874 29.5431 60.466Z" fill="black"/>
<path d="M17.1384 18H15.8616C14.8336 18 14 18.8954 14 20C14 21.1046 14.8336 22 15.8616 22H17.1384C18.1664 22 19 21.1046 19 20C19 18.8954 18.1664 18 17.1384 18Z" fill="#F9701F"/>
<path d="M26.1384 18H24.8616C23.8336 18 23 18.8954 23 20C23 21.1046 23.8335 22 24.8616 22H26.1384C27.1664 22 28 21.1046 28 20C28 18.8954 27.1664 18 26.1384 18Z" fill="#F9701F"/>
<path d="M21 22C19.8956 22 19 22.8334 19 23.8616V25.1384C19 26.1666 19.8954 27 21 27C22.1044 27 23 26.1666 23 25.1384V23.8616C23 22.8334 22.1044 22 21 22Z" fill="#F9701F"/>
<path d="M21 13C19.8956 13 19 13.8334 19 14.8616V16.1384C19 17.1666 19.8954 18 21 18C22.1044 18 23 17.1666 23 16.1384V14.8616C23 13.8334 22.1044 13 21 13Z" fill="#F9701F"/>
<path d="M36.6877 6.05713H35.1875C33.9796 6.05713 33 7.03647 33 8.24463C33 9.45279 33.9796 10.4321 35.1875 10.4321H36.6877C37.8956 10.4321 38.8752 9.45279 38.8752 8.24463C38.8752 7.03647 37.8956 6.05713 36.6877 6.05713Z" fill="#F9701F"/>
<path d="M47.3017 6.05713H45.8015C44.5935 6.05713 43.614 7.03647 43.614 8.24463C43.614 9.45279 44.5933 10.4321 45.8015 10.4321H47.3017C48.5096 10.4321 49.4892 9.45279 49.4892 8.24463C49.4892 7.03647 48.5096 6.05713 47.3017 6.05713Z" fill="#F9701F"/>
<path d="M41.2447 10.6138C40.0368 10.6138 39.0572 11.5931 39.0572 12.8013V14.3017C39.0572 15.5098 40.0365 16.4892 41.2447 16.4892C42.4526 16.4892 43.4322 15.5098 43.4322 14.3017V12.8013C43.4322 11.5931 42.4526 10.6138 41.2447 10.6138Z" fill="#F9701F"/>
<path d="M41.2447 0C40.0368 0 39.0572 0.979344 39.0572 2.1875V3.68791C39.0572 4.89606 40.0365 5.8754 41.2447 5.8754C42.4526 5.8754 43.4322 4.89606 43.4322 3.68791V2.1875C43.4322 0.979344 42.4526 0 41.2447 0Z" fill="#F9701F"/>
<path d="M124.827 49.4252C122.756 47.2165 119.915 46 116.826 46C114.517 46 112.402 46.7179 110.541 48.1337C109.602 48.8483 108.75 49.7226 108 50.7431C107.25 49.7229 106.398 48.8483 105.459 48.1337C103.598 46.7179 101.483 46 99.174 46C96.085 46 93.2435 47.2165 91.1729 49.4252C89.127 51.6081 88 54.5903 88 57.8228C88 61.1499 89.2607 64.1954 91.9673 67.4075C94.3885 70.2808 97.8685 73.1975 101.898 76.575C103.274 77.7285 104.834 79.0359 106.454 80.4285C106.882 80.7971 107.431 81 108 81C108.569 81 109.118 80.7971 109.546 80.4291C111.165 79.0362 112.726 77.7282 114.103 76.5741C118.132 73.1972 121.612 70.2808 124.033 67.4072C126.74 64.1954 128 61.1499 128 57.8225C128 54.5903 126.873 51.6081 124.827 49.4252Z" fill="#F9701F"/>
</svg>
