<svg width="391" height="312" viewBox="0 0 391 312" fill="none" xmlns="http://www.w3.org/2000/svg">
<path d="M88.9777 206.167C88.9777 206.5 88.879 206.825 88.6942 207.102C88.5093 207.379 88.2465 207.594 87.9391 207.722C87.6317 207.849 87.2934 207.882 86.967 207.817C86.6407 207.753 86.3409 207.592 86.1056 207.357C85.8703 207.122 85.71 206.822 85.6451 206.496C85.5802 206.169 85.6135 205.831 85.7408 205.523C85.8682 205.216 86.0838 204.953 86.3605 204.768C86.6372 204.584 86.9625 204.485 87.2952 204.485C87.5165 204.484 87.7357 204.527 87.9403 204.611C88.1449 204.695 88.3308 204.819 88.4872 204.975C88.6437 205.132 88.7676 205.318 88.8517 205.522C88.9359 205.727 88.9787 205.946 88.9777 206.167Z" fill="#E0E0E0"/>
<path d="M321.172 241.656V261.375H350.001H381.803V241.656H321.172Z" fill="#F5F5F5"/>
<path d="M318.629 236.146V241.655H383.924V236.146H350.001H318.629Z" fill="#E0E0E0"/>
<path d="M351.277 261.375H381.803V241.655H383.924V236.146H350.001V241.147L351.277 261.375Z" fill="#E0E0E0"/>
<path d="M341.949 244.84H329.655V247.806H341.949V244.84Z" fill="#E0E0E0"/>
<path d="M343.858 251.516H328.066V257.784H343.858V251.516Z" fill="white"/>
<path d="M390.912 303.758L389.636 33.7354H384.409V86.9479H370.902L370.652 33.7745H365.425V86.987H318.973L318.715 33.8136H313.488V87.0261H300.028L299.777 33.8527H294.55V303.758H301.053L300.873 267.518H313.488V303.758H319.99L319.818 267.518H365.425V303.758H371.927L371.755 267.518H384.409V303.758H390.912ZM306.867 231.733L302.172 211.723H311.758L306.867 231.733ZM313.511 212.952V260.233L307.853 235.974L313.511 212.952ZM313.511 144.23L307.853 119.971L313.511 96.9409V144.23ZM312.502 148.573H300.803L306.789 124.212L312.502 148.573ZM306.867 115.737L301.515 92.8091H312.47L306.867 115.737ZM305.826 119.963L300.349 142.406L300.13 95.3836L305.826 119.963ZM300.607 213.774L305.787 235.966L300.81 256.226L300.607 213.774ZM306.789 240.239L311.789 261.649H301.53L306.789 240.239ZM300.795 205.807L300.748 205.62L300.583 205.659L300.341 154.45H313.488V205.807H300.795ZM319.286 154.45H365.456V205.807H319.529L319.286 154.45ZM377.343 124.189L383.032 148.549H371.356L377.343 124.189ZM371.16 141.092L370.949 96.7922L376.357 119.947L371.16 141.092ZM384.409 145.787L378.383 119.963L384.409 95.4462V145.787ZM384.409 148.479V148.565H384.041L384.409 148.479ZM384.409 214.353V258.746L379.095 235.974L384.409 214.353ZM378.078 231.733L373.383 211.723H382.969L378.078 231.733ZM377.374 115.73L372.021 92.8091H382.977L377.374 115.73ZM384.417 154.465V205.807H372.06L372.013 205.62L371.466 205.753L371.223 154.45L384.417 154.465ZM377.076 235.966L371.716 257.76L371.497 212.068L377.076 235.966ZM378.078 240.239L383.079 261.649H372.796L378.078 240.239ZM365.425 92.8091V148.565H319.255L318.989 92.8091H365.425ZM320.624 261.618H319.795L319.56 211.723H365.425V261.618H320.624Z" fill="#E0E0E0"/>
<path d="M361.379 108.546H352.74V148.792H361.379V108.546Z" fill="#E0E0E0"/>
<path d="M358.945 139.143C358.945 139.482 358.845 139.813 358.656 140.095C358.468 140.377 358.2 140.597 357.887 140.726C357.574 140.856 357.23 140.89 356.897 140.824C356.565 140.758 356.259 140.594 356.02 140.355C355.78 140.115 355.617 139.81 355.551 139.477C355.485 139.145 355.518 138.8 355.648 138.487C355.778 138.174 355.998 137.906 356.279 137.718C356.561 137.53 356.892 137.429 357.231 137.429C357.457 137.428 357.68 137.472 357.888 137.558C358.097 137.643 358.286 137.77 358.446 137.929C358.605 138.088 358.731 138.278 358.817 138.486C358.903 138.694 358.946 138.918 358.945 139.143Z" fill="#FAFAFA"/>
<path d="M358.484 119.212H355.839V135.661H358.484V119.212Z" fill="#FAFAFA"/>
<path d="M352.607 108.546H343.968V148.792H352.607V108.546Z" fill="#EBEBEB"/>
<path d="M350.173 139.143C350.173 139.482 350.073 139.813 349.884 140.095C349.696 140.377 349.428 140.597 349.115 140.726C348.802 140.856 348.457 140.89 348.125 140.824C347.792 140.758 347.487 140.594 347.247 140.355C347.008 140.115 346.845 139.81 346.778 139.477C346.712 139.145 346.746 138.8 346.876 138.487C347.006 138.174 347.225 137.906 347.507 137.718C347.789 137.53 348.12 137.429 348.459 137.429C348.685 137.428 348.908 137.472 349.116 137.558C349.325 137.643 349.514 137.77 349.673 137.929C349.833 138.088 349.959 138.278 350.045 138.486C350.13 138.694 350.174 138.918 350.173 139.143Z" fill="#FAFAFA"/>
<path d="M349.711 119.212H347.066V135.661H349.711V119.212Z" fill="#FAFAFA"/>
<path d="M344.257 108.546H335.618V148.792H344.257V108.546Z" fill="#F5F5F5"/>
<path d="M341.815 139.143C341.815 139.482 341.715 139.814 341.526 140.096C341.337 140.378 341.069 140.598 340.756 140.727C340.442 140.856 340.097 140.89 339.764 140.823C339.432 140.756 339.126 140.592 338.887 140.352C338.648 140.112 338.485 139.805 338.42 139.472C338.355 139.14 338.39 138.795 338.521 138.482C338.652 138.169 338.872 137.902 339.155 137.714C339.438 137.527 339.77 137.428 340.109 137.429C340.334 137.429 340.557 137.474 340.764 137.56C340.972 137.646 341.16 137.772 341.319 137.932C341.477 138.091 341.603 138.28 341.688 138.488C341.773 138.696 341.816 138.918 341.815 139.143Z" fill="#E0E0E0"/>
<path d="M341.354 119.212H338.709V135.661H341.354V119.212Z" fill="#E0E0E0"/>
<path d="M324.936 148.189L335.312 112.779L331.736 111.206L321.094 146.898L324.936 148.189Z" fill="#F5F5F5"/>
<path d="M309.559 205.823V199.727H352.607L352.74 205.823H309.559Z" fill="#F5F5F5"/>
<path d="M352.622 200.721C352.622 200.721 314.45 201.002 311.978 201.581C311.445 201.707 310.905 204.054 311.978 204.266C313.05 204.477 352.622 204.806 352.622 204.806V200.721Z" fill="white"/>
<path d="M314.56 199.485V193.389H348.663L348.765 199.485H314.56Z" fill="#EBEBEB"/>
<path d="M348.679 194.39C348.679 194.39 318.433 194.664 316.477 195.251C316.055 195.376 315.624 197.716 316.477 197.935C317.33 198.154 348.679 198.467 348.679 198.467V194.39Z" fill="#FAFAFA"/>
<path d="M314.411 193.467V187.371H348.506L348.616 193.467H314.411Z" fill="#E0E0E0"/>
<path d="M348.522 188.365C348.522 188.365 318.285 188.646 316.328 189.225C315.906 189.351 315.476 191.698 316.328 191.909C317.181 192.121 348.522 192.449 348.522 192.449V188.365Z" fill="#FAFAFA"/>
<path d="M365.252 47.4375H356.613V87.6834H365.252V47.4375Z" fill="#F5F5F5"/>
<path d="M362.819 78.0346C362.819 78.3735 362.718 78.7048 362.53 78.9867C362.342 79.2685 362.074 79.4882 361.761 79.6179C361.448 79.7476 361.103 79.7815 360.771 79.7154C360.438 79.6493 360.133 79.486 359.893 79.2464C359.654 79.0067 359.49 78.7013 359.424 78.3689C359.358 78.0365 359.392 77.6919 359.522 77.3787C359.652 77.0656 359.871 76.7979 360.153 76.6096C360.435 76.4213 360.766 76.3208 361.105 76.3208C361.56 76.3208 361.996 76.5014 362.317 76.8227C362.638 77.1441 362.819 77.58 362.819 78.0346Z" fill="#E0E0E0"/>
<path d="M362.357 58.1033H359.712V74.5522H362.357V58.1033Z" fill="#E0E0E0"/>
<path d="M356.48 47.4375H347.849V87.6834H356.48V47.4375Z" fill="#EBEBEB"/>
<path d="M354.047 78.0346C354.047 78.3739 353.946 78.7055 353.757 78.9875C353.569 79.2695 353.301 79.4891 352.987 79.6186C352.673 79.7481 352.328 79.7816 351.996 79.7148C351.663 79.648 351.358 79.4841 351.118 79.2436C350.879 79.0031 350.716 78.697 350.651 78.3641C350.586 78.0311 350.621 77.6863 350.752 77.3733C350.883 77.0603 351.104 76.7932 351.387 76.6058C351.669 76.4185 352.002 76.3193 352.341 76.3208C352.794 76.3229 353.228 76.5044 353.548 76.8255C353.867 77.1467 354.047 77.5814 354.047 78.0346Z" fill="#FAFAFA"/>
<path d="M353.577 58.1033H350.94V74.5522H353.577V58.1033Z" fill="#FAFAFA"/>
<path d="M348.131 47.4375H339.491V87.6834H348.131V47.4375Z" fill="#E0E0E0"/>
<path d="M345.689 78.0346C345.689 78.3739 345.588 78.7055 345.4 78.9875C345.211 79.2695 344.943 79.4891 344.629 79.6186C344.316 79.7481 343.971 79.7816 343.638 79.7148C343.305 79.648 343 79.4841 342.761 79.2436C342.521 79.0031 342.359 78.697 342.294 78.3641C342.228 78.0311 342.263 77.6863 342.394 77.3733C342.525 77.0603 342.746 76.7932 343.029 76.6058C343.312 76.4185 343.644 76.3193 343.983 76.3208C344.208 76.3208 344.43 76.3652 344.638 76.4514C344.845 76.5376 345.034 76.664 345.192 76.8232C345.351 76.9825 345.476 77.1715 345.562 77.3793C345.647 77.5872 345.69 77.8099 345.689 78.0346Z" fill="#FAFAFA"/>
<path d="M345.235 58.1033H342.59V74.5522H345.235V58.1033Z" fill="#FAFAFA"/>
<path d="M243.075 281.322L147.605 280.884C144.873 280.874 142.17 280.325 139.65 279.27C137.13 278.215 134.842 276.673 132.918 274.734C130.993 272.794 129.47 270.495 128.435 267.966C127.399 265.438 126.872 262.73 126.884 259.998L127.893 20.6749C127.924 15.1619 130.144 9.88685 134.063 6.00981C137.983 2.13277 143.282 -0.0288459 148.795 0.000290775L244.264 0.446337C249.777 0.471188 255.055 2.68456 258.936 6.59975C262.818 10.5149 264.985 15.8114 264.962 21.3244L263.961 260.585C263.955 263.319 263.409 266.025 262.355 268.548C261.302 271.071 259.761 273.361 257.821 275.287C255.881 277.214 253.579 278.738 251.049 279.774C248.519 280.81 245.809 281.336 243.075 281.322Z" fill="#455A64"/>
<path d="M244.139 8.67072L225.632 8.60812C225.027 8.61931 224.43 8.74971 223.876 8.99184C223.321 9.23398 222.82 9.58309 222.401 10.0192C221.981 10.4553 221.652 10.9699 221.432 11.5334C221.211 12.097 221.104 12.6984 221.117 13.3033V16.6604C221.129 17.2654 221.022 17.8668 220.802 18.4303C220.582 18.9939 220.253 19.5084 219.833 19.9446C219.414 20.3807 218.912 20.7298 218.358 20.9719C217.803 21.2141 217.207 21.3445 216.602 21.3556L180.511 21.1287C179.296 21.0959 178.143 20.5837 177.305 19.7041C176.466 18.8244 176.01 17.6486 176.035 16.4335V13.0764C176.06 11.8613 175.604 10.6855 174.765 9.80584C173.926 8.92616 172.774 8.41399 171.559 8.38118H165.056L148.857 8.31076C146.944 8.30046 145.047 8.66752 143.276 9.39095C141.505 10.1144 139.893 11.18 138.534 12.5268C137.175 13.8736 136.095 15.4751 135.355 17.2398C134.615 19.0045 134.231 20.8978 134.224 22.8112L133.238 256.406C133.221 260.267 134.739 263.977 137.456 266.72C140.174 269.462 143.87 271.013 147.731 271.032L243.004 271.47C244.917 271.479 246.813 271.112 248.583 270.388C250.354 269.664 251.964 268.598 253.323 267.251C254.681 265.905 255.761 264.303 256.5 262.539C257.239 260.775 257.623 258.882 257.63 256.97L258.624 23.3746C258.642 21.4569 258.282 19.5544 257.563 17.7764C256.845 15.9983 255.782 14.3797 254.436 13.0135C253.09 11.6473 251.488 10.5604 249.721 9.8151C247.954 9.06984 246.057 8.68094 244.139 8.67072Z" fill="#FAFAFA"/>
<path d="M157.144 33.2816C157.474 33.1376 157.755 32.8999 157.951 32.5981C158.147 32.2962 158.25 31.9434 158.248 31.5835C158.264 31.3471 158.231 31.11 158.151 30.8868C158.072 30.6637 157.947 30.4592 157.786 30.2861C157.624 30.1131 157.428 29.9751 157.211 29.8808C156.994 29.7865 156.759 29.7378 156.522 29.7378C156.285 29.7378 156.051 29.7865 155.834 29.8808C155.616 29.9751 155.421 30.1131 155.259 30.2861C155.097 30.4592 154.973 30.6637 154.893 30.8868C154.814 31.11 154.781 31.3471 154.797 31.5835C154.788 31.9467 154.888 32.3044 155.083 32.611C155.278 32.9176 155.56 33.1592 155.892 33.305C155.348 33.3679 154.834 33.591 154.416 33.9463C153.998 34.3015 153.695 34.7729 153.545 35.3005C154.162 36.0064 155.011 36.4673 155.939 36.5995H156.996C157.938 36.4761 158.805 36.0178 159.437 35.3083C159.304 34.7787 159.014 34.3017 158.605 33.94C158.195 33.5783 157.686 33.3487 157.144 33.2816Z" fill="#455A64"/>
<path d="M156.487 36.6152C156.487 36.6152 156.831 36.6152 157.426 36.4431C158.265 36.2122 159.003 35.7083 159.523 35.011C159.903 34.5035 160.151 33.9095 160.244 33.2824C160.336 32.6554 160.272 32.015 160.055 31.4192C159.806 30.7128 159.347 30.0988 158.741 29.6585C158.095 29.1807 157.314 28.9228 156.511 28.9228C155.708 28.9228 154.926 29.1807 154.28 29.6585C153.67 30.092 153.206 30.7005 152.95 31.4035C152.728 31.9984 152.659 32.6393 152.747 33.2679C152.836 33.8966 153.081 34.4931 153.459 35.0032C153.973 35.7035 154.705 36.2128 155.54 36.4509C156.135 36.6152 156.487 36.5996 156.487 36.6309C156.401 36.6429 156.314 36.6429 156.229 36.6309C155.986 36.6329 155.744 36.604 155.509 36.5448C154.761 36.3686 154.08 35.9789 153.55 35.4233C153.019 34.8676 152.661 34.1698 152.52 33.4147C152.286 32.392 152.457 31.3185 152.999 30.4198C153.54 29.5211 154.409 28.8673 155.422 28.5957C156.435 28.3241 157.514 28.456 158.432 28.9636C159.351 29.4712 160.036 30.3149 160.345 31.3175C160.569 31.9555 160.629 32.6395 160.519 33.3067C160.41 33.974 160.135 34.603 159.719 35.1363C159.159 35.8513 158.368 36.3493 157.481 36.5448C157.245 36.6023 157.003 36.6286 156.761 36.6231C156.67 36.6346 156.577 36.6319 156.487 36.6152Z" fill="#455A64"/>
<path d="M197.642 32.4982L166.106 32.3826L166.1 33.9555L197.636 34.071L197.642 32.4982Z" fill="#455A64"/>
<path d="M248.459 30.5971C248.459 30.6872 248.441 30.7764 248.406 30.8595C248.371 30.9426 248.321 31.018 248.256 31.0813C248.192 31.1446 248.116 31.1946 248.033 31.2284C247.949 31.2621 247.86 31.279 247.77 31.2779C247.601 31.2598 247.445 31.1799 247.331 31.0535C247.218 30.9271 247.155 30.7632 247.155 30.5932C247.155 30.4233 247.218 30.2593 247.331 30.1329C247.445 30.0065 247.601 29.9266 247.77 29.9085C247.861 29.9074 247.951 29.9245 248.035 29.9588C248.119 29.993 248.195 30.0437 248.259 30.1079C248.323 30.172 248.374 30.2483 248.408 30.3324C248.443 30.4164 248.46 30.5064 248.459 30.5971Z" fill="#455A64"/>
<path d="M248.451 33.0546C248.451 33.1912 248.41 33.3246 248.334 33.438C248.258 33.5514 248.15 33.6397 248.024 33.6916C247.898 33.7435 247.759 33.7566 247.625 33.7294C247.491 33.7022 247.369 33.6358 247.273 33.5387C247.177 33.4417 247.112 33.3182 247.086 33.1841C247.06 33.05 247.075 32.9113 247.128 32.7857C247.182 32.66 247.271 32.553 247.385 32.4782C247.5 32.4035 247.634 32.3645 247.77 32.366C247.951 32.3681 248.125 32.4415 248.252 32.5705C248.379 32.6994 248.451 32.8734 248.451 33.0546Z" fill="#455A64"/>
<path d="M248.443 35.5119C248.443 35.6484 248.402 35.7819 248.326 35.8953C248.25 36.0087 248.142 36.097 248.016 36.1488C247.89 36.2007 247.751 36.2139 247.617 36.1867C247.483 36.1595 247.361 36.0931 247.265 35.996C247.169 35.8989 247.104 35.7755 247.078 35.6414C247.052 35.5073 247.067 35.3686 247.12 35.2429C247.174 35.1172 247.263 35.0102 247.377 34.9355C247.492 34.8608 247.626 34.8217 247.762 34.8233C247.943 34.8253 248.116 34.8988 248.244 35.0277C248.371 35.1566 248.443 35.3306 248.443 35.5119Z" fill="#455A64"/>
<path d="M206.906 55.2787C206.567 55.3368 206.224 55.363 205.881 55.3569L203.095 55.4195C200.747 55.4586 197.492 55.4821 193.9 55.4821C190.308 55.4821 187.061 55.4821 184.705 55.4195L181.92 55.3569C181.579 55.3636 181.238 55.3374 180.902 55.2787C181.237 55.2149 181.579 55.1886 181.92 55.2004L184.705 55.13C187.053 55.13 190.308 55.0752 193.9 55.0752C197.492 55.0752 200.74 55.0752 203.095 55.13L205.881 55.2004C206.224 55.1889 206.568 55.2151 206.906 55.2787Z" fill="#455A64"/>
<path d="M247.778 61.672C247.778 61.7893 232.808 61.8754 214.34 61.8754C195.872 61.8754 180.879 61.8206 180.879 61.672C180.879 61.5233 195.848 61.4685 214.316 61.4685C232.784 61.4685 247.778 61.5624 247.778 61.672Z" fill="#455A64"/>
<path d="M226.876 67.69C226.876 67.8074 216.586 67.8935 203.893 67.8935C191.2 67.8935 180.879 67.8074 180.879 67.69C180.879 67.5726 191.169 67.4866 203.869 67.4866C216.57 67.4866 226.876 67.5805 226.876 67.69Z" fill="#455A64"/>
<path d="M253.357 84.6866C253.357 84.6866 253.357 84.4518 253.357 84.0214C253.357 83.591 253.357 82.9259 253.357 82.0807C253.357 80.3748 253.357 77.8629 253.357 74.6154C253.357 68.1125 253.318 58.6594 253.287 46.7962L253.42 46.937L140.32 46.9996L140.523 46.7962C140.523 59.9663 140.523 72.7373 140.523 84.6866L140.328 84.491L221.258 84.577L244.882 84.6318H251.221H252.864H253.436H252.896H251.276H244.968L221.391 84.6866L140.328 84.7805H140.132V84.5849C140.132 72.6355 140.132 59.8645 140.132 46.6944V46.491H140.343L253.443 46.5614H253.576V46.6944C253.576 58.589 253.522 68.0733 253.506 74.5919C253.506 77.8316 253.506 80.3279 253.467 82.0338C253.467 82.8633 253.467 83.505 253.467 83.9432C253.467 84.3814 253.357 84.6866 253.357 84.6866Z" fill="#263238"/>
<path d="M144.974 53.1316L144.83 78.1802L176.162 78.3606L176.306 53.312L144.974 53.1316Z" fill="#EBEBEB"/>
<path d="M176.285 53.3067H175.683H173.969H167.576H144.984L145.172 53.1189C145.132 60.5765 145.093 69.1218 145.046 78.1601L144.851 77.9567H149.155H153.373L161.503 78.0114L176.176 78.121L176.004 78.2931C176.082 70.773 176.152 64.5361 176.191 60.1539C176.191 57.9785 176.254 56.2413 176.27 55.0674C176.27 54.4962 176.27 54.0423 176.27 53.7215C176.27 53.4006 176.27 53.2441 176.27 53.2441C176.277 53.3901 176.277 53.5364 176.27 53.6824C176.27 54.0032 176.27 54.4649 176.27 54.997C176.27 56.1865 176.27 57.8924 176.27 60.0522C176.27 64.4579 176.27 70.7338 176.27 78.2931V78.4653H176.183L161.511 78.4105L153.38 78.3714H149.155H144.859L144.647 78.1679C144.71 69.1218 144.765 60.5765 144.812 53.1268V52.9468H144.992L167.685 53.1659L174.071 53.252H175.745H176.168L176.285 53.3067Z" fill="#263238"/>
<path d="M146.052 54.7109L145.926 76.606L175.052 76.7737L175.178 54.8787L146.052 54.7109Z" fill="#F9701F"/>
<path d="M145.899 76.6031L156.151 63.0574L162.403 71.6027L166.707 67.0796L175.033 76.7674L145.899 76.6031Z" fill="#F9701F"/>
<path d="M164.466 63.0388C165.361 62.1434 165.361 60.6916 164.466 59.7962C163.57 58.9008 162.119 58.9008 161.223 59.7962C160.328 60.6916 160.328 62.1434 161.223 63.0388C162.119 63.9342 163.57 63.9342 164.466 63.0388Z" fill="#F9701F"/>
<path opacity="0.2" d="M145.899 76.6031L156.151 63.0574L162.403 71.6027L166.707 67.0796L175.033 76.7674L145.899 76.6031Z" fill="black"/>
<g opacity="0.2">
<path opacity="0.2" d="M164.466 63.0388C165.361 62.1434 165.361 60.6916 164.466 59.7962C163.571 58.9008 162.119 58.9008 161.223 59.7962C160.328 60.6916 160.328 62.1434 161.223 63.0388C162.119 63.9342 163.57 63.9342 164.466 63.0388Z" fill="black"/>
</g>
<path d="M222.432 98.6783C222.292 98.7026 222.151 98.7157 222.009 98.7174H220.796L216.351 98.78L201.663 98.8426L186.983 98.78L182.53 98.7174H181.325C181.183 98.7164 181.042 98.7033 180.902 98.6783C181.04 98.6422 181.182 98.6264 181.325 98.6313H182.53L186.983 98.5687L201.663 98.5139L216.351 98.5687L220.788 98.6H222.001C222.148 98.6058 222.292 98.6321 222.432 98.6783Z" fill="#455A64"/>
<path d="M247.778 105.071C247.778 105.181 232.808 105.275 214.34 105.275C195.872 105.275 180.902 105.181 180.902 105.071C180.902 104.962 195.872 104.868 214.34 104.868C232.808 104.868 247.778 104.962 247.778 105.071Z" fill="#455A64"/>
<path d="M226.876 111.121C226.876 111.238 216.586 111.324 203.893 111.324C191.2 111.324 180.879 111.207 180.879 111.121C180.879 111.035 191.169 110.917 203.869 110.917C216.57 110.917 226.876 110.98 226.876 111.121Z" fill="#455A64"/>
<path d="M199.808 118.183L197.722 119.54L197.799 119.658L199.885 118.301L199.808 118.183Z" fill="#263238"/>
<path d="M253.357 128.086C253.357 128.086 253.357 127.851 253.357 127.413C253.357 126.975 253.357 126.325 253.357 125.48C253.357 123.774 253.357 121.262 253.357 118.015C253.357 111.512 253.318 102.059 253.287 90.1956L253.42 90.3287L140.32 90.3991L140.523 90.1956C140.523 103.366 140.523 116.137 140.523 128.086L140.328 127.883L221.258 127.977L244.882 128.031H251.221H252.864C253.24 128.031 253.436 128.031 253.436 128.031H252.896H251.276H244.968L221.391 128.086L140.328 128.18H140.132V127.984C140.132 116.035 140.132 103.264 140.132 90.0939V89.9922H140.343L253.443 90.0626H253.576V90.1956C253.576 102.09 253.522 111.575 253.506 118.093C253.506 121.333 253.506 123.829 253.467 125.527C253.467 126.365 253.467 127.006 253.467 127.444C253.467 127.883 253.357 128.086 253.357 128.086Z" fill="#263238"/>
<path d="M144.981 96.5305L144.837 121.579L176.169 121.76L176.313 96.711L144.981 96.5305Z" fill="#EBEBEB"/>
<path d="M176.285 96.7061H175.683H173.969H167.576H144.984L145.172 96.5261C145.133 103.984 145.093 112.529 145.046 121.567L144.851 121.364H147.011H149.155H153.373L161.503 121.419L176.176 121.528L176.004 121.693C176.082 114.18 176.152 107.943 176.191 103.561C176.191 101.386 176.254 99.6484 176.27 98.4746C176.27 97.9034 176.27 97.4495 176.27 97.1208C176.27 96.7922 176.27 96.6513 176.27 96.6513C176.277 96.7973 176.277 96.9436 176.27 97.0896C176.27 97.4104 176.27 97.8721 176.27 98.4042C176.27 99.5937 176.27 101.292 176.27 103.452C176.27 107.865 176.27 114.141 176.27 121.7V121.865H176.184L161.511 121.81H153.38H149.155H147.011H144.859C145.039 121.99 144.6 121.559 144.647 121.599C144.71 112.56 144.765 104.015 144.812 96.5574V96.3774H144.992L167.685 96.5966L174.071 96.6826H175.745H176.184C176.246 96.6983 176.285 96.6983 176.285 96.7061Z" fill="#263238"/>
<path d="M146.052 98.1179L145.926 120.013L175.051 120.181L175.177 98.2857L146.052 98.1179Z" fill="#F9701F"/>
<path d="M145.899 120.002L156.151 106.448L162.403 115.002L166.707 110.479L175.033 120.166L145.899 120.002Z" fill="#F9701F"/>
<path d="M164.47 106.443C165.366 105.548 165.366 104.096 164.47 103.201C163.575 102.305 162.123 102.305 161.228 103.201C160.332 104.096 160.332 105.548 161.228 106.443C162.123 107.339 163.575 107.339 164.47 106.443Z" fill="#F9701F"/>
<path opacity="0.2" d="M145.899 120.002L156.151 106.448L162.403 115.002L166.707 110.479L175.033 120.166L145.899 120.002Z" fill="black"/>
<g opacity="0.2">
<path opacity="0.2" d="M164.471 106.443C165.366 105.548 165.366 104.096 164.471 103.201C163.575 102.305 162.123 102.305 161.228 103.201C160.333 104.096 160.333 105.548 161.228 106.443C162.123 107.339 163.575 107.339 164.471 106.443Z" fill="black"/>
</g>
<path d="M190.035 143.424C189.896 143.453 189.754 143.466 189.612 143.463H188.399L183.954 143.526L169.274 143.588L154.586 143.526L150.133 143.463H148.928C148.786 143.467 148.644 143.454 148.505 143.424C148.643 143.389 148.786 143.375 148.928 143.385H150.133L154.586 143.314L169.274 143.26L183.954 143.314L188.399 143.385H189.612C189.754 143.376 189.896 143.39 190.035 143.424Z" fill="#455A64"/>
<path d="M249.1 249.63L247.019 247.54L245.047 249.473V243.51H249.1V249.63ZM247.019 247.282L247.089 247.345L248.912 249.184V243.706H245.227V249.043L247.019 247.282Z" fill="#263238"/>
<path d="M166.435 244.966L164.349 246.323L164.426 246.441L166.512 245.084L166.435 244.966Z" fill="#263238"/>
<path d="M253.357 253.605C253.357 253.605 253.357 253.409 253.357 253.041C253.357 252.673 253.357 252.102 253.357 251.374C253.357 249.911 253.357 247.743 253.357 244.918C253.357 239.268 253.357 230.997 253.31 220.48C253.31 199.469 253.256 169.482 253.216 133.618L253.396 133.798L140.265 133.814L140.468 133.61C140.468 177.698 140.468 218.907 140.468 253.62L140.289 253.448L222.283 253.534L245.242 253.581H251.307H253.396H251.346H245.321L222.392 253.628L140.289 253.722H140.116V253.542C140.116 218.844 140.116 177.636 140.116 133.532V133.329H140.335H253.428H253.608V133.509C253.569 169.443 253.537 199.469 253.514 220.511C253.514 231.005 253.475 239.292 253.467 244.911C253.467 247.712 253.467 249.872 253.467 251.327C253.467 252.047 253.467 252.595 253.467 252.971C253.467 253.346 253.357 253.605 253.357 253.605Z" fill="#263238"/>
<path d="M245.227 230.848C245.227 230.958 223.824 231.052 197.429 231.052C171.034 231.052 149.632 230.958 149.632 230.848C149.632 230.739 171.027 230.645 197.429 230.645C223.832 230.645 245.227 230.715 245.227 230.848Z" fill="#455A64"/>
<path d="M201.663 238.017C201.663 238.126 190.019 238.22 175.651 238.22C161.284 238.22 149.632 238.126 149.632 238.017C149.632 237.907 161.276 237.813 175.651 237.813C190.027 237.813 201.663 237.892 201.663 238.017Z" fill="#455A64"/>
<path d="M236.439 218.782C237.995 218.581 239.566 218.513 241.134 218.579L240.93 218.782V217.851C240.93 217.554 240.93 217.264 240.93 216.974C240.93 216.458 240.93 215.965 240.97 215.48C240.947 215.016 240.997 214.551 241.118 214.103C241.229 214.553 241.277 215.016 241.259 215.48C241.259 215.965 241.259 216.458 241.306 216.974C241.306 217.264 241.306 217.554 241.306 217.851C241.306 218.007 241.306 218.164 241.306 218.32V218.782L241.103 218.986C239.545 219.055 237.984 218.986 236.439 218.782Z" fill="#E0E0E0"/>
<path d="M218.159 218.782C221.192 218.511 224.242 218.511 227.275 218.782C224.242 219.053 221.192 219.053 218.159 218.782Z" fill="#E0E0E0"/>
<path d="M199.926 218.782C202.959 218.511 206.01 218.511 209.042 218.782C206.01 219.053 202.959 219.053 199.926 218.782Z" fill="#E0E0E0"/>
<path d="M181.661 218.782C184.694 218.511 187.745 218.511 190.778 218.782C187.745 219.053 184.694 219.053 181.661 218.782Z" fill="#E0E0E0"/>
<path d="M163.444 218.782C166.479 218.511 169.533 218.511 172.568 218.782C169.533 219.053 166.479 219.053 163.444 218.782Z" fill="#E0E0E0"/>
<path d="M149.632 214.087C149.838 215.643 149.906 217.214 149.836 218.782L149.632 218.578H151.463L152.95 218.625C153.414 218.608 153.877 218.655 154.327 218.766C153.878 218.883 153.414 218.933 152.95 218.915L151.463 218.954H150.579H149.632L149.429 218.751C149.365 217.193 149.433 215.633 149.632 214.087Z" fill="#E0E0E0"/>
<path d="M149.632 197.254C149.903 200.055 149.903 202.874 149.632 205.674C149.361 202.874 149.361 200.055 149.632 197.254Z" fill="#E0E0E0"/>
<path d="M149.632 180.43C149.903 183.227 149.903 186.044 149.632 188.842C149.361 186.044 149.361 183.227 149.632 180.43Z" fill="#E0E0E0"/>
<path d="M149.632 163.597C149.903 166.395 149.903 169.212 149.632 172.009C149.361 169.212 149.361 166.395 149.632 163.597Z" fill="#E0E0E0"/>
<path d="M154.327 150.482C152.771 150.688 151.2 150.756 149.632 150.686C150.039 150.279 149.749 150.576 149.835 150.49V151.421C149.835 151.726 149.835 152.016 149.835 152.306C149.835 152.822 149.835 153.315 149.796 153.8C149.814 154.261 149.764 154.723 149.648 155.17C149.537 154.722 149.489 154.261 149.507 153.8C149.507 153.315 149.507 152.822 149.46 152.306C149.46 152.016 149.46 151.726 149.46 151.421V150.49C149.554 150.396 149.256 150.686 149.663 150.279C151.221 150.215 152.781 150.283 154.327 150.482Z" fill="#E0E0E0"/>
<path d="M172.568 150.482C169.533 150.753 166.479 150.753 163.444 150.482C166.479 150.211 169.533 150.211 172.568 150.482Z" fill="#E0E0E0"/>
<path d="M190.801 150.482C187.769 150.753 184.718 150.753 181.685 150.482C184.718 150.211 187.769 150.211 190.801 150.482Z" fill="#E0E0E0"/>
<path d="M209.05 150.482C206.017 150.753 202.966 150.753 199.933 150.482C202.966 150.211 206.017 150.211 209.05 150.482Z" fill="#E0E0E0"/>
<path d="M227.275 150.482C224.242 150.753 221.192 150.753 218.159 150.482C221.192 150.211 224.242 150.211 227.275 150.482Z" fill="#E0E0E0"/>
<path d="M241.134 155.177C240.928 153.621 240.86 152.05 240.93 150.482C241.337 150.889 241.04 150.599 241.126 150.685H240.187H239.303H237.808C237.347 150.708 236.885 150.658 236.439 150.537C236.886 150.426 237.347 150.379 237.808 150.396L239.303 150.349H241.126C241.22 150.443 240.93 150.146 241.337 150.552C241.399 152.097 241.331 153.644 241.134 155.177Z" fill="#E0E0E0"/>
<path d="M241.134 172.009C240.863 169.212 240.863 166.395 241.134 163.597C241.405 166.395 241.405 169.212 241.134 172.009Z" fill="#E0E0E0"/>
<path d="M241.134 188.842C240.863 186.044 240.863 183.227 241.134 180.43C241.405 183.227 241.405 186.044 241.134 188.842Z" fill="#E0E0E0"/>
<path d="M241.134 205.674C240.863 202.874 240.863 200.055 241.134 197.254C241.405 200.055 241.405 202.874 241.134 205.674Z" fill="#E0E0E0"/>
<path d="M191.834 260.17C191.893 260.572 191.828 260.982 191.647 261.345C191.466 261.709 191.179 262.008 190.823 262.203C190.467 262.398 190.059 262.479 189.656 262.436C189.252 262.393 188.871 262.227 188.565 261.961C188.258 261.695 188.041 261.341 187.941 260.948C187.841 260.554 187.865 260.14 188.008 259.76C188.151 259.38 188.406 259.053 188.741 258.822C189.075 258.592 189.472 258.47 189.878 258.472C190.362 258.442 190.838 258.603 191.204 258.921C191.57 259.238 191.796 259.687 191.834 260.17Z" fill="#455A64"/>
<path d="M197.907 260.202C197.966 260.603 197.901 261.013 197.72 261.377C197.539 261.74 197.251 262.04 196.895 262.235C196.539 262.43 196.132 262.511 195.728 262.468C195.325 262.424 194.944 262.258 194.638 261.992C194.331 261.726 194.113 261.373 194.014 260.979C193.914 260.586 193.937 260.171 194.08 259.791C194.223 259.411 194.479 259.084 194.813 258.854C195.148 258.624 195.545 258.502 195.951 258.504C196.191 258.487 196.432 258.517 196.66 258.593C196.888 258.669 197.099 258.79 197.281 258.947C197.462 259.105 197.611 259.297 197.719 259.512C197.826 259.727 197.89 259.962 197.907 260.202Z" fill="#455A64"/>
<path d="M204.003 260.225C204.062 260.627 203.996 261.036 203.816 261.4C203.635 261.763 203.348 262.062 202.993 262.257C202.637 262.453 202.23 262.534 201.827 262.492C201.424 262.449 201.043 262.284 200.736 262.019C200.429 261.753 200.211 261.401 200.11 261.008C200.01 260.615 200.032 260.2 200.174 259.82C200.316 259.44 200.57 259.113 200.903 258.882C201.237 258.65 201.633 258.527 202.038 258.527C202.523 258.495 203.002 258.655 203.369 258.973C203.737 259.291 203.964 259.741 204.003 260.225Z" fill="#455A64"/>
<path d="M362.709 302.31L354.884 302.827L353.82 288.185L365.252 287.309L365.378 288.209C365.894 292.239 367.725 308.703 367.107 311.466C366.411 314.58 362.709 302.31 362.709 302.31Z" fill="#F9701F"/>
<g opacity="0.4">
<path opacity="0.4" d="M364.775 308.273C364.775 308.273 366.34 312.538 367.029 311.943C367.718 311.348 366.481 294.633 365.292 287.309L364.971 287.356L366.536 306.841C366.536 306.841 364.705 307.42 364.775 308.273Z" fill="white"/>
</g>
<path d="M364.9 287.129C364.925 287.211 364.941 287.295 364.947 287.38C364.947 287.591 365.01 287.826 365.049 288.099C365.127 288.819 365.237 289.665 365.354 290.744C365.605 292.99 365.902 296.089 366.137 299.525C366.372 302.96 366.552 306.067 366.645 308.32C366.645 309.369 366.7 310.261 366.724 310.989C366.724 311.255 366.724 311.497 366.724 311.716C366.724 311.936 366.724 311.967 366.724 311.967C366.715 311.884 366.715 311.8 366.724 311.716C366.724 311.497 366.724 311.263 366.685 310.989C366.685 310.269 366.598 309.377 366.536 308.328C366.418 306.074 366.238 302.968 365.988 299.532C365.738 296.097 365.448 293.006 365.206 290.76C365.104 289.712 365.026 288.827 364.955 288.099C364.955 287.833 364.908 287.599 364.893 287.38C364.877 287.16 364.9 287.129 364.9 287.129Z" fill="#263238"/>
<path d="M366.755 306.817C366.321 306.966 365.906 307.165 365.519 307.412C365.167 307.704 364.847 308.031 364.564 308.39C364.724 307.936 365.021 307.542 365.413 307.262C365.805 306.982 366.273 306.83 366.755 306.825V306.817Z" fill="#263238"/>
<path d="M364.243 302.663C364.243 302.702 364.04 302.929 363.719 303.163C363.398 303.398 363.108 303.562 363.085 303.523C363.061 303.484 363.288 303.257 363.609 303.022C363.93 302.788 364.212 302.623 364.243 302.663Z" fill="#263238"/>
<path d="M363.531 301.52C363.57 301.52 363.429 301.793 363.226 302.059C363.022 302.326 362.819 302.521 362.78 302.498C362.741 302.474 362.874 302.224 363.085 301.95C363.296 301.676 363.492 301.488 363.531 301.52Z" fill="#263238"/>
<path d="M362.091 300.87C362.146 300.87 362.209 301.207 362.248 301.653C362.303 301.911 362.303 302.177 362.248 302.435C362.139 302.189 362.085 301.922 362.091 301.653C362.036 301.395 362.036 301.128 362.091 300.87Z" fill="#263238"/>
<path d="M361.097 300.69C361.289 300.925 361.399 301.216 361.411 301.52C361.486 301.815 361.467 302.127 361.356 302.412C361.294 302.128 361.255 301.841 361.238 301.551C361.166 301.269 361.119 300.981 361.097 300.69Z" fill="#263238"/>
<path d="M363.007 303.249C363.077 303.559 363.098 303.879 363.069 304.196C363.048 304.539 362.998 304.879 362.921 305.213C362.878 305.416 362.812 305.613 362.725 305.8C362.672 305.919 362.573 306.012 362.451 306.058C362.382 306.078 362.308 306.077 362.239 306.056C362.169 306.035 362.107 305.995 362.06 305.941C361.858 305.594 361.783 305.187 361.847 304.79C361.911 304.394 362.111 304.031 362.412 303.766C362.589 303.611 362.793 303.492 363.015 303.413C363.097 303.381 363.185 303.367 363.273 303.374C362.984 303.485 362.718 303.65 362.49 303.859C362.26 304.092 362.099 304.385 362.029 304.705C361.978 304.891 361.966 305.085 361.993 305.276C362.02 305.467 362.085 305.651 362.185 305.816C362.31 305.957 362.475 305.886 362.569 305.714C362.647 305.537 362.71 305.354 362.756 305.166C362.84 304.842 362.901 304.513 362.936 304.18C362.999 303.625 362.976 303.249 363.007 303.249Z" fill="#263238"/>
<path d="M363.069 303.492C362.881 303.624 362.648 303.68 362.42 303.648C362.172 303.637 361.931 303.567 361.716 303.445C361.566 303.372 361.438 303.262 361.345 303.125C361.251 302.987 361.196 302.828 361.183 302.662C361.195 302.566 361.245 302.478 361.321 302.418C361.397 302.358 361.494 302.33 361.59 302.341C361.744 302.351 361.893 302.394 362.029 302.466C362.245 302.574 362.445 302.711 362.623 302.873C362.803 303.007 362.948 303.181 363.046 303.382C363.046 303.382 362.866 303.21 362.545 302.967C362.36 302.828 362.161 302.71 361.95 302.615C361.747 302.506 361.379 302.443 361.356 302.678C361.332 302.913 361.606 303.139 361.802 303.272C361.995 303.39 362.211 303.465 362.435 303.492C362.646 303.513 362.859 303.513 363.069 303.492Z" fill="#263238"/>
<path d="M360.917 287.716C360.917 287.716 360.917 288.138 361.035 288.796C361.204 289.65 361.602 290.442 362.185 291.089C362.781 291.722 363.538 292.179 364.376 292.411C365.018 292.583 365.44 292.575 365.44 292.607C365.44 292.638 365.339 292.607 365.143 292.607C364.879 292.602 364.617 292.567 364.361 292.505C363.48 292.306 362.681 291.845 362.068 291.183C361.455 290.521 361.056 289.689 360.925 288.796C360.898 288.536 360.898 288.273 360.925 288.013C360.906 287.915 360.904 287.815 360.917 287.716Z" fill="#263238"/>
<path d="M354.939 289.68C355.93 289.507 356.931 289.392 357.936 289.336C358.936 289.222 359.942 289.165 360.949 289.164C359.957 289.337 358.956 289.454 357.952 289.516C356.952 289.634 355.946 289.689 354.939 289.68Z" fill="#263238"/>
<path d="M364.235 294.571C364.607 295.963 364.727 297.41 364.587 298.844C364.533 298.844 364.525 297.889 364.423 296.707C364.321 295.526 364.181 294.579 364.235 294.571Z" fill="#263238"/>
<path d="M363.993 291.699C364.032 291.699 364.204 291.769 364.431 291.848C364.658 291.926 364.853 291.965 364.853 292.02C364.853 292.075 364.626 292.114 364.368 292.02C364.11 291.926 363.993 291.738 363.993 291.699Z" fill="#263238"/>
<path d="M362.592 290.721C362.592 290.682 362.787 290.768 362.952 290.909C363.116 291.05 363.226 291.19 363.187 291.23C363.147 291.269 362.999 291.183 362.834 291.042C362.67 290.901 362.561 290.76 362.592 290.721Z" fill="#263238"/>
<path d="M361.864 289.219C361.919 289.219 361.927 289.422 362.021 289.625C362.115 289.829 362.24 289.985 362.208 290.025C362.177 290.064 361.966 289.962 361.856 289.696C361.747 289.43 361.817 289.203 361.864 289.219Z" fill="#263238"/>
<path d="M361.496 288.138C361.535 288.138 361.622 288.193 361.676 288.311C361.731 288.428 361.739 288.545 361.676 288.569C361.614 288.592 361.551 288.506 361.488 288.389C361.426 288.271 361.449 288.162 361.496 288.138Z" fill="#263238"/>
<g opacity="0.3">
<path opacity="0.3" d="M360.526 287.771L361.355 302.412L359.595 302.514V287.716L360.526 287.771Z" fill="black"/>
</g>
<path d="M297.876 249.027C297.876 249.027 289.135 302.944 301.131 304.634C313.128 306.324 360.526 304.126 360.526 304.126L359.884 286.065L318.551 283.052L321.892 249.63L297.876 249.027Z" fill="#263238"/>
<path d="M327.432 300.909L319.607 301.426L318.543 286.785L329.976 285.908L330.101 286.808C330.617 290.838 332.449 307.311 331.83 310.065C331.126 313.148 327.432 300.909 327.432 300.909Z" fill="#F9701F"/>
<g opacity="0.4">
<path opacity="0.4" d="M329.467 306.872C329.467 306.872 331.032 311.145 331.721 310.542C332.409 309.94 331.173 293.233 329.983 285.908L329.655 285.955L331.22 305.44C331.22 305.44 329.436 306.019 329.467 306.872Z" fill="white"/>
</g>
<path d="M329.631 285.728C329.657 285.81 329.672 285.894 329.678 285.979C329.678 286.19 329.741 286.425 329.772 286.699C329.858 287.419 329.96 288.303 330.085 289.351C330.328 291.589 330.625 294.688 330.868 298.124C331.11 301.559 331.283 304.666 331.369 306.919C331.369 307.968 331.431 308.86 331.455 309.588C331.455 309.862 331.455 310.096 331.455 310.316C331.463 310.399 331.463 310.483 331.455 310.566C331.45 310.483 331.45 310.399 331.455 310.316C331.455 310.096 331.455 309.862 331.408 309.588C331.369 308.868 331.322 307.976 331.267 306.927C331.15 304.673 330.97 301.567 330.711 298.131C330.453 294.696 330.179 291.605 329.929 289.359C329.827 288.311 329.741 287.426 329.678 286.706C329.678 286.433 329.631 286.198 329.608 285.979C329.609 285.895 329.617 285.811 329.631 285.728Z" fill="#263238"/>
<path d="M331.478 305.417C331.049 305.572 330.638 305.771 330.25 306.012C329.898 306.303 329.578 306.631 329.295 306.99C329.43 306.524 329.731 306.123 330.14 305.863C330.519 305.559 330.993 305.401 331.478 305.417Z" fill="#263238"/>
<path d="M328.974 301.277C328.974 301.277 328.763 301.543 328.442 301.778C328.121 302.013 327.839 302.177 327.808 302.138C327.777 302.099 328.019 301.872 328.34 301.637C328.661 301.402 328.943 301.222 328.974 301.277Z" fill="#263238"/>
<path d="M328.262 300.119C328.262 300.119 328.16 300.393 327.949 300.659C327.738 300.925 327.542 301.129 327.503 301.097C327.464 301.066 327.605 300.823 327.816 300.557C328.027 300.291 328.223 300.088 328.262 300.119Z" fill="#263238"/>
<path d="M326.822 299.47C326.931 299.716 326.985 299.983 326.979 300.252C327.034 300.51 327.034 300.777 326.979 301.035C326.924 301.035 326.861 300.698 326.822 300.252C326.763 299.995 326.763 299.727 326.822 299.47Z" fill="#263238"/>
<path d="M325.828 299.289C326.02 299.524 326.13 299.816 326.141 300.119C326.21 300.415 326.191 300.725 326.086 301.011C326.019 300.728 325.978 300.44 325.961 300.15C325.894 299.867 325.85 299.579 325.828 299.289Z" fill="#263238"/>
<path d="M327.73 301.849C327.809 302.158 327.831 302.479 327.792 302.795C327.778 303.138 327.731 303.479 327.651 303.813C327.605 304.014 327.54 304.211 327.456 304.4C327.4 304.517 327.302 304.609 327.182 304.658C327.112 304.677 327.039 304.676 326.969 304.656C326.9 304.635 326.838 304.595 326.791 304.541C326.666 304.316 326.591 304.066 326.572 303.81C326.553 303.553 326.59 303.296 326.681 303.055C326.772 302.814 326.915 302.597 327.098 302.417C327.282 302.237 327.503 302.099 327.745 302.013C327.825 301.981 327.91 301.967 327.996 301.974C327.71 302.091 327.446 302.255 327.213 302.459C326.98 302.689 326.819 302.983 326.752 303.304C326.701 303.49 326.689 303.685 326.716 303.876C326.743 304.067 326.808 304.25 326.908 304.415C327.025 304.556 327.198 304.486 327.284 304.314C327.368 304.142 327.431 303.961 327.472 303.774C327.563 303.449 327.623 303.116 327.651 302.78C327.73 302.209 327.706 301.856 327.73 301.849Z" fill="#263238"/>
<path d="M327.8 302.06C327.612 302.193 327.379 302.249 327.151 302.217C326.903 302.207 326.661 302.137 326.447 302.013C326.297 301.94 326.169 301.829 326.074 301.692C325.98 301.555 325.922 301.396 325.907 301.231C325.92 301.134 325.971 301.046 326.049 300.986C326.126 300.926 326.224 300.899 326.321 300.91C326.472 300.923 326.618 300.966 326.752 301.035C326.97 301.143 327.173 301.28 327.354 301.442C327.534 301.575 327.679 301.749 327.777 301.95C327.777 301.95 327.597 301.778 327.276 301.536C327.09 301.398 326.891 301.281 326.681 301.184C326.478 301.074 326.11 301.011 326.087 301.246C326.063 301.481 326.329 301.708 326.533 301.841C326.723 301.958 326.937 302.033 327.159 302.06C327.372 302.081 327.587 302.081 327.8 302.06Z" fill="#263238"/>
<path d="M325.648 286.315C325.648 286.315 325.649 286.738 325.766 287.395C325.929 288.25 326.324 289.043 326.908 289.688C327.508 290.32 328.268 290.777 329.107 291.01C329.749 291.182 330.172 291.174 330.172 291.206C330.172 291.237 330.062 291.206 329.874 291.206C329.61 291.201 329.348 291.167 329.092 291.104C328.074 290.88 327.168 290.305 326.532 289.479C325.897 288.653 325.573 287.63 325.617 286.589C325.616 286.497 325.627 286.405 325.648 286.315Z" fill="#263238"/>
<path d="M319.67 288.279C320.661 288.106 321.662 287.991 322.667 287.935C323.667 287.821 324.673 287.764 325.679 287.763C324.688 287.94 323.688 288.058 322.682 288.115C321.683 288.233 320.676 288.288 319.67 288.279Z" fill="#263238"/>
<path d="M328.966 293.17C329.173 293.86 329.297 294.572 329.334 295.291C329.424 296.008 329.424 296.734 329.334 297.451C329.279 297.451 329.271 296.488 329.17 295.306C329.068 294.125 328.911 293.178 328.966 293.17Z" fill="#263238"/>
<path d="M328.778 290.322C328.778 290.283 328.99 290.384 329.217 290.463C329.443 290.541 329.639 290.58 329.639 290.635C329.639 290.69 329.412 290.729 329.154 290.635C328.896 290.541 328.716 290.322 328.778 290.322Z" fill="#263238"/>
<path d="M327.323 289.32C327.323 289.281 327.511 289.367 327.675 289.508C327.84 289.649 327.949 289.79 327.918 289.829C327.886 289.868 327.73 289.782 327.566 289.641C327.401 289.5 327.292 289.359 327.323 289.32Z" fill="#263238"/>
<path d="M326.595 287.818C326.642 287.818 326.658 288.021 326.752 288.225C326.846 288.428 326.963 288.584 326.94 288.624C326.916 288.663 326.697 288.561 326.588 288.295C326.478 288.029 326.548 287.81 326.595 287.818Z" fill="#263238"/>
<path d="M326.228 286.738C326.228 286.738 326.353 286.793 326.408 286.91C326.462 287.028 326.47 287.145 326.408 287.168C326.345 287.192 326.282 287.106 326.228 286.988C326.173 286.871 326.181 286.762 326.228 286.738Z" fill="#263238"/>
<g opacity="0.3">
<path opacity="0.3" d="M325.257 286.37L326.087 301.011L324.326 301.113V286.315L325.257 286.37Z" fill="black"/>
</g>
<path d="M255.33 294.54C256.245 303.969 272.068 305.01 285.434 305.041C303.706 305.08 324.208 305.166 324.208 305.166L324.255 285.533L279.479 286.409C279.479 286.409 318.997 264.827 323.473 257.807C324.816 255.75 325.639 253.397 325.869 250.951C326.099 248.505 325.731 246.04 324.795 243.769L291.545 248.206L266.567 270.946C260.533 276.526 258.741 277.598 256.433 282.199C254.617 285.908 254.868 289.79 255.33 294.54Z" fill="#263238"/>
<path d="M270.088 290.541C271.751 290.02 273.375 289.382 274.948 288.632C276.564 287.989 278.133 287.233 279.643 286.37C277.974 286.88 276.346 287.518 274.776 288.28C273.158 288.914 271.591 289.67 270.088 290.541Z" fill="#455A64"/>
<path d="M273.218 285.728C274.354 285.954 275.511 286.057 276.669 286.034C277.827 286.137 278.993 286.108 280.144 285.947C279.004 285.727 277.845 285.628 276.685 285.65C275.53 285.547 274.367 285.573 273.218 285.728Z" fill="#455A64"/>
<path d="M319.701 305.19C319.584 305.19 319.482 300.816 319.482 295.424C319.482 290.032 319.584 285.65 319.701 285.65C319.819 285.65 319.928 290.025 319.928 295.424C319.928 300.824 319.826 305.19 319.701 305.19Z" fill="#455A64"/>
<path d="M321.736 259.802C321.615 259.926 321.481 260.036 321.337 260.131L320.171 261C319.122 261.782 317.596 262.792 315.679 264.067C311.86 266.611 306.531 270.038 300.592 273.755C294.652 277.472 289.253 280.798 285.316 283.146C283.352 284.327 281.748 285.274 280.621 285.908C280.066 286.229 279.627 286.471 279.322 286.62L279.213 286.675H279.166V286.628H279.213L279.354 286.542C279.424 286.503 279.463 286.479 279.471 286.487L300.365 273.458C306.296 269.749 311.649 266.36 315.507 263.88L320.069 260.922L321.305 260.139C321.437 260.013 321.581 259.9 321.736 259.802Z" fill="#455A64"/>
<path d="M324.209 305.19C324.192 305.065 324.192 304.939 324.209 304.814C324.209 304.533 324.209 304.173 324.169 303.727C324.169 302.733 324.107 301.379 324.06 299.634C323.997 296.089 323.903 291.143 323.794 285.337L323.99 285.517C320.147 285.673 315.914 285.791 311.469 285.893C302.532 286.096 294.441 286.19 288.58 286.284L281.646 286.386H279.761C279.539 286.397 279.317 286.397 279.095 286.386C279.312 286.343 279.532 286.322 279.753 286.323L281.639 286.229C283.274 286.159 285.645 286.08 288.572 285.994L311.461 285.486C315.898 285.384 320.124 285.274 323.982 285.141H324.177V285.329C324.224 291.136 324.263 296.089 324.295 299.634V303.727C324.295 304.173 324.295 304.509 324.295 304.814C324.276 304.942 324.247 305.067 324.209 305.19Z" fill="#455A64"/>
<path d="M215.749 246.124L205.787 242.07L201.663 238.033L207.923 237.532L226.642 244.864C226.945 244.984 227.221 245.164 227.454 245.393C227.686 245.622 227.869 245.896 227.993 246.198C228.116 246.5 228.177 246.824 228.173 247.15C228.168 247.476 228.097 247.798 227.964 248.096C227.717 248.653 227.269 249.097 226.709 249.338C226.149 249.579 225.518 249.599 224.944 249.395L215.749 246.124Z" fill="#455A64"/>
<path d="M225.718 246.883C224.759 246.636 223.817 246.322 222.901 245.944L216.218 243.424L209.543 240.889L207.517 240.145C207.248 240.082 206.985 239.993 206.734 239.879C207.724 239.974 208.694 240.213 209.614 240.591C211.351 241.155 213.73 242.015 216.344 243.009C218.957 244.003 221.297 244.942 222.979 245.646C223.926 245.981 224.842 246.394 225.718 246.883Z" fill="#263238"/>
<path d="M201.663 238.032L204.3 240.607L205.318 237.735L201.663 238.032Z" fill="#263238"/>
<path d="M207.735 237.665C207.619 238.474 207.354 239.254 206.953 239.966C206.691 240.737 206.294 241.455 205.779 242.086C205.896 241.278 206.161 240.498 206.562 239.786C206.826 239.015 207.223 238.298 207.735 237.665Z" fill="#263238"/>
<path d="M208.385 243.369C208.025 244.786 210.772 244.935 210.733 245.756C210.521 245.733 210.308 245.757 210.107 245.827C209.906 245.897 209.724 246.012 209.574 246.162C209.423 246.313 209.309 246.495 209.239 246.696C209.168 246.896 209.144 247.11 209.168 247.321C209.168 247.885 210.373 248.104 211.187 248.151C211.402 248.17 211.604 248.265 211.757 248.418C211.91 248.571 212.005 248.773 212.024 248.988C212.024 249.145 212.024 249.309 212.063 249.497C212.149 251.062 214.943 250.804 214.943 250.804C214.943 250.804 217.392 250.655 218.073 250.491C218.754 250.326 224.818 250.295 224.818 250.295L223.731 239.457L220.929 239.621L216.383 239.746C215.698 239.414 215.074 238.969 214.536 238.432C213.846 237.787 213.248 237.049 212.759 236.241C212.694 236.069 212.577 235.923 212.424 235.822C212.271 235.721 212.091 235.67 211.908 235.677C211.724 235.684 211.548 235.748 211.403 235.86C211.259 235.973 211.153 236.128 211.101 236.303C210.952 237.086 211.922 239.269 214.074 241.069C216.226 242.869 209.989 243.338 208.385 243.346" fill="#FFBE9D"/>
<path d="M274.251 213.469C274.251 213.469 260.698 232.132 257.568 232.86C254.438 233.588 220.914 239.652 220.914 239.652L221.289 250.451C221.289 250.451 264.587 249.238 268.789 245.412C272.992 241.585 285.653 222.131 285.653 222.131L274.251 213.469Z" fill="#FFBE9D"/>
<path d="M264.728 245.083C264.728 245.083 264.814 245.24 265.088 245.404C265.477 245.618 265.921 245.71 266.363 245.67C266.7 245.643 267.025 245.539 267.314 245.365C267.603 245.191 267.848 244.953 268.03 244.668C268.264 244.326 268.398 243.925 268.419 243.511C268.44 243.097 268.346 242.685 268.147 242.321C267.931 241.926 267.573 241.627 267.146 241.484C266.745 241.356 266.31 241.39 265.933 241.577C265.777 241.657 265.64 241.767 265.528 241.902C265.416 242.036 265.332 242.191 265.282 242.359C265.231 242.526 265.215 242.702 265.234 242.875C265.253 243.049 265.307 243.217 265.393 243.369C265.53 243.562 265.728 243.704 265.954 243.772C266.181 243.84 266.424 243.831 266.645 243.745C266.95 243.612 267.021 243.424 267.005 243.416C266.989 243.409 266.872 243.534 266.598 243.604C266.415 243.647 266.224 243.634 266.049 243.565C265.874 243.497 265.725 243.377 265.62 243.221C265.496 242.98 265.473 242.7 265.555 242.442C265.637 242.184 265.818 241.969 266.058 241.844C266.357 241.71 266.695 241.693 267.005 241.797C267.339 241.913 267.618 242.15 267.787 242.462C267.957 242.77 268.04 243.119 268.026 243.47C268.012 243.822 267.903 244.163 267.709 244.457C267.557 244.704 267.353 244.914 267.111 245.074C266.869 245.233 266.595 245.338 266.308 245.381C265.764 245.435 265.215 245.332 264.728 245.083Z" fill="#EB996E"/>
<path d="M289.699 219.15L276.849 241.194L262.044 228.932C262.044 228.932 272.295 212.147 277.147 206.935L289.699 219.15Z" fill="#F9701F"/>
<path d="M270.002 202.795C270.002 202.795 283.165 189.829 294.942 205.988C302.344 216.161 317.635 231.616 323.019 238.463C324.24 240.028 326.149 242.329 324.803 243.769C320.75 248.159 309.693 257.98 289.221 250.647L270.362 224.041C267.044 219.416 269.141 213.751 270.221 207.287L270.002 202.795Z" fill="#F9701F"/>
<path d="M291.851 215.746C291.804 215.746 291.851 215.237 291.655 214.337C291.42 213.074 290.944 211.868 290.254 210.785C289.249 209.169 287.771 207.901 286.021 207.154C283.868 206.269 281.469 206.186 279.259 206.919C278.124 207.318 277.066 207.908 276.129 208.664C275.252 209.362 274.45 210.149 273.735 211.012C272.542 212.497 271.457 214.066 270.487 215.707C269.626 217.107 268.922 218.234 268.406 219.001C268.155 219.385 267.936 219.674 267.795 219.87C267.732 219.975 267.653 220.07 267.561 220.152C267.759 219.719 267.992 219.303 268.257 218.907L270.213 215.542C271.154 213.85 272.224 212.234 273.414 210.706C274.886 208.795 276.854 207.322 279.103 206.449C281.407 205.685 283.91 205.786 286.146 206.731C287.957 207.528 289.472 208.871 290.481 210.573C291.171 211.698 291.614 212.957 291.78 214.267C291.831 214.619 291.852 214.975 291.843 215.331C291.869 215.468 291.871 215.608 291.851 215.746Z" fill="#263238"/>
<g opacity="0.2">
<path opacity="0.2" d="M291.522 218.508L285.027 244.833L279.346 236.914L291.522 218.508Z" fill="black"/>
</g>
<path d="M280.527 199.657C280.107 200.27 279.636 200.846 279.119 201.379L275.566 205.385C274.173 206.95 272.937 208.375 272.06 209.431C271.615 210.023 271.129 210.582 270.605 211.106C270.941 210.442 271.354 209.82 271.833 209.251C272.616 208.148 273.868 206.677 275.261 205.111C276.654 203.546 277.968 202.169 278.923 201.199C279.41 200.637 279.947 200.121 280.527 199.657Z" fill="#263238"/>
<path d="M277.53 240.028C277.53 240.028 276.677 239.363 275.339 238.26C274.001 237.156 272.131 235.646 270.041 234.018C267.952 232.391 266.035 230.935 264.681 229.84C264 229.3 263.46 228.846 263.116 228.525C262.772 228.204 262.552 228.024 262.568 228.001C263.377 228.48 264.148 229.019 264.877 229.613C266.277 230.646 268.21 232.07 270.315 233.698C272.42 235.325 274.228 236.867 275.55 238.041C276.2 238.62 276.709 239.105 277.053 239.457C277.236 239.626 277.397 239.818 277.53 240.028Z" fill="#263238"/>
<path d="M307.337 252.908C307.007 252.61 306.698 252.288 306.414 251.946C305.842 251.312 305.021 250.381 304.066 249.207C302.078 246.859 299.371 243.588 296.522 239.887C293.674 236.186 291.178 232.742 289.417 230.223C288.541 228.963 287.852 227.938 287.375 227.218C287.114 226.858 286.881 226.478 286.678 226.083C286.981 226.408 287.259 226.756 287.508 227.124L289.652 230.066C291.467 232.547 293.987 235.943 296.843 239.652C299.7 243.361 302.36 246.656 304.293 249.043L306.578 251.868C306.861 252.192 307.115 252.54 307.337 252.908Z" fill="#263238"/>
<path d="M309.747 245.968C309.395 246.386 308.971 246.738 308.495 247.008C306.271 248.456 303.675 249.225 301.022 249.223C300.476 249.258 299.927 249.197 299.402 249.043C301.225 248.978 303.035 248.716 304.801 248.26C306.53 247.681 308.188 246.912 309.747 245.968Z" fill="#263238"/>
<path d="M310.084 242.587C309.691 243.091 309.224 243.531 308.699 243.894C306.249 245.772 303.352 246.98 300.294 247.4C299.667 247.52 299.026 247.541 298.392 247.462C300.502 247.129 302.571 246.578 304.567 245.819C306.51 244.93 308.358 243.847 310.084 242.587Z" fill="#263238"/>
<path d="M252.763 184.89C252.077 184.97 251.381 184.901 250.725 184.686C250.068 184.471 249.466 184.116 248.96 183.646C247.949 182.688 247.29 181.417 247.09 180.039C246.993 179.686 246.984 179.315 247.063 178.957C247.142 178.6 247.307 178.268 247.543 177.988C248.083 177.503 249.21 177.808 249.155 178.536C248.883 178.309 248.662 178.026 248.508 177.706C248.354 177.386 248.271 177.036 248.263 176.682C248.269 176.327 248.389 175.984 248.604 175.702C248.82 175.42 249.12 175.215 249.461 175.116C249.632 175.082 249.809 175.083 249.98 175.121C250.151 175.159 250.312 175.232 250.453 175.336C250.594 175.44 250.711 175.573 250.798 175.725C250.884 175.877 250.938 176.046 250.955 176.22C250.561 175.857 250.237 175.425 250.001 174.944C249.888 174.7 249.844 174.429 249.874 174.161C249.905 173.893 250.008 173.639 250.173 173.426C250.44 173.204 250.776 173.082 251.124 173.082C251.471 173.082 251.807 173.204 252.074 173.426C252.605 173.881 253.016 174.458 253.272 175.109C253.043 174.593 252.937 174.032 252.96 173.469C252.983 172.906 253.135 172.356 253.405 171.861C254.297 173.246 256.104 173.77 257.756 173.669C259.388 173.451 260.999 173.09 262.568 172.589C264.152 172.088 265.862 172.162 267.396 172.8C268.961 173.583 269.861 175.226 270.683 176.768C272.608 180.383 274.596 184.21 274.471 188.302" fill="#263238"/>
<path d="M280.026 199.939L269.306 176.189L268.32 176.032C261.668 174.952 258.35 174.06 254.164 179.35C253.278 180.634 252.737 182.123 252.593 183.676C252.449 185.229 252.707 186.792 253.342 188.216C254.86 191.652 256.926 196.136 258.381 198.765C260.979 203.46 266.089 201.637 266.089 201.637L271.246 209.666L280.026 199.939Z" fill="#FFBE9D"/>
<path d="M256.613 190.532C256.665 190.386 256.672 190.228 256.634 190.078C256.596 189.928 256.514 189.792 256.399 189.688C256.283 189.585 256.14 189.518 255.987 189.496C255.833 189.474 255.677 189.498 255.537 189.565C255.397 189.632 255.28 189.739 255.202 189.873C255.123 190.006 255.086 190.16 255.094 190.315C255.103 190.47 255.158 190.618 255.251 190.742C255.345 190.866 255.473 190.959 255.619 191.01C255.814 191.077 256.028 191.065 256.214 190.976C256.401 190.886 256.544 190.727 256.613 190.532Z" fill="#263238"/>
<path d="M254.5 189.75C254.618 189.75 254.892 189.187 255.533 188.834C256.175 188.482 256.832 188.561 256.864 188.443C256.895 188.326 256.723 188.279 256.433 188.232C256.05 188.182 255.66 188.256 255.322 188.443C254.981 188.634 254.707 188.927 254.539 189.28C254.438 189.547 254.438 189.734 254.5 189.75Z" fill="#263238"/>
<path d="M262.263 186.714C262.183 186.847 262.145 187.002 262.154 187.157C262.163 187.312 262.217 187.462 262.311 187.586C262.405 187.71 262.534 187.803 262.681 187.854C262.828 187.904 262.987 187.91 263.137 187.87C263.287 187.83 263.422 187.746 263.525 187.629C263.627 187.512 263.692 187.367 263.712 187.212C263.731 187.058 263.704 186.901 263.634 186.762C263.565 186.623 263.455 186.508 263.319 186.432C263.141 186.332 262.931 186.305 262.734 186.358C262.536 186.41 262.367 186.538 262.263 186.714Z" fill="#263238"/>
<path d="M261.59 186.542C261.707 186.581 261.973 185.978 262.623 185.626C263.272 185.274 263.922 185.352 263.945 185.227C263.969 185.102 263.812 185.071 263.523 185.024C263.139 184.974 262.749 185.049 262.41 185.236C262.071 185.423 261.8 185.713 261.637 186.064C261.527 186.338 261.535 186.526 261.59 186.542Z" fill="#263238"/>
<path d="M262.138 193.405C261.733 193.458 261.34 193.574 260.972 193.749C260.792 193.827 260.635 193.858 260.58 193.749C260.483 193.583 260.434 193.393 260.439 193.201C260.369 192.677 260.306 192.153 260.236 191.636C260.114 190.259 259.852 188.898 259.453 187.575C259.432 188.955 259.548 190.333 259.798 191.691L260.032 193.256C260.032 193.542 260.132 193.819 260.314 194.038C260.374 194.09 260.444 194.126 260.52 194.145C260.596 194.164 260.676 194.165 260.752 194.148C260.862 194.124 260.967 194.084 261.065 194.031C261.762 193.694 262.161 193.459 262.138 193.405Z" fill="#263238"/>
<path d="M266.051 201.566C268.247 200.436 270.056 198.676 271.247 196.511C271.247 196.511 271.622 200.682 266.7 202.772L266.051 201.566Z" fill="#EB996E"/>
<path d="M271.458 181.463C271.536 181.377 275.222 179.193 276.317 183.223C277.264 186.706 273.328 187.3 273.281 187.191C273.234 187.081 271.458 181.463 271.458 181.463Z" fill="#FFBE9D"/>
<path d="M274.001 185.149C274.001 185.149 274.071 185.149 274.189 185.149C274.267 185.154 274.345 185.143 274.419 185.118C274.493 185.092 274.561 185.052 274.619 185C274.791 184.782 274.9 184.52 274.933 184.244C274.967 183.968 274.923 183.688 274.807 183.435C274.716 183.142 274.558 182.874 274.345 182.652C274.275 182.56 274.184 182.486 274.079 182.437C273.974 182.388 273.858 182.365 273.743 182.371C273.67 182.376 273.601 182.407 273.55 182.459C273.498 182.511 273.466 182.579 273.461 182.652C273.461 182.762 273.461 182.824 273.461 182.832C273.461 182.84 273.375 182.832 273.344 182.66C273.333 182.57 273.352 182.479 273.398 182.402C273.465 182.299 273.569 182.226 273.688 182.198C273.832 182.176 273.98 182.191 274.117 182.242C274.253 182.293 274.375 182.377 274.47 182.488C274.718 182.723 274.903 183.016 275.01 183.341C275.136 183.631 275.174 183.953 275.118 184.264C275.062 184.576 274.916 184.865 274.697 185.094C274.617 185.152 274.525 185.192 274.427 185.209C274.33 185.227 274.229 185.222 274.134 185.195C274.001 185.227 274.001 185.156 274.001 185.149Z" fill="#EB996E"/>
<path d="M256.073 187.277C256.073 187.645 255.713 187.958 255.291 188.13C255.109 188.228 254.904 188.271 254.699 188.256C254.494 188.241 254.297 188.167 254.132 188.044C253.89 187.778 254.132 187.16 254.798 186.894C255.463 186.628 256.065 186.91 256.073 187.277Z" fill="#263238"/>
<path d="M262.85 184.022C262.779 184.39 262.326 184.624 261.872 184.804C261.418 184.984 260.933 185.188 260.604 184.992C260.455 184.89 260.408 184.663 260.518 184.374C260.675 184.027 260.953 183.748 261.3 183.591C261.654 183.429 262.056 183.403 262.427 183.521C262.74 183.654 262.873 183.842 262.85 184.022Z" fill="#263238"/>
<path d="M264.822 191.91C264.931 191.871 265.221 192.739 264.822 193.71C264.423 194.68 263.57 195.063 263.531 194.954C263.491 194.844 264.063 194.367 264.415 193.53C264.767 192.692 264.689 191.933 264.822 191.91Z" fill="#263238"/>
<path d="M252.09 184.93C253.171 184.925 254.234 184.657 255.188 184.15C256.142 183.643 256.959 182.912 257.568 182.019C258.35 180.821 258.773 179.233 260.08 178.662C261.387 178.09 262.654 178.763 263.906 179.17C265.158 179.577 266.849 179.616 267.467 178.45C268.016 180.938 269.359 183.179 271.293 184.836C271.617 185.149 272.016 185.373 272.452 185.485C272.671 185.535 272.901 185.51 273.104 185.415C273.308 185.32 273.475 185.161 273.578 184.961C273.626 184.746 273.628 184.523 273.583 184.307C273.539 184.092 273.449 183.888 273.32 183.709C272.092 181.432 271.082 178.802 269.854 176.525C269.371 175.72 268.682 175.058 267.858 174.608C266.87 174.117 265.761 173.924 264.665 174.052C262.497 174.017 260.332 174.242 258.217 174.725C256.084 175.22 254.203 176.475 252.927 178.255C251.746 180.07 250.674 182.801 251.957 184.515" fill="#263238"/>
<path d="M133.144 139.135C132.126 138.564 127.971 142.938 128.182 141.592C128.394 140.246 134.036 136.702 132.94 136.115C131.508 135.379 127.267 140.027 126.868 140.403C126.469 140.779 125.788 140.34 126.171 140.019C126.711 139.558 132.291 134.589 130.866 133.853C130.084 133.446 129.301 134.636 129.301 134.636C129.301 134.636 124.512 139.589 123.871 139.221C123.229 138.854 125.905 135.872 126.899 134.917C127.893 133.963 127.729 133.227 126.844 133.227C126.25 133.227 123.112 136.099 122.149 137.061C121.187 138.024 118.628 140.7 118.557 138.58C118.487 136.459 117.438 134.855 116.765 134.581C116.092 134.307 115.372 134.956 115.74 135.543C116.048 136.202 116.242 136.909 116.311 137.633C116.388 138.133 116.367 138.643 116.249 139.135C113.854 141.115 96.6853 155.216 94.682 154.614C92.5378 153.972 84.3055 127.131 84.3055 127.131L75.8776 151.578C75.8776 151.578 81.7858 169.239 92.7178 169.427C105.833 169.646 124.481 146.029 124.481 146.029C126.954 144.527 129.599 142.852 130.937 141.796C133.778 139.55 133.535 139.354 133.144 139.135Z" fill="#FFBE9D"/>
<path d="M20.9433 268.45L16.7411 272.198L17.281 272.848C19.6834 275.735 29.6999 287.364 31.9692 288.686C34.4968 290.149 28.5261 279.922 28.5261 279.922L30.2555 278.302" fill="#F9701F"/>
<g opacity="0.5">
<path opacity="0.5" d="M20.1844 275.727C20.8879 274.801 21.2225 273.646 21.1234 272.487C21.0342 271.341 20.5208 270.27 19.6835 269.482L16.8977 272.073L20.1844 275.727Z" fill="white"/>
</g>
<path opacity="0.5" d="M31.2964 285.063C31.2964 285.063 33.198 288.819 32.3685 288.905C31.539 288.991 20.9669 277.621 16.7177 272.198L16.9603 272.002L29.1679 285.368C29.1679 285.368 30.733 284.499 31.2964 285.063Z" fill="white"/>
<path d="M16.8431 271.838C16.8431 271.838 16.89 271.908 16.9839 272.033L17.4143 272.55L18.9794 274.428C20.341 275.993 22.2582 278.168 24.4572 280.508C26.6561 282.848 28.6359 284.914 30.1071 286.393L31.8678 288.13L32.353 288.6L32.5251 288.748C32.4814 288.686 32.4316 288.628 32.3764 288.576L31.9069 288.091L30.1932 286.315C28.7376 284.812 26.7422 282.731 24.5745 280.391C22.4069 278.051 20.4819 275.915 19.0968 274.357L17.4535 272.511L16.9996 272.01C16.9535 271.947 16.9011 271.889 16.8431 271.838Z" fill="#263238"/>
<path d="M29.066 285.509C29.4434 285.316 29.8392 285.161 30.2476 285.047C30.6685 284.994 31.0945 284.994 31.5154 285.047C31.1148 284.841 30.6518 284.79 30.2163 284.906C29.7732 284.963 29.3652 285.177 29.066 285.509Z" fill="#263238"/>
<path d="M27.7984 281.189C27.7984 281.236 28.1114 281.189 28.4714 281.15C28.6975 281.129 28.9164 281.06 29.113 280.946C29.113 280.899 28.8078 280.946 28.44 280.986C28.0723 281.025 27.7905 281.142 27.7984 281.189Z" fill="#263238"/>
<path d="M27.5009 279.984C27.5009 280.031 27.7435 280.094 28.0565 280.117C28.3696 280.14 28.6278 280.117 28.6356 280.117C28.6434 280.117 28.3852 280.015 28.0722 279.984C27.7592 279.953 27.5009 279.937 27.5009 279.984Z" fill="#263238"/>
<path d="M27.9392 278.583C27.9392 278.583 28.0957 278.881 28.3539 279.17C28.6122 279.46 28.8626 279.671 28.8939 279.64C28.9252 279.608 28.7452 279.35 28.4792 279.053C28.2131 278.755 27.9705 278.583 27.9392 278.583Z" fill="#263238"/>
<path d="M28.4401 277.801C28.4845 278.078 28.6129 278.334 28.8079 278.536C29.0975 278.904 29.4261 279.1 29.4496 279.06C29.2957 278.84 29.1257 278.63 28.941 278.434C28.6671 278.106 28.4871 277.801 28.4401 277.801Z" fill="#263238"/>
<path d="M28.9801 280.719C29.145 280.962 29.3485 281.176 29.5827 281.353C29.8251 281.559 30.0872 281.739 30.3652 281.893C30.5284 281.997 30.7047 282.079 30.8895 282.136C31.0004 282.178 31.1229 282.178 31.2338 282.136C31.2901 282.101 31.3353 282.051 31.3644 281.991C31.3935 281.932 31.4052 281.865 31.3981 281.799C31.3285 281.566 31.2073 281.352 31.0435 281.172C30.8797 280.993 30.6776 280.852 30.4521 280.761C30.2266 280.67 29.9835 280.631 29.7409 280.647C29.4983 280.663 29.2623 280.733 29.0505 280.852C28.9779 280.888 28.9138 280.938 28.8627 281.001C29.1221 280.882 29.4 280.808 29.6844 280.782C29.9865 280.77 30.2854 280.846 30.5452 281.001C30.8565 281.168 31.0919 281.448 31.2025 281.784C31.2025 281.956 31.0617 282.026 30.8895 281.979C30.7203 281.924 30.5576 281.851 30.4043 281.76C30.1302 281.615 29.8685 281.447 29.6218 281.259C29.2305 280.931 29.0036 280.696 28.9801 280.719Z" fill="#263238"/>
<path d="M29.1055 280.931C29.3107 280.88 29.4912 280.758 29.6141 280.586C29.7646 280.414 29.8695 280.207 29.9193 279.984C29.9663 279.842 29.9759 279.69 29.9471 279.544C29.9183 279.397 29.8521 279.26 29.755 279.147C29.6799 279.094 29.5871 279.072 29.4965 279.087C29.4059 279.102 29.3245 279.151 29.2698 279.225C29.1791 279.333 29.1172 279.462 29.0898 279.6C29.0273 279.814 28.9905 280.035 28.9803 280.258C28.9559 280.465 28.9856 280.675 29.0664 280.868C29.0664 280.868 29.0664 280.633 29.0664 280.266C29.0929 280.053 29.1374 279.844 29.1994 279.64C29.2542 279.428 29.442 279.139 29.622 279.28C29.6911 279.376 29.7376 279.486 29.758 279.603C29.7783 279.719 29.7719 279.839 29.7393 279.953C29.6983 280.155 29.6157 280.347 29.4968 280.516C29.309 280.79 29.0664 280.884 29.1055 280.931Z" fill="#263238"/>
<path d="M19.7539 269.514C19.9871 269.762 20.2065 270.023 20.4112 270.296C20.8923 270.942 21.18 271.712 21.2409 272.516C21.3019 273.319 21.1336 274.123 20.7555 274.835C20.4738 275.383 20.1999 275.664 20.2234 275.688C20.2469 275.711 20.3095 275.633 20.4269 275.5C20.5905 275.311 20.7347 275.107 20.8573 274.89C21.2836 274.164 21.4784 273.326 21.4154 272.487C21.3525 271.648 21.0349 270.848 20.5051 270.194C20.3504 269.996 20.1746 269.815 19.9808 269.654C19.8478 269.553 19.7617 269.506 19.7539 269.514Z" fill="#263238"/>
<path d="M22.3128 276.079C22.6492 276.65 23.0568 277.176 23.5257 277.644C23.9507 278.16 24.446 278.613 24.9969 278.99C24.9969 278.99 24.3787 278.341 23.6431 277.535C22.9075 276.729 22.3519 276.056 22.3128 276.079Z" fill="#263238"/>
<path d="M20.5052 274.13C20.4583 274.13 20.4191 274.31 20.3331 274.514C20.247 274.717 20.1453 274.874 20.1766 274.913C20.2079 274.952 20.38 274.811 20.4818 274.576C20.5835 274.342 20.5522 274.123 20.5052 274.13Z" fill="#263238"/>
<path d="M20.74 272.542C20.693 272.542 20.6461 272.698 20.6382 272.902C20.6304 273.105 20.6382 273.262 20.7087 273.262C20.7791 273.262 20.7947 273.105 20.8026 272.91C20.8104 272.714 20.7791 272.542 20.74 272.542Z" fill="#263238"/>
<path d="M20.1765 271.102C20.1765 271.141 20.2704 271.267 20.3565 271.462C20.4426 271.658 20.466 271.838 20.513 271.838C20.5599 271.838 20.6147 271.634 20.513 271.392C20.4113 271.149 20.2 271.063 20.1765 271.102Z" fill="#263238"/>
<path d="M19.6759 270.163C19.6367 270.163 19.6367 270.288 19.6759 270.398C19.715 270.508 19.7933 270.594 19.8324 270.57C19.8715 270.547 19.8324 270.453 19.8324 270.343C19.8324 270.234 19.7228 270.148 19.6759 270.163Z" fill="#263238"/>
<path d="M105.864 295.987L106.365 298.334C106.365 298.334 118.455 298.585 115.826 300.009C113.478 301.277 97.9998 303.812 94.1966 304.368L93.3437 304.485L92.3185 298.827L105.864 295.987Z" fill="#F9701F"/>
<g opacity="0.5">
<path opacity="0.5" d="M98.2582 303.39C97.8169 302.281 96.9805 301.375 95.9106 300.846C94.864 300.312 93.6549 300.189 92.5222 300.502L93.3047 304.305L98.2582 303.39Z" fill="white"/>
</g>
<path opacity="0.5" d="M112.312 298.679C112.312 298.679 116.601 299.023 116.225 299.79C115.849 300.557 100.316 303.703 93.3358 304.485L93.2967 304.18L111.459 300.659C111.459 300.659 111.53 298.867 112.312 298.679Z" fill="white"/>
<path d="M93.0934 304.227H93.3282L94.009 304.125L96.5053 303.734C98.6103 303.382 101.514 302.865 104.706 302.216C107.899 301.566 110.771 300.925 112.845 300.432L115.302 299.829L115.967 299.649L116.194 299.579L115.951 299.618L115.286 299.759L112.821 300.314C110.74 300.784 107.86 301.41 104.667 302.051C101.474 302.693 98.5868 303.233 96.4818 303.617L94.0012 304.063L93.3204 304.188L93.0934 304.227Z" fill="#263238"/>
<path d="M111.506 300.886C111.528 300.453 111.601 300.025 111.726 299.61C111.903 299.216 112.121 298.841 112.375 298.491C112.006 298.756 111.725 299.127 111.57 299.554C111.415 299.981 111.393 300.446 111.506 300.886Z" fill="#263238"/>
<path d="M107.077 299.665C107.228 299.488 107.338 299.279 107.398 299.055C107.531 298.702 107.61 298.397 107.563 298.382C107.412 298.559 107.302 298.767 107.242 298.992C107.109 299.344 107.03 299.641 107.077 299.665Z" fill="#263238"/>
<path d="M105.857 299.305C105.857 299.305 106.076 299.141 106.271 298.883C106.467 298.624 106.584 298.397 106.545 298.366C106.506 298.335 106.326 298.53 106.13 298.789C105.935 299.047 105.817 299.274 105.857 299.305Z" fill="#263238"/>
<path d="M104.894 298.147C105.138 298.176 105.385 298.158 105.622 298.092C106.021 298.014 106.334 297.92 106.318 297.873C105.829 297.853 105.342 297.947 104.894 298.147Z" fill="#263238"/>
<path d="M104.472 297.302C104.743 297.384 105.029 297.408 105.311 297.373C105.593 297.338 105.864 297.244 106.107 297.098C105.843 297.111 105.582 297.148 105.325 297.208C105.038 297.212 104.752 297.244 104.472 297.302Z" fill="#263238"/>
<path d="M107.32 298.381C107.618 298.37 107.912 298.306 108.188 298.194C108.498 298.093 108.797 297.962 109.08 297.802C109.257 297.713 109.423 297.603 109.573 297.474C109.663 297.393 109.719 297.281 109.73 297.161C109.732 297.093 109.714 297.026 109.678 296.969C109.642 296.912 109.589 296.867 109.526 296.84C109.16 296.742 108.771 296.776 108.427 296.934C108.083 297.093 107.805 297.367 107.641 297.709C107.539 297.908 107.483 298.127 107.476 298.35C107.476 298.507 107.476 298.593 107.476 298.593C107.505 298.304 107.587 298.022 107.719 297.763C107.873 297.497 108.098 297.278 108.368 297.129C108.526 297.036 108.701 296.975 108.882 296.951C109.064 296.926 109.248 296.939 109.425 296.989C109.589 297.059 109.566 297.239 109.425 297.356C109.285 297.476 109.133 297.581 108.971 297.669C108.699 297.832 108.413 297.97 108.118 298.084C107.625 298.288 107.32 298.35 107.32 298.381Z" fill="#263238"/>
<path d="M107.531 298.382C107.607 298.177 107.607 297.952 107.531 297.748C107.456 297.526 107.33 297.325 107.163 297.161C107.067 297.051 106.946 296.966 106.809 296.915C106.673 296.863 106.526 296.845 106.381 296.863C106.297 296.9 106.23 296.967 106.195 297.052C106.16 297.137 106.159 297.232 106.193 297.317C106.24 297.455 106.321 297.579 106.428 297.677C106.577 297.85 106.751 298.001 106.944 298.123C107.113 298.251 107.308 298.34 107.516 298.382C107.516 298.382 107.312 298.256 107.015 298.029C106.842 297.893 106.682 297.741 106.537 297.576C106.381 297.419 106.232 297.106 106.444 297.02C106.564 297.009 106.685 297.026 106.798 297.069C106.91 297.112 107.011 297.181 107.093 297.27C107.253 297.416 107.378 297.595 107.461 297.795C107.504 297.987 107.528 298.184 107.531 298.382Z" fill="#263238"/>
<path d="M92.6159 300.447C92.6159 300.447 92.9916 300.33 93.6254 300.283C94.4449 300.205 95.2697 300.362 96.0029 300.736C96.7362 301.111 97.3475 301.686 97.765 302.396C97.9326 302.695 98.0841 303.003 98.2189 303.319C98.2189 303.319 98.2189 303.217 98.1641 303.045C98.0927 302.8 97.9929 302.563 97.8668 302.341C97.464 301.587 96.8403 300.975 96.0793 300.586C95.3183 300.197 94.4566 300.05 93.6098 300.165C93.3441 300.194 93.0819 300.249 92.8272 300.33C92.6942 300.392 92.6081 300.439 92.6159 300.447Z" fill="#263238"/>
<path d="M99.7057 301.715C100.387 301.74 101.069 301.672 101.732 301.512C102.406 301.408 103.063 301.219 103.689 300.948C103.689 300.901 102.797 301.136 101.701 301.347C100.606 301.559 99.6979 301.668 99.7057 301.715Z" fill="#263238"/>
<path d="M97.0375 302.255C97.0375 302.294 97.147 302.427 97.2801 302.615C97.4131 302.803 97.4992 302.967 97.5383 302.959C97.5774 302.951 97.5383 302.732 97.4131 302.513C97.2879 302.294 97.0531 302.216 97.0375 302.255Z" fill="#263238"/>
<path d="M95.7773 301.206C95.7773 301.206 95.8634 301.371 96.0355 301.488C96.2077 301.605 96.3642 301.66 96.3877 301.621C96.4111 301.582 96.3016 301.457 96.1294 301.347C95.9573 301.238 95.8008 301.167 95.7773 301.206Z" fill="#263238"/>
<path d="M94.2202 300.925C94.2202 300.972 94.4158 300.925 94.6349 300.964C94.854 301.003 95.0105 301.073 95.0418 301.034C95.0731 300.995 94.9166 300.831 94.6584 300.799C94.4002 300.768 94.1967 300.885 94.2202 300.925Z" fill="#263238"/>
<path d="M93.1404 300.87C93.1404 300.87 93.2265 300.964 93.3439 300.988C93.4613 301.011 93.5708 300.988 93.5786 300.941C93.5865 300.894 93.5004 300.839 93.3752 300.823C93.25 300.808 93.1483 300.823 93.1404 300.87Z" fill="#263238"/>
<path d="M53.68 185.201C54.4234 186.25 60.3315 230.056 60.3315 230.056L20.6178 268.948L29.93 278.8C29.93 278.8 76.6474 239.423 77.6021 234.908C78.7446 229.524 75.5597 188.386 75.5597 188.386L53.68 185.201Z" fill="#EB996E"/>
<path d="M54.7178 208.726H63.3492L52.1589 190.994L54.7178 208.726Z" fill="#263238"/>
<path d="M80.1346 233.126C82.7561 245.818 92.3891 299.07 92.3891 299.07L105.731 296.722L99.4711 229.487C99.3224 227.713 98.9625 225.963 98.399 224.275L83.0613 178.129L54.1074 159.724C53.8179 159.724 49.4122 171.61 50.0539 179.85C50.3463 183.548 51.6096 187.103 53.7161 190.157C55.5551 192.841 58.1218 196.589 58.6931 197.45C59.5852 198.764 80.1346 233.126 80.1346 233.126Z" fill="#FFBE9D"/>
<path d="M52.7693 159.724C52.7693 159.724 46.509 177.072 49.9443 186.134C53.3797 195.196 63.31 210.745 63.31 210.745L94.6115 196.659L79.7433 170.053V164.998L52.7693 159.724Z" fill="#455A64"/>
<path d="M65.7357 209.36C65.6207 209.226 65.5185 209.082 65.4306 208.93L64.648 207.646C63.9594 206.535 62.9812 204.907 61.8231 202.857C58.7338 197.563 56.2655 191.931 54.4672 186.072C53.5281 182.824 52.9456 179.484 52.73 176.11C52.5468 173.355 52.678 170.588 53.1213 167.862C53.4155 166.025 53.8819 164.22 54.5142 162.47C54.7255 161.844 54.9524 161.383 55.0776 161.062C55.137 160.897 55.2158 160.739 55.3124 160.592C55.2752 160.764 55.2229 160.931 55.1559 161.093C55.0541 161.422 54.8507 161.876 54.6629 162.517C54.093 164.274 53.6716 166.074 53.403 167.901C53.0071 170.605 52.9022 173.344 53.09 176.071C53.3232 179.415 53.9107 182.726 54.8428 185.946C56.6393 191.778 59.061 197.398 62.0657 202.708C63.1847 204.767 64.1237 206.41 64.7654 207.552L65.501 208.875C65.601 209.025 65.68 209.188 65.7357 209.36Z" fill="#263238"/>
<path d="M74.0934 205.526C73.984 205.405 73.8871 205.274 73.8039 205.134C73.6004 204.837 73.3422 204.453 73.0213 203.976C72.3562 202.959 71.4093 201.488 70.2746 199.641C67.2483 194.868 64.653 189.834 62.5197 184.6C60.3905 179.335 59.2523 173.721 59.1626 168.042C59.1561 166.328 59.287 164.617 59.5539 162.924C59.6399 162.322 59.7573 161.86 59.8199 161.547C59.8453 161.387 59.8873 161.229 59.9451 161.077C59.9507 161.24 59.9349 161.404 59.8982 161.563C59.8982 161.883 59.773 162.345 59.7104 162.948C59.5043 164.638 59.418 166.34 59.4521 168.042C59.6224 173.681 60.7908 179.244 62.9031 184.475C65.0367 189.68 67.591 194.702 70.5407 199.492L73.17 203.89L73.8821 205.095C73.9712 205.229 74.0423 205.373 74.0934 205.526Z" fill="#263238"/>
<path d="M83.0065 201.183C83.0065 201.183 82.897 201.081 82.7248 200.862L81.9423 199.892C81.2928 199.054 80.3772 197.794 79.3677 196.214C78.3583 194.633 77.1453 192.684 75.9324 190.485C74.7195 188.287 73.5222 185.79 72.3797 183.13C71.2372 180.469 70.3216 177.847 69.5625 175.453C68.8035 173.058 68.2401 170.867 67.8331 169.013C67.4262 167.158 67.1289 165.648 66.9723 164.599C66.9019 164.106 66.8471 163.707 66.8002 163.386C66.7777 163.246 66.7777 163.104 66.8002 162.964C66.8499 163.095 66.8866 163.232 66.9097 163.371C66.9802 163.691 67.0584 164.083 67.1601 164.568C67.3636 165.609 67.6923 167.103 68.1383 168.942C68.5844 170.781 69.1947 172.957 69.9538 175.343C70.7129 177.73 71.6676 180.305 72.7866 182.965C73.9056 185.626 75.1342 188.099 76.3002 190.305C77.4662 192.512 78.6478 194.461 79.6416 196.057C80.6354 197.653 81.4962 198.937 82.1066 199.798L82.7874 200.815C82.8762 200.927 82.9499 201.051 83.0065 201.183Z" fill="#263238"/>
<path d="M89.6269 198.616C89.3736 198.189 89.1463 197.747 88.946 197.293C88.5235 196.433 87.8818 195.212 87.0288 193.741C85.3464 190.767 82.6232 186.909 79.986 182.409C78.7333 180.289 77.655 178.069 76.762 175.774C76.026 173.897 75.5011 171.944 75.1969 169.951C74.9927 168.611 74.9297 167.252 75.0091 165.898C75.0091 165.413 75.0952 165.045 75.1186 164.795C75.1321 164.668 75.1556 164.542 75.1891 164.419C75.2149 164.912 75.2149 165.405 75.1891 165.898C75.1712 167.243 75.276 168.587 75.5021 169.912C75.8443 171.873 76.3898 173.793 77.1298 175.641C78.0334 177.909 79.1113 180.104 80.3538 182.206C82.9988 186.682 85.6907 190.579 87.3184 193.6C88.1479 195.094 88.7504 196.346 89.126 197.223C89.3295 197.661 89.4547 198.005 89.5486 198.248C89.5869 198.368 89.6131 198.491 89.6269 198.616Z" fill="#263238"/>
<path d="M80.5179 152.689L92.2168 145.082C92.2168 145.082 85.9565 121.293 76.3157 120.526L75.8853 129.22L80.5179 152.689Z" fill="#263238"/>
<path d="M59.3896 117.443C59.3896 117.443 44.4197 115.831 48.4341 137.234L52.2842 159.755L79.1487 165.029L85.0177 137.844C86.8097 129.635 83.5152 125.707 83.5152 125.707C82.7281 124.395 81.6804 123.259 80.4368 122.368C79.1931 121.476 77.7799 120.85 76.2846 120.527L59.3583 117.443" fill="#263238"/>
<path d="M80.3144 130.793C80.0771 131.823 80.0771 132.894 80.3144 133.924C80.6072 135.04 81.0494 136.111 81.629 137.109C82.3677 138.344 83.0062 139.637 83.5384 140.974C84.4105 143.486 84.4462 146.212 83.6402 148.745C83.397 149.502 83.0743 150.231 82.6776 150.92C82.5423 151.18 82.371 151.42 82.169 151.632C82.6383 150.672 83.0359 149.678 83.3584 148.659C84.0646 146.18 83.9936 143.544 83.155 141.107C82.6287 139.79 82.0062 138.514 81.2925 137.289C80.7161 136.254 80.2918 135.142 80.0327 133.986C79.872 133.199 79.872 132.387 80.0327 131.599C80.0714 131.315 80.1672 131.04 80.3144 130.793Z" fill="#455A64"/>
<path d="M72.6771 148.244C71.505 148.884 70.2732 149.408 68.9992 149.809C67.7681 150.32 66.4887 150.705 65.1804 150.959C66.347 150.308 67.58 149.783 68.8583 149.394C70.0875 148.878 71.3674 148.493 72.6771 148.244Z" fill="#455A64"/>
<path d="M75.0793 136.115C75.0179 135.402 74.773 134.718 74.3685 134.128C73.9639 133.538 73.4135 133.063 72.7708 132.75C72.3943 132.563 71.9941 132.429 71.5813 132.351C70.6423 131.771 68.193 132.202 67.1678 132.624C66.1621 133.088 65.2919 133.802 64.6402 134.698C64.0081 135.439 63.565 136.323 63.3491 137.273C63.2432 137.747 63.2467 138.24 63.3593 138.713C63.4718 139.186 63.6904 139.627 63.9986 140.004C64.3169 140.37 64.7478 140.62 65.2237 140.715C65.6995 140.81 66.1934 140.744 66.6279 140.528C66.4595 141.175 66.4595 141.853 66.6279 142.5C66.7198 142.826 66.9334 143.105 67.2246 143.278C67.5158 143.451 67.8625 143.506 68.193 143.431C68.7799 143.228 68.9755 142.57 69.0459 141.913C69.0853 142.278 69.2614 142.614 69.5389 142.853C69.8163 143.093 70.1743 143.218 70.5406 143.204C70.8515 143.141 71.1324 142.975 71.3393 142.734C71.5461 142.494 71.667 142.191 71.6831 141.874C71.7225 142.052 71.8013 142.219 71.9137 142.362C72.0261 142.506 72.1693 142.622 72.3326 142.703C73.0212 142.97 73.7568 142.226 73.7803 141.491C73.7153 140.753 73.4196 140.055 72.9351 139.495C73.6045 139.231 74.1729 138.762 74.5582 138.154C74.9436 137.547 75.126 136.832 75.0793 136.115ZM68.0834 138.752C67.7921 138.946 67.4442 139.036 67.0952 139.01C66.7463 138.983 66.4164 138.839 66.1584 138.603C65.9102 138.355 65.7481 138.035 65.696 137.688C65.6439 137.342 65.7045 136.987 65.8688 136.678C65.9522 136.509 66.0769 136.363 66.2315 136.255C66.3861 136.147 66.5655 136.08 66.7531 136.06C67.0929 135.964 67.4553 135.99 67.7781 136.133C68.1009 136.276 68.3638 136.527 68.5216 136.842C68.6907 137.16 68.7395 137.528 68.659 137.879C68.5784 138.23 68.3741 138.539 68.0834 138.752ZM71.417 139.331C71.3701 139.55 71.104 139.644 70.8849 139.636C70.6853 139.627 70.4915 139.565 70.3227 139.458C70.1539 139.351 70.016 139.202 69.9224 139.026C69.8755 139.375 69.703 139.694 69.4372 139.925C69.3984 139.966 69.3506 139.998 69.2976 140.017C69.2446 140.036 69.1879 140.042 69.132 140.035C68.9677 139.98 68.9442 139.753 68.9755 139.573C69.0814 139.015 69.3324 138.494 69.7033 138.063L69.625 138.024C70.2105 138.131 70.7534 138.402 71.1901 138.806C71.2706 138.866 71.3339 138.946 71.3738 139.038C71.4136 139.13 71.4285 139.231 71.417 139.331ZM72.7864 137.633C72.4952 137.827 72.1472 137.917 71.7983 137.891C71.4493 137.864 71.1195 137.72 70.8614 137.484C70.6133 137.236 70.4512 136.916 70.3991 136.569C70.3469 136.223 70.4075 135.868 70.5719 135.559C70.6544 135.39 70.7792 135.245 70.934 135.138C71.0889 135.031 71.2687 134.966 71.4561 134.949C71.7874 134.893 72.1277 134.946 72.4268 135.098C72.7259 135.251 72.9678 135.496 73.117 135.797C73.2661 136.098 73.3145 136.439 73.255 136.769C73.1955 137.1 73.0312 137.403 72.7864 137.633Z" fill="#FAFAFA"/>
<path d="M76.0575 87.2842C76.821 88.7801 77.1337 90.4656 76.9574 92.1359C76.84 93.2236 76.5427 94.4287 77.1452 95.3443C77.8808 96.4477 79.6102 96.5416 80.3301 97.6919C81.3709 99.304 79.5476 101.605 80.3771 103.303C80.9249 104.445 82.3726 104.782 83.3585 105.588C84.0245 106.177 84.4758 106.971 84.6415 107.845C84.8072 108.719 84.678 109.623 84.2741 110.416C83.562 111.801 82.1613 112.67 80.8309 113.476L77.7791 115.315C77.2709 115.706 76.6437 115.91 76.0027 115.894C74.8837 115.737 74.3594 114.376 73.3421 113.867C72.09 113.241 70.6345 114.11 69.2337 114.203C68.7104 114.241 68.1851 114.165 67.6935 113.981C67.2019 113.798 66.7555 113.511 66.3845 113.14C66.0135 112.769 65.7265 112.323 65.5431 111.831C65.3596 111.339 65.2839 110.814 65.3211 110.291" fill="#F9701F"/>
<path d="M72.6222 119.321C72.2857 115.8 71.9962 112.098 71.9962 112.098C71.9962 112.098 76.4489 110.901 76.8088 104.899C77.1453 99.1786 74.9385 86.2589 74.9385 86.2589C71.5983 85.2837 68.0397 85.3532 64.7401 86.4582C61.4405 87.5632 58.5577 89.6508 56.4785 92.441L59.6712 120.949C59.7878 121.755 60.0631 122.53 60.4811 123.229C60.8991 123.928 61.4516 124.537 62.1066 125.021C62.7616 125.505 63.5061 125.854 64.297 126.048C65.0878 126.242 65.9094 126.278 66.7141 126.153C68.392 126.001 69.9456 125.204 71.0477 123.93C72.1497 122.656 72.7142 121.003 72.6222 119.321Z" fill="#FFBE9D"/>
<path d="M75.4081 96.4477C75.4246 96.6433 75.3669 96.8379 75.2466 96.993C75.1263 97.1481 74.9521 97.2523 74.7586 97.285C74.6629 97.3029 74.5645 97.3015 74.4694 97.2807C74.3742 97.2599 74.2842 97.2203 74.2047 97.1641C74.1251 97.1079 74.0577 97.0363 74.0063 96.9536C73.9549 96.8709 73.9207 96.7787 73.9056 96.6825C73.8893 96.4857 73.9481 96.2901 74.07 96.1348C74.1919 95.9795 74.368 95.8761 74.5629 95.8451C74.6582 95.8272 74.7561 95.8288 74.8507 95.8496C74.9454 95.8705 75.0349 95.9102 75.1138 95.9665C75.1927 96.0228 75.2595 96.0944 75.31 96.1771C75.3606 96.2598 75.3939 96.3518 75.4081 96.4477Z" fill="#263238"/>
<path d="M75.4078 95.6182C75.3218 95.7199 74.7036 95.3521 73.8897 95.4382C73.0759 95.5243 72.5203 95.986 72.4185 95.8921C72.3168 95.7982 72.4186 95.6651 72.6924 95.4539C73.0218 95.1747 73.4286 95.0027 73.8584 94.9609C74.2831 94.9199 74.71 95.0129 75.0792 95.2269C75.3452 95.3991 75.447 95.5634 75.4078 95.6182Z" fill="#263238"/>
<path d="M66.9332 97.551C66.9495 97.7477 66.8908 97.9434 66.7689 98.0986C66.647 98.2539 66.4709 98.3574 66.2759 98.3883C66.1802 98.405 66.0821 98.4024 65.9874 98.3806C65.8927 98.3588 65.8034 98.3183 65.7246 98.2614C65.6458 98.2045 65.5792 98.1324 65.5288 98.0494C65.4783 97.9663 65.445 97.874 65.4308 97.7779C65.4143 97.5823 65.4719 97.3877 65.5922 97.2326C65.7125 97.0775 65.8867 96.9733 66.0803 96.9406C66.1764 96.9239 66.275 96.9264 66.3702 96.9481C66.4654 96.9698 66.5553 97.0103 66.6347 97.0671C66.7141 97.1239 66.7813 97.1959 66.8326 97.279C66.8839 97.3621 66.9181 97.4546 66.9332 97.551Z" fill="#263238"/>
<path d="M66.9333 96.745C66.8472 96.8546 66.229 96.4868 65.4152 96.5729C64.6013 96.6589 64.0457 97.1206 63.944 97.0267C63.8423 96.9328 63.944 96.7998 64.2179 96.5885C64.5445 96.3048 64.9528 96.1322 65.3839 96.0955C65.8062 96.0529 66.2311 96.1461 66.5968 96.3616C66.8707 96.5337 66.9724 96.6981 66.9333 96.745Z" fill="#263238"/>
<path d="M70.486 102.512C70.9005 102.332 71.3374 102.208 71.785 102.144C71.9884 102.097 72.1841 102.043 72.2075 101.894C72.2008 101.677 72.13 101.468 72.0041 101.291L71.2215 99.7263C70.5196 98.4411 69.923 97.1012 69.4374 95.7197C70.2422 96.9439 70.9462 98.2315 71.5424 99.5698C71.8006 100.11 72.051 100.618 72.3249 101.135C72.4725 101.368 72.5385 101.643 72.5127 101.917C72.4876 101.993 72.4466 102.061 72.3926 102.12C72.3387 102.178 72.2729 102.223 72.1997 102.254C72.0865 102.297 71.9681 102.326 71.8476 102.34C71.4032 102.457 70.9454 102.515 70.486 102.512Z" fill="#263238"/>
<path d="M71.9962 112.098C69.2195 112.411 66.4106 111.948 63.8813 110.76C63.8813 110.76 66.2289 114.673 72.0509 113.499L71.9962 112.098Z" fill="#EB996E"/>
<path d="M70.3293 104.5C70.1575 104.321 69.9433 104.189 69.7066 104.115C69.47 104.041 69.2185 104.028 68.9755 104.078C68.7978 104.113 68.6289 104.182 68.4785 104.283C68.328 104.384 68.1991 104.514 68.099 104.664C67.9987 104.808 67.9449 104.979 67.9449 105.154C67.9449 105.329 67.9987 105.499 68.099 105.643C68.2442 105.777 68.4262 105.864 68.6216 105.893C68.8169 105.922 69.0165 105.892 69.1946 105.807C69.5645 105.633 69.8968 105.389 70.1728 105.087C70.2602 105.013 70.332 104.923 70.384 104.821C70.4143 104.776 70.4305 104.723 70.4305 104.668C70.4305 104.614 70.4143 104.561 70.384 104.516" fill="#F9701F"/>
<path d="M68.1383 103.295C68.2714 103.295 68.3574 104.164 69.1791 104.712C70.0008 105.259 70.932 105.079 70.9476 105.197C70.9633 105.314 70.7598 105.392 70.3607 105.439C69.8441 105.5 69.3229 105.375 68.8896 105.087C68.4846 104.803 68.2044 104.375 68.107 103.89C68.0053 103.53 68.0757 103.295 68.1383 103.295Z" fill="#263238"/>
<path d="M73.3968 84.7958C73.7232 85.6695 73.7586 86.6253 73.4977 87.5207C73.2368 88.4161 72.6936 89.2033 71.9491 89.765C70.4309 90.8527 68.412 90.8057 66.573 91.1266C64.7341 91.4474 62.6604 92.5508 62.5508 94.4132C62.4804 95.5479 63.1534 96.7139 62.7464 97.7703C62.2691 99.0067 60.5788 99.3354 59.9841 100.548C59.0294 102.45 61.5492 104.539 61.1735 106.636C60.9623 107.881 59.7884 108.781 59.5302 110.017C59.1702 111.778 60.704 113.859 59.5302 115.252C58.6616 116.316 56.9479 115.956 55.7271 115.315C54.5063 114.673 53.1995 113.812 51.8692 114.164C51.1124 114.496 50.3935 114.908 49.725 115.393C49.0544 115.754 48.2916 115.907 47.5338 115.832C46.776 115.758 46.0575 115.459 45.47 114.975C44.8824 114.49 44.4523 113.842 44.2346 113.113C44.0168 112.383 44.0212 111.605 44.2473 110.878C44.6713 109.849 45.255 108.893 45.9767 108.045C46.6969 107.184 47.0484 106.073 46.9548 104.954C46.7068 104.139 46.3174 103.373 45.8045 102.692C45.552 102.349 45.3908 101.947 45.3361 101.524C45.2813 101.101 45.3348 100.671 45.4915 100.274C46.2114 98.9676 48.3869 99.3276 49.3259 98.1616C50.6093 96.5574 48.3243 94.0767 49.1851 92.2143C50.1633 90.1093 54.0055 90.9309 54.9837 88.8259C55.3436 88.0434 55.1637 87.1513 55.3436 86.3218C55.7427 84.428 57.8869 83.4264 59.8198 83.309C61.7526 83.1916 63.7325 83.6533 65.6105 83.3716C66.6591 83.2151 67.6686 82.8395 68.7407 82.5891C69.778 82.3042 70.8812 82.3787 71.8708 82.8004C72.352 83.0242 72.7431 83.4044 72.9805 83.8791C73.2178 84.3538 73.2873 84.8948 73.1777 85.414" fill="#F9701F"/>
<path d="M72.1059 88.7868C72.5504 89.7979 73.2212 90.6933 74.0664 91.4043C74.9116 92.1152 75.9088 92.6226 76.9811 92.8873C77.1611 91.4347 77.1611 89.9655 76.9811 88.5129C76.7872 87.0405 76.1262 85.6691 75.0952 84.6002C74.5785 84.078 73.9377 83.6955 73.2328 83.4889C72.5278 83.2822 71.7819 83.258 71.0651 83.4186" fill="#F9701F"/>
<g opacity="0.3">
<path opacity="0.3" d="M48.1287 115.174C48.0023 115.083 47.9002 114.962 47.8314 114.822C47.7436 114.618 47.7078 114.395 47.7269 114.174C47.746 113.953 47.8195 113.74 47.9409 113.554C48.1106 113.284 48.348 113.063 48.6295 112.912C48.9667 112.727 49.3237 112.58 49.6938 112.474C50.1224 112.348 50.5368 112.177 50.9302 111.965C51.1595 111.846 51.3618 111.681 51.5247 111.481C51.6876 111.28 51.8075 111.048 51.8771 110.799C51.9679 110.239 51.857 109.665 51.5641 109.18C51.3058 108.663 50.9615 108.17 50.7346 107.615C50.5104 107.008 50.4305 106.358 50.5011 105.716C50.5718 105.073 50.791 104.456 51.1415 103.913C51.5119 103.323 52.0333 102.842 52.6518 102.52C53.2935 102.199 54.0212 102.035 54.7177 101.738C55.0798 101.585 55.4093 101.365 55.688 101.088C55.9691 100.796 56.1547 100.424 56.2202 100.024C56.2548 99.2355 56.1837 98.4459 56.0089 97.6763C55.9049 96.9043 56.0075 96.1186 56.3062 95.3991C56.5969 94.6996 57.0223 94.0642 57.5583 93.5289C58.5969 92.5273 59.8692 91.8011 61.2597 91.416C62.5151 91.0603 63.7902 90.7781 65.0785 90.5709C66.2094 90.3897 67.3261 90.1282 68.4199 89.7883C69.3258 89.5085 70.1835 89.0916 70.9632 88.5519C71.5593 88.1504 72.0876 87.6565 72.5282 87.0886C72.8067 86.7324 73.0357 86.3402 73.209 85.9226C73.271 85.7783 73.3207 85.6291 73.3577 85.4766C73.3577 85.4766 73.3029 85.6252 73.1777 85.907C72.9946 86.3173 72.7578 86.7015 72.4735 87.0495C71.4057 88.315 69.9827 89.231 68.3886 89.6788C67.2992 90.0154 66.188 90.2769 65.0628 90.4613C63.7665 90.6635 62.4835 90.9431 61.2206 91.2986C59.8027 91.6897 58.504 92.4264 57.4409 93.4428C56.8909 93.994 56.4548 94.6481 56.1576 95.3678C55.8476 96.109 55.7396 96.919 55.8445 97.7154C56.0273 98.4838 56.0985 99.2744 56.0558 100.063C55.9998 100.432 55.8302 100.774 55.5706 101.041C55.3077 101.3 54.9967 101.505 54.6551 101.644C53.9821 101.949 53.2465 102.113 52.5892 102.426C51.9457 102.765 51.4051 103.27 51.0241 103.89C50.6613 104.451 50.436 105.09 50.3667 105.755C50.2973 106.42 50.3858 107.092 50.625 107.716C50.8598 108.303 51.2041 108.788 51.4623 109.281C51.7462 109.75 51.857 110.304 51.7754 110.846C51.71 111.079 51.5979 111.297 51.4458 111.485C51.2938 111.673 51.1051 111.829 50.8911 111.942C50.507 112.156 50.1001 112.327 49.6781 112.451C49.3058 112.567 48.9466 112.722 48.6061 112.912C48.3139 113.074 48.0685 113.308 47.894 113.593C47.7735 113.789 47.7033 114.011 47.6896 114.241C47.676 114.47 47.7193 114.699 47.8157 114.908C47.8927 115.024 48.0012 115.117 48.1287 115.174Z" fill="white"/>
</g>
<g opacity="0.3">
<path opacity="0.3" d="M49.5297 96.8942H49.6001L49.8192 96.9333C50.0983 96.9895 50.3805 97.0287 50.6644 97.0507C51.1128 97.1033 51.5666 97.0874 52.0103 97.0038C52.623 96.886 53.1761 96.5597 53.5754 96.0804C54.029 95.5083 54.357 94.847 54.5379 94.1397C54.733 93.3458 54.968 92.5622 55.2422 91.7921C55.6035 90.965 56.1592 90.2375 56.862 89.6714C57.6244 89.0638 58.4843 88.5902 59.4053 88.2706C61.2179 87.7405 63.0896 87.4382 64.9769 87.3707C65.8456 87.2925 66.675 87.2064 67.4498 87.0812C68.1622 86.9614 68.8636 86.7834 69.547 86.5491C70.5515 86.2296 71.4826 85.7135 72.2859 85.0309C72.5774 84.7793 72.8399 84.4958 73.0684 84.1858L73.0136 84.2327L72.8649 84.3971C72.6707 84.6023 72.4642 84.7957 72.2467 84.9761C71.439 85.6351 70.5117 86.132 69.5157 86.4395C68.8356 86.6593 68.1397 86.8267 67.4341 86.9403C66.6516 87.0655 65.869 87.1438 64.9691 87.2142C63.068 87.2723 61.1823 87.5748 59.3583 88.1141C58.4205 88.4387 57.5446 88.9203 56.7681 89.5383C56.0408 90.1218 55.4706 90.8777 55.1092 91.7373C54.83 92.5184 54.5974 93.3154 54.4127 94.124C54.2385 94.8144 53.9242 95.4617 53.4893 96.0256C53.1201 96.4833 52.6073 96.8031 52.0338 96.9333C51.5962 97.0219 51.1484 97.0482 50.7035 97.0116C50.3357 97.0116 50.054 96.949 49.8583 96.9255L49.5297 96.8942Z" fill="white"/>
</g>
<g opacity="0.3">
<path opacity="0.3" d="M80.7135 112.686L80.8309 112.646C80.9389 112.599 81.0435 112.544 81.1439 112.482C81.5143 112.252 81.8339 111.948 82.083 111.59C82.4652 111.058 82.6878 110.428 82.7246 109.775C82.7569 108.968 82.4924 108.177 81.9812 107.552C81.4764 106.922 80.7681 106.488 79.9779 106.324C79.3454 106.289 78.717 106.2 78.0999 106.058C77.9029 105.99 77.7228 105.881 77.5716 105.738C77.4204 105.595 77.3017 105.421 77.2234 105.228C77.1768 105.082 77.1608 104.927 77.1765 104.774C77.1765 104.774 77.1765 104.813 77.1373 104.892C77.112 105.01 77.112 105.133 77.1373 105.252C77.2081 105.461 77.325 105.652 77.4793 105.811C77.6337 105.969 77.8217 106.091 78.0294 106.167C78.6497 106.33 79.2836 106.434 79.9232 106.48C80.6745 106.642 81.3465 107.06 81.8247 107.662C82.3099 108.254 82.5655 109.001 82.5447 109.767C82.5121 110.392 82.3121 110.998 81.9656 111.52C81.731 111.875 81.4309 112.184 81.0813 112.427C80.8309 112.592 80.7135 112.686 80.7135 112.686Z" fill="white"/>
</g>
<path d="M57.2846 86.3608C57.5062 85.1327 57.289 83.8657 56.671 82.7814C56.0531 81.6971 55.0737 80.8645 53.9041 80.4292C53.4602 80.2534 52.9829 80.1784 52.5066 80.2095C52.0302 80.2406 51.5667 80.3771 51.1495 80.6092C50.5285 81.049 50.089 81.7 49.9131 82.4403C49.7021 83.2239 49.7045 84.0496 49.9203 84.8318C50.1361 85.6141 50.5573 86.3243 51.1401 86.8888C51.723 87.4534 52.4464 87.8516 53.2351 88.0422C54.0239 88.2329 54.8493 88.2089 55.6256 87.9729C56.0566 87.8753 56.4547 87.6676 56.7812 87.3699C57.1077 87.0722 57.3513 86.6949 57.4881 86.2748" fill="#F9701F"/>
<path d="M57.5504 84.6472C57.6184 84.9813 57.6086 85.3266 57.5217 85.6564C57.4349 85.9861 57.2733 86.2915 57.0495 86.5488C56.3922 87.4956 55.4375 87.7617 55.4219 87.66C55.4062 87.5582 56.134 87.1513 56.7131 86.314C57.2921 85.4767 57.4252 84.6315 57.5504 84.6472Z" fill="#455A64"/>
<path d="M81.5027 129.361L64.232 195.053L146.4 216.656L163.671 150.964L81.5027 129.361Z" fill="#F5F5F5"/>
<path d="M163.663 150.983L163.264 150.889L162.105 150.599L157.645 149.441L140.813 145.067L81.4963 129.557L81.7154 129.424L64.4996 195.11L64.2805 194.852L146.447 216.497L146.236 216.614C151.479 196.839 155.822 180.445 158.85 168.981C160.415 163.253 161.581 158.753 162.395 155.678C162.81 154.113 163.123 152.97 163.342 152.172C163.561 151.374 163.678 150.959 163.678 150.959C163.678 150.959 163.584 151.358 163.381 152.141L162.489 155.631L159.038 168.934C156.041 180.43 151.745 196.878 146.564 216.716L146.525 216.88L146.361 216.833L64.1944 195.266L63.9909 195.212L64.0457 195.016L81.3398 129.338L81.3867 129.158L81.5667 129.205L140.969 144.926L157.739 149.378L162.16 150.568L163.287 150.873L163.663 150.983Z" fill="#263238"/>
<path d="M82.5851 132.668L67.7424 190.258L144.362 210.005L159.205 152.415L82.5851 132.668Z" fill="#F9701F"/>
<path opacity="0.2" d="M68.1619 191.675L104.229 163.002L114.887 189.679L129.239 180.688L144.553 211.762L68.1619 191.675Z" fill="black"/>
<g opacity="0.2">
<path opacity="0.2" d="M128.926 164.818C128.614 166.009 127.957 167.08 127.036 167.897C126.116 168.714 124.973 169.24 123.754 169.407C122.535 169.575 121.293 169.377 120.186 168.839C119.079 168.301 118.157 167.446 117.536 166.384C116.915 165.321 116.623 164.098 116.697 162.87C116.771 161.641 117.208 160.462 117.952 159.482C118.697 158.502 119.715 157.764 120.878 157.363C122.042 156.962 123.298 156.914 124.489 157.227C126.077 157.656 127.434 158.692 128.264 160.113C129.094 161.533 129.332 163.224 128.926 164.818Z" fill="black"/>
</g>
<path d="M47.6464 158.258C55.057 165.865 65.9343 170.56 69.8469 172.086C70.4495 172 71.1459 171.89 71.9676 171.718C72.6721 171.571 73.3467 171.307 73.9631 170.936C74.743 170.498 75.4592 169.956 76.0916 169.323C76.1902 169.181 76.3309 169.073 76.494 169.015C76.657 168.957 76.8342 168.951 77.0008 168.998C77.1673 169.046 77.3149 169.144 77.4227 169.28C77.5305 169.415 77.5931 169.581 77.6019 169.754C77.5628 170.497 76.1777 172.297 73.7987 173.471C71.4198 174.645 75.489 175.568 76.968 175.936C78.447 176.304 82.9544 177.642 83.2283 178.19C83.5883 178.972 82.8057 179.52 81.3346 179.121C79.8634 178.722 75.3951 177.83 75.2386 178.62C75.0821 179.41 82.6258 181.155 82.6258 181.155C82.6258 181.155 84.2926 181.273 84.1439 182.188C83.8778 183.84 75.9977 181.406 75.2543 181.132C74.7378 180.96 74.5422 181.805 75.1056 181.969C75.669 182.134 82.6649 183.534 82.4067 185.232C82.211 186.524 75.9116 183.268 74.2996 183.785C72.6875 184.301 79.3313 185.765 79.0887 186.993C79.0026 187.455 78.8696 187.776 75.176 186.383C72.558 185.266 70.0031 184.007 67.5228 182.611V182.65C67.5228 182.65 28.529 171.116 32.8408 153.782C37.4186 135.377 38.3185 133.687 38.3185 133.687L52.7407 136.973C52.7407 136.973 46.3161 156.889 47.6464 158.258Z" fill="#FFBE9D"/>
<path d="M36.5314 137.914C36.5314 137.914 42.7057 117.92 58.646 117.709V120.143L52.1039 142.836L36.5314 137.914Z" fill="#263238"/>
<path d="M55.3517 133.165C55.3462 133.43 55.304 133.693 55.2264 133.947C55.1169 134.44 54.9447 135.144 54.6865 136.021C54.1779 137.766 53.364 140.192 52.2841 142.915L52.2137 143.087L52.0415 143.032L49.1853 142.078C45.7343 140.912 42.612 139.84 40.3582 139.041L37.6976 138.079C37.3644 137.975 37.042 137.838 36.7351 137.672C37.0796 137.723 37.4179 137.81 37.7446 137.93L40.4443 138.768C42.7215 139.495 45.8595 140.528 49.3183 141.686L52.1667 142.649L51.9163 142.766C53.0119 140.059 53.8727 137.664 54.4439 135.943L55.0934 133.916C55.1538 133.657 55.2403 133.406 55.3517 133.165Z" fill="#455A64"/>
<path d="M56.7914 128.524C56.7472 127.927 56.7472 127.328 56.7914 126.732C56.869 125.318 56.645 123.905 56.1341 122.584C55.5753 121.292 54.5334 120.27 53.2309 119.736C52.6723 119.563 52.0936 119.463 51.5093 119.439C51.5093 119.439 51.6736 119.353 51.9867 119.321C52.4376 119.282 52.892 119.33 53.3248 119.462C54.0333 119.705 54.6829 120.093 55.2315 120.603C55.7802 121.112 56.2157 121.731 56.5097 122.42C57.0521 123.794 57.2483 125.28 57.081 126.748C57.0734 127.351 56.9758 127.95 56.7914 128.524Z" fill="#455A64"/>
</svg>
