<svg width="91" height="91" viewBox="0 0 91 91" fill="none" xmlns="http://www.w3.org/2000/svg">
<path d="M10.6827 27.0645L22.9479 29.0257H24.9261L27.3 17.6507L29.2783 11.7671H34.8174L37.9827 15.2973L36.7957 21.5731L30.0696 26.28L37.1913 36.8705L25.7174 43.9309L18.5957 34.1248L11.8696 37.655L8.70439 35.3016L7.91309 29.8102L10.6827 27.0645Z" fill="#F9701F"/>
<path d="M42.7305 52.9526H28.4871L28.8827 87.0776L42.7305 87.4699V52.9526Z" fill="#F9701F"/>
<path d="M62.6943 51.8055H15.779L56.4055 25.9746C56.5237 25.8995 56.626 25.8018 56.7064 25.6871C56.7869 25.5725 56.844 25.4431 56.8744 25.3063C56.9048 25.1696 56.908 25.0282 56.8838 24.8903C56.8596 24.7523 56.8084 24.6205 56.7332 24.5023L52.7081 18.1717C51.7901 16.7314 50.3384 15.7141 48.6712 15.3429C47.0041 14.9717 45.2578 15.277 43.8155 16.1918L38.0987 19.8266L38.5516 17.6598C38.7301 16.8765 38.752 16.0655 38.6162 15.2736C38.4803 14.4818 38.1894 13.7245 37.76 13.0454C37.3306 12.3663 36.7712 11.7788 36.114 11.3165C35.4569 10.8543 34.7149 10.5264 33.9306 10.3518C33.1463 10.1772 32.3353 10.1593 31.5441 10.2991C30.7529 10.4389 29.9971 10.7336 29.3202 11.1664C28.6432 11.5992 28.0585 12.1614 27.5995 12.8209C27.1405 13.4803 26.8164 14.224 26.6457 15.0091L23.6757 28.3488L13.7313 26.1353C12.2483 25.8048 10.6953 26.0397 9.37642 26.7941C8.05753 27.5485 7.06771 28.768 6.60077 30.2139C6.13383 31.6597 6.22339 33.2278 6.85192 34.6111C7.48045 35.9944 8.60268 37.0933 9.99889 37.6926L3.87452 41.5868C2.43427 42.5047 1.41696 43.9565 1.04578 45.6236C0.67459 47.2907 0.97984 49.0369 1.89456 50.4792L5.91971 56.8099C5.99483 56.9281 6.0925 57.0304 6.20715 57.1108C6.32179 57.1913 6.45116 57.2484 6.58787 57.2788C6.72458 57.3093 6.86594 57.3125 7.0039 57.2883C7.14185 57.2641 7.27369 57.213 7.39188 57.1379L11.1385 54.7562V81.7519C11.1404 83.4599 11.8198 85.0973 13.0275 86.305C14.2353 87.5126 15.8727 88.1919 17.5807 88.1937H57.3192C59.0271 88.1918 60.6645 87.5125 61.8722 86.3048C63.0798 85.0972 63.7591 83.4598 63.761 81.7519V52.8719C63.761 52.7318 63.7334 52.5931 63.6798 52.4637C63.6262 52.3343 63.5476 52.2167 63.4486 52.1177C63.3495 52.0187 63.2319 51.9401 63.1025 51.8865C62.9731 51.833 62.8344 51.8054 62.6943 51.8055ZM44.9599 17.9919C45.6478 17.552 46.4471 17.318 47.2636 17.3175C47.5814 17.3177 47.8982 17.3527 48.2084 17.4219C48.7613 17.5434 49.2846 17.7735 49.748 18.0986C50.2114 18.4238 50.6057 18.8376 50.9082 19.3162L54.3612 24.7468L37.5653 35.4262L31.8003 26.3592L44.9599 17.9919ZM28.7275 15.4728C28.9579 14.4465 29.5865 13.5538 30.4751 12.9909C31.3638 12.4281 32.4396 12.2414 33.4659 12.4718C34.4922 12.7022 35.3849 13.3308 35.9477 14.2194C36.5105 15.1081 36.6973 16.1839 36.4669 17.2102L35.5914 21.3983L26.0529 27.4855L28.7275 15.4728ZM30 27.5037L35.765 36.5706L26.0323 42.7586L20.2675 33.6917L30 27.5037ZM9.05921 34.2163C8.6383 33.5544 8.42314 32.7825 8.44093 31.9983C8.45872 31.2141 8.70866 30.4528 9.15915 29.8106C9.60963 29.1685 10.2404 28.6743 10.9718 28.3907C11.7031 28.107 12.5021 28.0466 13.2678 28.2171L21.8852 30.1356L12.3192 36.1321L11.5439 35.9594C11.0351 35.8475 10.5535 35.6359 10.127 35.3367C9.70049 35.0375 9.33756 34.6567 9.05921 34.2163ZM7.14767 54.7658L3.69483 49.335C3.08296 48.3702 2.87874 47.2022 3.12698 46.087C3.37521 44.9719 4.05562 44.0008 5.01895 43.3867L18.4676 34.8361L24.2324 43.903L7.14767 54.7658ZM27.8276 86.0609H17.5807C16.4383 86.0596 15.343 85.6052 14.5352 84.7974C13.7274 83.9896 13.273 82.8943 13.2717 81.7519V53.9383H27.8281L27.8276 86.0609ZM41.3823 86.0609H29.9604V53.9383H41.3823V86.0609ZM61.6279 81.7519C61.6266 82.8943 61.1722 83.9895 60.3645 84.7973C59.5567 85.6051 58.4616 86.0595 57.3192 86.0609H43.5151V53.9383H61.6279V81.7519Z" fill="#323334"/>
<path d="M74.6187 42.1181L75.1288 39.1437C75.1624 38.9476 75.1404 38.7461 75.0655 38.5618C74.9905 38.3776 74.8655 38.218 74.7046 38.101C74.5437 37.9841 74.3533 37.9145 74.1549 37.9001C73.9566 37.8857 73.7581 37.927 73.582 38.0195L70.911 39.4236L68.2398 38.0195C68.0637 37.9269 67.8652 37.8854 67.6667 37.8997C67.4682 37.9141 67.2777 37.9837 67.1167 38.1006C66.9557 38.2176 66.8307 38.3773 66.7557 38.5616C66.6807 38.7459 66.6588 38.9475 66.6925 39.1437L67.2026 42.1181L65.0417 44.2242C64.8991 44.3631 64.7983 44.5391 64.7506 44.7323C64.7029 44.9255 64.7102 45.1282 64.7717 45.3175C64.8331 45.5067 64.9464 45.675 65.0985 45.8033C65.2507 45.9316 65.4357 46.0147 65.6326 46.0433L68.6186 46.4773L69.9541 49.1833C70.0421 49.3618 70.1783 49.5121 70.3474 49.6172C70.5164 49.7223 70.7114 49.778 70.9105 49.778C71.1095 49.778 71.3045 49.7223 71.4735 49.6172C71.6426 49.5121 71.7788 49.3618 71.8668 49.1833L73.2022 46.4773L76.1881 46.0433C76.385 46.0147 76.5701 45.9316 76.7222 45.8033C76.8744 45.675 76.9876 45.5067 77.0491 45.3175C77.1106 45.1282 77.1179 44.9255 77.0701 44.7323C77.0224 44.5391 76.9216 44.3631 76.7791 44.2242L74.6187 42.1181ZM72.3407 44.4464C72.1696 44.4712 72.0071 44.5373 71.8672 44.6389C71.7273 44.7405 71.6142 44.8747 71.5377 45.0297L70.9105 46.3009L70.2831 45.0297C70.2065 44.8747 70.0935 44.7406 69.9536 44.639C69.8138 44.5373 69.6513 44.4712 69.4802 44.4464L68.0772 44.2425L69.0924 43.2531C69.2162 43.1324 69.3089 42.9834 69.3623 42.819C69.4157 42.6545 69.4284 42.4795 69.3992 42.3091L69.1594 40.9118L70.4142 41.5713C70.5672 41.6519 70.7375 41.694 70.9105 41.694C71.0834 41.694 71.2537 41.6519 71.4067 41.5713L72.6613 40.9118L72.4217 42.3091C72.3925 42.4795 72.4051 42.6545 72.4585 42.8189C72.5119 42.9834 72.6045 43.1324 72.7283 43.2531L73.7435 44.2425L72.3407 44.4464Z" fill="#323334"/>
<path d="M86.8839 27.4243L83.9512 26.7116L82.8758 23.8922C82.8049 23.7062 82.6834 23.5438 82.525 23.4233C82.3666 23.3028 82.1777 23.229 81.9796 23.2103C81.7814 23.1916 81.582 23.2287 81.4039 23.3174C81.2257 23.4061 81.076 23.5429 80.9715 23.7123L79.3877 26.2811L76.3739 26.4327C76.1752 26.4427 75.9832 26.5081 75.8197 26.6215C75.6562 26.7349 75.5277 26.8918 75.4487 27.0744C75.3697 27.257 75.3434 27.4581 75.3727 27.6549C75.402 27.8517 75.4858 28.0364 75.6146 28.188L77.5681 30.4881L76.7813 33.4012C76.7293 33.5933 76.7322 33.796 76.7895 33.9866C76.8468 34.1771 76.9563 34.3479 77.1056 34.4794C77.2549 34.611 77.438 34.6982 77.6343 34.7311C77.8305 34.764 78.0321 34.7414 78.2161 34.6657L81.0065 33.5186L83.5352 35.1675C83.7018 35.2762 83.8955 35.3361 84.0945 35.3405C84.2934 35.3448 84.4896 35.2934 84.6608 35.1921C84.832 35.0908 84.9715 34.9436 85.0635 34.7672C85.1554 34.5907 85.1962 34.3921 85.1812 34.1937L84.9528 31.1846L87.3012 29.2905C87.456 29.1656 87.5728 28.9999 87.6384 28.8121C87.704 28.6243 87.7158 28.4219 87.6724 28.2277C87.629 28.0336 87.5321 27.8555 87.3928 27.7135C87.2534 27.5715 87.0771 27.4714 86.8839 27.4243ZM83.177 29.877C83.0425 29.9856 82.9363 30.1252 82.8677 30.2839C82.7991 30.4426 82.7701 30.6156 82.7832 30.7879L82.8898 32.2015L81.7024 31.4267C81.5576 31.3323 81.392 31.2744 81.2198 31.2582C81.0477 31.242 80.8742 31.2679 80.7143 31.3336L79.4034 31.8725L79.7731 30.5039C79.8182 30.337 79.822 30.1617 79.7843 29.9929C79.7465 29.8242 79.6683 29.6672 79.5564 29.5354L78.6388 28.455L80.0546 28.3839C80.2273 28.3753 80.3953 28.3248 80.5441 28.2368C80.693 28.1488 80.8182 28.0259 80.909 27.8788L81.6528 26.6721L82.1579 27.9966C82.2195 28.1581 82.3195 28.3022 82.4492 28.4165C82.5789 28.5308 82.7344 28.6118 82.9024 28.6526L84.28 28.9875L83.177 29.877Z" fill="#323334"/>
<path d="M71.2003 10.089L70.4131 13.002C70.3612 13.1941 70.364 13.3969 70.4213 13.5875C70.4786 13.7781 70.5881 13.9488 70.7374 14.0804C70.8867 14.212 71.0698 14.2992 71.2661 14.3322C71.4623 14.3651 71.6639 14.3424 71.848 14.2668L74.6384 13.1195L77.166 14.7687C77.3326 14.8774 77.5264 14.9373 77.7253 14.9417C77.9243 14.946 78.1204 14.8946 78.2917 14.7933C78.4629 14.692 78.6024 14.5447 78.6944 14.3683C78.7863 14.1918 78.827 13.9931 78.812 13.7947L78.5836 10.7857L80.9325 8.89138C81.0874 8.76648 81.2042 8.60077 81.2698 8.41296C81.3354 8.22515 81.3471 8.02274 81.3037 7.8286C81.2603 7.63447 81.1635 7.45634 81.0241 7.31436C80.8848 7.17238 80.7085 7.07221 80.5152 7.02517L77.5826 6.31263L76.5073 3.49305C76.4364 3.30711 76.3148 3.14472 76.1564 3.02424C75.998 2.90377 75.8091 2.83003 75.611 2.81135C75.4128 2.79267 75.2134 2.82981 75.0353 2.91855C74.8572 3.0073 74.7074 3.14412 74.603 3.31354L73.0194 5.88216L70.0054 6.03359C69.8067 6.04356 69.6147 6.10893 69.4512 6.22231C69.2877 6.3357 69.1591 6.49257 69.0801 6.67519C69.0011 6.85781 68.9748 7.0589 69.0041 7.25571C69.0334 7.45253 69.1172 7.63721 69.2459 7.78889L71.2003 10.089ZM73.687 7.98387C73.8597 7.97519 74.0276 7.92467 74.1765 7.83664C74.3253 7.74861 74.4504 7.62573 74.5412 7.47857L75.2852 6.27193L75.7903 7.5964C75.8519 7.75794 75.9519 7.90208 76.0816 8.01639C76.2113 8.1307 76.3668 8.21177 76.5348 8.2526L77.9123 8.58727L76.8089 9.47701C76.6743 9.58553 76.5681 9.72514 76.4995 9.88382C76.4308 10.0425 76.4018 10.2155 76.4149 10.3879L76.5215 11.8016L75.3341 11.0269C75.1893 10.9324 75.0237 10.8746 74.8515 10.8584C74.6794 10.8421 74.5059 10.868 74.346 10.9337L73.0351 11.4726L73.4048 10.1041C73.4499 9.93713 73.4537 9.76174 73.416 9.59299C73.3783 9.42424 73.3 9.2672 73.1881 9.13541L72.2705 8.05478L73.687 7.98387Z" fill="#323334"/>
<path d="M51.8532 42.2716C49.4457 43.7868 48.2694 45.6228 48.2205 45.7003C48.0691 45.9391 48.0187 46.2284 48.0804 46.5044C48.1422 46.7804 48.3111 47.0205 48.55 47.172C48.7888 47.3235 49.0781 47.3739 49.3541 47.3121C49.6301 47.2503 49.8702 47.0814 50.0217 46.8426C50.1817 46.5937 54.0401 40.7614 62.4382 42.8387C62.7117 42.9038 62.9998 42.8581 63.2399 42.7118C63.4799 42.5655 63.6524 42.3303 63.72 42.0575C63.7875 41.7846 63.7446 41.4961 63.6005 41.2547C63.4564 41.0133 63.2229 40.8386 62.9506 40.7685C57.7835 39.4901 54.0637 40.8801 51.8532 42.2716Z" fill="#323334"/>
<path d="M72.0891 30.9777C72.3503 31.0861 72.6439 31.0863 72.9053 30.9783C73.1667 30.8702 73.3744 30.6627 73.4828 30.4015C73.5913 30.1402 73.5915 29.8466 73.4834 29.5853C73.3753 29.3239 73.1679 29.1161 72.9066 29.0077C65.3149 25.857 59.7971 28.2164 56.5053 30.7509C54.3214 32.4493 52.5138 34.5824 51.1967 37.0153C51.1344 37.1408 51.0975 37.2772 51.0879 37.417C51.0784 37.5567 51.0965 37.6969 51.1411 37.8296C51.1858 37.9624 51.2561 38.085 51.3482 38.1906C51.4402 38.2961 51.5522 38.3825 51.6776 38.4448C51.803 38.507 51.9395 38.544 52.0792 38.5536C52.2189 38.5631 52.3592 38.545 52.4919 38.5004C52.6246 38.4557 52.7473 38.3854 52.8528 38.2933C52.9584 38.2013 53.0447 38.0893 53.107 37.9639C54.2822 35.8229 55.8811 33.9437 57.8063 32.4408C61.9454 29.2549 66.7508 28.7622 72.0891 30.9777Z" fill="#323334"/>
<path d="M60.1057 23.0776C60.0187 23.3467 60.0421 23.6394 60.1708 23.8912C60.2995 24.143 60.523 24.3334 60.7921 24.4204C62.2602 24.853 63.7828 25.073 65.3133 25.0738C67.0967 25.0738 69.1565 24.7519 71.0035 23.657C73.4207 22.2249 74.9705 19.7847 75.6129 16.4055C75.6396 16.2677 75.6388 16.126 75.6106 15.9885C75.5824 15.8509 75.5273 15.7204 75.4486 15.6042C75.3698 15.488 75.2689 15.3885 75.1516 15.3114C75.0342 15.2343 74.9029 15.1812 74.765 15.155C74.6271 15.1288 74.4854 15.1301 74.348 15.1587C74.2106 15.1874 74.0802 15.243 73.9643 15.3222C73.8484 15.4013 73.7493 15.5026 73.6726 15.6202C73.5959 15.7378 73.5432 15.8694 73.5175 16.0074C72.9954 18.7553 71.7868 20.7102 69.9254 21.8175C66.3847 23.9242 61.5244 22.4159 61.4474 22.3914C61.1785 22.3047 60.8861 22.3283 60.6346 22.4569C60.383 22.5856 60.1928 22.8088 60.1057 23.0776Z" fill="#323334"/>
<path d="M46.0095 50.6317C46.3894 50.6318 46.7608 50.5191 47.0766 50.3081C47.3925 50.0971 47.6387 49.7972 47.7841 49.4462C47.9295 49.0953 47.9675 48.7091 47.8934 48.3365C47.8194 47.964 47.6364 47.6217 47.3678 47.3531C47.0993 47.0845 46.757 46.9016 46.3845 46.8274C46.0119 46.7533 45.6257 46.7913 45.2748 46.9367C44.9238 47.0821 44.6239 47.3282 44.4128 47.6441C44.2018 47.9599 44.0891 48.3313 44.0891 48.7111C44.0897 49.2203 44.2922 49.7084 44.6523 50.0685C45.0123 50.4285 45.5004 50.6311 46.0095 50.6317ZM46.0095 48.4989C46.0516 48.4989 46.0926 48.5113 46.1276 48.5346C46.1626 48.558 46.1898 48.5911 46.2059 48.6299C46.222 48.6688 46.2262 48.7115 46.218 48.7527C46.2098 48.7939 46.1896 48.8318 46.1599 48.8615C46.1302 48.8912 46.0923 48.9114 46.0511 48.9196C46.0099 48.9278 45.9672 48.9236 45.9284 48.9075C45.8895 48.8914 45.8564 48.8641 45.833 48.8292C45.8097 48.7942 45.7973 48.7531 45.7973 48.7111C45.7976 48.6549 45.82 48.6011 45.8598 48.5614C45.8995 48.5216 45.9533 48.4992 46.0095 48.4989Z" fill="#323334"/>
<path d="M61.1205 15.7958C61.5004 15.7958 61.8717 15.6831 62.1876 15.4721C62.5034 15.2611 62.7496 14.9611 62.895 14.6102C63.0403 14.2592 63.0783 13.8731 63.0042 13.5005C62.9301 13.1279 62.7472 12.7857 62.4786 12.5171C62.21 12.2485 61.8678 12.0656 61.4952 11.9915C61.1227 11.9174 60.7365 11.9554 60.3856 12.1008C60.0346 12.2462 59.7347 12.4923 59.5236 12.8082C59.3126 13.124 59.2 13.4953 59.2 13.8752C59.2005 14.3844 59.403 14.8726 59.7631 15.2326C60.1232 15.5927 60.6113 15.7952 61.1205 15.7958ZM61.1205 13.663C61.1626 13.663 61.2036 13.6754 61.2386 13.6988C61.2735 13.7221 61.3007 13.7553 61.3168 13.7941C61.3329 13.8329 61.3371 13.8757 61.3288 13.9169C61.3206 13.9581 61.3004 13.9959 61.2707 14.0256C61.2409 14.0553 61.2031 14.0755 61.1619 14.0837C61.1207 14.0919 61.078 14.0876 61.0391 14.0715C61.0003 14.0554 60.9672 14.0282 60.9439 13.9932C60.9205 13.9583 60.9081 13.9172 60.9082 13.8752C60.9084 13.819 60.9309 13.7651 60.9707 13.7254C61.0105 13.6856 61.0643 13.6632 61.1205 13.663Z" fill="#323334"/>
<path d="M88.1909 14.3311C87.811 14.3311 87.4397 14.4437 87.1238 14.6547C86.808 14.8658 86.5618 15.1658 86.4164 15.5167C86.2711 15.8677 86.2331 16.2538 86.3072 16.6264C86.3813 16.999 86.5642 17.3412 86.8329 17.6098C87.1015 17.8784 87.4437 18.0613 87.8163 18.1354C88.1889 18.2095 88.575 18.1714 88.926 18.026C89.2769 17.8806 89.5769 17.6344 89.7879 17.3185C89.9989 17.0027 90.1115 16.6313 90.1115 16.2515C90.1109 15.7423 89.9084 15.2541 89.5483 14.8941C89.1882 14.5341 88.7001 14.3316 88.1909 14.3311ZM88.1909 16.4639C88.1489 16.4639 88.1078 16.4514 88.0729 16.4281C88.0379 16.4047 88.0107 16.3716 87.9946 16.3328C87.9786 16.2939 87.9744 16.2512 87.9826 16.21C87.9908 16.1688 88.011 16.131 88.0407 16.1013C88.0704 16.0716 88.1082 16.0514 88.1494 16.0432C88.1906 16.035 88.2333 16.0392 88.2721 16.0552C88.311 16.0713 88.3441 16.0985 88.3675 16.1335C88.3908 16.1684 88.4033 16.2095 88.4033 16.2515C88.403 16.3077 88.3806 16.3616 88.3408 16.4014C88.301 16.4412 88.2471 16.4636 88.1909 16.4639Z" fill="#323334"/>
<path d="M45.2235 39.8176C45.2235 39.4377 45.1109 39.0663 44.8998 38.7504C44.6887 38.4346 44.3887 38.1884 44.0377 38.0431C43.6867 37.8977 43.3004 37.8598 42.9278 37.934C42.5553 38.0081 42.213 38.1912 41.9445 38.4599C41.6759 38.7286 41.4931 39.0709 41.4191 39.4435C41.3451 39.8162 41.3833 40.2024 41.5288 40.5533C41.6744 40.9042 41.9207 41.2041 42.2367 41.415C42.5527 41.6259 42.9241 41.7384 43.304 41.7382C43.813 41.7374 44.301 41.5347 44.6608 41.1747C45.0206 40.8147 45.223 40.3266 45.2235 39.8176ZM43.304 40.0309C43.262 40.0309 43.221 40.0185 43.186 39.9952C43.1511 39.9719 43.1239 39.9388 43.1077 39.9001C43.0916 39.8613 43.0873 39.8186 43.0954 39.7775C43.1035 39.7363 43.1236 39.6984 43.1533 39.6687C43.1829 39.6389 43.2206 39.6186 43.2618 39.6103C43.3029 39.602 43.3456 39.606 43.3844 39.622C43.4233 39.6379 43.4565 39.665 43.48 39.6998C43.5034 39.7346 43.516 39.7756 43.5162 39.8176C43.516 39.874 43.4934 39.9279 43.4535 39.9677C43.4136 40.0075 43.3595 40.0299 43.3031 40.03L43.304 40.0309Z" fill="#323334"/>
<path d="M85.028 41.0234C84.6482 41.0234 84.2768 41.1361 83.961 41.3471C83.6452 41.5582 83.399 41.8581 83.2536 42.2091C83.1083 42.56 83.0702 42.9462 83.1443 43.3187C83.2184 43.6913 83.4014 44.0335 83.67 44.3021C83.9386 44.5707 84.2808 44.7536 84.6533 44.8277C85.0259 44.9018 85.4121 44.8638 85.763 44.7184C86.1139 44.5731 86.4139 44.3269 86.6249 44.0111C86.836 43.6952 86.9486 43.3239 86.9486 42.944C86.9481 42.4348 86.7455 41.9467 86.3855 41.5866C86.0254 41.2265 85.5372 41.024 85.028 41.0234ZM85.028 43.1563C84.9861 43.1562 84.945 43.1437 84.9102 43.1204C84.8753 43.0971 84.8481 43.0639 84.8321 43.0251C84.8161 42.9863 84.8119 42.9437 84.8201 42.9025C84.8283 42.8614 84.8485 42.8236 84.8782 42.7939C84.9079 42.7643 84.9457 42.7441 84.9869 42.7359C85.028 42.7277 85.0707 42.7319 85.1095 42.748C85.1482 42.7641 85.1814 42.7913 85.2047 42.8262C85.228 42.861 85.2404 42.9021 85.2404 42.944C85.2401 43.0003 85.2177 43.0541 85.1779 43.0938C85.1381 43.1336 85.0842 43.156 85.028 43.1563Z" fill="#323334"/>
</svg>
