<svg width="107" height="112" viewBox="0 0 107 112" fill="none" xmlns="http://www.w3.org/2000/svg">
<mask id="mask0" mask-type="alpha" maskUnits="userSpaceOnUse" x="0" y="23" width="107" height="89">
<path d="M0 23H107V112H85.3492H63.6984H0V23Z" fill="#C4C4C4"/>
</mask>
<g mask="url(#mask0)">
<path d="M51.5 109V112H39.5V109H51.5Z" fill="#323334"/>
<path d="M3.2967 79.1208L9.89011 74.1758L14.8352 79.1208L21.978 76.923L29.1209 87.3626L34.6154 86.8131L39.5604 77.4725L44.5055 80.2197L37.3626 98.9011H15.9341L14.8352 95.0549L2.74725 92.3076L3.2967 79.1208Z" fill="#F9701F"/>
<path d="M45.0549 100L51.6483 81.3188L60.4395 82.4177L68.1319 87.3628L62.0879 97.2529L51.6483 100L50.5 109H44.5L45.0549 100Z" fill="#F9701F"/>
<path d="M24.0859 50.1079C25.0361 50.1079 25.8063 49.3376 25.8063 48.3874C25.8063 47.4373 25.0361 46.667 24.0859 46.667C23.1357 46.667 22.3655 47.4373 22.3655 48.3874C22.3655 49.3376 23.1357 50.1079 24.0859 50.1079Z" fill="#323334"/>
<path d="M34.4088 50.1079C35.3589 50.1079 36.1292 49.3376 36.1292 48.3874C36.1292 47.4373 35.3589 46.667 34.4088 46.667C33.4586 46.667 32.6883 47.4373 32.6883 48.3874C32.6883 49.3376 33.4586 50.1079 34.4088 50.1079Z" fill="#323334"/>
<path d="M25.6259 52.7791L22.5481 54.3188L22.7287 54.6819C23.9709 57.1662 26.469 58.7094 29.2475 58.7094C32.0259 58.7094 34.524 57.1662 35.7662 54.6801L35.9468 54.3171L32.869 52.7773L32.6883 53.1421C32.0328 54.453 30.715 55.2685 29.2475 55.2685C27.7799 55.2685 26.4621 54.453 25.8066 53.1421L25.6259 52.7791Z" fill="#323334"/>
<path d="M77.4192 46.6666C80.2648 46.6666 82.5805 44.3509 82.5805 41.5053V26.2967C83.7504 26.6838 84.7482 27.4322 85.8493 28.258C87.6764 29.6292 89.7495 31.1827 92.9031 31.1827V27.7419C90.8953 27.7419 89.5138 26.7044 87.9138 25.5053C86.0867 24.1341 84.0136 22.5806 80.8601 22.5806H79.1396V36.6606C78.5994 36.4679 78.0248 36.344 77.4192 36.344C74.5736 36.344 72.2579 38.6597 72.2579 41.5053C72.2579 44.3509 74.5736 46.6666 77.4192 46.6666ZM77.4192 39.7849C78.3672 39.7849 79.1396 40.5556 79.1396 41.5053C79.1396 42.455 78.3672 43.2257 77.4192 43.2257C76.4712 43.2257 75.6988 42.455 75.6988 41.5053C75.6988 40.5556 76.4712 39.7849 77.4192 39.7849Z" fill="#323334"/>
<path d="M104.946 41.5048C100.709 41.5048 96.4663 40.5035 92.678 38.6076L89.4625 37.0024V52.1439C88.9223 51.9513 88.3476 51.8274 87.742 51.8274C84.8964 51.8274 82.5807 54.1431 82.5807 56.9887C82.5807 59.8343 84.8964 62.15 87.742 62.15C90.5876 62.15 92.9033 59.8343 92.9033 56.9887V42.4992C96.1704 43.8807 99.6818 44.6962 103.226 44.8975V55.5865C102.686 55.3921 102.111 55.2683 101.505 55.2683C98.6599 55.2683 96.3442 57.584 96.3442 60.4295C96.3442 63.2751 98.6599 65.5908 101.505 65.5908C104.351 65.5908 106.667 63.2751 106.667 60.4295V41.5048H104.946ZM87.742 58.7091C86.7941 58.7091 86.0216 57.9384 86.0216 56.9887C86.0216 56.039 86.7941 55.2683 87.742 55.2683C88.69 55.2683 89.4625 56.039 89.4625 56.9887C89.4625 57.9384 88.69 58.7091 87.742 58.7091ZM101.505 62.15C100.558 62.15 99.7851 61.3792 99.7851 60.4295C99.7851 59.4799 100.558 58.7091 101.505 58.7091C102.453 58.7091 103.226 59.4799 103.226 60.4295C103.226 61.3792 102.453 62.15 101.505 62.15Z" fill="#323334"/>
<path d="M98.0646 74.1935C96.9239 74.1935 95.8796 74.5771 95.0246 75.2051L84.3011 71.1053V70.7526C84.3011 66.9832 82.4998 63.3806 79.4839 61.1182C77.4142 59.5647 74.8473 58.7096 72.2581 58.7096H68.6762C67.2964 58.7096 66.0559 57.944 65.4383 56.7088C65.0426 55.9174 64.554 55.1776 64.0275 54.4688L68.4456 43.4219C68.9566 42.1436 68.9394 40.7397 68.3974 39.4735C67.8538 38.2038 66.8491 37.2232 65.5777 36.7173C64.9652 36.4696 64.3166 36.344 63.6508 36.344C61.5295 36.344 59.6491 37.6189 58.8611 39.5922L55.1983 48.7483C54.1402 48.5161 53.0632 48.387 51.9742 48.387C51.2706 48.387 50.5772 48.4524 49.8925 48.547V43.2257C49.8925 31.8416 40.6314 22.5806 29.2473 22.5806C17.8632 22.5806 8.60215 31.8416 8.60215 43.2257V72.4731C8.60215 72.609 8.63656 72.7346 8.64172 72.8688L6.64602 73.6068C4.90151 74.1866 3.48903 75.4133 2.66667 77.058L1.52946 79.3307C0.529893 81.3316 0 83.5716 0 85.8098C0 88.6812 0.841291 91.4597 2.43441 93.8494L3.44086 95.3599V98.2795C3.44086 105.206 8.59011 110.938 15.2568 111.888C15.3927 113.104 15.4839 114.312 15.4839 115.484C15.4839 120.172 12.2581 126.694 12.2237 126.758L10.9815 129.247H56.117L54.8714 126.758C54.8387 126.692 51.6129 120.184 51.6129 115.484C51.6129 112.449 52.0602 109.292 52.9411 106.104C53.483 104.141 53.8908 102.09 54.2245 99.9999H57.3643C58.1781 99.9999 58.9626 99.8485 59.7248 99.6318L68.7501 106.402C70.6426 107.821 72.9858 108.602 75.3497 108.602C79.3772 108.602 83.0779 106.405 85.0065 102.87L92.0929 89.8941L94.1213 90.6701C95.3858 91.1518 96.7123 91.3978 98.0646 91.3978C102.808 91.3978 106.667 87.5389 106.667 82.7956C106.667 78.0524 102.808 74.1935 98.0646 74.1935ZM68.6762 62.1505H72.2581C74.1076 62.1505 75.9415 62.7612 77.4194 63.8709C79.3101 65.2885 80.5299 67.4425 80.8018 69.7685L60.9445 62.1763L62.4534 58.4051C63.6835 60.7156 66.0473 62.1505 68.6762 62.1505ZM79.9931 85.2954L75.1777 92.5195L70.4155 89.6619C70.4792 89.6636 70.5428 89.6756 70.6065 89.6756C73.7772 89.6756 76.8757 88.4163 79.1398 86.1488L79.9931 85.2954ZM69.4073 86.1488C67.5768 85.889 65.8495 85.0236 64.5402 83.7161L62.0078 81.1836C60.1067 79.2825 57.3368 78.627 54.782 79.4786C54.5067 79.5716 54.2211 79.618 53.9389 79.6885L55.4598 75.8864L76.4749 83.9208C74.5841 85.6791 71.9708 86.5135 69.4073 86.1488ZM56.7381 72.6933L57.6052 70.5255L62.5187 72.4042L61.6516 74.5703L56.7381 72.6933ZM63.7953 69.2111L58.8817 67.3324L59.6663 65.3694L64.5798 67.2481L63.7953 69.2111ZM62.0559 40.8687C62.4017 40.0034 63.4168 39.5595 64.2959 39.9105C64.7209 40.0808 65.0529 40.4059 65.2336 40.8275C65.4177 41.2558 65.4228 41.7135 65.2508 42.1453L42.5222 98.9711C41.6241 98.541 40.6314 98.2795 39.5699 98.2795H39.0916L62.0559 40.8687ZM42.9007 76.6726C41.0306 74.8025 39.8847 72.4042 39.5854 69.815L45.8185 72.1978L43.7368 77.4038C43.4495 77.1681 43.1622 76.9359 42.9007 76.6726ZM36.2237 79.3548H26.3123L24.7209 76.5694C25.3918 75.3462 25.8065 73.963 25.8065 72.4731C25.8065 71.2963 25.3953 70.2227 24.7295 69.3539C25.0581 68.2993 25.4176 66.849 25.6275 65.0924C26.7837 65.4072 27.9931 65.5913 29.2473 65.5913C30.5015 65.5913 31.7213 65.4072 32.9032 65.0804C33.3506 66.701 34.5239 68.0189 36.0671 68.6382C36.0964 71.1002 36.7054 73.4675 37.8426 75.5802L36.2237 79.3548ZM34.7493 82.7956L33.9097 84.7569C33.5226 85.655 32.6417 86.2365 31.6628 86.2365C30.7888 86.2365 29.9751 85.7651 29.5415 85.0047L28.2804 82.7956H34.7493ZM47.9587 60.8928L50.025 61.6825L49.2404 63.6455L47.2774 62.8937C47.5716 62.252 47.8125 61.5879 47.9587 60.8928ZM47.0951 69.0047L43.1949 67.5148C43.7643 67.1483 44.3045 66.732 44.7949 66.2417L45.2387 65.7978L47.9622 66.8404L47.0951 69.0047ZM42.9471 63.2206L42.3587 63.8107C41.2112 64.9599 39.6835 65.5913 38.0576 65.5913C36.9944 65.5913 36.129 64.726 36.129 63.6627C36.129 63.1552 36.3355 62.658 36.6933 62.2984L41.4383 57.5535C41.803 57.1888 42.2865 56.9892 42.8026 56.9892C43.8658 56.9892 44.7312 57.8546 44.7312 58.9178C44.7312 60.5419 44.0981 62.0696 42.9471 63.2206ZM39.5699 51.8279C39.5699 52.9582 39.3669 54.0593 39.0108 55.1156C39.009 55.1174 39.0073 55.1191 39.0056 55.1208L34.2607 59.8657C33.8357 60.2907 33.5071 60.7931 33.249 61.3281C31.9845 61.8632 30.6443 62.1505 29.2473 62.1505C23.5544 62.1505 18.9247 57.5208 18.9247 51.8279V45.987C18.9247 43.0451 20.2237 40.2924 22.4447 38.4292C25.1338 40.0722 32.5523 44.2425 39.5699 44.8653V51.8279ZM53.8994 51.9931L51.3015 58.4877L47.8538 57.1698C47.3824 55.8124 46.3914 54.7062 45.1063 54.0903C47.0882 52.6296 49.4675 51.8279 51.9742 51.8279C52.6228 51.8279 53.2663 51.8864 53.8994 51.9931ZM12.043 43.2257C12.043 33.7393 19.7609 26.0214 29.2473 26.0214C38.7338 26.0214 46.4516 33.7393 46.4516 43.2257V49.4399C45.2284 49.9216 44.0774 50.572 43.0108 51.3668V41.5053H41.2903C33.3196 41.5053 23.4185 34.978 23.3187 34.9126L22.3656 34.2778L21.4125 34.9126C17.6998 37.3849 15.4839 41.5277 15.4839 45.987V51.8279C15.4839 56.8842 18.2331 61.3023 22.3088 63.6937C22.2022 65.1578 21.963 66.424 21.705 67.4219C21.3626 67.3513 21.0082 67.3118 20.6452 67.3118C17.7996 67.3118 15.4839 69.6275 15.4839 72.4731V74.1935H18.9247V72.4731C18.9247 71.5234 19.6972 70.7526 20.6452 70.7526C21.5931 70.7526 22.3656 71.5234 22.3656 72.4731C22.3656 75.3186 20.0499 77.6343 17.2043 77.6343C14.3587 77.6343 12.043 75.3186 12.043 72.4731V43.2257ZM4.60731 80.8688L5.74452 78.5961C6.1557 77.772 6.86108 77.1612 7.78495 76.8533L9.4985 76.2202C10.8972 79.083 13.8099 81.0752 17.2043 81.0752C19.1346 81.0752 20.9015 80.4128 22.3381 79.3341L26.5548 86.7113C27.5991 88.5402 29.5553 89.6774 31.6628 89.6774C34.0198 89.6774 36.1428 88.2786 37.0701 86.1109L40.1979 78.8111C40.289 78.9075 40.3699 79.0107 40.4645 79.1053C41.0615 79.7023 41.7222 80.2288 42.4103 80.7174L35.3858 98.2795H17.2043V96.2528C19.3015 95.6163 21.0133 94.0111 21.7325 91.852C22.1523 90.5944 22.3656 89.2834 22.3656 87.9569V86.2365H18.9247V87.9569C18.9247 88.9135 18.7716 89.8563 18.4688 90.7647C18.0301 92.0808 16.8465 92.9599 15.4839 93.0735V89.6774H12.043V93.1182H8.60215V86.2365H5.16129V91.7006C4.04473 89.932 3.44086 87.9053 3.44086 85.8098C3.44086 84.1032 3.84344 82.3948 4.60731 80.8688ZM6.88172 98.2795V96.5591H13.7634V98.2795C13.7634 100.177 15.3067 101.72 17.2043 101.72H39.5699C41.4675 101.72 43.0108 103.264 43.0108 105.161C43.0108 107.059 41.4675 108.602 39.5699 108.602H17.2043C11.5114 108.602 6.88172 103.972 6.88172 98.2795ZM54.677 96.5591C54.9075 94.3156 55.0538 92.0292 55.0538 89.6774H51.6129C51.6129 95.1965 50.9437 100.415 49.6258 105.187C48.6607 108.674 48.1721 112.139 48.1721 115.484C48.1721 119.033 49.6155 123.207 50.6822 125.806H16.4146C17.4813 123.207 18.9247 119.033 18.9247 115.484C18.9247 114.359 18.8473 113.204 18.7355 112.043H39.5699C43.3652 112.043 46.4516 108.957 46.4516 105.161C46.4516 103.735 46.0146 102.41 45.2697 101.309L45.5604 100.638L52.4525 83.4098C53.6138 83.3066 54.763 83.1122 55.8727 82.744C57.182 82.3036 58.6013 82.6425 59.5768 83.618L62.1093 86.1505C63.059 87.1002 64.1721 87.8744 65.3764 88.4593V88.5488C65.3764 89.9286 64.8396 91.2258 63.8658 92.1995L61.0151 95.0486C60.0534 96.0086 58.7235 96.5591 57.3643 96.5591H54.677ZM81.9871 101.221C80.6624 103.651 78.1196 105.161 75.3514 105.161C73.7273 105.161 72.117 104.623 70.8164 103.649L63.0383 97.815C63.1708 97.698 63.3204 97.6051 63.446 97.4795L66.2968 94.6305C67.0073 93.92 67.551 93.0924 67.9691 92.2081L76.2185 97.1578L83.3015 86.5324L88.8482 88.6537L81.9871 101.221ZM98.0646 87.9569C97.1338 87.9569 96.222 87.7883 95.3514 87.4563L64.8654 75.8004L67.7953 68.4765L93.0633 78.1367C92.9686 78.5307 92.9033 78.9333 92.9033 79.3548C92.9033 82.2004 95.219 84.5161 98.0646 84.5161H99.785V81.0752H98.0646C97.1166 81.0752 96.3441 80.3045 96.3441 79.3548C96.3441 78.4051 97.1166 77.6343 98.0646 77.6343C100.91 77.6343 103.226 79.9501 103.226 82.7956C103.226 85.6412 100.91 87.9569 98.0646 87.9569Z" fill="#323334"/>
</g>
<path d="M9.40207 14.1807C9.5412 14.2811 9.70422 14.3323 9.86838 14.3323C10.0101 14.3323 10.1506 14.2941 10.2767 14.2194L14.0065 11.9934L17.7363 14.2181C18.0085 14.3814 18.3532 14.3671 18.6117 14.1801C18.8707 13.9932 18.9919 13.671 18.9212 13.3594L17.9573 9.12131L21.2264 6.26036C21.4667 6.05098 21.5579 5.71882 21.4592 5.41599C21.3606 5.11315 21.0922 4.89806 20.7737 4.86942L16.449 4.47747L14.7388 0.482321C14.6128 0.189528 14.3256 0 14.0065 0C13.6875 0 13.4003 0.189528 13.2742 0.483006L11.5641 4.47747L7.23869 4.86942C6.92088 4.89875 6.65246 5.11315 6.5538 5.41599C6.45514 5.71939 6.54694 6.05098 6.78724 6.26036L10.0563 9.12188L9.09238 13.3601C9.02184 13.671 9.14291 13.9932 9.40207 14.1807Z" fill="#F9701F"/>
<path d="M29.2091 14.1807C29.3452 14.2811 29.5047 14.3323 29.6653 14.3323C29.8039 14.3323 29.9414 14.2941 30.0647 14.2194L33.7134 11.9934L37.3621 14.2181C37.6284 14.3814 37.9656 14.3671 38.2185 14.1801C38.4719 13.9932 38.5904 13.671 38.5213 13.3594L37.5783 9.12131L40.7763 6.26036C41.0114 6.05098 41.1006 5.71882 41.0041 5.41599C40.9076 5.11315 40.645 4.89806 40.3335 4.86942L36.1028 4.47747L34.4298 0.482321C34.3065 0.189528 34.0256 0 33.7134 0C33.4013 0 33.1204 0.189528 32.997 0.483006L31.3241 4.47747L27.0927 4.86942C26.7818 4.89875 26.5192 5.11315 26.4227 5.41599C26.3262 5.71939 26.416 6.05098 26.6511 6.26036L29.8491 9.12188L28.9061 13.3601C28.8371 13.671 28.9556 13.9932 29.2091 14.1807Z" fill="#F9701F"/>
<path d="M48.8157 14.1807C48.9548 14.2811 49.1179 14.3323 49.282 14.3323C49.4238 14.3323 49.5643 14.2941 49.6904 14.2194L53.4202 11.9934L57.1499 14.2181C57.4221 14.3814 57.7668 14.3671 58.0253 14.1801C58.2843 13.9932 58.4055 13.671 58.3349 13.3594L57.3709 9.12131L60.64 6.26036C60.8803 6.05098 60.9715 5.71882 60.8729 5.41599C60.7742 5.11315 60.5058 4.89806 60.1873 4.86942L55.8626 4.47747L54.1525 0.482321C54.0264 0.189528 53.7392 0 53.4202 0C53.1011 0 52.8139 0.189528 52.6878 0.483006L50.9777 4.47747L46.6523 4.86942C46.3345 4.89875 46.0661 5.11315 45.9674 5.41599C45.8688 5.71939 45.9606 6.05098 46.2009 6.26036L49.47 9.12188L48.506 13.3601C48.4355 13.671 48.5565 13.9932 48.8157 14.1807Z" fill="#F9701F"/>
<path d="M68.6855 14.1807C68.8246 14.2811 68.9877 14.3323 69.1518 14.3323C69.2936 14.3323 69.4341 14.2941 69.5602 14.2194L73.29 11.9934L77.0198 14.2181C77.2919 14.3814 77.6366 14.3671 77.8951 14.1801C78.1541 13.9932 78.2753 13.671 78.2047 13.3594L77.2407 9.12131L80.5098 6.26036C80.7501 6.05098 80.8413 5.71882 80.7427 5.41599C80.644 5.11315 80.3756 4.89806 80.0571 4.86942L75.7324 4.47747L74.0223 0.482321C73.8962 0.189528 73.609 0 73.29 0C72.9709 0 72.6837 0.189528 72.5576 0.483006L70.8475 4.47747L66.5221 4.86942C66.2043 4.89875 65.9359 5.11315 65.8372 5.41599C65.7386 5.71939 65.8304 6.05098 66.0707 6.26036L69.3398 9.12188L68.3758 13.3601C68.3053 13.671 68.4264 13.9932 68.6855 14.1807Z" fill="#F9701F"/>
<path d="M88.2294 14.1807C88.3685 14.2811 88.5315 14.3323 88.6957 14.3323C88.8374 14.3323 88.9779 14.2941 89.104 14.2194L92.8338 11.9934L96.5636 14.2181C96.8358 14.3814 97.1805 14.3671 97.439 14.1801C97.698 13.9932 97.8192 13.671 97.7485 13.3594L96.7846 9.12131L100.054 6.26036C100.294 6.05098 100.385 5.71882 100.287 5.41599C100.188 5.11315 99.9195 4.89806 99.601 4.86942L95.2763 4.47747L93.5661 0.482321C93.4401 0.189528 93.1529 0 92.8338 0C92.5148 0 92.2276 0.189528 92.1015 0.483006L90.3914 4.47747L86.066 4.86942C85.7482 4.89875 85.4798 5.11315 85.3811 5.41599C85.2824 5.71939 85.3742 6.05098 85.6145 6.26036L88.8836 9.12188L87.9197 13.3601C87.8491 13.671 87.9702 13.9932 88.2294 14.1807Z" fill="#F9701F"/>
</svg>
