<svg width="401" height="345" viewBox="0 0 401 345" fill="none" xmlns="http://www.w3.org/2000/svg">
<path d="M400.542 292.8H0V293H400.542V292.8Z" fill="#EBEBEB"/>
<path d="M71.697 298.255H42.0248V298.456H71.697V298.255Z" fill="#EBEBEB"/>
<path d="M192.26 302.589H135.383V302.79H192.26V302.589Z" fill="#EBEBEB"/>
<path d="M116.694 298.352H76.0388V298.552H116.694V298.352Z" fill="#EBEBEB"/>
<path d="M364.853 304.344H325.865V304.544H364.853V304.344Z" fill="#EBEBEB"/>
<path d="M322.3 304.344H296.689V304.544H322.3V304.344Z" fill="#EBEBEB"/>
<path d="M271.743 300.963H222.068V301.163H271.743V300.963Z" fill="#EBEBEB"/>
<path d="M189.857 257.072H35.1756C33.9638 257.07 32.8024 256.587 31.9463 255.729C31.0902 254.872 30.6094 253.709 30.6094 252.498V35.0595C30.6199 33.8547 31.1054 32.7027 31.9604 31.8538C32.8153 31.0048 33.9707 30.5275 35.1756 30.5254H189.857C191.07 30.5254 192.233 31.0073 193.091 31.8651C193.949 32.723 194.431 33.8864 194.431 35.0996V252.498C194.431 253.711 193.949 254.874 193.091 255.732C192.233 256.59 191.07 257.072 189.857 257.072V257.072ZM35.1756 30.6856C34.0169 30.6877 32.9065 31.1495 32.0879 31.9695C31.2694 32.7896 30.8097 33.9009 30.8097 35.0595V252.498C30.8097 253.656 31.2694 254.768 32.0879 255.588C32.9065 256.408 34.0169 256.869 35.1756 256.871H189.857C191.016 256.869 192.127 256.408 192.947 255.588C193.767 254.768 194.229 253.657 194.231 252.498V35.0595C194.229 33.9001 193.767 32.7888 192.947 31.969C192.127 31.1492 191.016 30.6877 189.857 30.6856H35.1756Z" fill="#EBEBEB"/>
<path d="M363.139 257.072H208.45C207.237 257.07 206.075 256.587 205.218 255.73C204.36 254.872 203.878 253.71 203.876 252.498V35.0595C203.888 33.854 204.376 32.702 205.232 31.8533C206.088 31.0045 207.244 30.5274 208.45 30.5254H363.139C364.343 30.5296 365.496 31.0078 366.349 31.8566C367.202 32.7053 367.687 33.8561 367.697 35.0595V252.498C367.697 253.708 367.217 254.869 366.363 255.726C365.509 256.584 364.349 257.067 363.139 257.072V257.072ZM208.45 30.6856C207.29 30.6877 206.179 31.1492 205.359 31.969C204.54 32.7888 204.078 33.9001 204.076 35.0595V252.498C204.078 253.657 204.54 254.768 205.359 255.588C206.179 256.408 207.29 256.869 208.45 256.871H363.139C364.298 256.869 365.41 256.408 366.23 255.588C367.049 254.768 367.511 253.657 367.513 252.498V35.0595C367.511 33.9001 367.049 32.7888 366.23 31.969C365.41 31.1492 364.298 30.6877 363.139 30.6856H208.45Z" fill="#EBEBEB"/>
<path d="M348.631 20.9124H51.9182C48.4894 20.9124 45.7098 23.6919 45.7098 27.1207V239.752C45.7098 243.181 48.4894 245.961 51.9182 245.961H348.631C352.06 245.961 354.84 243.181 354.84 239.752V27.1207C354.84 23.6919 352.06 20.9124 348.631 20.9124Z" fill="#F5F5F5"/>
<path d="M325.296 42.9343H75.2538C72.7496 42.9343 70.7196 44.9643 70.7196 47.4685V181.562C70.7196 184.066 72.7496 186.096 75.2538 186.096H325.296C327.8 186.096 329.83 184.066 329.83 181.562V47.4685C329.83 44.9643 327.8 42.9343 325.296 42.9343Z" fill="#E0E0E0"/>
<path d="M229.11 270.891C228.105 270.887 227.103 270.774 226.122 270.554C222.854 269.766 219.868 268.088 217.494 265.708C209.724 258.193 208.186 247.972 207.713 238.959C206.343 212.972 209.011 186.665 211.846 161.102C209.315 170.659 207.288 180.392 205.326 189.853C204.172 195.396 202.978 201.132 201.705 206.748C199.454 216.633 197.299 224.588 194.912 231.766C194.503 233.015 194.07 234.489 193.614 236.043C190.698 245.969 186.324 260.877 173.843 260.877H173.154C167.859 260.653 163.541 258.049 160.874 255.902C150.459 247.587 144.708 235.242 144.179 220.198C143.562 202.574 144.115 184.678 144.772 167.246C141.245 185.381 135.715 203.067 128.285 219.982C122.622 232.927 114.996 239.424 104.958 239.849C95.6574 240.233 87.6065 235.346 83.9615 227.087C80.7572 219.733 80.645 210.825 80.581 202.975V201.373C80.5329 196.846 80.6611 192.24 80.7812 187.754C80.9174 182.795 81.0616 177.668 80.9655 172.63C80.9644 172.577 80.9737 172.525 80.9929 172.476C81.012 172.427 81.0407 172.382 81.0771 172.344C81.1136 172.306 81.1571 172.276 81.2053 172.255C81.2535 172.234 81.3054 172.222 81.358 172.221C81.4115 172.217 81.4653 172.223 81.5159 172.241C81.5665 172.259 81.6126 172.288 81.6513 172.325C81.69 172.362 81.7203 172.407 81.7402 172.457C81.7601 172.507 81.769 172.56 81.7666 172.614C81.8627 177.668 81.7185 182.811 81.5823 187.778C81.4622 192.224 81.334 196.822 81.382 201.332V202.935C81.4461 210.713 81.5182 219.533 84.6985 226.727C88.1993 234.682 95.9137 239.392 104.926 239.015C114.619 238.607 122.021 232.27 127.548 219.621C135.731 201.031 141.591 181.503 144.996 161.479C145.012 161.378 145.065 161.287 145.146 161.225C145.226 161.162 145.327 161.133 145.429 161.142C145.531 161.152 145.625 161.201 145.692 161.279C145.759 161.356 145.794 161.456 145.789 161.559C145.052 180.785 144.291 200.636 144.988 220.166C145.501 234.962 151.172 247.106 161.378 255.269C163.966 257.336 168.123 259.852 173.202 260.076C185.571 260.605 189.953 245.656 192.853 235.819C193.309 234.265 193.742 232.791 194.167 231.517C196.57 224.364 198.685 216.441 200.928 206.58C202.201 200.972 203.395 195.236 204.549 189.701C206.856 178.606 209.235 167.142 212.423 156.007C212.453 155.912 212.517 155.83 212.602 155.779C212.688 155.727 212.79 155.709 212.888 155.727C212.986 155.745 213.074 155.799 213.134 155.88C213.193 155.96 213.22 156.06 213.208 156.159C210.188 183.268 207.064 211.298 208.522 238.927C208.987 247.779 210.485 257.817 218.063 265.147C220.326 267.424 223.177 269.027 226.298 269.777C232.226 271.083 236.824 268.455 240.774 261.51C253.863 238.519 259.952 212.964 258.397 187.602C258.333 186.641 258.269 185.687 258.197 184.726C257.797 179.199 257.396 173.511 258.998 168.023C259.027 167.94 259.08 167.867 259.152 167.815C259.224 167.763 259.31 167.735 259.399 167.735C260.016 167.735 260.416 167.983 264.518 198.457C264.87 201.076 265.127 202.983 265.223 203.616C265.591 205.979 265.863 208.422 266.152 211.026C267.145 219.918 268.171 229.106 272.937 236.236C276.326 241.299 283.503 245.889 291.234 243.998C298.259 242.284 301.888 235.883 304.259 230.492C310.364 216.673 313.872 201.997 317.285 187.802C318.823 181.394 320.746 173.383 317.806 166.421C317.769 166.323 317.772 166.215 317.814 166.119C317.855 166.023 317.933 165.948 318.03 165.909C318.078 165.887 318.131 165.876 318.183 165.875C318.236 165.874 318.289 165.883 318.338 165.903C318.387 165.922 318.432 165.951 318.47 165.988C318.508 166.024 318.538 166.068 318.559 166.117C321.603 173.327 319.648 181.442 318.078 187.994C314.666 202.222 311.141 216.938 305.012 230.828C302.753 235.947 298.884 242.973 291.442 244.783C283.335 246.77 275.829 241.979 272.288 236.692C267.41 229.402 266.376 220.11 265.375 211.122C265.086 208.534 264.814 206.091 264.454 203.744C264.357 203.111 264.093 201.196 263.741 198.569C262.707 190.886 260.448 174.088 259.447 169.521C258.277 174.472 258.646 179.655 259.014 184.678C259.078 185.639 259.15 186.601 259.215 187.562C260.817 213.076 254.656 238.783 241.495 261.91C239.187 265.9 235.518 270.891 229.11 270.891Z" fill="#E0E0E0"/>
<path d="M62.5646 214.238H23.3996V292.8H62.5646V214.238Z" fill="#F0F0F0"/>
<path d="M62.5646 292.8H72.6663L72.6663 214.238H62.5646L62.5646 292.8Z" fill="#E0E0E0"/>
<path d="M52.9215 248.044C58.415 242.55 58.415 233.643 52.9215 228.15C47.4279 222.656 38.5212 222.656 33.0277 228.15C27.5342 233.643 27.5342 242.55 33.0277 248.044C38.5212 253.537 47.428 253.537 52.9215 248.044Z" fill="white"/>
<path d="M42.9781 244.503C46.5175 244.503 49.3868 241.634 49.3868 238.094C49.3868 234.555 46.5175 231.686 42.9781 231.686C39.4387 231.686 36.5695 234.555 36.5695 238.094C36.5695 241.634 39.4387 244.503 42.9781 244.503Z" fill="#E0E0E0"/>
<path d="M42.9781 280.463C48.681 280.463 53.3041 275.84 53.3041 270.137C53.3041 264.435 48.681 259.812 42.9781 259.812C37.2752 259.812 32.6521 264.435 32.6521 270.137C32.6521 275.84 37.2752 280.463 42.9781 280.463Z" fill="white"/>
<path d="M48.065 333.335L329.646 20.5118L331.648 18.9097L341.261 28.9232L230.311 333.335H48.065Z" fill="#F9EBE3"/>
<path d="M42.9781 274.84C45.5752 274.84 47.6805 272.734 47.6805 270.137C47.6805 267.54 45.5752 265.435 42.9781 265.435C40.3811 265.435 38.2758 267.54 38.2758 270.137C38.2758 272.734 40.3811 274.84 42.9781 274.84Z" fill="#E0E0E0"/>
<path d="M337.977 292.8H377.142V214.238H337.977V292.8Z" fill="#F0F0F0"/>
<path d="M337.977 214.238H327.875V292.8H337.977V214.238Z" fill="#E0E0E0"/>
<path d="M367.508 248.043C373.001 242.549 373.001 233.642 367.508 228.149C362.014 222.655 353.107 222.655 347.614 228.149C342.12 233.642 342.12 242.549 347.614 248.043C353.107 253.536 362.014 253.536 367.508 248.043Z" fill="white"/>
<path d="M357.564 244.503C361.103 244.503 363.972 241.634 363.972 238.094C363.972 234.555 361.103 231.686 357.564 231.686C354.024 231.686 351.155 234.555 351.155 238.094C351.155 241.634 354.024 244.503 357.564 244.503Z" fill="#E0E0E0"/>
<path d="M357.564 280.463C363.266 280.463 367.889 275.84 367.889 270.137C367.889 264.435 363.266 259.812 357.564 259.812C351.861 259.812 347.238 264.435 347.238 270.137C347.238 275.84 351.861 280.463 357.564 280.463Z" fill="white"/>
<path d="M357.564 274.84C360.161 274.84 362.266 272.734 362.266 270.137C362.266 267.54 360.161 265.435 357.564 265.435C354.966 265.435 352.861 267.54 352.861 270.137C352.861 272.734 354.966 274.84 357.564 274.84Z" fill="#E0E0E0"/>
<path d="M108.471 17.7728L95.4427 4.74438L84.1137 16.0734L97.1421 29.1018L108.471 17.7728Z" fill="#E6E6E6"/>
<path d="M59.5846 14.1912C56.4523 17.3155 52.2226 18.1967 50.1398 16.0738C48.057 13.9509 48.8661 9.76125 52.0704 6.63702C55.2747 3.5128 59.4244 2.63161 61.5072 4.74647C63.59 6.86133 62.7088 11.059 59.5846 14.1912Z" fill="#E6E6E6"/>
<path d="M104.27 16.7389L107.25 12.8696L113.659 21.3611L109.277 22.9232L104.27 16.7389Z" fill="#E6E6E6"/>
<path d="M95.49 25.5188L92.0373 28.9715L101.282 34.2346L102.267 29.6844L95.49 25.5188Z" fill="#E6E6E6"/>
<path d="M107.899 23.2917L112.153 25.695L104.654 33.2412L102.484 29.1156L107.899 23.2917Z" fill="#E6E6E6"/>
<path d="M355.28 333.335L110.149 20.5118L108.146 18.9097L98.5332 28.9232L209.483 333.335H355.28Z" fill="#F9701F"/>
<path d="M106.016 26.6482C103.357 29.3077 99.7678 30.0287 98.0054 28.2503C96.243 26.4719 96.948 22.8831 99.6076 20.2395C102.267 17.5959 105.856 16.8589 107.618 18.6373C109.381 20.4157 108.676 23.9886 106.016 26.6482Z" fill="white"/>
<path d="M180.965 13.3656C182.61 10.9154 180.965 6.93024 177.292 4.46455C173.618 1.99887 169.307 1.98632 167.662 4.43654C166.018 6.88675 167.662 10.8719 171.336 13.3376C175.009 15.8033 179.321 15.8158 180.965 13.3656Z" fill="#E6E6E6"/>
<path d="M341.313 30.1097L353.352 16.1619L341.224 5.69327L329.185 19.6411L341.313 30.1097Z" fill="#E6E6E6"/>
<path d="M343.425 19.7431C346.306 19.1034 347.864 15.0835 346.904 10.7645C345.945 6.44541 342.833 3.46272 339.952 4.10243C337.071 4.74215 335.513 8.76203 336.472 13.0811C337.431 17.4001 340.544 20.3828 343.425 19.7431Z" fill="#E6E6E6"/>
<path d="M333.284 18.2862L330.034 14.6337L324.256 23.5725L328.746 24.8129L333.284 18.2862Z" fill="#E6E6E6"/>
<path d="M342.683 26.3986L346.378 29.5894L337.543 35.5108L336.227 31.0477L342.683 26.3986Z" fill="#E6E6E6"/>
<path d="M330.144 25.0803L326.078 27.7891L334.109 34.7625L335.971 30.4892L330.144 25.0803Z" fill="#E6E6E6"/>
<path d="M332.258 28.2804C335.092 30.7443 338.742 31.1921 340.376 29.2957C342.01 27.3993 341.038 23.8681 338.186 21.4074C335.334 18.9466 331.702 18.4957 330.068 20.3921C328.434 22.2885 329.42 25.839 332.258 28.2804Z" fill="white"/>
<path d="M200.271 345C286.053 345 355.593 340.94 355.593 335.932C355.593 330.924 286.053 326.864 200.271 326.864C114.489 326.864 44.9488 330.924 44.9488 335.932C44.9488 340.94 114.489 345 200.271 345Z" fill="#F5F5F5"/>
<path d="M206.872 142.454C210.493 136.983 208.963 128.427 200.687 127.426C192.412 126.425 189.528 129.829 185.21 125.023C180.893 120.216 172.906 118.726 169.509 128.628C166.113 138.529 158.014 131.912 155.394 142.815C152.526 154.743 160.898 167.472 177.296 166.206C192.925 165.005 193.382 153.998 200.896 152.083C208.41 150.169 208.186 146.548 206.872 142.454Z" fill="#263238"/>
<path d="M156.436 135.965C155.003 135.949 153.584 135.678 152.246 135.164C152.202 135.149 152.162 135.124 152.128 135.093C152.094 135.062 152.066 135.024 152.046 134.982C152.026 134.94 152.015 134.894 152.013 134.848C152.011 134.802 152.018 134.755 152.034 134.712C152.049 134.668 152.074 134.628 152.105 134.594C152.136 134.559 152.174 134.532 152.216 134.512C152.258 134.492 152.303 134.481 152.35 134.479C152.396 134.477 152.443 134.484 152.486 134.499C157.541 136.374 164.607 134.932 169.261 125.247C171.72 120.144 174.868 118.838 177.096 118.678C180.3 118.422 183.64 120.28 185.907 123.485C188.174 126.689 190.818 126.689 194.615 126.801C197.42 126.794 200.214 127.16 202.922 127.89C203.012 127.918 203.087 127.98 203.132 128.062C203.177 128.144 203.188 128.241 203.163 128.331C203.15 128.376 203.128 128.418 203.099 128.454C203.07 128.491 203.034 128.521 202.993 128.543C202.952 128.566 202.907 128.58 202.86 128.585C202.814 128.589 202.767 128.585 202.722 128.571C200.071 127.859 197.337 127.5 194.591 127.506C190.746 127.386 187.702 127.282 185.331 123.893C183.224 120.881 180.108 119.159 177.176 119.399C174.244 119.639 171.744 121.802 169.918 125.567C166.217 133.258 161.018 135.965 156.436 135.965Z" fill="#263238"/>
<path d="M136.641 270.852C145.925 255.735 162.275 239.473 161.474 222.538L131.578 213.975C131.578 213.975 117.319 252.01 113.065 267.007C108.643 282.604 101.329 316.786 101.329 316.786L111.431 320.751C111.431 320.751 133.268 288.612 136.641 270.852Z" fill="#F9701F"/>
<path opacity="0.2" d="M139.677 266.165C144.307 259.356 149.867 252.339 154.201 245.137C149.146 242.285 139.957 251.001 139.677 266.165Z" fill="black"/>
<path d="M101.329 316.754C99.2783 324.597 93.4864 323.771 90.5785 323.355C90.5785 323.355 88.5598 324.332 88.2794 325.758C91.4837 328.402 98.309 330.853 105.471 332.527C105.885 332.628 106.323 332.569 106.697 332.363C107.07 332.157 107.353 331.818 107.489 331.414C108.29 329.01 109.893 324.204 111.431 320.719L101.329 316.754Z" fill="#263238"/>
<path d="M167.042 277.501C172.505 261.479 187.069 238.512 183.736 229.5L150.516 219.294C150.516 219.294 142.897 260.294 141.912 276.259C141.199 287.723 154.329 322.522 154.329 322.522H165.039C165.039 322.522 167.042 296.919 167.042 277.501Z" fill="#F9701F"/>
<path d="M169.165 168.513L167.202 169.491C166.569 169.795 165.928 170.076 165.296 170.364C164.022 170.933 162.732 171.445 161.434 171.966C158.784 172.996 156.08 173.884 153.335 174.626C150.369 175.461 147.33 176.011 144.259 176.268C142.409 176.421 140.548 176.378 138.708 176.14C137.554 175.985 136.419 175.716 135.319 175.339C133.922 174.855 132.614 174.143 131.45 173.232L131.081 172.943C130.088 172.171 129.354 171.115 128.974 169.915C128.406 168.193 128.135 166.386 128.173 164.572C128.208 163.174 128.355 161.781 128.614 160.406C128.828 159.179 129.123 157.967 129.495 156.778C129.84 155.624 130.208 154.51 130.625 153.437C131.448 151.327 132.389 149.265 133.444 147.261C134.484 145.271 135.645 143.347 136.921 141.501C137.459 140.74 138.238 140.184 139.133 139.923C140.028 139.663 140.984 139.713 141.846 140.067C142.708 140.42 143.425 141.055 143.879 141.869C144.333 142.682 144.498 143.626 144.347 144.545V144.729L143.346 150.689C143.025 152.66 142.721 154.615 142.545 156.505C142.315 158.271 142.208 160.051 142.224 161.832C142.228 162.537 142.295 163.239 142.425 163.931C142.545 164.476 142.713 164.844 142.761 164.732L140.31 161.472C140.061 161.232 139.901 161.143 139.925 161.111C139.949 161.079 140.093 161.111 140.35 161.111C141.105 161.075 141.856 160.992 142.601 160.863C143.6 160.684 144.589 160.454 145.565 160.174C146.606 159.902 147.688 159.581 148.769 159.213C150.948 158.468 153.183 157.611 155.418 156.737C156.54 156.289 157.645 155.808 158.767 155.344L161.971 153.95L162.308 153.798C164.248 152.991 166.426 152.967 168.384 153.73C170.342 154.493 171.93 155.984 172.814 157.89C173.698 159.797 173.81 161.972 173.127 163.959C172.444 165.947 171.018 167.593 169.149 168.553L169.165 168.513Z" fill="#FF8B7B"/>
<path d="M138.467 143.127L143.154 143.416C147.872 141.966 144.948 136.206 144.948 136.206L144.66 132.881C144.573 132.302 144.284 131.772 143.844 131.385C143.404 130.998 142.842 130.779 142.256 130.767L138.98 130.534C138.31 130.444 137.631 130.62 137.089 131.025C136.547 131.429 136.185 132.029 136.08 132.697L135.856 135.605C135.793 136.449 135.936 137.296 136.272 138.072L138.467 143.127Z" fill="#FF8B7B"/>
<path d="M168.676 152.756C178.879 154.621 188.844 157.612 198.388 161.672C199.685 162.251 200.85 163.088 201.812 164.134C202.773 165.179 203.511 166.41 203.979 167.75C204.447 169.091 204.636 170.514 204.534 171.93C204.433 173.347 204.042 174.728 203.387 175.988C192.172 198.041 186.452 226.872 184.666 231.359C184.666 231.359 154.473 232.104 138.523 223.932C135.633 222.447 133.329 220.028 131.986 217.069C130.642 214.11 130.338 210.784 131.121 207.63C137.466 182.084 152.23 164.003 159.063 156.177C160.237 154.83 161.738 153.808 163.422 153.209C165.106 152.61 166.915 152.454 168.676 152.756V152.756Z" fill="#FF8B7B"/>
<path d="M129.896 213.478C129.224 214.529 128.886 215.757 128.926 217.003C128.919 217.051 128.919 217.1 128.926 217.147C129.111 217.812 130.809 222.803 140.63 227.561C152.334 233.169 174.772 234.146 184.69 233.425C184.79 233.419 184.888 233.39 184.976 233.34C185.063 233.29 185.138 233.22 185.194 233.137C185.656 232.221 185.929 231.221 185.996 230.197C186.008 230.101 185.998 230.003 185.968 229.911C185.938 229.819 185.888 229.734 185.821 229.664C185.754 229.593 185.673 229.539 185.583 229.503C185.492 229.468 185.395 229.453 185.299 229.46C180.796 229.708 157.084 230.646 141.888 223.452C134.414 219.919 131.826 215.561 131.009 213.663C130.966 213.558 130.897 213.467 130.808 213.397C130.72 213.326 130.615 213.28 130.504 213.261C130.392 213.243 130.278 213.253 130.172 213.291C130.065 213.329 129.97 213.394 129.896 213.478V213.478Z" fill="#263238"/>
<path d="M176.078 165.686C174.744 165.715 173.421 165.441 172.209 164.885C171.549 164.62 170.956 164.213 170.473 163.692C169.989 163.172 169.627 162.55 169.413 161.872C168.748 159.341 170.711 156.473 172.009 154.583C172.341 154.134 172.639 153.66 172.898 153.165C172.935 153.078 173.004 153.01 173.091 152.974C173.178 152.938 173.275 152.938 173.362 152.972C173.405 152.991 173.444 153.017 173.476 153.051C173.509 153.084 173.534 153.123 173.551 153.166C173.568 153.21 173.577 153.256 173.576 153.302C173.575 153.349 173.565 153.394 173.547 153.437C173.276 153.98 172.956 154.497 172.593 154.983C171.368 156.77 169.509 159.469 170.094 161.688C170.284 162.264 170.598 162.79 171.013 163.232C171.428 163.673 171.935 164.019 172.497 164.244C178.529 167.2 188.134 160.799 191.723 158.396L191.843 158.316C191.882 158.287 191.925 158.267 191.972 158.257C192.018 158.246 192.066 158.244 192.113 158.252C192.16 158.261 192.204 158.278 192.244 158.304C192.284 158.33 192.318 158.364 192.345 158.403C192.371 158.443 192.39 158.487 192.398 158.534C192.407 158.581 192.407 158.629 192.396 158.675C192.386 158.722 192.367 158.765 192.339 158.804C192.312 158.843 192.277 158.876 192.236 158.9L192.116 158.981C189.152 160.967 182.062 165.686 176.078 165.686Z" fill="white"/>
<path d="M175.589 154.15C168.38 160.166 144.227 185.2 137.586 227.489C125.321 222.306 130.376 211.612 123.631 206.028C126.379 203.985 144.035 175.05 147.728 167.656C151.421 160.262 162.356 151.635 167.45 151.763C170.044 151.829 172.629 152.097 175.181 152.564C175.352 152.593 175.51 152.671 175.638 152.788C175.765 152.905 175.856 153.057 175.899 153.225C175.942 153.392 175.936 153.569 175.881 153.733C175.826 153.897 175.725 154.042 175.589 154.15Z" fill="#263238"/>
<path opacity="0.1" d="M175.589 154.15C168.38 160.166 144.227 185.2 137.586 227.489C125.321 222.306 130.376 211.612 123.631 206.028C126.379 203.985 144.035 175.05 147.728 167.656C151.421 160.262 162.356 151.635 167.45 151.763C170.044 151.829 172.629 152.097 175.181 152.564C175.352 152.593 175.51 152.671 175.638 152.788C175.765 152.905 175.856 153.057 175.899 153.225C175.942 153.392 175.936 153.569 175.881 153.733C175.826 153.897 175.725 154.042 175.589 154.15Z" fill="white"/>
<path opacity="0.2" d="M146.326 212.821C146.19 213.398 145.797 213.791 145.445 213.711C145.092 213.63 144.924 213.094 145.06 212.525C145.196 211.956 145.589 211.556 145.941 211.644C146.294 211.732 146.462 212.253 146.326 212.821Z" fill="black"/>
<path d="M172.505 157.178C173.509 155.982 174.886 155.158 176.415 154.839C177.301 153.556 177.771 152.032 177.76 150.473L193.942 149.392C191.211 154.495 189.064 158.532 190.129 161.68C186.676 162.842 180.38 164.885 174.66 163.074C168.94 161.264 170.919 159.189 172.505 157.178Z" fill="#FF8B7B"/>
<path d="M199.35 161.208C197.441 159.934 195.617 158.54 193.886 157.034C193.446 156.653 192.891 156.432 192.309 156.405C191.728 156.379 191.154 156.55 190.682 156.89C185.803 160.423 171.848 171.357 165.36 185.112C157.413 201.935 153.776 229.973 155.266 234.411C170.102 231.374 180.292 240.074 194.447 238.344C190.754 235.981 193.43 211.059 196.257 202.96C199.085 194.861 213.457 169.507 199.35 161.208Z" fill="#263238"/>
<path opacity="0.1" d="M199.35 161.208C197.441 159.934 195.617 158.54 193.886 157.034C193.446 156.653 192.891 156.432 192.309 156.405C191.728 156.379 191.154 156.55 190.682 156.89C185.803 160.423 171.848 171.357 165.36 185.112C157.413 201.935 153.776 229.973 155.266 234.411C170.102 231.374 180.292 240.074 194.447 238.344C190.754 235.981 193.43 211.059 196.257 202.96C199.085 194.861 213.457 169.507 199.35 161.208Z" fill="white"/>
<path opacity="0.2" d="M177.728 151.018L188.944 153.421C184.329 156.569 178.658 156.625 176.751 154.294C177.322 153.291 177.656 152.17 177.728 151.018V151.018Z" fill="black"/>
<path d="M199.934 145.739C195.128 151.25 191.715 154.879 186.468 154.727C176.054 154.423 174.452 148.174 177.576 141.317C180.364 135.149 187.79 127.178 195.2 129.301C196.845 129.77 198.344 130.651 199.555 131.859C200.766 133.067 201.65 134.564 202.123 136.208C202.597 137.851 202.644 139.589 202.261 141.256C201.878 142.924 201.078 144.466 199.934 145.739V145.739Z" fill="#FF8B7B"/>
<path d="M179.106 143.015C179.106 143.015 181.133 143.159 186.26 145.466C184.922 147.669 183.408 147.99 180.796 146.772C180.088 146.481 179.518 145.929 179.203 145.23C178.889 144.531 178.854 143.739 179.106 143.015Z" fill="#263238"/>
<path d="M179.363 143.047C179.25 143.488 179.17 143.992 179.691 144.297C181.262 144.86 182.868 145.322 184.497 145.683C185.002 145.771 185.523 146.075 186.06 145.37C183.929 144.33 181.68 143.55 179.363 143.047V143.047Z" fill="white"/>
<path opacity="0.6" d="M199.854 133.963C196.161 135.565 194.038 143.32 196.201 147.766C202.137 147.918 204.853 139.194 204.853 139.194L199.854 133.963Z" fill="#263238"/>
<path d="M197.972 152.003C196.58 152.719 194.962 152.857 193.47 152.388C191.531 151.755 191.771 149.72 193.333 148.454C194.727 147.317 197.427 146.283 198.885 147.613C200.343 148.943 199.702 151.098 197.972 152.003Z" fill="#FF8B7B"/>
<path d="M185.996 137.936L182.967 141.941C182.967 141.941 181.189 141.14 180.813 139.771C182.345 138.706 184.135 138.072 185.996 137.936V137.936Z" fill="#FF5652"/>
<path d="M189.392 136.27C189.336 136.292 189.287 136.328 189.248 136.374C189.218 136.409 189.195 136.449 189.181 136.493C189.167 136.537 189.162 136.583 189.166 136.629C189.171 136.675 189.184 136.719 189.207 136.759C189.229 136.799 189.259 136.835 189.296 136.863C189.72 137.226 190.225 137.482 190.769 137.61C191.312 137.739 191.878 137.735 192.42 137.6C192.464 137.587 192.505 137.566 192.54 137.537C192.575 137.508 192.604 137.472 192.625 137.431C192.646 137.391 192.659 137.347 192.662 137.301C192.665 137.256 192.659 137.21 192.645 137.167C192.617 137.078 192.555 137.003 192.472 136.96C192.39 136.916 192.293 136.907 192.204 136.935V136.935C191.774 137.035 191.326 137.032 190.897 136.926C190.469 136.82 190.071 136.615 189.737 136.326C189.689 136.288 189.632 136.263 189.572 136.253C189.511 136.244 189.45 136.249 189.392 136.27V136.27Z" fill="#263238"/>
<path d="M189.921 141.301C189.965 141.313 190.012 141.313 190.057 141.301C190.093 141.296 190.128 141.284 190.159 141.266C190.19 141.247 190.217 141.223 190.239 141.194C190.261 141.164 190.276 141.131 190.285 141.096C190.293 141.061 190.295 141.024 190.289 140.988C190.235 140.551 190.078 140.132 189.83 139.767C189.582 139.402 189.251 139.101 188.863 138.89C188.83 138.874 188.795 138.864 188.758 138.863C188.721 138.861 188.685 138.866 188.65 138.879C188.616 138.892 188.584 138.911 188.558 138.937C188.531 138.962 188.51 138.992 188.495 139.026C188.465 139.093 188.462 139.169 188.488 139.238C188.513 139.307 188.565 139.363 188.631 139.394V139.394C188.936 139.565 189.196 139.806 189.389 140.098C189.583 140.389 189.705 140.721 189.745 141.069C189.751 141.119 189.77 141.168 189.801 141.209C189.832 141.249 189.873 141.281 189.921 141.301V141.301Z" fill="#263238"/>
<path d="M190.842 140.419C190.888 140.409 190.932 140.39 190.97 140.363C191.027 140.316 191.063 140.25 191.072 140.177C191.081 140.104 191.062 140.03 191.018 139.971C190.752 139.618 190.404 139.335 190.006 139.144C189.607 138.953 189.169 138.86 188.727 138.873C188.691 138.875 188.656 138.885 188.623 138.901C188.591 138.917 188.562 138.94 188.539 138.967C188.515 138.995 188.498 139.028 188.488 139.062C188.477 139.097 188.474 139.134 188.479 139.17C188.487 139.243 188.523 139.311 188.58 139.359C188.636 139.406 188.709 139.431 188.783 139.426V139.426C189.132 139.42 189.477 139.498 189.789 139.652C190.101 139.807 190.372 140.034 190.578 140.315C190.61 140.352 190.651 140.381 190.697 140.399C190.743 140.417 190.793 140.424 190.842 140.419V140.419Z" fill="#263238"/>
<path d="M182.022 135.116C182.01 135.069 182.01 135.02 182.022 134.972C182.039 134.902 182.083 134.841 182.144 134.802C182.206 134.763 182.28 134.749 182.351 134.764C182.787 134.852 183.196 135.043 183.543 135.322C183.89 135.601 184.165 135.959 184.345 136.366C184.358 136.4 184.364 136.436 184.363 136.472C184.361 136.507 184.353 136.543 184.338 136.576C184.323 136.608 184.302 136.638 184.276 136.662C184.25 136.687 184.219 136.706 184.185 136.719C184.151 136.731 184.116 136.737 184.08 136.736C184.044 136.735 184.008 136.726 183.976 136.712C183.943 136.697 183.913 136.675 183.889 136.649C183.864 136.623 183.845 136.592 183.833 136.558V136.558C183.679 136.244 183.454 135.97 183.176 135.757C182.898 135.544 182.574 135.399 182.23 135.333C182.178 135.321 182.131 135.294 182.094 135.256C182.057 135.217 182.032 135.169 182.022 135.116V135.116Z" fill="#263238"/>
<path d="M182.967 134.251C182.977 134.206 182.999 134.164 183.032 134.131C183.084 134.08 183.154 134.051 183.228 134.051C183.301 134.051 183.372 134.08 183.424 134.131C183.757 134.42 184.016 134.785 184.179 135.195C184.342 135.604 184.404 136.047 184.361 136.486C184.349 136.558 184.31 136.622 184.252 136.665C184.194 136.709 184.121 136.728 184.049 136.718C183.977 136.705 183.912 136.664 183.869 136.604C183.826 136.545 183.807 136.471 183.817 136.398V136.398C183.841 136.047 183.781 135.695 183.642 135.371C183.503 135.048 183.288 134.763 183.016 134.539C182.983 134.5 182.962 134.452 182.953 134.402C182.945 134.351 182.95 134.299 182.967 134.251V134.251Z" fill="#263238"/>
<path d="M184.033 132.112C184.07 132.157 184.119 132.192 184.174 132.213C184.228 132.234 184.287 132.241 184.345 132.232C184.778 132.156 185.222 132.185 185.641 132.317C186.059 132.45 186.439 132.682 186.749 132.994C186.815 133.059 186.904 133.096 186.997 133.096C187.09 133.096 187.179 133.059 187.245 132.994C187.277 132.961 187.303 132.923 187.32 132.881C187.338 132.84 187.347 132.795 187.347 132.749C187.347 132.704 187.338 132.659 187.32 132.617C187.303 132.575 187.277 132.537 187.245 132.505C186.86 132.107 186.384 131.808 185.858 131.634C185.332 131.459 184.772 131.415 184.225 131.503C184.179 131.508 184.135 131.522 184.095 131.545C184.055 131.568 184.019 131.599 183.992 131.635C183.964 131.672 183.944 131.714 183.933 131.759C183.922 131.804 183.921 131.851 183.929 131.896C183.937 131.978 183.974 132.055 184.033 132.112V132.112Z" fill="#263238"/>
<path d="M203.876 170.653L204.132 171.942L204.34 173.128C204.469 173.929 204.573 174.73 204.677 175.483C204.893 177.085 205.037 178.615 205.157 180.193C205.403 183.392 205.441 186.603 205.27 189.806C205.173 191.449 205.029 193.107 204.805 194.789C204.549 196.523 204.201 198.243 203.764 199.94C202.83 203.902 201.018 207.604 198.46 210.771L198.124 211.179C197.506 211.918 196.713 212.491 195.817 212.846C193.514 213.734 191.103 214.311 188.647 214.56C186.52 214.797 184.379 214.891 182.238 214.84C180.156 214.784 178.105 214.64 176.078 214.384C174.036 214.131 172.011 213.757 170.014 213.262C169.119 213.041 168.323 212.527 167.754 211.801C167.186 211.075 166.877 210.179 166.877 209.257C166.877 208.335 167.186 207.439 167.754 206.713C168.323 205.987 169.119 205.472 170.014 205.251L170.262 205.187C172.009 204.739 173.899 204.386 175.686 203.93C177.472 203.473 179.266 203.128 180.989 202.648C182.711 202.167 184.377 201.711 185.907 201.198C187.227 200.778 188.496 200.211 189.689 199.508L187.045 201.59C187.878 200.003 188.433 198.286 188.687 196.512C189.055 194.126 189.234 191.715 189.224 189.302C189.224 186.754 189.104 184.127 188.855 181.483C188.751 180.153 188.599 178.832 188.455 177.478L188.207 175.507L188.078 174.538L187.958 173.673L187.902 173.312C187.646 171.233 188.203 169.136 189.455 167.457C190.708 165.779 192.56 164.648 194.625 164.301C196.691 163.954 198.81 164.418 200.543 165.595C202.275 166.772 203.486 168.572 203.924 170.621L203.876 170.653Z" fill="#FF8B7B"/>
<path opacity="0.6" d="M200.223 171.037C199.76 170.608 199.146 170.378 198.515 170.398C197.884 170.417 197.286 170.684 196.85 171.141C196.623 170.923 196.355 170.753 196.062 170.64C195.768 170.528 195.455 170.475 195.14 170.486C194.826 170.496 194.517 170.569 194.231 170.701C193.946 170.833 193.689 171.021 193.478 171.253C193.095 171.769 192.928 172.414 193.012 173.05C193.095 173.687 193.423 174.266 193.926 174.666L197.739 177.974L200.663 174.45C201.047 173.935 201.215 173.291 201.133 172.654C201.051 172.017 200.724 171.438 200.223 171.037V171.037Z" fill="#263238"/>
<path d="M165.023 322.554H154.313C155.45 331.542 145.669 332.607 145.669 332.607C145.167 333.651 144.951 334.809 145.044 335.964H163.605C163.833 335.964 164.059 335.918 164.27 335.83C164.48 335.741 164.67 335.611 164.829 335.447C164.988 335.284 165.113 335.09 165.196 334.877C165.279 334.665 165.318 334.438 165.312 334.209C165.247 331.654 165.111 326.856 165.023 322.554Z" fill="#263238"/>
<path d="M173.14 225.068L169.852 226.147L198.997 314.999L202.285 313.921L173.14 225.068Z" fill="#263238"/>
<path d="M168.929 213.482L166.379 214.318C165.799 214.509 165.483 215.133 165.673 215.713L169.578 227.618C169.768 228.198 170.393 228.514 170.973 228.324L173.523 227.488C174.103 227.297 174.419 226.673 174.229 226.093L170.324 214.188C170.134 213.608 169.509 213.292 168.929 213.482Z" fill="#263238"/>
<path d="M138.886 123.086L137.044 123.69C136.624 123.828 136.395 124.28 136.532 124.701L139.354 133.302C139.492 133.722 139.944 133.951 140.365 133.813L142.207 133.209C142.627 133.071 142.856 132.619 142.718 132.198L139.897 123.597C139.759 123.177 139.306 122.948 138.886 123.086Z" fill="#263238"/>
<path d="M141.511 124.884L141.969 122.061C142.027 121.698 141.781 121.357 141.419 121.298L136.564 120.511C136.201 120.452 135.86 120.698 135.801 121.061L135.343 123.884C135.284 124.246 135.531 124.588 135.893 124.647L140.748 125.434C141.111 125.493 141.452 125.246 141.511 124.884Z" fill="#263238"/>
<path d="M140.126 125.934L137.736 126.718L171.515 229.698L173.905 228.914L140.126 125.934Z" fill="#263238"/>
<path d="M199.782 314.174C199.699 314.175 199.618 314.146 199.554 314.091C199.491 314.037 199.449 313.961 199.438 313.878C199.43 313.832 199.431 313.785 199.441 313.74C199.451 313.695 199.47 313.652 199.497 313.614C199.524 313.576 199.558 313.543 199.597 313.519C199.636 313.494 199.68 313.477 199.726 313.469C199.774 313.469 204.613 312.612 205.157 309.985C205.59 307.878 203.115 305.018 198.012 301.726C184.393 292.914 184.57 283.509 184.85 269.226C184.89 266.951 184.938 264.595 184.938 262.072C184.938 247.348 178.369 236.013 171.432 224.004C169.653 220.928 167.811 217.74 166.073 214.472C158.863 200.901 158.863 197.088 158.823 192.274C158.823 191.473 158.823 190.583 158.775 189.638C158.574 184.904 156.612 182.5 154.12 179.464C152.646 177.738 151.307 175.901 150.115 173.969C146.694 168.257 147.56 164.772 148.513 161.079C149.314 157.771 150.267 154.022 148.273 147.95C145.405 139.21 140.182 135.317 135.567 131.88C133.437 130.417 131.471 128.727 129.703 126.841C127.02 123.741 126.026 121.554 126.667 120.136C127.1 119.191 128.205 118.702 129.968 118.694C130.061 118.694 130.151 118.731 130.217 118.797C130.283 118.863 130.32 118.953 130.32 119.047C130.32 119.14 130.283 119.23 130.217 119.296C130.151 119.362 130.061 119.399 129.968 119.399C128.966 119.399 127.685 119.591 127.3 120.432C126.916 121.274 127.18 122.836 130.232 126.376C131.967 128.223 133.895 129.877 135.984 131.311C140.678 134.812 145.997 138.769 148.937 147.733C150.988 153.998 150.035 157.851 149.186 161.248C148.273 164.949 147.479 168.145 150.74 173.608C151.913 175.509 153.231 177.317 154.681 179.016C157.149 182.036 159.279 184.623 159.488 189.606C159.488 190.567 159.536 191.432 159.536 192.274C159.536 196.992 159.536 200.717 166.745 214.143C168.476 217.396 170.318 220.552 172.097 223.652C179.074 235.74 185.675 247.156 185.715 262.104C185.715 264.635 185.675 266.991 185.627 269.274C185.339 283.821 185.17 292.593 198.444 301.165C203.892 304.682 206.399 307.702 205.894 310.161C205.262 313.261 200.111 314.166 199.894 314.206L199.782 314.174Z" fill="#263238"/>
<path d="M153.888 126.609L130.096 121.169C129.806 121.102 129.552 120.928 129.386 120.681C129.219 120.434 129.153 120.134 129.199 119.84L129.351 118.91C129.375 118.757 129.43 118.611 129.511 118.479C129.592 118.347 129.699 118.233 129.825 118.143C129.951 118.053 130.094 117.988 130.245 117.954C130.396 117.919 130.552 117.915 130.705 117.941L154.609 122.035L153.888 126.609Z" fill="#263238"/>
<path d="M156.003 128.347L154.168 127.77C153.38 127.518 152.709 126.991 152.277 126.285C151.844 125.58 151.68 124.742 151.813 123.925C151.944 123.108 152.365 122.364 152.999 121.832C153.633 121.299 154.438 121.013 155.266 121.025H157.189C157.685 121.031 158.174 121.145 158.622 121.357C159.071 121.57 159.468 121.877 159.787 122.257C160.105 122.638 160.338 123.082 160.469 123.561C160.6 124.04 160.626 124.541 160.545 125.031L160.457 125.591C160.38 126.083 160.197 126.552 159.922 126.966C159.647 127.38 159.286 127.73 158.863 127.992C158.44 128.254 157.965 128.421 157.472 128.482C156.978 128.544 156.477 128.497 156.003 128.347V128.347Z" fill="#263238"/>
<path d="M197.403 308.311L195.4 317.884C195.341 318.118 195.347 318.364 195.416 318.596C195.485 318.828 195.615 319.037 195.793 319.201C195.971 319.365 196.19 319.478 196.427 319.528C196.664 319.578 196.909 319.564 197.139 319.486L206.439 316.442C206.664 316.367 206.866 316.235 207.023 316.058C207.181 315.881 207.29 315.666 207.339 315.434C207.387 315.202 207.374 314.962 207.301 314.736C207.227 314.511 207.096 314.309 206.92 314.151L199.63 307.622C199.456 307.464 199.243 307.353 199.014 307.302C198.784 307.251 198.545 307.261 198.32 307.331C198.095 307.4 197.892 307.527 197.731 307.699C197.571 307.871 197.457 308.082 197.403 308.311V308.311Z" fill="#263238"/>
<path d="M205.734 324.404L202.45 325.478L198.821 313.013L201.28 312.212L205.734 324.404Z" fill="#263238"/>
<path d="M181.013 332.511L179.371 330.501L200.832 313.822L202.25 315.16L181.013 332.511Z" fill="#263238"/>
<path d="M227.179 317.371L227.307 314.775L200.135 314.046L199.782 315.969L227.179 317.371Z" fill="#263238"/>
<path d="M172.537 206.645L172.425 211.339C170.567 215.914 165.103 212.509 165.103 212.509L161.811 211.932C161.237 211.793 160.732 211.456 160.384 210.979C160.036 210.502 159.869 209.917 159.912 209.329L159.968 206.044C159.937 205.369 160.171 204.708 160.62 204.202C161.069 203.697 161.697 203.386 162.372 203.337H165.288C166.129 203.346 166.954 203.563 167.691 203.97L172.537 206.645Z" fill="#FF8B7B"/>
<path d="M90.6506 327.344C88.7761 326.271 87.3822 325.502 86.5731 324.332C85.764 323.163 88.76 321.585 92.0845 322.602C95.5532 323.667 95.345 326.367 94.8803 327.937C94.8344 328.098 94.7542 328.247 94.6451 328.375C94.5361 328.502 94.4009 328.604 94.2487 328.674C94.0965 328.744 93.931 328.78 93.7634 328.78C93.5959 328.78 93.4304 328.744 93.2782 328.674C92.3788 328.279 91.5016 327.835 90.6506 327.344V327.344Z" fill="#F9701F"/>
<path d="M149.931 335.932H142.288C142.056 335.933 141.827 335.871 141.626 335.753C141.426 335.634 141.262 335.463 141.151 335.257C141.041 335.052 140.989 334.821 141 334.588C141.011 334.356 141.085 334.131 141.215 333.937C141.743 333.209 142.439 332.618 143.243 332.215C144.048 331.812 144.938 331.609 145.837 331.622C149.09 331.494 150.315 333.448 150.764 334.77C150.808 334.903 150.821 335.044 150.8 335.182C150.779 335.32 150.726 335.451 150.645 335.564C150.563 335.678 150.456 335.77 150.332 335.834C150.208 335.898 150.07 335.931 149.931 335.932Z" fill="#F9701F"/>
<path d="M143.802 277.501C143.442 278.879 142.937 283.156 143.802 284.614C144.075 283.709 144.291 283.653 144.291 283.653C144.45 284.423 144.778 285.148 145.25 285.777C145.722 286.406 146.328 286.923 147.023 287.29C147.089 287.009 147.24 286.754 147.455 286.561C148.404 287.272 149.394 287.928 150.419 288.524C149.907 287.618 151.365 285.399 151.365 285.399C151.488 285.804 151.488 286.236 151.365 286.641C152.054 286.225 153.199 282.435 152.807 280.272C150.604 280.168 143.802 277.501 143.802 277.501Z" fill="#263238"/>
<path d="M149.214 285.691C151.663 285.344 153.234 282.15 152.724 278.558C152.215 274.966 149.816 272.336 147.368 272.684C144.919 273.031 143.347 276.225 143.857 279.817C144.367 283.409 146.766 286.039 149.214 285.691Z" fill="#FF8B7B"/>
<path d="M112.656 269.482C111.246 270.583 110.318 272.188 110.069 273.96C110.509 273.311 111.895 273.279 111.895 273.279C111.135 274.355 110.591 275.568 110.293 276.852C111.895 276.676 115.773 274.713 117.503 271.348C115.076 270.331 112.656 269.482 112.656 269.482Z" fill="#263238"/>
<path d="M118.985 267.96C118.064 271.469 115.917 273.944 114.178 273.487C112.44 273.031 111.775 269.826 112.736 266.278C113.698 262.729 115.805 260.302 117.543 260.75C119.281 261.199 119.914 264.443 118.985 267.96Z" fill="#FF8B7B"/>
<path d="M157.165 285.496C156.772 286.769 155.739 287.586 154.873 287.314C154.008 287.042 153.616 285.792 154.016 284.518C154.417 283.245 155.442 282.427 156.307 282.7C157.173 282.972 157.565 284.222 157.165 285.496Z" fill="#FF8B7B"/>
<path d="M152.703 330.717C152.614 330.719 152.528 330.687 152.462 330.628C152.396 330.568 152.356 330.485 152.35 330.397C152.346 330.35 152.35 330.303 152.364 330.259C152.378 330.215 152.4 330.173 152.43 330.138C152.46 330.102 152.497 330.072 152.538 330.051C152.579 330.029 152.624 330.016 152.67 330.012L155.787 329.78L153.68 328.578C153.617 328.545 153.566 328.494 153.535 328.43C153.503 328.367 153.492 328.295 153.504 328.226C153.513 328.157 153.542 328.092 153.588 328.04C153.633 327.987 153.693 327.949 153.76 327.929L156.668 327.128L154.881 326.055C154.827 326.023 154.782 325.978 154.751 325.923C154.72 325.868 154.704 325.805 154.705 325.742C154.706 325.68 154.724 325.619 154.756 325.565C154.788 325.512 154.835 325.468 154.889 325.438L156.908 324.332L154.954 323.699C154.864 323.67 154.789 323.607 154.746 323.523C154.702 323.439 154.693 323.341 154.721 323.251C154.736 323.207 154.759 323.166 154.789 323.13C154.82 323.095 154.857 323.066 154.899 323.045C154.94 323.024 154.986 323.012 155.032 323.009C155.079 323.005 155.126 323.012 155.17 323.027L157.91 323.908C157.975 323.929 158.033 323.97 158.075 324.024C158.118 324.078 158.144 324.143 158.15 324.212C158.158 324.281 158.146 324.35 158.115 324.411C158.083 324.473 158.034 324.523 157.974 324.557L155.771 325.766L157.749 326.952C157.808 326.988 157.855 327.041 157.885 327.103C157.915 327.166 157.926 327.236 157.918 327.304C157.908 327.372 157.878 327.436 157.832 327.487C157.787 327.538 157.727 327.575 157.661 327.593L154.777 328.394L157.181 329.74C157.247 329.777 157.299 329.834 157.331 329.903C157.363 329.972 157.372 330.05 157.357 330.124C157.338 330.198 157.297 330.264 157.24 330.314C157.183 330.364 157.112 330.396 157.036 330.405L152.759 330.725L152.703 330.717Z" fill="#F9701F"/>
<path d="M100.424 325.694C100.376 325.702 100.327 325.702 100.28 325.694L96.5386 323.98C96.4538 323.941 96.3877 323.871 96.3546 323.784C96.3216 323.697 96.3244 323.6 96.3623 323.515C96.3805 323.472 96.4071 323.434 96.4406 323.402C96.4741 323.369 96.5137 323.344 96.5571 323.328C96.6005 323.311 96.6468 323.304 96.6931 323.306C96.7395 323.308 96.785 323.319 96.827 323.339L99.6868 324.637L98.6855 322.562C98.6522 322.508 98.6345 322.445 98.6345 322.382C98.6345 322.318 98.6522 322.256 98.6855 322.201C98.7217 322.149 98.7715 322.109 98.8294 322.083C98.8874 322.058 98.9512 322.049 99.0139 322.057L101.489 322.394L100.552 320.311C100.522 320.26 100.507 320.202 100.507 320.143C100.507 320.083 100.522 320.025 100.552 319.974C100.583 319.922 100.628 319.879 100.682 319.851C100.735 319.823 100.796 319.81 100.856 319.814L102.891 319.886L101.593 318.196C101.55 318.12 101.536 318.031 101.554 317.945C101.571 317.86 101.619 317.784 101.689 317.731C101.758 317.678 101.844 317.652 101.931 317.658C102.019 317.664 102.101 317.701 102.162 317.763L103.909 320.054C103.944 320.111 103.963 320.176 103.963 320.243C103.963 320.309 103.944 320.375 103.909 320.431C103.876 320.49 103.829 320.539 103.771 320.573C103.713 320.607 103.647 320.624 103.58 320.623L101.369 320.543L102.338 322.69C102.363 322.748 102.371 322.812 102.363 322.874C102.355 322.937 102.331 322.996 102.293 323.047C102.255 323.097 102.204 323.136 102.146 323.161C102.088 323.185 102.025 323.194 101.962 323.187L99.5106 322.85L100.648 325.213C100.68 325.279 100.691 325.352 100.679 325.424C100.668 325.495 100.635 325.562 100.584 325.614C100.539 325.654 100.483 325.682 100.424 325.694V325.694Z" fill="#F9701F"/>
<path d="M205.638 141.877C205.422 146.684 203.876 135.244 195.889 133.114C190.626 131.704 185.996 131.511 185.09 128.788C188.944 128.668 190.858 127.802 195.609 128.587C200.359 129.373 206.031 133.258 205.638 141.877Z" fill="#263238"/>
<path d="M265.663 138.128C260.745 140.98 259.511 134.684 260.624 131.72C261.738 128.756 260.865 128.195 258.79 125.231C255.794 120.945 260.624 115.233 265.767 116.547C269.773 117.573 274.515 118.718 279.786 114.857C289.231 107.952 290.457 128.427 296.673 120.216C300.598 128.684 292.54 139.066 280.708 140.051C265.96 141.293 265.663 138.128 265.663 138.128Z" fill="#F9701F"/>
<path d="M265.327 116.467L269.805 118.221C273.378 117.981 276.262 115.922 277.207 114.216C273.73 117.484 268.131 116.892 265.327 116.467Z" fill="#F9701F"/>
<path d="M260.168 135.269C259.615 134.211 259.367 130.59 259.815 129.068C259.695 130.222 261.153 131.64 261.153 131.64C261.153 131.64 261.153 137.183 260.168 135.269Z" fill="#F9701F"/>
<path d="M290.441 119.447L291.779 122.035C294.334 122.427 295.335 121.322 294.911 120.256C294.398 121.69 292.139 120.929 290.441 119.447Z" fill="#F9701F"/>
<path d="M262.859 139.819C259.006 138.168 258.261 134.003 258.574 131.295C258.928 133.171 260 134.835 261.562 135.933L262.859 139.819Z" fill="#F9701F"/>
<path d="M276.918 138.265L279.995 141.701C287.573 141.116 292.451 138.457 296.817 133.21C292.916 136.823 284.713 139.891 276.918 138.265Z" fill="#F9701F"/>
<path d="M302.265 193.748L306.446 191.192L307.087 199.139C307.087 199.139 302.729 199.724 299.878 198.178L299.99 197.272C300.081 196.552 300.332 195.861 300.726 195.251C301.12 194.641 301.646 194.127 302.265 193.748Z" fill="#7F3E3B"/>
<path d="M310.564 194.549L310.42 197.104C310.386 197.64 310.152 198.144 309.765 198.516C309.378 198.888 308.866 199.102 308.329 199.115H307.087L306.446 191.168L309.306 192.45C309.705 192.63 310.039 192.927 310.263 193.302C310.488 193.677 310.593 194.112 310.564 194.549V194.549Z" fill="#7F3E3B"/>
<path d="M280.379 170.212L280.451 171.437L280.555 172.767C280.627 173.656 280.724 174.562 280.836 175.451C281.076 177.237 281.316 179.024 281.637 180.778C282.277 184.239 283.273 187.624 284.609 190.88L285.138 192.049C285.194 192.202 285.41 192.602 285.186 192.266C285.105 192.15 285.001 192.052 284.881 191.977C284.641 191.873 285.114 192.242 285.73 192.426C286.457 192.66 287.202 192.835 287.957 192.947C288.758 193.091 289.656 193.203 290.553 193.283C294.134 193.62 297.995 193.628 301.768 193.676H301.84C302.425 193.664 302.994 193.867 303.44 194.246C303.887 194.624 304.179 195.152 304.264 195.731C304.348 196.31 304.219 196.9 303.899 197.39C303.58 197.88 303.093 198.237 302.529 198.394C298.618 199.59 294.589 200.364 290.513 200.701C288.266 200.911 286.002 200.83 283.776 200.461C282.164 200.208 280.64 199.561 279.338 198.578C278.853 198.186 278.42 197.733 278.048 197.232C277.81 196.891 277.593 196.535 277.399 196.167L276.598 194.741C275.6 192.843 274.74 190.875 274.027 188.853C273.316 186.87 272.719 184.848 272.24 182.797C271.767 180.769 271.401 178.718 271.143 176.653C271.014 175.619 270.902 174.586 270.822 173.544C270.782 173.024 270.742 172.503 270.726 171.942C270.71 171.381 270.726 170.909 270.726 170.26C270.683 168.985 271.147 167.745 272.018 166.813C272.888 165.881 274.094 165.333 275.368 165.289C276.643 165.246 277.883 165.71 278.815 166.581C279.747 167.451 280.296 168.657 280.339 169.931L280.379 170.212Z" fill="#7F3E3B"/>
<path d="M280.187 173.769C279.194 176.26 281.14 183.51 275.028 185.176C272.625 190.087 268.299 188.38 266.857 197.272H239.62C240.742 189.59 246.429 178.543 248.728 161.039C248.855 160.084 249.18 159.166 249.683 158.345C250.186 157.523 250.856 156.816 251.65 156.27C252.443 155.723 253.343 155.349 254.29 155.172C255.237 154.994 256.21 155.017 257.148 155.24C258.213 155.496 259.327 155.792 260.464 156.129C264.45 157.21 268.353 158.575 272.144 160.214C273.37 160.767 274.619 161.384 275.805 162.001C277.866 163.068 279.456 164.864 280.266 167.039C281.076 169.215 281.048 171.613 280.187 173.769V173.769Z" fill="#263238"/>
<path opacity="0.2" d="M256.347 162.017C255.217 165.221 250.21 170.636 246.934 172.263C247.375 169.859 247.799 167.264 248.216 164.388L256.347 162.017Z" fill="black"/>
<path d="M266.216 143.367C265.639 147.373 263.965 154.535 260.456 156.129C263.268 158.451 265.575 161.324 267.235 164.571C268.895 167.818 269.873 171.371 270.109 175.01C274.964 169.731 272.136 160.214 272.136 160.214C268.299 157.747 269.492 154.671 271.247 152.003L266.216 143.367Z" fill="#7F3E3B"/>
<path opacity="0.2" d="M268.267 146.892L271.247 152.003C270.826 152.618 270.461 153.269 270.157 153.95C268.635 153.149 267.049 150.633 267.466 148.895C267.61 148.184 267.881 147.506 268.267 146.892V146.892Z" fill="black"/>
<path d="M264.662 135.084C263.989 141.717 263.564 144.505 266.264 148.406C270.326 154.27 278.096 153.437 280.684 147.133C283.023 141.461 284.096 131.744 278.216 128.107C272.336 124.47 265.335 128.459 264.662 135.084Z" fill="#7F3E3B"/>
<path d="M273.37 139.835L271.247 140.756L271.768 138.569L270.181 136.903L272.513 136.719L273.666 134.764L274.579 136.839L276.878 137.295L275.116 138.761L275.38 140.996L273.37 139.835Z" fill="white"/>
<path d="M276.662 145.146C274.555 144.113 272.362 143.264 270.109 142.606C270.285 144.137 271.039 145.586 273.562 146.388C276.085 147.189 276.662 145.146 276.662 145.146Z" fill="#263238"/>
<path d="M272.705 144.954C273.686 145.217 274.572 145.753 275.26 146.5C274.698 146.629 274.11 146.59 273.57 146.388C272.589 146.13 271.704 145.593 271.022 144.842C271.582 144.713 272.167 144.752 272.705 144.954Z" fill="#630F0F"/>
<path d="M276.446 145.082C276.342 145.235 276.196 145.356 276.026 145.43C275.855 145.503 275.668 145.527 275.485 145.498C274.027 145.02 272.607 144.43 271.239 143.736C271.017 143.65 270.818 143.513 270.658 143.336C270.498 143.16 270.381 142.948 270.318 142.719C272.414 143.36 274.462 144.15 276.446 145.082Z" fill="white"/>
<path d="M264.005 139.082C267.834 138.601 270.654 134.363 270.061 131.071C272.184 131.872 276.382 130.758 276.63 129.26C279.186 130.678 284.641 131.503 285.106 128.547C285.57 125.591 282.174 120.312 274.972 121.97C267.77 123.629 260.352 132.136 264.005 139.082Z" fill="#F9701F"/>
<path d="M266.857 197.272C266.857 197.272 266.857 232.993 264.109 255.671C263.653 276.972 261.153 326.695 261.153 326.695H255.778C255.778 326.695 245.091 290.214 250.795 255.671C239.908 219.623 243.089 197.272 243.089 197.272H266.857Z" fill="black"/>
<path d="M272.849 138.08C272.761 138.617 272.969 139.098 273.322 139.154C273.674 139.21 274.027 138.825 274.123 138.289C274.219 137.752 273.995 137.271 273.642 137.215C273.29 137.159 272.937 137.552 272.849 138.08Z" fill="#263238"/>
<path d="M279.402 139.242C279.314 139.779 279.53 140.259 279.882 140.315C280.235 140.372 280.579 139.987 280.684 139.45C280.788 138.914 280.563 138.441 280.211 138.385C279.858 138.329 279.49 138.713 279.402 139.242Z" fill="#263238"/>
<path d="M280.035 138.385L281.38 138.225C281.38 138.225 280.555 139.122 280.035 138.385Z" fill="#263238"/>
<path d="M278.288 140.067C278.563 141.362 279.016 142.613 279.634 143.784C279.33 143.935 278.997 144.017 278.658 144.025C278.319 144.034 277.982 143.968 277.671 143.832L278.288 140.067Z" fill="#630F0F"/>
<path d="M261.834 138.617C261.916 139.261 262.134 139.879 262.473 140.432C262.813 140.985 263.267 141.458 263.805 141.821C265.191 142.695 266.432 141.261 266.512 139.418C266.584 137.816 265.944 135.373 264.325 135.244C262.707 135.116 261.578 136.919 261.834 138.617Z" fill="#7F3E3B"/>
<path d="M273.041 133.739C273.127 133.756 273.216 133.738 273.29 133.691C273.616 133.459 273.991 133.309 274.387 133.25C274.782 133.192 275.186 133.227 275.565 133.354C275.642 133.386 275.729 133.387 275.807 133.355C275.885 133.324 275.948 133.263 275.981 133.186C276.013 133.108 276.014 133.021 275.982 132.943C275.951 132.865 275.89 132.803 275.813 132.769C275.337 132.6 274.828 132.547 274.327 132.615C273.827 132.684 273.35 132.871 272.937 133.162C272.868 133.209 272.819 133.282 272.803 133.364C272.786 133.447 272.803 133.532 272.849 133.602C272.896 133.668 272.964 133.716 273.041 133.739V133.739Z" fill="#263238"/>
<path d="M283.431 136.51C283.468 136.526 283.508 136.534 283.547 136.534C283.587 136.534 283.627 136.526 283.664 136.51C283.703 136.496 283.739 136.474 283.77 136.446C283.8 136.417 283.825 136.383 283.842 136.345C283.859 136.307 283.869 136.266 283.87 136.224C283.871 136.182 283.863 136.141 283.848 136.102C283.675 135.628 283.392 135.202 283.023 134.858C282.654 134.514 282.21 134.263 281.725 134.123C281.684 134.114 281.641 134.113 281.6 134.12C281.558 134.128 281.519 134.144 281.484 134.167C281.449 134.19 281.418 134.22 281.395 134.255C281.372 134.29 281.356 134.33 281.348 134.371C281.332 134.453 281.347 134.538 281.392 134.608C281.437 134.679 281.508 134.729 281.589 134.748C281.975 134.86 282.329 135.065 282.619 135.344C282.909 135.623 283.127 135.968 283.255 136.35C283.29 136.425 283.354 136.482 283.431 136.51V136.51Z" fill="#263238"/>
<path d="M273.474 137.223L274.82 137.063C274.82 137.063 273.97 137.96 273.474 137.223Z" fill="#263238"/>
<path d="M239.588 197.273C239.588 197.273 251.276 204.859 250.186 224.061C253.591 224.541 267.402 209.537 266.857 197.273C262.531 189.991 239.588 197.273 239.588 197.273Z" fill="#263238"/>
<path d="M272.136 160.214C271.912 169.651 266.376 191.064 255.105 196.367L257.212 197.272C268.211 191.433 273.738 170.508 273.97 161.072C273.634 160.254 272.136 160.214 272.136 160.214Z" fill="white"/>
<path d="M239.588 197.272C239.588 197.272 217.622 225.647 279.298 257.234L282.318 253.108C283.847 251.027 284.616 248.485 284.496 245.906C284.377 243.327 283.376 240.867 281.661 238.937C276.115 232.714 271.192 225.963 266.961 218.782C260.969 208.52 251.334 200.89 239.973 197.409L239.588 197.272Z" fill="#263238"/>
<path d="M267.866 248.421C256.307 255.671 239.828 292.481 239.828 292.481L243.273 297.784C256.09 282.451 268.451 273.303 280.756 255.327L267.866 248.421Z" fill="#263238"/>
<path d="M233.548 296.535C235.286 295.894 237.169 295.974 240.758 290.727C240.758 290.727 246.525 294.035 245.027 295.71C242.304 298.746 238.226 306.516 239.916 311.018C240.878 313.59 237.721 313.269 236.768 311.491C234.365 307.053 235.727 306.308 234.133 303.953C232.779 301.942 231.97 301.782 231.08 300.035C230.303 298.585 231.801 297.184 233.548 296.535Z" fill="#263238"/>
<path d="M236.856 228.346C236.1 228.513 235.315 228.491 234.57 228.284C233.824 228.076 233.141 227.689 232.58 227.156C232.018 226.623 231.596 225.961 231.35 225.227C231.104 224.493 231.042 223.711 231.169 222.947L233.572 208.223L225.16 195.886C224.624 195.101 224.336 194.173 224.335 193.222C224.333 192.271 224.618 191.342 225.152 190.555C225.687 189.768 226.446 189.161 227.33 188.811C228.214 188.462 229.184 188.387 230.111 188.597L265.96 196.68C266.837 196.877 267.641 197.32 268.276 197.957C268.911 198.594 269.351 199.399 269.545 200.277C269.74 201.155 269.679 202.071 269.372 202.916C269.065 203.762 268.523 204.502 267.81 205.051L238.699 227.481C238.148 227.91 237.507 228.209 236.824 228.354L236.856 228.346Z" fill="#F9701F"/>
<path opacity="0.3" d="M265.247 199.98L229.398 191.897C229.134 191.839 228.858 191.862 228.606 191.962C228.355 192.063 228.139 192.236 227.987 192.461C227.835 192.685 227.754 192.95 227.755 193.22C227.755 193.491 227.836 193.756 227.988 193.98L236.856 206.99C237.05 207.276 237.127 207.625 237.073 207.967L234.501 223.5C234.457 223.768 234.495 224.043 234.61 224.289C234.725 224.535 234.911 224.741 235.144 224.88C235.377 225.019 235.647 225.085 235.918 225.069C236.189 225.053 236.449 224.955 236.664 224.79L265.775 202.359C265.978 202.203 266.132 201.992 266.219 201.752C266.306 201.512 266.323 201.251 266.267 201.002C266.212 200.752 266.086 200.523 265.906 200.342C265.725 200.161 265.496 200.036 265.247 199.98Z" fill="white"/>
<path d="M241.721 201.002L240.274 201.321L242.561 211.678L244.008 211.359L241.721 201.002Z" fill="#263238"/>
<path d="M324.983 187.539L318.03 185.761C313.464 184.591 311.061 185.801 309.563 188.204L253.279 200.629L254.648 206.829L311.485 194.276L311.653 194.557C311.931 195.019 312.356 195.375 312.86 195.567C313.364 195.759 313.918 195.775 314.433 195.614L325.16 192.089C325.629 191.91 326.031 191.588 326.308 191.169C326.585 190.749 326.724 190.253 326.704 189.751C326.685 189.249 326.508 188.765 326.2 188.368C325.891 187.971 325.466 187.682 324.983 187.539V187.539Z" fill="#F9701F"/>
<path opacity="0.4" d="M324.983 187.539L318.03 185.761C313.464 184.591 311.061 185.801 309.563 188.204L253.279 200.629L254.648 206.829L311.485 194.276L311.653 194.557C311.931 195.019 312.356 195.375 312.86 195.567C313.364 195.759 313.918 195.775 314.433 195.614L325.16 192.089C325.629 191.91 326.031 191.588 326.308 191.169C326.585 190.749 326.724 190.253 326.704 189.751C326.685 189.249 326.508 188.765 326.2 188.368C325.891 187.971 325.466 187.682 324.983 187.539V187.539Z" fill="black"/>
<path d="M241.999 205.9C241.952 205.899 241.906 205.882 241.869 205.851C241.833 205.821 241.808 205.778 241.799 205.732C241.792 205.705 241.791 205.677 241.795 205.649C241.799 205.622 241.809 205.596 241.824 205.572C241.839 205.549 241.859 205.529 241.882 205.514C241.906 205.498 241.932 205.488 241.959 205.483L315.443 189.253C315.752 189.186 316.045 189.057 316.305 188.876C316.565 188.694 316.786 188.463 316.957 188.196L318.735 185.4C318.767 185.354 318.816 185.322 318.871 185.31C318.926 185.299 318.983 185.308 319.031 185.336C319.079 185.367 319.112 185.416 319.124 185.471C319.136 185.527 319.126 185.585 319.095 185.633L317.309 188.42C317.11 188.736 316.85 189.009 316.545 189.223C316.24 189.438 315.895 189.59 315.531 189.67L242.047 205.892L241.999 205.9Z" fill="white"/>
<path d="M241.727 204.658C241.7 204.661 241.672 204.658 241.646 204.65C241.619 204.642 241.595 204.629 241.574 204.612C241.553 204.594 241.535 204.573 241.522 204.548C241.509 204.524 241.501 204.497 241.499 204.47C241.496 204.443 241.499 204.415 241.507 204.389C241.515 204.363 241.528 204.338 241.545 204.317C241.563 204.296 241.584 204.278 241.609 204.265C241.633 204.252 241.659 204.244 241.687 204.242L311.181 188.893C311.49 188.825 311.784 188.697 312.043 188.516C312.303 188.334 312.525 188.103 312.695 187.836L314.746 184.631C314.76 184.607 314.78 184.586 314.803 184.569C314.826 184.553 314.852 184.541 314.88 184.535C314.908 184.529 314.936 184.529 314.964 184.534C314.992 184.54 315.019 184.551 315.042 184.567C315.087 184.598 315.119 184.645 315.131 184.699C315.143 184.752 315.134 184.808 315.106 184.856L313.047 188.06C312.642 188.693 312.003 189.14 311.269 189.302L241.775 204.65L241.727 204.658Z" fill="white"/>
<path d="M242.288 207.19C242.232 207.196 242.177 207.18 242.133 207.146C242.09 207.111 242.062 207.061 242.055 207.006C242.049 206.95 242.065 206.895 242.099 206.851C242.134 206.808 242.184 206.78 242.24 206.773L315.731 190.551C316.093 190.468 316.469 190.458 316.835 190.523C317.201 190.588 317.55 190.725 317.862 190.928L321.811 193.443C321.859 193.474 321.892 193.523 321.904 193.578C321.916 193.634 321.906 193.692 321.875 193.74C321.861 193.763 321.841 193.783 321.819 193.799C321.797 193.814 321.771 193.826 321.744 193.832C321.718 193.838 321.69 193.838 321.663 193.833C321.636 193.829 321.61 193.818 321.587 193.804L317.638 191.28C317.096 190.941 316.444 190.826 315.819 190.96L242.336 207.19H242.288Z" fill="white"/>
<path d="M242.56 208.432C242.512 208.43 242.466 208.412 242.428 208.382C242.39 208.352 242.364 208.31 242.352 208.263C242.346 208.237 242.345 208.209 242.35 208.182C242.355 208.155 242.365 208.129 242.38 208.106C242.395 208.083 242.414 208.063 242.437 208.047C242.46 208.032 242.485 208.021 242.512 208.015L312.014 192.666C312.746 192.506 313.512 192.641 314.145 193.043L317.349 195.102C317.396 195.131 317.429 195.178 317.441 195.233C317.453 195.287 317.443 195.343 317.413 195.39C317.383 195.437 317.336 195.47 317.282 195.482C317.228 195.494 317.172 195.484 317.125 195.454L313.92 193.403C313.653 193.233 313.355 193.116 313.043 193.061C312.731 193.006 312.411 193.014 312.102 193.083L242.608 208.424L242.56 208.432Z" fill="white"/>
<path d="M246.525 199.275L250.907 201.47L244.499 206.213C244.499 206.213 241.703 202.832 241.503 199.58L242.304 199.203C242.966 198.893 243.691 198.738 244.423 198.751C245.154 198.763 245.874 198.943 246.525 199.275V199.275Z" fill="#7F3E3B"/>
<path d="M250.242 206.765L247.991 207.999C247.521 208.255 246.971 208.325 246.452 208.195C245.932 208.064 245.481 207.743 245.188 207.294L244.499 206.245L250.907 201.502L251.332 204.61C251.391 205.038 251.318 205.473 251.123 205.858C250.929 206.243 250.621 206.559 250.242 206.765V206.765Z" fill="#7F3E3B"/>
<path d="M255.489 164.492L254.4 165.221L253.238 166.022C252.437 166.567 251.692 167.144 250.939 167.728C249.417 168.898 247.951 170.132 246.533 171.381C245.115 172.631 243.794 173.985 242.528 175.339C241.927 176.044 241.286 176.725 240.742 177.454C240.461 177.814 240.149 178.166 239.884 178.535L239.083 179.64C238.971 179.785 238.731 180.193 238.931 179.769C238.986 179.656 239.013 179.533 239.011 179.408C239.011 179.352 238.955 179.536 238.963 179.809C239.002 180.557 239.126 181.299 239.332 182.02C239.829 183.834 240.439 185.616 241.158 187.355C242.6 191.008 244.362 194.717 246.037 198.378V198.434C246.274 198.96 246.314 199.553 246.149 200.106C245.985 200.659 245.627 201.135 245.141 201.446C244.655 201.757 244.074 201.882 243.503 201.8C242.932 201.718 242.41 201.433 242.031 200.997C239.27 197.739 236.786 194.256 234.605 190.583C233.449 188.657 232.448 186.643 231.609 184.559C231.121 183.337 230.764 182.067 230.544 180.77C230.401 179.882 230.382 178.979 230.488 178.086C230.571 177.453 230.738 176.833 230.984 176.244C231.173 175.834 231.384 175.436 231.617 175.05C233.886 171.12 236.702 167.533 239.981 164.396C241.562 162.852 243.228 161.397 244.971 160.038C245.842 159.365 246.731 158.708 247.639 158.067C248.095 157.755 248.552 157.434 249.025 157.13C249.497 156.826 249.946 156.545 250.539 156.193C251.618 155.509 252.925 155.281 254.172 155.561C255.419 155.84 256.504 156.603 257.188 157.683C257.872 158.762 258.099 160.069 257.82 161.316C257.54 162.563 256.777 163.648 255.698 164.332L255.489 164.492Z" fill="#7F3E3B"/>
<path d="M253.222 328.73C253.687 326.912 255.209 325.91 253.839 318.869C253.839 318.869 261.61 319.077 261.417 321.344C261.073 325.462 262.763 331.87 268.715 333.08C271.367 333.617 270.678 335.7 268.715 335.7C263.749 335.7 262.467 333.793 259.719 333.256C257.372 332.8 256.443 333 254.544 332.656C252.942 332.367 252.75 330.557 253.222 328.73Z" fill="black"/>
</svg>
