<svg width="91" height="91" viewBox="0 0 91 91" fill="none" xmlns="http://www.w3.org/2000/svg">
<g clip-path="url(#clip0)">
<path d="M65.8965 61.9743V53.345L79.6249 58.4442V85.9011H33.3404L37.6551 79.6252L39.224 72.5649L35.6939 71.7804L30.5947 69.4269L31.3792 64.72L36.8706 61.9743V55.3062L43.5387 52.5605V61.1899L55.3059 84.3321L65.8965 61.9743Z" fill="#F9701F"/>
<path d="M55.0208 41.5372H55.0252C56.5289 41.5372 57.9433 40.951 59.0079 39.8864C59.5285 39.3656 59.5285 38.5217 59.0079 38.0011C58.4871 37.4807 57.6433 37.4807 57.1227 38.0011C56.5616 38.5623 55.8167 38.8713 55.0251 38.8713C55.0243 38.8713 55.0235 38.8713 55.0227 38.8713C54.2329 38.8708 53.4907 38.5622 52.9328 38.0027C52.4131 37.4813 51.569 37.4802 51.0477 37.9997C50.5262 38.5196 50.525 39.3635 51.0447 39.8848C52.1059 40.9492 53.518 41.5361 55.0208 41.5372Z" fill="#323334"/>
<path d="M60.8278 30.3745C61.4403 29.7835 62.4344 29.7828 63.0431 30.3724C63.3021 30.623 63.6364 30.7477 63.9703 30.7477C64.3187 30.7477 64.6667 30.612 64.9281 30.3422C65.4404 29.8132 65.4269 28.9693 64.8979 28.4573C63.2686 26.8794 60.6129 26.879 58.9773 28.4552C58.4474 28.9663 58.432 29.81 58.943 30.34C59.4541 30.8702 60.298 30.8855 60.8278 30.3745Z" fill="#323334"/>
<path d="M50.7236 28.4553C49.0904 26.8808 46.4335 26.8808 44.8003 28.4553C44.2704 28.9665 44.255 29.8102 44.766 30.3402C45.2771 30.87 46.121 30.8855 46.6508 30.3745C47.2637 29.7837 48.2606 29.7839 48.873 30.3745C49.1318 30.6239 49.4651 30.7479 49.7981 30.7479C50.1474 30.7479 50.4963 30.6114 50.7579 30.3402C51.2691 29.8102 51.2536 28.9665 50.7236 28.4553Z" fill="#323334"/>
<path d="M51.7248 9.87552C53.1829 10.9355 58.2958 13.2816 60.9581 13.8139C61.0464 13.8317 61.1342 13.8399 61.221 13.8399C61.8434 13.8399 62.4 13.4018 62.5268 12.7681C62.6711 12.0462 62.2029 11.344 61.481 11.1996C59.2753 10.7587 54.5086 8.60295 53.2926 7.71907C52.6968 7.28647 51.8636 7.41817 51.4305 8.0134C50.9975 8.60899 51.1294 9.44274 51.7248 9.87552Z" fill="#323334"/>
<path d="M55.0574 71.3608H55.0524C54.3161 71.3608 53.7219 71.9575 53.7219 72.6938C53.7219 73.4302 54.3212 74.0269 55.0576 74.0269C55.7939 74.0269 56.3906 73.4302 56.3906 72.6938C56.3906 71.9575 55.7938 71.3608 55.0574 71.3608Z" fill="#323334"/>
<path d="M55.0574 65.8442H55.0524C54.3161 65.8442 53.7219 66.4409 53.7219 67.1772C53.7219 67.9136 54.3212 68.5103 55.0576 68.5103C55.7939 68.5103 56.3906 67.9136 56.3906 67.1772C56.3906 66.4409 55.7938 65.8442 55.0574 65.8442Z" fill="#323334"/>
<path d="M23.8926 71.8398H16.8572C16.1208 71.8398 15.5242 72.4365 15.5242 73.1729C15.5242 73.9092 16.1208 74.5059 16.8572 74.5059H23.8926C24.629 74.5059 25.2256 73.9092 25.2256 73.1729C25.2256 72.4365 24.6288 71.8398 23.8926 71.8398Z" fill="#323334"/>
<path d="M23.8926 65.5615H16.8572C16.1208 65.5615 15.5242 66.1582 15.5242 66.8945C15.5242 67.6309 16.1208 68.2275 16.8572 68.2275H23.8926C24.629 68.2275 25.2256 67.6309 25.2256 66.8945C25.2256 66.1582 24.6288 65.5615 23.8926 65.5615Z" fill="#323334"/>
<path d="M90.402 83.9614L88.1512 71.0762C88.0247 70.351 87.3338 69.8644 86.6087 69.9925C85.8835 70.119 85.3983 70.8097 85.525 71.5351L87.7757 84.4192C87.7998 84.558 87.811 84.6631 87.8158 84.7404C87.6953 84.7587 87.5034 84.7757 87.2066 84.7757L80.5703 84.7747V60.9896C81.9842 62.2511 83.1505 63.7281 83.9764 65.4836C84.2034 65.9665 84.6831 66.2496 85.1834 66.2496C85.3734 66.2496 85.5666 66.2087 85.75 66.1223C86.4162 65.809 86.7021 65.0151 86.3888 64.3487C83.0529 57.258 75.4087 54.2138 67.509 52.0653C67.3294 51.6777 67.0774 51.4191 66.8494 51.2513C66.4273 50.9406 65.9088 50.8036 65.3035 50.8351V45.168C69.0563 42.3392 72.076 38.3037 73.4943 34.1961C76.827 33.8303 80.0456 31.7821 80.0456 28.3095V26.5532C80.0456 24.2682 78.2 22.4091 75.9318 22.4091H74.3729V21.2034C74.3729 21.1854 74.3709 21.168 74.3702 21.1502C74.2566 10.6969 67.0458 5.01033 60.2928 3.17149C56.8403 2.23181 53.1953 2.17262 50.0295 3.00567C46.8461 3.84315 44.3591 5.48666 42.7916 7.77854C39.7815 8.1557 37.5932 9.76668 36.4389 12.4681C35.4926 14.6821 35.5011 17.0255 35.5047 18.0262L35.505 18.1687L35.5013 22.4064L34.1582 22.4091C31.8926 22.4091 30.0493 24.2682 30.0493 26.5532V28.3095C30.0493 31.8189 33.1044 33.8351 36.4001 34.1964C37.8534 38.3101 40.9476 42.3619 44.7865 45.2007V50.8347C44.1835 50.8043 43.6666 50.9415 43.2455 51.2513C43.0179 51.4187 42.7664 51.6768 42.5867 52.0634C40.7765 52.5546 39.2136 53.0308 37.8001 53.5222C36.3326 47.7512 32.027 42.9349 26.2769 40.9193L25.5786 24.2424H26.386C27.1224 24.2424 27.719 23.6458 27.719 22.9094C27.719 22.1731 27.1224 21.5764 26.386 21.5764H25.467L25.355 18.9026H26.386C27.1224 18.9026 27.719 18.3059 27.719 17.5696C27.719 16.8332 27.1224 16.2366 26.386 16.2366H25.2434L25.1312 13.5604C26.0238 13.5474 26.5433 13.1458 26.8213 12.8059C27.1231 12.4373 27.4387 11.7788 27.2265 10.7272L25.4046 1.96005C25.1605 0.787719 24.2731 0 23.1962 0H17.5537C16.477 0 15.5895 0.787541 15.3452 1.96005L13.5214 10.7348C13.311 11.7785 13.6266 12.437 13.9284 12.8056C14.2064 13.1452 14.7261 13.5473 15.6191 13.5602L15.5074 16.2366H14.3639C13.6275 16.2366 13.0309 16.8332 13.0309 17.5696C13.0309 18.3059 13.6275 18.9026 14.3639 18.9026H15.3963L15.2849 21.5764H14.3639C13.6275 21.5764 13.0309 22.1731 13.0309 22.9094C13.0309 23.6458 13.6275 24.2424 14.3639 24.2424H15.1736L14.9397 29.854C14.909 30.5897 15.4804 31.2109 16.2161 31.2414C16.9449 31.2743 17.5729 30.7011 17.6035 29.9651L17.842 24.2424H22.9101L24.1578 54.0341H16.5911L17.3111 36.1711C17.3408 35.4354 16.7683 34.8151 16.0328 34.7855C15.2947 34.7565 14.6769 35.3283 14.6472 36.0637L14.4512 40.928C7.31015 43.4418 2.40219 50.2773 2.40219 57.8906V61.3934C2.40219 62.6014 3.38506 63.5843 4.59312 63.5843H6.07187C7.66881 63.5843 8.96823 64.8814 8.96823 66.4757V67.2328C8.96823 68.8299 7.66881 70.1294 6.07187 70.1294H2.70558C1.49752 70.1294 0.514648 71.1101 0.514648 72.3153V75.8179C0.514648 81.6647 7.1772 88.3303 13.0215 88.3303H15.7125L15.8851 89.0886C15.9925 89.5614 16.3184 91.0002 18.2298 91.0002H22.3986C24.3104 91.0002 24.6362 89.5612 24.7429 89.0899L24.9158 88.3304H27.7281C29.0172 88.3304 30.3459 88.0054 31.6345 87.4371L87.2064 87.4421C88.107 87.4421 89.2306 87.3355 89.9293 86.5047C90.6089 85.6964 90.5247 84.6668 90.402 83.9614ZM74.3727 29.3089V25.0751H75.9316C76.7165 25.0751 77.3794 25.7521 77.3794 26.5532V28.3095C77.3794 29.8972 75.9364 30.9459 74.2069 31.373C74.3157 30.6777 74.3727 29.9877 74.3727 29.3089ZM32.7151 28.3095V26.5532C32.7151 25.7519 33.376 25.0751 34.1607 25.0751L35.4999 25.0725V29.3089C35.4999 29.9829 35.5576 30.6684 35.668 31.3598C34.0311 30.9279 32.7151 29.8946 32.7151 28.3095ZM38.1707 18.0166C38.1526 13.0324 39.8926 10.6043 43.6467 10.3756C44.0894 10.3486 44.4897 10.1031 44.7147 9.72083C47.0729 5.71114 53.3304 4.03848 59.5923 5.74402C62.0308 6.40786 69.2031 9.01735 71.1907 16.988C70.8278 17.0017 70.4528 17.0179 70.0689 17.0346C66.9612 17.17 63.0933 17.3382 59.624 16.3985C55.5693 15.3056 52.1552 13.6255 48.8792 11.1114C48.2946 10.663 47.4584 10.7735 47.01 11.3574C46.5619 11.9414 46.6719 12.7782 47.256 13.2266C50.8179 15.9602 54.5274 17.7859 58.9285 18.9723C61.3801 19.6363 63.9235 19.8078 66.2963 19.8078C67.6663 19.8078 68.9799 19.7506 70.1848 19.6981C70.6863 19.6763 71.1721 19.6553 71.6292 19.6404C71.6791 20.2052 71.7069 20.7907 71.7069 21.4001V22.4091H64.672C57.5688 22.4091 52.8475 20.2143 51.1487 19.2716C49.2629 18.2217 48.2052 17.2189 47.5057 16.5556C47.1084 16.179 46.6996 15.7673 46.1876 15.5503C45.7265 15.355 45.1953 15.3664 44.7435 15.5837C44.0853 15.9005 43.7395 16.5579 43.4123 17.1734C42.2746 19.3151 41.0036 21.7063 38.1675 22.2769L38.1712 18.1701L38.1707 18.0166ZM38.703 32.6759C38.6861 32.5856 38.1659 30.9432 38.1659 29.3091V24.9816C42.5346 24.393 44.4282 20.9416 45.7113 18.5283C46.464 19.2419 47.7108 20.4091 49.8532 21.6018C51.7349 22.6462 56.9457 25.0753 64.6718 25.0753H71.7067V29.3091C71.7067 30.3505 71.5371 31.432 71.2288 32.522C71.2241 32.5366 71.2201 32.5515 71.216 32.5663C69.6773 37.9417 64.6961 43.5225 59.1439 45.5784C57.6177 46.1477 56.316 46.4128 55.0473 46.4128C53.7785 46.4128 52.4767 46.1477 50.9478 45.5773C45.3451 43.5024 40.3117 37.9881 38.703 32.6759ZM52.65 52.1766C52.1026 52.1766 51.6028 52.3803 51.2189 52.7142L47.4524 51.5357V46.9036C48.2882 47.3573 49.1458 47.753 50.019 48.0763C51.8525 48.7604 53.4504 49.0789 55.0473 49.0789C56.6441 49.0789 58.2419 48.7604 60.0726 48.0773C60.9454 47.754 61.8024 47.3561 62.6373 46.8977V51.5373L58.8757 52.7142C58.4918 52.3805 57.9918 52.1766 57.4444 52.1766H52.65ZM56.9647 54.8426V60.3378H53.1302V54.8426H56.9647ZM48.0423 58.9207H50.4642V59.9039C50.4642 59.9039 45.0245 61.6059 45.0097 61.6104V53.5654C45.0261 53.5702 45.0428 53.5754 45.0602 53.5809L50.4642 55.2717V56.2547H48.0423C47.3059 56.2547 46.7092 56.8514 46.7092 57.5877C46.7092 58.3241 47.3059 58.9207 48.0423 58.9207ZM59.6307 58.9207H62.0475C62.7839 58.9207 63.3805 58.3241 63.3805 57.5877C63.3805 56.8514 62.7839 56.2547 62.0475 56.2547H59.6307V55.2717L65.0335 53.5812C65.0513 53.5757 65.0683 53.5704 65.085 53.5656V61.6104C65.0687 61.6056 59.6307 59.9039 59.6307 59.9039V58.9207ZM17.9532 21.5762L18.0647 18.9024H22.6865L22.7985 21.5762H17.9532ZM18.1758 16.2366L18.2872 13.5627H22.4627L22.5747 16.2366H18.1758ZM16.2109 10.8962L17.9214 2.66602H22.8281L24.5387 10.8967L16.2109 10.8962ZM22.181 88.334H18.4475L16.729 80.7847H23.8997L22.181 88.334ZM30.8504 84.8675C30.7995 84.8879 30.7499 84.911 30.7023 84.9373C29.6782 85.4078 28.6619 85.6642 27.7283 85.6642H25.5231L26.5954 80.9545C26.8215 79.9629 26.5209 79.3182 26.2289 78.9521C25.7879 78.3992 25.107 78.1189 24.2054 78.1189H16.4231C15.5215 78.1189 14.8408 78.3992 14.3996 78.9521C14.1076 79.3182 13.807 79.9629 14.0331 80.9539L15.1054 85.6642H13.0215C10.969 85.6642 8.51696 84.4368 6.46217 82.3806C4.40739 80.3246 3.18066 77.8711 3.18066 75.8178V72.7952H6.07205C9.13921 72.7952 11.6344 70.2998 11.6344 67.2327V66.4755C11.6344 63.4112 9.13921 60.9181 6.07205 60.9181H5.06838V57.8904C5.06838 51.7682 8.79601 46.2339 14.3342 43.8325L13.905 54.4854C13.8861 55.063 14.0998 55.6129 14.507 56.0336C14.9168 56.4571 15.4882 56.6999 16.0751 56.6999H24.6801C25.27 56.6999 25.8439 56.4538 26.2545 56.0245C26.6604 55.6001 26.8702 55.0481 26.8446 54.4733L26.3986 43.8245C31.9466 46.2218 35.6819 51.7614 35.6819 57.8902V60.9179H34.6782C31.6111 60.9179 29.1158 63.4108 29.1158 66.4753V67.2325C29.1158 70.2996 31.6111 72.795 34.6782 72.795H37.5696V75.8176C37.5696 77.8709 36.3429 80.3242 34.2881 82.3804C33.2126 83.4562 32.0289 84.3024 30.8504 84.8675ZM35.6444 84.7708C38.3204 82.3189 40.2351 78.9514 40.2351 75.8178V72.3151C40.2351 71.1099 39.2543 70.1292 38.0491 70.1292H34.6779C33.0809 70.1292 31.7815 68.8298 31.7815 67.2327V66.4755C31.7815 64.8812 33.0809 63.5841 34.6779 63.5841H36.1566C37.3647 63.5841 38.3475 62.6012 38.3475 61.3932V57.8904C38.3475 57.3174 38.3166 56.7493 38.2621 56.1866C39.4795 55.751 40.8147 55.3287 42.3434 54.8968V61.9077C42.3434 63.0323 42.8355 63.6287 43.2484 63.9309C43.5109 64.123 43.81 64.2476 44.1429 64.308L53.0163 84.7706H35.6444V84.7708ZM55.0475 82.7533L46.8418 63.8308L51.2148 62.4626C51.5993 62.7985 52.1006 63.004 52.65 63.004H57.4446C57.9941 63.004 58.4955 62.7987 58.88 62.4626L63.2529 63.8308L55.0475 82.7533ZM77.9043 84.7743L57.0783 84.7711L65.9518 64.308C66.2847 64.2478 66.5839 64.1232 66.8462 63.9312C67.2589 63.6291 67.751 63.0326 67.751 61.9081V54.8997C71.4131 55.9357 74.9633 57.1951 77.9043 59.0158V84.7743Z" fill="#323334"/>
</g>
<defs>
<clipPath id="clip0">
<rect width="91" height="91" fill="white"/>
</clipPath>
</defs>
</svg>
