<svg width="287" height="256" viewBox="0 0 287 256" fill="none" xmlns="http://www.w3.org/2000/svg">
<path d="M286.72 255.437C286.72 255.53 222.529 255.61 143.367 255.61C64.2045 255.61 0 255.53 0 255.437C0 255.344 64.1778 255.264 143.367 255.264C222.555 255.264 286.72 255.344 286.72 255.437Z" fill="#263238"/>
<path d="M250.254 145.58C251.149 144.362 251.531 142.843 251.319 141.347C250.654 136.687 249.183 126.456 248.657 123.32C247.991 119.206 242.705 118.907 242.705 118.907L233.599 130.802C233.31 131.178 232.947 131.49 232.531 131.718C232.115 131.945 231.656 132.083 231.183 132.123C230.711 132.164 230.236 132.105 229.787 131.951C229.339 131.796 228.928 131.55 228.58 131.228L227.748 129.451L229.951 126.296C234.611 127.181 235.103 121.636 235.103 121.636L227.901 121.403L222.289 127.474L221.211 150.673L190.423 185.734C190.423 185.734 161.273 138.91 160.514 137.925L143.094 137.759L140.271 178.545L161.08 205.338C167.244 214.212 177.369 223.092 188.167 223.578C201.48 224.17 207.671 217.061 215.579 204.459L243.151 155.865L234.618 153.801L242.839 155.699L250.254 145.58Z" fill="#FFBE9D"/>
<path d="M190.244 205.092C190.157 205.092 189.911 204.04 189.704 202.289C189.454 200.004 189.363 197.704 189.431 195.406C189.511 192.71 189.738 190.294 189.944 188.543C190.15 186.792 190.323 185.727 190.423 185.734C190.523 185.741 190.51 186.832 190.423 188.583C190.337 190.334 190.197 192.757 190.117 195.419C189.957 200.758 190.45 205.065 190.244 205.092Z" fill="#EB996E"/>
<path d="M57.9404 74.8324C56.0965 80.0646 51.7297 88.3323 46.9701 92.586C42.3507 96.6737 39.1753 102.144 37.9169 108.183C37.1447 111.611 37.6906 115.252 36.7253 118.634C34.9946 124.692 28.7372 128.899 27.8852 135.143C27.0997 140.941 36.093 142.225 36.2993 148.063C36.6921 159.054 42.8695 158.341 47.7423 157.17C51.1772 156.344 53.4205 153.136 55.2045 150.094C64.4603 134.226 69.8512 116.402 70.9411 98.0645" fill="#263238"/>
<path d="M110.442 2.83945C117.964 0.536211 127.251 -0.156092 133.654 4.76325C139.393 9.17003 141.942 18.6825 144.172 25.5723C145.823 30.678 147.501 35.837 148.066 41.1757C148.572 45.7889 148.266 50.4486 148.16 55.0884C147.953 64.1216 148.665 73.6874 153.758 81.1562C156.72 85.5031 161.08 88.9646 163.031 93.8374C164.981 98.7101 169.934 134.284 158.151 134.284L113.891 106.572L110.442 2.83945Z" fill="#263238"/>
<path d="M80.1208 104.355C79.5509 104.339 78.9811 104.391 78.4233 104.508C74.0498 105.433 54.2459 109.907 49.9656 115.905C45.1395 122.655 41.0589 150.32 43.6351 158.042C45.7985 164.539 60.7629 219.604 65.4493 236.878C65.8541 238.366 66.731 239.683 67.9482 240.63C69.1654 241.577 70.6572 242.103 72.1992 242.13L154.137 243.601C155.968 243.634 157.742 242.961 159.091 241.722C160.439 240.483 161.259 238.772 161.38 236.944C162.465 220.462 165.048 178.897 164.043 169.179C163.337 162.362 151.495 135.229 144.738 120.198C141.889 113.841 137.189 108.216 130.413 106.632C128.955 106.286 120.201 105.56 118.71 105.513L80.1208 104.355Z" fill="#F9701F"/>
<g opacity="0.3">
<path opacity="0.3" d="M48.834 167.934C52.2363 178.015 56.629 187.735 61.9478 196.951C66.3013 204.486 71.3804 211.795 78.2835 217.094C85.1866 222.393 94.1798 225.482 102.707 223.751C108.962 222.488 114.461 218.797 117.997 213.486C121.534 208.174 122.82 201.677 121.572 195.42C120.84 191.752 118.95 187.971 115.501 186.52C111.441 184.815 106.901 186.866 102.714 188.237C97.2992 189.965 91.5871 190.561 85.9325 189.988C80.2778 189.416 74.8012 187.687 69.8427 184.909C62.1475 180.555 56.0766 173.805 50.1653 167.182" fill="black"/>
</g>
<path d="M130.433 106.645C130.433 106.645 153.458 109.115 158.97 121.543C164.482 133.971 177.842 155.406 177.842 155.406L151.834 164.692L130.433 106.645Z" fill="#F9701F"/>
<path d="M44.4538 169.904C44.4538 169.904 58.9722 160.991 70.7481 155.925C82.2776 150.979 86.4713 148.33 86.4713 148.33L75.0017 121.004C71.0077 110.353 58.2999 105.533 48.5012 111.365C48.2682 111.498 48.0485 111.638 47.8355 111.777C42.4435 115.312 36.5722 126.695 38.3895 138.205C39.5145 145.461 44.4538 169.904 44.4538 169.904Z" fill="#F9701F"/>
<path d="M146.262 134.251C146.394 134.38 146.514 134.52 146.622 134.67L147.6 135.915C148.446 137.007 149.651 138.578 151.082 140.575C153.931 144.569 157.792 150.26 160.534 157.29C161.848 160.58 162.825 163.994 163.45 167.481C163.53 167.881 163.603 168.273 163.676 168.666C163.75 169.059 163.783 169.452 163.83 169.831C163.929 170.597 164.029 171.342 164.122 172.061C164.229 173.506 164.322 174.85 164.389 176.055C164.455 177.26 164.389 178.398 164.389 179.383C164.389 180.369 164.309 181.201 164.276 181.886C164.242 182.572 164.202 183.078 164.176 183.471C164.168 183.653 164.15 183.836 164.122 184.017C164.103 183.833 164.103 183.648 164.122 183.464C164.122 183.071 164.122 182.545 164.156 181.88C164.189 181.214 164.229 180.355 164.209 179.377C164.189 178.398 164.162 177.287 164.136 176.048C164.109 174.81 163.949 173.479 163.83 172.054C163.73 171.342 163.63 170.603 163.523 169.844L163.364 168.686C163.284 168.293 163.21 167.901 163.131 167.508C162.49 164.045 161.511 160.654 160.208 157.383C157.479 150.4 153.665 144.735 150.889 140.681C149.491 138.684 148.313 137.06 147.501 135.941L146.575 134.657C146.463 134.528 146.358 134.392 146.262 134.251Z" fill="#263238"/>
<path d="M87.816 242.27C87.816 242.27 87.6296 242.217 87.3101 242.05C86.8506 241.821 86.406 241.563 85.9787 241.278C83.1769 239.422 80.8876 236.89 79.322 233.916C79.0847 233.469 78.8736 233.009 78.6896 232.538C78.6046 232.37 78.5462 232.191 78.5165 232.005C78.5697 232.005 78.9026 232.671 79.535 233.796C80.3701 235.22 81.3445 236.558 82.444 237.79C83.5514 239.01 84.7803 240.114 86.1119 241.085C87.1703 241.804 87.8493 242.203 87.816 242.27Z" fill="#263238"/>
<path d="M93.1281 242.616C92.7187 242.193 92.3632 241.722 92.0697 241.211C90.5318 238.812 89.4592 236.146 88.9077 233.35C88.7635 232.778 88.6941 232.189 88.7013 231.599C88.8873 232.154 89.0363 232.722 89.1473 233.297C89.4927 234.655 89.9263 235.989 90.4454 237.291C90.9702 238.591 91.5818 239.854 92.276 241.072C92.6007 241.563 92.8856 242.079 93.1281 242.616Z" fill="#263238"/>
<path d="M158.524 153.622C158.524 153.722 148.799 154.953 136.783 156.431C124.768 157.909 115.002 158.987 114.996 158.887C114.989 158.787 124.714 157.556 136.737 156.085C148.759 154.614 158.511 153.529 158.524 153.622Z" fill="#FAFAFA"/>
<path d="M157.759 125.351C157.759 125.444 146.848 127.78 133.348 130.563C119.848 133.345 108.885 135.529 108.865 135.436C108.845 135.342 119.775 133.006 133.275 130.223C146.775 127.441 157.739 125.257 157.759 125.351Z" fill="#FAFAFA"/>
<path d="M168.396 141.526C168.396 141.526 168.27 141.686 168.003 141.926C167.631 142.265 167.24 142.583 166.832 142.878C164.131 144.861 161.019 146.212 157.725 146.832C157.23 146.928 156.73 146.997 156.228 147.038C156.042 147.067 155.854 147.067 155.668 147.038C156.326 146.851 156.992 146.698 157.665 146.579C159.262 146.205 160.821 145.688 162.325 145.035C163.838 144.376 165.288 143.583 166.659 142.665C167.744 141.972 168.356 141.487 168.396 141.526Z" fill="#FAFAFA"/>
<path d="M141.836 110.939C141.836 111.032 137.109 111.431 131.265 111.831C125.42 112.23 120.674 112.496 120.667 112.37C120.66 112.243 125.393 111.877 131.238 111.484C137.083 111.092 141.829 110.839 141.836 110.939Z" fill="#FAFAFA"/>
<path d="M75.8338 134.863C75.8738 134.95 68.3316 138.191 58.9922 142.139C49.6528 146.086 42.0574 149.182 42.0175 149.075C41.9775 148.969 49.5196 145.747 58.8591 141.799C68.1985 137.852 75.7939 134.776 75.8338 134.863Z" fill="#FAFAFA"/>
<path d="M70.9943 119.526C70.8885 119.582 70.7769 119.627 70.6615 119.659L69.7029 119.992L66.1416 121.17C63.1527 122.169 59.0388 123.58 54.5255 125.231C50.0122 126.882 45.9716 128.486 43.0493 129.657L39.5878 131.055L38.6425 131.421C38.5348 131.473 38.4206 131.508 38.303 131.528C38.4016 131.462 38.5064 131.407 38.6159 131.362L39.5345 130.929C40.3333 130.563 41.5315 130.05 42.9561 129.431C45.8518 128.2 49.8924 126.569 54.4057 124.904C58.919 123.24 63.0595 121.876 66.0617 120.91C67.5661 120.444 68.791 120.078 69.6364 119.839L70.6149 119.566C70.7388 119.534 70.8666 119.521 70.9943 119.526Z" fill="#FAFAFA"/>
<path d="M58.7459 189.402C57.5238 189.517 56.2935 189.517 55.0714 189.402C53.8444 189.389 52.6211 189.265 51.4168 189.029C52.6389 188.914 53.8692 188.914 55.0914 189.029C56.3184 189.041 57.5417 189.166 58.7459 189.402Z" fill="#FAFAFA"/>
<path d="M77.8708 209.179C77.5598 209.197 77.2477 209.186 76.9388 209.146C76.3397 209.112 75.4744 209.026 74.4093 208.906C72.2791 208.66 69.3435 208.24 66.1416 207.575C62.9397 206.909 60.0773 206.104 58.0336 205.465C57.0085 205.145 56.1831 204.872 55.6239 204.666C55.3253 204.575 55.0357 204.457 54.7585 204.313C55.0675 204.353 55.3711 204.426 55.6638 204.533L58.1002 205.232C60.1638 205.811 63.0196 206.563 66.2148 207.229C69.41 207.894 72.3257 208.38 74.4426 208.68L76.9522 209.033C77.2624 209.052 77.57 209.101 77.8708 209.179Z" fill="#FAFAFA"/>
<path d="M163.024 208.84C162.867 208.877 162.706 208.899 162.545 208.906L161.173 209.039C159.982 209.146 158.258 209.272 156.121 209.405C151.847 209.672 145.943 209.925 139.413 209.965C132.882 210.005 126.964 209.818 122.691 209.605C120.554 209.492 118.823 209.385 117.632 209.292L116.26 209.179C116.099 209.171 115.939 209.151 115.781 209.119C115.943 209.103 116.105 209.103 116.267 209.119L117.638 209.166L122.704 209.365C126.978 209.519 132.882 209.658 139.406 209.625C145.929 209.592 151.834 209.372 156.108 209.166L161.167 208.906L162.545 208.846C162.704 208.827 162.865 208.824 163.024 208.84Z" fill="#FAFAFA"/>
<path d="M163.33 180.661C163.194 180.728 163.051 180.779 162.904 180.815L161.659 181.174C160.581 181.487 158.997 181.893 157.053 182.352C146.844 184.745 136.398 185.978 125.913 186.027C123.916 186.027 122.278 186.027 121.153 185.954L119.862 185.894C119.712 185.894 119.562 185.878 119.416 185.847C119.566 185.83 119.718 185.83 119.868 185.847H121.16C122.278 185.847 123.902 185.847 125.913 185.814C129.907 185.741 135.465 185.468 141.549 184.749C147.634 184.03 153.079 183.005 156.993 182.139C158.957 181.713 160.534 181.34 161.653 181.068L162.911 180.775C163.048 180.726 163.188 180.689 163.33 180.661Z" fill="#FAFAFA"/>
<path d="M160.947 231.047H160.694L159.942 231.086L157.06 231.206C154.557 231.313 150.929 231.419 146.449 231.506C137.489 231.679 125.1 231.686 111.434 231.146C97.7678 230.607 85.4462 229.622 76.4928 228.75C72.0328 228.304 68.4315 227.911 65.9419 227.605L63.0795 227.252L62.3339 227.152L62.081 227.112C62.1672 227.102 62.2543 227.102 62.3406 227.112L63.0861 227.179L65.9552 227.465C68.4448 227.731 72.0594 228.084 76.5195 228.497C85.4395 229.322 97.7812 230.268 111.447 230.82C125.114 231.373 137.489 231.393 146.449 231.279C150.929 231.226 154.55 231.16 157.06 231.093L159.942 231.033H160.947V231.047Z" fill="#FAFAFA"/>
<path d="M138.7 34.4458C138.188 23.0494 122.518 9.98885 111.155 10.9807L77.8708 18.8091V24.9333L77.5513 108.323C77.537 111.159 78.0923 113.97 79.1842 116.589C80.276 119.207 81.8822 121.58 83.9077 123.566C85.9332 125.552 88.3367 127.112 90.9758 128.153C93.615 129.193 96.4362 129.694 99.2723 129.624C104.823 129.488 110.1 127.181 113.969 123.199C117.839 119.216 119.992 113.875 119.968 108.323C119.968 100.068 119.875 93.0652 119.875 93.0652C119.875 93.0652 134.46 90.9084 137.808 71.9899C139.486 62.5839 139.286 47.1069 138.7 34.4458Z" fill="#FFBE9D"/>
<path d="M134.546 46.561C134.541 47.1957 134.289 47.8034 133.842 48.2547C133.396 48.706 132.791 48.9653 132.157 48.9774C131.847 48.9963 131.536 48.953 131.244 48.8502C130.951 48.7474 130.681 48.5871 130.451 48.3788C130.221 48.1704 130.035 47.9182 129.904 47.6369C129.773 47.3556 129.699 47.0509 129.687 46.7408C129.692 46.1061 129.945 45.4984 130.391 45.0471C130.837 44.5958 131.442 44.3365 132.077 44.3244C132.387 44.3036 132.698 44.3456 132.992 44.4477C133.286 44.5498 133.556 44.71 133.786 44.9187C134.017 45.1274 134.203 45.3804 134.333 45.6626C134.464 45.9447 134.536 46.2503 134.546 46.561Z" fill="#263238"/>
<path d="M135.219 42.4339C134.913 42.7467 133.089 41.3488 130.473 41.3089C127.856 41.2689 125.913 42.547 125.633 42.2209C125.493 42.0744 125.813 41.5086 126.658 40.8895C127.805 40.1243 129.161 39.7314 130.539 39.7645C131.902 39.7863 133.223 40.2383 134.313 41.0559C135.106 41.7149 135.372 42.2941 135.219 42.4339Z" fill="#263238"/>
<path d="M108.971 46.5611C108.964 47.1953 108.711 47.802 108.265 48.2529C107.819 48.7039 107.215 48.9637 106.581 48.9775C106.271 48.9973 105.961 48.9547 105.667 48.8522C105.374 48.7497 105.104 48.5895 104.874 48.381C104.644 48.1724 104.458 47.9198 104.327 47.6381C104.196 47.3564 104.123 47.0513 104.112 46.7408C104.113 46.1062 104.364 45.4976 104.81 45.0457C105.255 44.5939 105.86 44.3349 106.495 44.3244C106.805 44.3046 107.116 44.3472 107.41 44.4496C107.704 44.552 107.974 44.7121 108.205 44.9206C108.435 45.129 108.622 45.3816 108.754 45.6633C108.885 45.9451 108.959 46.2503 108.971 46.5611Z" fill="#263238"/>
<path d="M109.47 42.4673C109.164 42.7801 107.34 41.3822 104.724 41.3423C102.108 41.3023 100.164 42.5804 99.8847 42.2542C99.7516 42.1078 100.064 41.542 100.916 40.9229C102.063 40.1572 103.419 39.7664 104.797 39.8045C106.158 39.8263 107.477 40.2784 108.565 41.096C109.357 41.7483 109.624 42.3275 109.47 42.4673Z" fill="#263238"/>
<path d="M118.63 62.0513C118.63 61.9049 120.254 61.6519 122.897 61.3857C123.563 61.3324 124.228 61.2059 124.322 60.7533C124.415 60.3006 124.222 59.5484 123.909 58.7563L122.025 53.6305C119.409 46.3081 117.525 40.317 117.818 40.2371C118.111 40.1573 120.481 45.962 123.09 53.2644C123.72 55.0618 124.322 56.7792 124.894 58.4168C125.134 59.1823 125.56 60.0543 125.194 61.0462C125.093 61.2811 124.94 61.4897 124.746 61.6559C124.552 61.8221 124.323 61.9415 124.075 62.0047C123.704 62.1015 123.321 62.1485 122.937 62.1445C120.281 62.2178 118.637 62.2045 118.63 62.0513Z" fill="#263238"/>
<path d="M119.888 93.0719C110.95 93.0484 102.193 90.5459 94.5926 85.8427C94.5926 85.8427 100.923 98.9831 119.948 97.5452L119.888 93.0719Z" fill="#EB996E"/>
<path d="M109.83 35.644C109.564 36.3496 106.954 35.9702 103.872 36.3097C100.79 36.6492 98.3004 37.4347 97.881 36.789C97.7013 36.4761 98.1473 35.8171 99.1591 35.1381C100.509 34.3147 102.029 33.8095 103.603 33.6607C105.178 33.5119 106.765 33.7235 108.246 34.2794C109.411 34.7387 109.943 35.3045 109.83 35.644Z" fill="#263238"/>
<path d="M135.265 31.7698C134.766 32.4021 132.603 31.9162 130.066 32.0427C127.53 32.1692 125.407 32.7084 124.861 32.1425C124.621 31.8563 124.927 31.2439 125.833 30.6181C127.085 29.8395 128.525 29.414 130 29.3866C131.465 29.3083 132.924 29.6305 134.22 30.3186C135.152 30.8778 135.485 31.4702 135.265 31.7698Z" fill="#263238"/>
<path d="M111.527 8.61752C115.481 14.2225 119.649 20.0139 125.673 23.3023C127.67 24.3807 129.787 25.1596 131.777 26.218C133.768 27.2764 137.409 29.5464 138.507 31.5035C139.606 33.4605 139.399 38.8259 139.399 38.8259C140.478 31.2239 138.461 21.1588 133.142 15.6204C130.452 12.8644 127.179 10.7453 123.563 9.41838C119.947 8.09146 116.081 7.59037 112.246 7.95184" fill="#263238"/>
<path d="M145.251 26.684C145.091 26.7506 144.785 24.3342 142.342 21.5916C140.905 20.0133 139.221 18.68 137.356 17.6441C135.033 16.3907 132.65 15.2554 130.213 14.2425C125.73 12.3315 121.618 9.64798 118.064 6.31431C116.992 5.30717 115.987 4.2309 115.055 3.09243C114.68 2.69745 114.366 2.24873 114.124 1.76108C114.237 1.66789 115.695 3.43859 118.464 5.86165C122.077 9.01113 126.16 11.5761 130.566 13.4637C133.029 14.4881 135.43 15.6573 137.755 16.9651C139.67 18.0733 141.377 19.5058 142.801 21.1988C143.764 22.3426 144.501 23.6598 144.971 25.0797C145.169 25.5907 145.264 26.136 145.251 26.684Z" fill="#455A64"/>
<path d="M119.582 69.2406C119.247 70.2124 118.778 71.1331 118.191 71.9765C117.891 72.3945 117.505 72.7441 117.06 73.0023C116.615 73.2605 116.12 73.4213 115.608 73.4743C115.058 73.4774 114.516 73.341 114.033 73.0779C113.55 72.8149 113.141 72.4336 112.845 71.9699C112.264 71.0324 111.996 69.9344 112.08 68.8345C112.126 67.8493 112.579 66.6644 113.558 66.5513C113.971 66.5369 114.381 66.6285 114.749 66.8175L119.915 68.9078" fill="#EB996E"/>
<path d="M117.518 73.4876C117.518 73.3279 116.36 73.7872 114.763 73.1482C113.861 72.795 113.122 72.1219 112.686 71.2576C112.438 70.7304 112.303 70.157 112.29 69.5746C112.278 68.9921 112.388 68.4135 112.612 67.876C112.733 67.6019 112.885 67.3428 113.065 67.1038C113.271 66.8908 113.231 66.9041 113.458 66.9374C113.684 66.9707 114.004 67.1504 114.283 67.2569L115.129 67.6031C116.234 68.0491 117.239 68.4418 118.084 68.7613C119.775 69.427 120.847 69.7199 120.893 69.6067C120.94 69.4936 119.968 68.9411 118.337 68.1622C117.525 67.7695 116.553 67.3102 115.468 66.8309L114.629 66.4581C114.322 66.31 114.006 66.1789 113.684 66.0654C113.436 65.9831 113.167 65.9831 112.919 66.0654C112.694 66.1609 112.498 66.3149 112.353 66.5114C112.116 66.811 111.919 67.1399 111.767 67.4899C111.487 68.148 111.356 68.86 111.384 69.5747C111.411 70.2895 111.597 70.9892 111.927 71.6237C112.487 72.6497 113.43 73.4128 114.55 73.7473C115.274 73.9779 116.047 74.0078 116.786 73.8338C117.299 73.714 117.538 73.5409 117.518 73.4876Z" fill="#263238"/>
<path d="M105.416 103.223C102.96 97.2723 94.5926 94.2235 94.5526 87.7798C94.5526 84.2117 97.2619 81.2029 97.9409 77.7014C99.7982 68.1024 90.3589 61.0595 88.4151 51.4871C86.7376 43.2194 93.1214 37.7076 98.8995 31.5634C104.678 25.4192 118.204 11.2536 113.052 4.56359C107.021 -3.06506 83.9351 3.23223 76.6393 9.68929C69.3435 16.1463 66.4544 26.1914 65.2363 35.837C64.0181 45.4827 64.0979 55.3946 61.1823 64.6741C57.8539 75.2917 54.5255 85.9758 49.027 95.648C40.3733 110.959 44.4405 112.396 44.4405 112.396C54.1661 113.435 61.3487 116.324 64.1911 122.328C64.6771 123.36 65.3894 125.717 65.8221 126.768C72.3324 142.478 83.1296 153.828 93.1148 156.258C103.1 158.688 103.246 153.395 102.834 143.137C102.634 138.131 99.7449 133.478 99.7782 128.492C99.8448 119.639 108.805 111.385 105.416 103.223Z" fill="#263238"/>
<path d="M87.3034 157.236C86.825 156.899 86.3793 156.518 85.9721 156.098C84.7804 154.917 83.7628 153.572 82.9499 152.104C80.943 148.439 80.245 144.2 80.9711 140.086C81.6972 135.971 83.804 132.227 86.944 129.471C88.5482 128.053 90.4321 126.848 91.8367 125.144C92.5578 124.3 93.0546 123.288 93.2812 122.202C93.4709 121.069 93.4141 119.909 93.1148 118.8C92.5157 116.504 91.2575 114.334 90.2124 111.957C88.041 106.883 87.716 101.209 89.2938 95.9209C90.046 93.1517 91.6836 90.6887 92.7553 88.1059C93.3172 86.8262 93.5791 85.435 93.5208 84.0386C93.4 82.6256 92.9899 81.2525 92.316 80.0046C90.9846 77.4351 89.1074 75.1452 87.4565 72.782C85.7539 70.4881 84.1975 68.0892 82.7968 65.5994C81.4128 63.1739 80.4495 60.5315 79.9477 57.7844C79.4992 55.1213 79.6539 52.3916 80.4004 49.7963C81.8449 44.7305 84.867 40.6432 87.9691 37.2882C91.0711 33.9332 94.3529 31.1573 97.1288 28.4613C99.6796 26.0998 101.961 23.4632 103.932 20.5997C105.406 18.4324 106.546 16.0561 107.314 13.5502C107.932 11.3879 108.199 9.14043 108.106 6.89343C108.215 7.46611 108.268 8.04792 108.266 8.63084C108.287 10.3141 108.063 11.9916 107.6 13.6101C106.871 16.1755 105.748 18.6122 104.271 20.8327C102.317 23.7572 100.037 26.4505 97.475 28.8607C94.7124 31.6033 91.4839 34.3925 88.4151 37.7342C85.3463 41.0759 82.424 45.0966 81.0927 49.976C80.3934 52.4619 80.2548 55.072 80.6866 57.6179C81.1909 60.287 82.1453 62.8509 83.5091 65.2C84.9109 67.6571 86.4673 70.0228 88.1688 72.2828C89.8197 74.6459 91.6836 76.9425 93.1015 79.6052C93.8257 80.9578 94.2673 82.4435 94.3995 83.9721C94.4571 85.4913 94.1728 87.0042 93.5674 88.3988C92.4225 91.1347 90.8448 93.4779 90.1192 96.1406C88.5823 101.244 88.8814 106.725 90.9646 111.631C91.9631 113.954 93.2412 116.164 93.867 118.601C94.19 119.815 94.2423 121.085 94.0201 122.322C93.7603 123.518 93.2093 124.631 92.4158 125.563C90.8848 127.381 88.9676 128.566 87.4033 129.944C85.8877 131.252 84.6048 132.807 83.6089 134.543C81.8727 137.544 81.0362 140.98 81.1992 144.442C81.3533 147.054 82.0588 149.604 83.2694 151.924C85.3064 155.732 87.4432 157.143 87.3034 157.236Z" fill="#455A64"/>
<path d="M73.0047 49.8894C73.0047 49.8894 67.3331 5.4955 93.9602 0.915649L98.114 1.31505C98.114 1.31505 77.032 9.96884 79.8678 46.7474" fill="#F9701F"/>
<path d="M72.0927 67.5165C80.3904 67.5165 87.117 60.3131 87.117 51.4272C87.117 42.5412 80.3904 35.3378 72.0927 35.3378C63.795 35.3378 57.0684 42.5412 57.0684 51.4272C57.0684 60.3131 63.795 67.5165 72.0927 67.5165Z" fill="#F9701F"/>
<path d="M73.2776 35.3378C73.4425 35.344 73.6049 35.3801 73.7569 35.4443C74.2114 35.5754 74.6562 35.7378 75.0883 35.9302C76.6707 36.6145 78.0975 37.6132 79.282 38.8659C81.0094 40.7739 82.2235 43.0897 82.8101 45.5958C83.6503 48.6342 83.6503 51.8436 82.8101 54.882C81.9785 57.9184 80.3488 60.6767 78.0905 62.8701C76.2537 64.6865 73.9495 65.9584 71.4337 66.5447C69.7456 66.9572 67.9777 66.9089 66.3146 66.4049C65.8692 66.2665 65.4405 66.079 65.0366 65.8457C64.757 65.6859 64.6238 65.5861 64.6372 65.5661C64.6505 65.5462 65.2496 65.8457 66.3945 66.1386C68.018 66.5217 69.7115 66.4919 71.3205 66.0521C73.7108 65.4195 75.8878 64.1575 77.6245 62.3975C79.768 60.2658 81.317 57.6107 82.1178 54.6956C82.9102 51.7683 82.9102 48.6829 82.1178 45.7556C81.5833 43.338 80.4633 41.0887 78.856 39.2053C77.7369 37.9624 76.3988 36.9357 74.9085 36.1765C74.3499 35.927 73.8055 35.647 73.2776 35.3378Z" fill="#263238"/>
<path d="M85.1267 59.7681C84.927 59.7681 84.867 58.5765 83.8818 57.7377C82.8966 56.899 81.6984 57.0255 81.6784 56.8324C81.6585 56.6394 81.9314 56.5662 82.4506 56.5329C83.1413 56.5092 83.8159 56.7447 84.3419 57.1931C84.8678 57.6414 85.2071 58.2702 85.2931 58.9559C85.3463 59.4752 85.2132 59.7747 85.1267 59.7681Z" fill="#263238"/>
<path d="M84.5009 54.8221C84.4343 55.0085 83.9684 55.0151 83.4358 55.0018C82.9033 54.9885 82.4373 54.9486 82.3774 54.7555C82.3175 54.5625 82.7968 54.2696 83.4558 54.2895C84.1148 54.3095 84.5675 54.6424 84.5009 54.8221Z" fill="#263238"/>
<path d="M84.4943 41.5286C84.4344 41.7216 83.6955 41.6484 82.89 41.9813C82.0845 42.3141 81.5586 42.84 81.4055 42.7335C81.2524 42.627 81.5653 41.7216 82.6304 41.3156C83.6955 40.9095 84.5875 41.3555 84.4943 41.5286Z" fill="#263238"/>
<path d="M81.4521 32.1159C81.5444 32.0233 81.6498 31.9448 81.765 31.8829L82.6836 31.2904C83.083 31.0375 83.5756 30.7246 84.1281 30.3385C84.6807 29.9524 85.333 29.533 86.012 29.0072C87.3966 28.022 88.9876 26.7705 90.6717 25.306C92.5056 23.701 94.2543 22.0012 95.9106 20.2136C97.5601 18.4135 99.1155 16.5294 100.57 14.5686C101.902 12.7447 103.007 11.0605 103.899 9.59604C104.351 8.87711 104.711 8.19812 105.05 7.59901C105.39 6.99991 105.663 6.49399 105.876 6.07462L106.395 5.10939C106.449 4.99222 106.519 4.88257 106.601 4.7832C106.564 4.90442 106.518 5.02242 106.462 5.13601L105.996 6.13452C105.796 6.56721 105.543 7.0931 105.217 7.68555C104.891 8.278 104.551 8.97696 104.112 9.68258C103.266 11.1604 102.161 12.8778 100.857 14.7151C99.4068 16.6968 97.8513 18.5989 96.1968 20.4133C94.5172 22.2079 92.7393 23.9079 90.8714 25.5057C89.3522 26.8381 87.7634 28.0891 86.1119 29.2535C85.4462 29.7594 84.7805 30.1588 84.1947 30.5316C83.6089 30.9043 83.1296 31.1972 82.7102 31.4369L81.7583 31.9827C81.6608 32.0368 81.5582 32.0814 81.4521 32.1159Z" fill="#455A64"/>
<path d="M147.501 37.4746C147.447 37.4746 147.5 36.7423 147.228 35.4776C146.819 33.6743 146.106 31.9542 145.117 30.3918C143.667 28.0582 141.782 26.0244 139.566 24.4007C138.23 23.4894 136.828 22.6795 135.372 21.9776C133.867 21.2121 132.29 20.4666 130.672 19.6811C127.59 18.2872 124.642 16.6138 121.865 14.6818C119.611 13.0608 117.659 11.0553 116.101 8.75732C115.054 7.20698 114.298 5.47914 113.871 3.65824C113.76 3.16241 113.682 2.65985 113.638 2.15381C113.618 1.97904 113.618 1.8027 113.638 1.62793C113.678 1.79925 113.709 1.97257 113.731 2.14716C113.771 2.48665 113.877 2.98591 114.024 3.62496C114.498 5.41251 115.28 7.10405 116.334 8.62419C117.9 10.8733 119.844 12.8348 122.078 14.4222C124.851 16.3268 127.787 17.9819 130.852 19.3682C132.463 20.147 134.047 20.8993 135.552 21.6714C137.021 22.3866 138.434 23.2122 139.779 24.1411C142.016 25.7906 143.909 27.8621 145.35 30.2387C146.334 31.8315 147.024 33.5879 147.387 35.4243C147.475 35.9257 147.524 36.4331 147.534 36.942C147.535 37.1201 147.524 37.298 147.501 37.4746Z" fill="#455A64"/>
<path d="M72.1659 242.13C72.1659 242.13 67.4263 248.754 66.2481 255.444H164.269L159.117 241.677L72.1659 242.13Z" fill="#263238"/>
<path d="M121.146 187.079L118.73 173.878L96.3965 100.727L95.7974 88.3922L89.4935 69.5735C89.4935 69.5735 82.4573 49.5034 80.5202 49.0041C78.5831 48.5049 77.518 48.1321 77.4581 49.51C77.3982 50.888 82.0512 68.8146 82.0512 68.8146L74.9684 57.9442C74.9684 57.9442 76.1999 44.4975 74.8819 43.6854C73.5639 42.8733 71.3205 43.3126 70.4485 47.5663C69.5765 51.8199 69.1171 60.0144 69.1171 60.0144L72.0528 66.9907L67.8058 60.4538L67.9788 50.3887L68.538 46.1351L66.2814 45.9487L62.8132 50.0359L62.2607 61.4789L66.3413 70.8516L60.3502 64.7341L59.9042 59.9811L60.7163 54.2896C60.7163 54.2896 60.3302 52.226 58.8924 52.9116C57.4545 53.5973 55.0248 57.8643 55.0248 57.8643L54.2925 67.1837L64.058 78.6134L64.1778 79.5387C64.6837 80.7303 71.8331 94.0504 71.8331 94.0504C71.8331 94.0504 72.0128 94.2035 72.1327 94.2967L79.6814 152.124L79.0157 150.753L47.8222 167.481C49.0071 168.812 55.4641 179.19 62.2673 192.357C66.308 200.179 73.1445 206.523 80.1274 211.888C83.7391 214.66 88.0101 216.443 92.5201 217.063C97.0301 217.683 101.624 217.118 105.849 215.423C106.135 215.31 106.415 215.19 106.695 215.064C117.399 210.317 123.257 198.602 121.146 187.079Z" fill="#FFBE9D"/>
<path d="M85.2664 194.028C85.2219 193.869 85.1908 193.707 85.1732 193.542C85.1267 193.183 85.0601 192.717 84.9802 192.138C84.8138 190.88 84.5875 189.122 84.3145 186.965C83.7487 182.565 82.9832 176.548 82.1378 169.898C81.2924 163.247 80.4802 157.203 79.8745 152.843C79.5749 150.686 79.3353 148.935 79.1555 147.677C79.0823 147.091 79.0158 146.626 78.9692 146.273C78.9379 146.108 78.9246 145.941 78.9292 145.773C78.98 145.932 79.0179 146.095 79.0424 146.259C79.1023 146.612 79.1888 147.078 79.2887 147.657C79.5083 148.869 79.7813 150.626 80.1208 152.803C80.7864 157.156 81.6252 163.188 82.4839 169.851C83.3426 176.514 84.0616 182.559 84.5542 186.932C84.7938 189.096 84.9802 190.86 85.12 192.118C85.1732 192.704 85.2199 193.176 85.2531 193.529C85.2752 193.695 85.2797 193.862 85.2664 194.028Z" fill="#EB996E"/>
<path d="M257.31 108.369C257.31 108.369 257.31 108.256 257.31 108.036V107.058C257.31 106.186 257.31 104.921 257.357 103.31C257.357 100.048 257.43 95.3219 257.157 89.5172C256.882 82.6947 256.103 75.9019 254.827 69.1941C254.069 65.2429 253.032 61.3501 251.725 57.5448C250.34 53.4569 248.486 49.5432 246.2 45.8821C243.931 42.2081 241.01 38.9798 237.58 36.3563C234.358 33.952 230.714 32.1749 226.836 31.1175C223.337 30.1203 219.723 29.581 216.085 29.5132C212.916 29.4432 209.754 29.8379 206.699 30.6848C202.264 31.9276 198.168 34.1578 194.717 37.2084C193.783 38.0351 192.907 38.9247 192.094 39.8711C191.815 40.1973 191.608 40.4502 191.475 40.6233L191.269 40.8829C191.323 40.7865 191.383 40.6932 191.448 40.6033C191.568 40.4236 191.768 40.164 192.034 39.8245C192.833 38.8581 193.699 37.9484 194.624 37.1019C198.056 33.9953 202.155 31.7179 206.606 30.4451C208.081 30.0323 209.582 29.7187 211.099 29.5065C212.746 29.2954 214.405 29.1975 216.065 29.2136C219.729 29.2736 223.369 29.8084 226.896 30.8046C230.817 31.8634 234.503 33.6545 237.759 36.0834C241.226 38.7243 244.178 41.9803 246.467 45.6891C248.766 49.3727 250.629 53.3111 252.018 57.425C253.324 61.246 254.358 65.1544 255.114 69.1209C256.373 75.8383 257.127 82.6406 257.37 89.4706C257.61 95.2953 257.53 100.015 257.457 103.277C257.41 104.894 257.377 106.152 257.35 107.024C257.35 107.442 257.337 107.768 257.31 108.003C257.324 108.256 257.31 108.369 257.31 108.369Z" fill="#263238"/>
<path d="M193.89 67.7778C198.296 52.883 195.695 38.9822 188.08 36.7295C180.465 34.4767 170.72 44.7251 166.314 59.6199C161.907 74.5147 164.508 88.4156 172.123 90.6683C179.738 92.921 189.483 82.6726 193.89 67.7778Z" fill="#455A64"/>
<path d="M179.22 83.9521C179.127 83.9521 178.741 77.4018 178.355 69.3072C177.969 61.2126 177.742 54.6624 177.842 54.6624C177.942 54.6624 178.321 61.2126 178.701 69.3072C179.08 77.4018 179.307 83.9454 179.22 83.9521Z" fill="#263238"/>
<path d="M183.394 77.0557C183.358 76.9553 183.34 76.8494 183.34 76.7428C183.34 76.4965 183.287 76.197 183.254 75.8442C183.194 75.0587 183.114 73.927 183.041 72.5158C182.881 69.7133 182.728 65.859 182.675 61.5654C182.622 57.2718 182.675 53.4109 182.775 50.6084C182.815 49.2038 182.861 48.0722 182.908 47.28C182.934 46.925 182.954 46.6254 182.968 46.3814C182.968 46.2753 182.983 46.1699 183.014 46.0685C183.03 46.1722 183.03 46.2777 183.014 46.3814C183.014 46.6277 183.014 46.9272 183.014 47.2867C183.014 48.1254 183.014 49.2438 182.981 50.6151C182.981 53.4175 182.941 57.2718 182.981 61.5654C183.021 65.859 183.147 69.7066 183.241 72.5091C183.287 73.8405 183.327 74.9855 183.354 75.8375C183.354 76.197 183.354 76.5032 183.354 76.7428C183.377 76.8457 183.39 76.9504 183.394 77.0557Z" fill="#263238"/>
<path d="M186.383 68.9744C186.289 68.9744 186.243 63.649 186.289 57.0255C186.336 50.4021 186.449 45.0767 186.542 45.0767C186.636 45.0767 186.682 50.4021 186.636 57.0588C186.589 63.7156 186.476 68.9744 186.383 68.9744Z" fill="#263238"/>
<path d="M191.848 39.1921C191.108 38.5716 190.247 38.1112 189.32 37.8396C188.393 37.5681 187.42 37.4914 186.463 37.6144C185.094 37.7626 183.768 38.1812 182.562 38.8459C179.425 40.6324 176.762 43.143 174.793 46.1684C172.339 49.8368 170.328 53.7829 168.802 57.9242C167.295 62.0735 166.429 66.4281 166.233 70.8383C166.009 74.4355 166.267 78.0465 166.998 81.5757C167.5 83.9452 168.434 86.2019 169.754 88.2324L170.42 89.1377C170.613 89.404 170.826 89.5904 170.972 89.7635L171.318 90.1429C171.363 90.1838 171.401 90.2309 171.432 90.2827C171.432 90.2827 171.385 90.2494 171.298 90.1695L170.926 89.8101C170.718 89.6209 170.522 89.4186 170.34 89.2043C170.127 88.9469 169.887 88.6474 169.621 88.3056C168.237 86.2781 167.258 84.0018 166.739 81.6023C165.965 78.0564 165.678 74.4217 165.886 70.7984C166.067 66.3523 166.932 61.9606 168.449 57.7777C169.985 53.6108 172.017 49.6438 174.5 45.962C176.514 42.9203 179.231 40.4086 182.422 38.6396C183.661 37.9786 185.018 37.5691 186.416 37.4347C187.473 37.331 188.539 37.4535 189.545 37.7941C190.177 38.0144 190.77 38.3335 191.302 38.7394C191.482 38.8792 191.608 38.999 191.695 39.0789C191.781 39.1588 191.855 39.1854 191.848 39.1921Z" fill="#263238"/>
<path d="M233.892 114.706C234.034 114.695 234.176 114.695 234.318 114.706C234.73 114.722 235.141 114.76 235.549 114.82C237.058 115.048 238.514 115.541 239.85 116.277C241.843 117.367 243.527 118.945 244.742 120.864C245.455 121.922 246.114 123.067 246.946 124.146C247.757 125.283 248.867 126.173 250.154 126.715C250.8 126.981 251.493 127.115 252.191 127.108C252.863 127.091 253.517 126.883 254.075 126.509C255.084 125.7 255.738 124.53 255.899 123.247C256.085 122.073 256.194 120.887 256.225 119.699C256.272 118.581 256.292 117.535 256.299 116.577C256.299 114.673 256.225 113.129 256.172 112.064C256.139 111.558 256.119 111.152 256.099 110.832C256.082 110.688 256.082 110.543 256.099 110.399C256.133 110.54 256.157 110.682 256.172 110.825C256.212 111.105 256.252 111.491 256.305 112.05C256.405 113.115 256.512 114.66 256.538 116.577C256.538 117.535 256.538 118.574 256.538 119.712C256.522 120.916 256.422 122.117 256.239 123.307C256.072 124.677 255.374 125.927 254.295 126.788C253.684 127.201 252.968 127.432 252.231 127.454C251.485 127.463 250.745 127.323 250.055 127.041C248.719 126.48 247.567 125.558 246.726 124.379C245.881 123.274 245.222 122.115 244.523 121.05C243.345 119.161 241.713 117.596 239.777 116.497C238.471 115.757 237.051 115.237 235.576 114.959C234.498 114.76 233.892 114.746 233.892 114.706Z" fill="#263238"/>
<path d="M208.716 113.615H196.647C195.449 113.615 194.477 114.586 194.477 115.785V116.024C194.477 117.223 195.449 118.194 196.647 118.194H208.716C209.915 118.194 210.886 117.223 210.886 116.024V115.785C210.886 114.586 209.915 113.615 208.716 113.615Z" fill="#263238"/>
<path d="M202.618 115.905H202.366C201.127 115.905 200.122 116.909 200.122 118.148V125.091C200.122 126.33 201.127 127.334 202.366 127.334H202.618C203.857 127.334 204.862 126.33 204.862 125.091V118.148C204.862 116.909 203.857 115.905 202.618 115.905Z" fill="#263238"/>
<path d="M206.253 52.0862H199.556C194.659 52.0862 190.69 56.056 190.69 60.953V82.9403C190.69 87.8373 194.659 91.8071 199.556 91.8071H206.253C211.15 91.8071 215.12 87.8373 215.12 82.9403V60.953C215.12 56.056 211.15 52.0862 206.253 52.0862Z" fill="#F9701F"/>
<path d="M214.88 71.1445C214.94 71.2177 209.954 75.3582 203.743 80.3907C197.533 85.4232 192.427 89.4506 192.38 89.3774C192.334 89.3041 197.306 85.157 203.524 80.1245C209.741 75.0919 214.82 71.0646 214.88 71.1445Z" fill="#263238"/>
<path d="M213.256 54.7888C213.316 54.8687 208.403 58.916 202.286 63.8354C196.168 68.7547 191.156 72.6822 191.096 72.609C191.036 72.5358 195.948 68.4818 202.066 63.5625C208.184 58.6431 213.176 54.7156 213.256 54.7888Z" fill="#263238"/>
<path d="M206.213 52.1195C206.28 52.1927 202.945 55.0484 198.778 58.4966C194.61 61.9448 191.182 64.6874 191.122 64.6142C191.062 64.541 194.391 61.6786 198.558 58.2304C202.725 54.7822 206.153 52.0463 206.213 52.1195Z" fill="#263238"/>
<path d="M215.253 63.1364C215.186 63.2155 215.11 63.2869 215.027 63.3494L214.361 63.9152L211.772 65.9455L203.218 72.6023L194.69 79.319L192.101 81.316L191.382 81.8552C191.302 81.9218 191.215 81.9798 191.122 82.0283C191.122 82.0283 191.189 81.9417 191.342 81.8019L192.008 81.2095C192.593 80.7036 193.459 79.9846 194.531 79.0993C196.667 77.3286 199.656 74.9122 202.991 72.2961C206.326 69.68 209.388 67.3568 211.645 65.6992C212.757 64.8671 213.642 64.2081 214.308 63.7555L215.047 63.2429C215.18 63.2029 215.253 63.1231 215.253 63.1364Z" fill="#263238"/>
<path d="M215.007 79.6385C214.865 79.8222 214.7 79.9856 214.514 80.1245C214.188 80.424 213.702 80.8501 213.09 81.3626C211.871 82.3878 210.161 83.7657 208.23 85.2369C206.3 86.708 204.516 87.9994 203.204 88.8981C202.539 89.3508 202.013 89.7102 201.633 89.9499C201.45 90.09 201.248 90.2042 201.034 90.2894C201.189 90.1162 201.366 89.964 201.56 89.8367L203.058 88.6984L208.017 84.964L212.936 81.1696L214.428 80.0246C214.603 79.8715 214.798 79.7417 215.007 79.6385Z" fill="#263238"/>
<path d="M198.871 90.0829C198.784 90.1229 196.827 86.4483 194.504 81.8685C192.181 77.2886 190.363 73.5475 190.45 73.5009C190.536 73.4543 192.487 77.1355 194.817 81.7154C197.147 86.2952 198.951 90.0363 198.871 90.0829Z" fill="#263238"/>
<path d="M207.112 89.4838C207.032 89.5371 203.437 83.4928 199.124 75.924C194.81 68.3553 191.289 62.2311 191.362 62.1845C191.435 62.1379 195.043 68.2088 199.39 75.751C203.737 83.2931 207.198 89.4372 207.112 89.4838Z" fill="#263238"/>
<path d="M213.11 87.0741C213.03 87.1207 209.009 79.8116 204.13 70.7517C199.25 61.6919 195.369 54.3095 195.476 54.2629C195.582 54.2163 199.576 61.5254 204.456 70.5853C209.335 79.6451 213.196 87.0275 213.11 87.0741Z" fill="#263238"/>
<path d="M214.887 73.3812C214.807 73.4278 212.091 68.9211 208.816 63.3161C205.541 57.7112 202.965 53.1313 203.045 53.0847C203.124 53.0381 205.847 57.5381 209.115 63.1431C212.384 68.7481 214.973 73.3346 214.887 73.3812Z" fill="#263238"/>
<path d="M189.418 89.6437H216.045V103.536C216.045 104.863 215.783 106.176 215.275 107.401C214.766 108.626 214.021 109.738 213.082 110.675C212.142 111.611 211.027 112.353 209.801 112.857C208.574 113.362 207.26 113.619 205.934 113.615H199.47C196.797 113.615 194.233 112.553 192.343 110.663C190.453 108.773 189.391 106.209 189.391 103.536V89.6437H189.418Z" fill="#F9701F"/>
<path d="M189.418 89.6437H216.045V103.536C216.045 104.863 215.783 106.176 215.275 107.401C214.766 108.626 214.021 109.738 213.082 110.675C212.142 111.611 211.027 112.353 209.801 112.857C208.574 113.362 207.26 113.619 205.934 113.615H199.47C196.797 113.615 194.233 112.553 192.343 110.663C190.453 108.773 189.391 106.209 189.391 103.536V89.6437H189.418Z" fill="#F9701F"/>
<path opacity="0.4" d="M189.418 89.6437H216.045V103.536C216.045 104.863 215.783 106.176 215.275 107.401C214.766 108.626 214.021 109.738 213.082 110.675C212.142 111.611 211.027 112.353 209.801 112.857C208.574 113.362 207.26 113.619 205.934 113.615H199.47C196.797 113.615 194.233 112.553 192.343 110.663C190.453 108.773 189.391 106.209 189.391 103.536V89.6437H189.418Z" fill="black"/>
<path d="M215.186 89.7568C215.186 89.8567 209.502 89.9299 202.492 89.9299C195.482 89.9299 189.804 89.8567 189.804 89.7568C189.804 89.657 195.482 89.5837 202.492 89.5837C209.502 89.5837 215.186 89.6636 215.186 89.7568Z" fill="#263238"/>
<path d="M202.831 49.8163H202.612C201.509 49.8163 200.615 50.7104 200.615 51.8133V89.1511C200.615 90.254 201.509 91.1481 202.612 91.1481H202.831C203.934 91.1481 204.828 90.254 204.828 89.1511V51.8133C204.828 50.7104 203.934 49.8163 202.831 49.8163Z" fill="#F9701F"/>
<path opacity="0.4" d="M202.831 49.8163H202.612C201.509 49.8163 200.615 50.7104 200.615 51.8133V89.1511C200.615 90.254 201.509 91.1481 202.612 91.1481H202.831C203.934 91.1481 204.828 90.254 204.828 89.1511V51.8133C204.828 50.7104 203.934 49.8163 202.831 49.8163Z" fill="black"/>
<path d="M202.831 49.8163H202.612C201.509 49.8163 200.615 50.7104 200.615 51.8133V89.1511C200.615 90.254 201.509 91.1481 202.612 91.1481H202.831C203.934 91.1481 204.828 90.254 204.828 89.1511V51.8133C204.828 50.7104 203.934 49.8163 202.831 49.8163Z" fill="#F9701F"/>
<path opacity="0.4" d="M202.831 49.8163H202.612C201.509 49.8163 200.615 50.7104 200.615 51.8133V89.1511C200.615 90.254 201.509 91.1481 202.612 91.1481H202.831C203.934 91.1481 204.828 90.254 204.828 89.1511V51.8133C204.828 50.7104 203.934 49.8163 202.831 49.8163Z" fill="black"/>
<path d="M215.186 89.7568C215.186 89.8567 209.502 89.9299 202.492 89.9299C195.482 89.9299 189.804 89.8567 189.804 89.7568C189.804 89.657 195.482 89.5837 202.492 89.5837C209.502 89.5837 215.186 89.6636 215.186 89.7568Z" fill="#263238"/>
<path d="M232.92 97.6317C232.34 97.4694 231.737 97.4085 231.136 97.452C230.279 97.5544 229.451 97.826 228.701 98.2511C227.95 98.6762 227.291 99.2463 226.763 99.9283C225.998 100.911 225.41 102.019 225.025 103.203C224.569 104.616 224.204 106.057 223.933 107.517C223.268 110.652 222.642 114.24 222.109 118.234C220.858 127.594 220.508 137.052 221.064 146.479C221.371 151.804 222.043 157.356 222.442 163.121C222.842 168.886 222.948 174.983 221.777 181.094C221.322 184.138 220.184 187.04 218.448 189.582C217.584 190.837 216.446 191.879 215.12 192.63C213.792 193.35 212.268 193.623 210.773 193.409C209.314 193.16 207.956 192.505 206.852 191.519C205.771 190.574 204.891 189.421 204.263 188.13C203.018 185.561 202.758 182.738 202.692 180.082C202.752 169.432 202.918 159.813 203.005 151.745C203.091 143.677 203.204 137.166 203.271 132.646C203.304 130.396 203.337 128.652 203.357 127.454C203.357 126.868 203.357 126.416 203.391 126.123C203.424 125.83 203.391 125.663 203.391 125.663C203.391 125.663 203.391 125.816 203.391 126.123C203.391 126.429 203.391 126.888 203.391 127.454C203.391 128.652 203.391 130.403 203.391 132.646C203.351 137.166 203.304 143.69 203.238 151.751C203.171 159.813 203.038 169.425 202.998 180.076C203.064 182.738 203.331 185.494 204.542 187.984C205.155 189.234 206.01 190.349 207.059 191.266C208.112 192.209 209.412 192.835 210.806 193.07C212.231 193.275 213.683 193.014 214.947 192.324C216.219 191.597 217.309 190.591 218.135 189.382C219.854 186.882 220.987 184.026 221.45 181.028C222.595 174.99 222.489 168.946 222.116 163.174C221.743 157.403 221.058 151.824 220.785 146.492C220.237 137.048 220.61 127.573 221.896 118.201C222.449 114.207 223.108 110.612 223.78 107.477C224.057 106.009 224.433 104.561 224.905 103.144C225.304 101.938 225.91 100.812 226.696 99.8151C227.239 99.128 227.913 98.5565 228.681 98.1346C229.448 97.7127 230.292 97.4489 231.163 97.3588C231.609 97.333 232.057 97.3689 232.494 97.4653L232.92 97.6317Z" fill="#263238"/>
<path d="M238.339 255.437H229.951V90.6088C229.951 89.4965 230.393 88.4298 231.179 87.6434C231.966 86.8569 233.033 86.415 234.145 86.415C235.257 86.415 236.324 86.8569 237.11 87.6434C237.897 88.4298 238.339 89.4965 238.339 90.6088V255.437Z" fill="#263238"/>
<path d="M236.162 91.1615C236.162 91.5564 236.045 91.9425 235.825 92.271C235.606 92.5994 235.294 92.8553 234.929 93.0065C234.564 93.1576 234.163 93.1972 233.775 93.1201C233.388 93.0431 233.032 92.8529 232.753 92.5736C232.473 92.2943 232.283 91.9384 232.206 91.5511C232.129 91.1637 232.169 90.7621 232.32 90.3972C232.471 90.0323 232.727 89.7204 233.055 89.501C233.384 89.2815 233.77 89.1644 234.165 89.1644C234.694 89.1644 235.202 89.3748 235.577 89.7493C235.951 90.1239 236.162 90.6318 236.162 91.1615Z" fill="#455A64"/>
<path d="M267.136 108.369H238.339V111.864H267.136V108.369Z" fill="#263238"/>
<path d="M180.225 93.6444H231.229V97.3589H180.225C179.757 97.3589 179.309 97.173 178.978 96.8422C178.647 96.5114 178.461 96.0627 178.461 95.5948V95.4018C178.463 94.9351 178.649 94.4881 178.98 94.1587C179.311 93.8293 179.758 93.6444 180.225 93.6444Z" fill="#263238"/>
<path d="M248.697 136.541C249.036 134.896 247.365 133.392 245.681 133.259C243.997 133.126 242.419 133.924 240.948 134.763C238.494 136.011 236.191 137.537 234.085 139.31C233.374 139.879 232.816 140.615 232.461 141.453C232.295 141.877 232.259 142.341 232.357 142.785C232.456 143.23 232.684 143.635 233.013 143.95C233.872 144.615 235.137 144.349 236.175 143.989C238.979 143.006 241.659 141.701 244.163 140.102" fill="#FFBE9D"/>
<path d="M244.163 140.102C244.237 140.202 242.646 141.486 239.703 142.951C238.971 143.317 238.152 143.69 237.254 144.049C236.278 144.522 235.215 144.79 234.132 144.835C233.786 144.828 233.447 144.746 233.137 144.593C232.828 144.439 232.556 144.22 232.341 143.949C231.92 143.374 231.739 142.659 231.835 141.952C232.015 140.515 233.06 139.516 233.992 138.704C235.812 137.19 237.792 135.88 239.896 134.796C241.747 133.785 243.617 132.799 245.415 132.879C246.115 132.894 246.797 133.108 247.38 133.498C247.962 133.887 248.422 134.434 248.703 135.076C249.049 136.028 248.703 136.567 248.703 136.534C248.703 136.501 248.75 135.995 248.35 135.242C248.05 134.733 247.619 134.312 247.102 134.024C246.584 133.736 246 133.592 245.408 133.605C243.884 133.605 242.213 134.543 240.362 135.602C238.344 136.699 236.438 137.989 234.671 139.456C233.759 140.228 232.953 141.094 232.84 142.046C232.79 142.254 232.786 142.47 232.829 142.68C232.871 142.89 232.959 143.088 233.086 143.26C233.212 143.432 233.375 143.575 233.563 143.678C233.75 143.781 233.958 143.842 234.172 143.856C235.126 143.809 236.063 143.583 236.934 143.191C237.819 142.871 238.638 142.525 239.384 142.232C242.359 141.021 244.083 139.969 244.163 140.102Z" fill="#EB996E"/>
<path d="M245.029 125.404C241.334 127.115 238.878 128.572 235.177 130.283C233.972 130.842 232.687 131.468 232.048 132.633C231.409 133.798 231.888 135.629 233.2 135.835C233.671 135.867 234.144 135.794 234.584 135.622L246.719 131.874" fill="#FFBE9D"/>
<path d="M246.719 131.874C246.759 131.994 245.029 132.646 242.2 133.611L237.22 135.249L234.245 136.188C233.923 136.297 233.58 136.331 233.242 136.286C232.905 136.241 232.583 136.118 232.301 135.928C232.033 135.714 231.81 135.448 231.647 135.146C231.483 134.844 231.382 134.512 231.349 134.171C231.263 133.506 231.407 132.832 231.755 132.26C232.083 131.747 232.51 131.305 233.013 130.962C233.911 130.401 234.856 129.918 235.836 129.518L240.555 127.254C243.251 125.923 244.989 125.297 245.035 125.404C245.082 125.51 243.458 126.382 240.848 127.827C239.517 128.546 237.979 129.398 236.189 130.27C235.265 130.672 234.375 131.146 233.526 131.688C233.112 131.923 232.772 132.27 232.545 132.689C232.318 133.108 232.212 133.582 232.241 134.058C232.279 134.501 232.49 134.912 232.827 135.202C233.002 135.314 233.201 135.383 233.408 135.404C233.615 135.425 233.824 135.397 234.018 135.322L236.967 134.45L242.007 132.992C244.889 132.194 246.686 131.768 246.719 131.874Z" fill="#EB996E"/>
<path d="M243.165 118.98C239.583 120.924 237.174 122.215 233.586 124.152C232.414 124.785 231.176 125.484 230.617 126.702C230.058 127.92 230.65 129.704 231.948 129.817C232.422 129.826 232.891 129.726 233.319 129.524L245.188 124.998" fill="#FFBE9D"/>
<path d="M245.208 124.998C245.248 125.118 243.571 125.883 240.822 126.995L235.969 128.952L233.073 130.07C232.762 130.203 232.426 130.265 232.088 130.25C231.75 130.235 231.42 130.144 231.123 129.984C230.834 129.797 230.588 129.553 230.397 129.266C230.207 128.98 230.078 128.658 230.018 128.32C229.875 127.668 229.96 126.986 230.257 126.389C230.541 125.851 230.933 125.377 231.409 124.998C232.259 124.366 233.168 123.82 234.125 123.367L238.785 120.97C241.447 119.639 243.118 118.854 243.178 118.973C243.238 119.093 241.674 120.058 239.091 121.543C237.713 122.328 236.182 123.187 234.538 124.112C233.646 124.565 232.796 125.092 231.995 125.69C231.602 125.956 231.292 126.328 231.102 126.763C230.913 127.198 230.85 127.678 230.923 128.146C231.336 130.536 233.945 128.646 235.683 128.18L240.602 126.409C243.398 125.43 245.162 124.885 245.208 124.998Z" fill="#EB996E"/>
<path d="M249.322 142.618C248.723 140.714 246.806 140.674 244.842 141.027C242.879 141.38 241.214 142.645 239.637 143.876L234.93 147.531C234.326 147.957 233.795 148.478 233.359 149.075C233.14 149.367 232.991 149.706 232.924 150.065C232.857 150.424 232.874 150.794 232.973 151.145C233.17 151.575 233.489 151.937 233.89 152.185C234.292 152.434 234.758 152.559 235.23 152.543C236.173 152.488 237.094 152.234 237.933 151.798C241.387 150.26 250.208 146.652 249.322 142.651" fill="#FFBE9D"/>
<path d="M242.266 142.026C242.326 142.106 241.008 143.197 238.845 144.901L235.024 147.87C234.299 148.407 233.709 149.104 233.299 149.907C233.207 150.102 233.151 150.312 233.133 150.526C233.107 150.707 233.132 150.892 233.206 151.059C233.454 151.439 233.808 151.737 234.225 151.918C235.108 152.276 236.09 152.307 236.994 152.004C237.882 151.719 238.744 151.358 239.57 150.926C241.002 150.211 242.375 149.385 243.677 148.456C245.907 146.858 247.099 145.627 247.179 145.714C246.979 146.064 246.723 146.379 246.42 146.645C245.658 147.438 244.839 148.175 243.97 148.849C242.685 149.86 241.31 150.751 239.863 151.512C239.013 151.98 238.121 152.37 237.2 152.676C236.143 153.04 234.989 153.002 233.958 152.57C233.413 152.332 232.95 151.939 232.627 151.438C232.472 151.147 232.411 150.814 232.454 150.486C232.484 150.201 232.56 149.922 232.68 149.661C233.141 148.76 233.809 147.982 234.631 147.391C236.095 146.293 237.433 145.341 238.552 144.535C240.795 142.904 242.213 141.952 242.266 142.026Z" fill="#EB996E"/>
<path d="M250.327 139.849C250.281 139.942 249.768 139.756 248.923 139.623C247.838 139.43 246.723 139.49 245.664 139.797C244.606 140.104 243.632 140.65 242.819 141.393C242.153 141.952 241.847 142.392 241.76 142.332C241.674 142.272 241.873 141.746 242.473 141.047C243.268 140.133 244.31 139.467 245.474 139.13C246.638 138.792 247.875 138.797 249.036 139.143C249.915 139.416 250.367 139.756 250.327 139.849Z" fill="#EB996E"/>
<path d="M262.516 200.272C263.765 200.873 264.88 201.719 265.795 202.76C266.71 203.8 267.406 205.015 267.841 206.33C268.703 208.976 268.947 211.783 268.554 214.538C267.948 219.863 264.926 225.242 261.664 229.496C257.184 225.581 256.152 218.758 255.846 215.257C255.36 209.732 257.843 199.454 262.503 200.272" fill="#F9701F"/>
<path d="M266.889 238.276C266.586 236.753 266.69 235.177 267.19 233.706C267.691 232.236 268.569 230.924 269.739 229.902C270.927 228.908 272.301 228.161 273.781 227.704C275.261 227.247 276.817 227.089 278.359 227.239C279.79 227.345 281.328 227.765 282.147 228.936C282.496 229.509 282.686 230.165 282.696 230.835C282.707 231.506 282.538 232.167 282.207 232.751C281.528 233.913 280.551 234.874 279.378 235.533C275.497 237.976 271.29 239.62 266.889 238.302" fill="#F9701F"/>
<path d="M261.138 254.618C261.163 254.251 261.216 253.886 261.298 253.526C261.444 252.754 261.624 251.762 261.844 250.571C262.336 248.095 262.975 244.58 264.892 241.118C266.476 238.159 268.817 235.673 271.676 233.916C272.545 233.399 273.472 232.988 274.438 232.691C274.7 232.608 274.967 232.542 275.237 232.491C275.423 232.451 275.517 232.438 275.523 232.451C274.24 232.892 273.005 233.46 271.835 234.149C269.071 235.942 266.806 238.406 265.252 241.311C263.375 244.673 262.696 248.168 262.13 250.631C261.864 251.869 261.637 252.874 261.464 253.566C261.39 253.927 261.281 254.279 261.138 254.618Z" fill="#263238"/>
<path d="M261.311 208.274C261.348 208.429 261.365 208.587 261.364 208.746C261.364 209.106 261.411 209.559 261.444 210.124C261.511 211.316 261.577 213.04 261.651 215.177C261.784 219.444 261.897 225.342 261.87 231.859C261.844 238.376 261.677 244.274 261.504 248.541C261.418 250.671 261.331 252.395 261.258 253.586C261.218 254.152 261.191 254.605 261.165 254.958C261.161 255.119 261.141 255.28 261.105 255.437C261.088 255.278 261.088 255.117 261.105 254.958C261.105 254.598 261.105 254.146 261.105 253.58C261.138 252.342 261.178 250.624 261.231 248.527C261.331 244.26 261.451 238.369 261.478 231.885C261.504 225.402 261.444 219.484 261.371 215.243C261.371 213.14 261.311 211.429 261.298 210.184C261.298 209.625 261.298 209.166 261.298 208.813C261.282 208.633 261.287 208.452 261.311 208.274Z" fill="#263238"/>
<path d="M259.134 241.531C258.589 238.302 257.283 235.25 255.324 232.626C253.366 230.002 250.811 227.882 247.871 226.44C246.373 225.721 244.416 225.255 243.211 226.367C242.007 227.479 242.253 229.489 242.859 231.027C244.175 234.243 246.414 236.998 249.294 238.943C252.174 240.888 255.566 241.937 259.041 241.957" fill="#F9701F"/>
<path d="M248.61 231.492C248.94 231.602 249.258 231.743 249.562 231.912C249.934 232.079 250.294 232.27 250.64 232.484C251.099 232.746 251.544 233.033 251.972 233.343C252.517 233.707 253.041 234.1 253.543 234.521C254.124 234.995 254.679 235.499 255.207 236.032C257.652 238.486 259.455 241.504 260.459 244.819C260.676 245.539 260.854 246.27 260.992 247.009C261.116 247.652 261.205 248.301 261.258 248.953C261.309 249.491 261.334 250.031 261.331 250.571C261.356 250.976 261.356 251.383 261.331 251.789C261.324 252.136 261.284 252.481 261.211 252.821C261.125 252.821 261.278 251.336 261.018 248.98C260.949 248.34 260.844 247.704 260.705 247.076C260.56 246.35 260.376 245.632 260.153 244.926C259.631 243.315 258.934 241.766 258.076 240.306C257.192 238.868 256.156 237.529 254.987 236.312C254.435 235.759 253.909 235.234 253.37 234.794C252.83 234.355 252.325 233.949 251.852 233.589C249.921 232.185 248.57 231.566 248.61 231.492Z" fill="#263238"/>
</svg>
