<svg width="91" height="91" viewBox="0 0 91 91" fill="none" xmlns="http://www.w3.org/2000/svg">
<g clip-path="url(#clip0)">
<path opacity="0.5" d="M28.2413 31.7714L31.7715 28.2412L74.5258 48.6378V54.5214H71.7801V72.1722H49.8146L28.2413 31.7714Z" fill="#F9701F"/>
<path d="M19.2198 55.6984L58.8362 28.6338L62.3664 31.7717L41.9698 72.1726H19.2198V55.6984Z" fill="#F9701F"/>
<path d="M89.667 17.3891C90.4033 17.3891 91 16.7923 91 16.0561V4.27833C91 3.54216 90.4033 2.94532 89.667 2.94532L58.6111 2.94515V1.33398C58.6111 0.597809 58.0145 0.000976562 57.2781 0.000976562H33.7223C32.9859 0.000976562 32.3892 0.597809 32.3892 1.33398V2.94532H16.3843C15.6479 2.94532 15.0513 3.54216 15.0513 4.27833C15.0513 5.01451 15.6479 5.61134 16.3843 5.61134H32.3892V7.22268C32.3892 7.95886 32.9859 8.55569 33.7223 8.55569H57.2779C58.0143 8.55569 58.6109 7.95886 58.6109 7.22268V5.61116L88.334 5.61134V14.7231H2.66602V5.61134H11.0759C11.8122 5.61134 12.4089 5.01451 12.4089 4.27833C12.4089 3.54216 11.8122 2.94532 11.0759 2.94532H1.33301C0.596654 2.94532 0 3.54216 0 4.27833V16.0561C0 16.7923 0.596654 17.3891 1.33301 17.3891H2.9447V35.1917C2.9447 35.1929 2.94453 35.194 2.94453 35.195C2.94453 35.1961 2.9447 35.1974 2.9447 35.1984V53.001H1.33301C0.596654 53.001 0 53.5978 0 54.334V89.6676C0 90.4038 0.596654 91.0006 1.33301 91.0006H18.998C18.9986 91.0006 18.9991 91.0006 18.9998 91.0006H33.7223H57.2783H72.0002C72.0007 91.0006 72.0013 91.0006 72.002 91.0006H89.667C90.4033 91.0006 91 90.4038 91 89.6676V54.3338C91 53.5977 90.4033 53.0008 89.667 53.0008H88.0558V17.3891H89.667ZM35.0553 5.88967V2.66699H55.9449V5.88967H35.0553ZM84.3369 36.5282L80.8338 42.2211L77.3305 36.5282H84.3369ZM77.3305 33.8622L80.8336 28.1694L84.3369 33.8622H77.3305ZM84.3369 53.0007H77.3306L80.8338 47.308L84.3369 53.0007ZM82.3989 44.7646L85.3898 39.9045V49.6248L82.3989 44.7646ZM82.3989 25.6258L85.3898 20.7657V30.4862L82.3989 25.6258ZM84.3371 17.3891L80.8336 23.0823L77.3303 17.3891H84.3371ZM76.2779 20.766L79.2685 25.6257L76.2779 30.4854V20.766ZM76.2779 39.9048L79.2685 44.7646L76.2779 49.6244V39.9048ZM13.6697 36.5282L10.1666 42.2211L6.66326 36.5282H13.6697ZM6.66326 33.8622L10.1664 28.1694L13.6697 33.8622H6.66326ZM13.6701 53.0012H6.66308L10.1666 47.308L13.6701 53.0012ZM11.7319 44.7644L14.7226 39.9043V49.6246L11.7319 44.7644ZM11.7317 25.6258L14.7226 20.7657V30.4862L11.7317 25.6258ZM13.6699 17.3891L10.1666 23.0823L6.66308 17.3891H13.6699ZM5.61072 20.766L8.60128 25.6258L5.61072 30.4854V20.766ZM5.61072 39.905L8.60128 44.7646L5.61072 49.6244V39.905ZM17.6668 71.9976C17.6668 71.9989 17.6666 71.9999 17.6666 72.001C17.6666 72.0021 17.6668 72.0033 17.6668 72.0044V77.8858C17.6668 77.887 17.6666 77.8881 17.6666 77.8892C17.6666 77.8902 17.6668 77.8915 17.6668 77.8925V88.335H2.66602V55.6672H17.6668V71.9976ZM55.9451 88.335H35.0551V85.1119H55.9451V88.335ZM70.6672 88.335H58.6113V83.7789C58.6113 83.0427 58.0145 82.4459 57.2783 82.4459H33.7221C32.9857 82.4459 32.3891 83.0427 32.3891 83.7789V88.335H20.3328V79.2223H70.6672V88.335ZM70.6672 76.5563H20.3328V73.3342H70.6672V76.5563ZM44.3015 70.6682L45.5002 69.4695L46.6988 70.6682H44.3015ZM72.0002 53.0007C71.2638 53.0008 70.6672 53.5977 70.6672 54.3338V70.6682H50.4689L46.8332 67.0324V51.9419L49.3872 49.388C49.908 48.8674 49.908 48.0236 49.3874 47.503C48.8668 46.9824 48.0228 46.9822 47.5022 47.503L44.5591 50.4459C44.558 50.4468 44.5571 50.4479 44.5561 50.4489L43.0853 51.9195C42.5645 52.4401 42.5645 53.284 43.0851 53.8045C43.3455 54.0649 43.6866 54.195 44.0278 54.195C44.0742 54.195 44.1208 54.1922 44.167 54.1872V67.0324L40.5313 70.6682H20.3328V54.3344C20.3328 53.5982 19.7362 53.0014 18.9998 53.0014H17.3886V17.3891H24.7758V20.6119H21.9443C21.5908 20.6119 21.2519 20.7524 21.0016 21.0024C20.7517 21.2525 20.6113 21.5914 20.6113 21.9451L20.6115 26.1094C20.6115 26.463 20.7519 26.8021 21.0018 27.052L26.3052 32.3554L26.2069 32.4537C25.6863 32.9743 25.6863 33.8183 26.2069 34.3389C26.4673 34.5993 26.8086 34.7294 27.1496 34.7294C27.4907 34.7294 27.832 34.5993 28.0923 34.3389L29.133 33.2983C29.1332 33.2981 29.1332 33.2981 29.1333 33.2979L33.2976 29.1336C33.2978 29.1334 33.298 29.1332 33.2982 29.1331L34.3385 28.0926C34.859 27.572 34.859 26.728 34.3385 26.2076C33.8177 25.6868 32.9738 25.687 32.4532 26.2076L32.3548 26.3057L27.4418 21.3927V17.3891H63.5585V21.3926L58.6454 26.3057L58.5471 26.2074C58.0264 25.6868 57.1825 25.6868 56.6619 26.2074C56.1413 26.728 56.1413 27.572 56.6619 28.0924L62.9082 34.3387C63.1686 34.5989 63.5098 34.7292 63.8509 34.7292C64.192 34.7292 64.5332 34.5991 64.7936 34.3387C65.3142 33.8181 65.3142 32.9741 64.7936 32.4535L64.6953 32.3552L69.9987 27.0518C70.2486 26.8019 70.389 26.4628 70.389 26.1093L70.3892 21.945C70.3892 21.5914 70.2488 21.2523 69.9989 21.0022C69.7488 20.7524 69.4099 20.6118 69.0562 20.6118H66.2247V17.3891H73.6123V35.1917C73.6123 35.1929 73.6121 35.194 73.6121 35.195C73.6121 35.1961 73.6123 35.1974 73.6123 35.1984V53.0007H72.0002ZM25.5566 23.278L30.4695 28.1909L28.1904 30.4702L23.2775 25.557L23.2773 23.278H25.5566ZM65.4436 23.2778H67.7228L67.7227 25.5569L62.8097 30.47L60.5305 28.1909L65.4436 23.2778ZM88.334 55.6668V88.335H73.3332V55.6668H74.9373C74.9394 55.6668 74.9415 55.6672 74.9437 55.6672C74.946 55.6672 74.9483 55.6668 74.9506 55.6668H86.7175C86.7193 55.6668 86.7209 55.667 86.7226 55.667C86.7244 55.667 86.726 55.6668 86.7278 55.6668H88.334Z" fill="#323334"/>
<path d="M80.8335 57.417C77.2572 57.417 74.3477 60.3265 74.3477 63.9029C74.3477 67.4792 77.2572 70.3889 80.8335 70.3889C84.4099 70.3889 87.3194 67.4792 87.3194 63.9029C87.3194 60.3265 84.4099 57.417 80.8335 57.417ZM80.8335 67.7229C78.7272 67.7229 77.0137 66.0092 77.0137 63.9029C77.0137 61.7965 78.7274 60.083 80.8335 60.083C82.9399 60.083 84.6534 61.7965 84.6534 63.9029C84.6534 66.0092 82.9397 67.7229 80.8335 67.7229Z" fill="#323334"/>
<path d="M80.8336 65.283C81.596 65.283 82.2139 64.6651 82.2139 63.9027C82.2139 63.1404 81.596 62.5225 80.8336 62.5225C80.0713 62.5225 79.4534 63.1404 79.4534 63.9027C79.4534 64.6651 80.0713 65.283 80.8336 65.283Z" fill="#323334"/>
<path d="M80.8335 73.6113C77.2572 73.6113 74.3477 76.5208 74.3477 80.0972C74.3477 83.6736 77.2572 86.5831 80.8335 86.5831C84.4099 86.5831 87.3194 83.6736 87.3194 80.0972C87.3194 76.5208 84.4099 73.6113 80.8335 73.6113ZM80.8335 83.9171C78.7272 83.9171 77.0137 82.2035 77.0137 80.0972C77.0137 77.9909 78.7274 76.2773 80.8335 76.2773C82.9399 76.2773 84.6534 77.9909 84.6534 80.0972C84.6534 82.2035 82.9397 83.9171 80.8335 83.9171Z" fill="#323334"/>
<path d="M80.8336 81.4783C81.596 81.4783 82.2139 80.8604 82.2139 80.0981C82.2139 79.3358 81.596 78.7178 80.8336 78.7178C80.0713 78.7178 79.4534 79.3358 79.4534 80.0981C79.4534 80.8604 80.0713 81.4783 80.8336 81.4783Z" fill="#323334"/>
<path d="M10.1662 57.417C6.58981 57.417 3.6803 60.3265 3.6803 63.9029C3.6803 67.4792 6.58981 70.3889 10.1662 70.3889C13.7426 70.3889 16.6522 67.4792 16.6522 63.9029C16.6522 60.3265 13.7426 57.417 10.1662 57.417ZM10.1662 67.7229C8.06003 67.7229 6.34631 66.0092 6.34631 63.9029C6.34631 61.7965 8.06003 60.083 10.1662 60.083C12.2727 60.083 13.9862 61.7965 13.9862 63.9029C13.9862 66.0092 12.2727 67.7229 10.1662 67.7229Z" fill="#323334"/>
<path d="M10.1663 65.283C10.9286 65.283 11.5466 64.6651 11.5466 63.9027C11.5466 63.1404 10.9286 62.5225 10.1663 62.5225C9.40399 62.5225 8.78601 63.1404 8.78601 63.9027C8.78601 64.6651 9.40399 65.283 10.1663 65.283Z" fill="#323334"/>
<path d="M10.1662 73.6113C6.58981 73.6113 3.6803 76.5208 3.6803 80.0972C3.6803 83.6736 6.58981 86.5831 10.1662 86.5831C13.7426 86.5831 16.6522 83.6736 16.6522 80.0972C16.6522 76.5208 13.7426 73.6113 10.1662 73.6113ZM10.1662 83.9171C8.06003 83.9171 6.34631 82.2035 6.34631 80.0972C6.34631 77.9909 8.06003 76.2773 10.1662 76.2773C12.2727 76.2773 13.9862 77.9909 13.9862 80.0972C13.9862 82.2035 12.2727 83.9171 10.1662 83.9171Z" fill="#323334"/>
<path d="M10.1663 81.4783C10.9286 81.4783 11.5466 80.8604 11.5466 80.0981C11.5466 79.3358 10.9286 78.7178 10.1663 78.7178C9.40399 78.7178 8.78601 79.3358 8.78601 80.0981C8.78601 80.8604 9.40399 81.4783 10.1663 81.4783Z" fill="#323334"/>
</g>
<defs>
<clipPath id="clip0">
<rect width="91" height="91" fill="white"/>
</clipPath>
</defs>
</svg>
