<svg width="382" height="300" viewBox="0 0 382 300" fill="none" xmlns="http://www.w3.org/2000/svg">
<path d="M373.315 283.766H343.282V283.973H373.315V283.766Z" fill="#EBEBEB"/>
<path d="M265.698 286.013H257.818V286.22H265.698V286.013Z" fill="#EBEBEB"/>
<path d="M342.376 276.1H324.975V276.306H342.376V276.1Z" fill="#EBEBEB"/>
<path d="M52.0859 277.488H12.9219V277.694H52.0859V277.488Z" fill="#EBEBEB"/>
<path d="M65.9054 277.488H60.1655V277.694H65.9054V277.488Z" fill="#EBEBEB"/>
<path d="M169.515 280.974H84.5669V281.18H169.515V280.974Z" fill="#EBEBEB"/>
<path d="M180.26 233.629H5.16868C3.79703 233.626 2.48237 233.128 1.51332 232.244C0.544265 231.36 -2.10349e-06 230.161 0 228.911V4.67588C0.0119405 3.4334 0.561476 2.24539 1.52924 1.3699C2.49701 0.494402 3.80484 0.00212842 5.16868 0H180.26C181.633 0 182.95 0.496988 183.921 1.38163C184.892 2.26627 185.438 3.46611 185.438 4.71718V228.911C185.438 230.162 184.892 231.362 183.921 232.247C182.95 233.132 181.633 233.629 180.26 233.629ZM5.16868 0.165226C3.85715 0.167414 2.60016 0.643606 1.67362 1.48928C0.747077 2.33495 0.226694 3.48101 0.226696 4.67588V228.911C0.226694 230.106 0.747077 231.252 1.67362 232.098C2.60016 232.944 3.85715 233.42 5.16868 233.422H180.26C181.572 233.42 182.83 232.944 183.758 232.098C184.686 231.253 185.209 230.107 185.211 228.911V4.67588C185.209 3.48025 184.686 2.33421 183.758 1.48878C182.83 0.643338 181.572 0.16741 180.26 0.165226H5.16868Z" fill="#EBEBEB"/>
<path d="M376.407 233.629H201.307C199.934 233.626 198.619 233.129 197.648 232.245C196.678 231.36 196.131 230.162 196.129 228.911V4.67588C196.143 3.43265 196.695 2.24465 197.664 1.36938C198.633 0.494113 199.942 0.00210521 201.307 0H376.407C377.769 0.00429957 379.075 0.497534 380.04 1.3728C381.006 2.24806 381.555 3.43483 381.566 4.67588V228.911C381.566 230.16 381.023 231.357 380.056 232.241C379.089 233.125 377.777 233.624 376.407 233.629ZM201.307 0.165226C199.994 0.16741 198.736 0.643338 197.808 1.48878C196.88 2.33421 196.358 3.48025 196.356 4.67588V228.911C196.358 230.107 196.88 231.253 197.808 232.098C198.736 232.944 199.994 233.42 201.307 233.422H376.407C377.719 233.42 378.977 232.944 379.905 232.098C380.833 231.253 381.355 230.107 381.358 228.911V4.67588C381.355 3.48025 380.833 2.33421 379.905 1.48878C378.977 0.643338 377.719 0.16741 376.407 0.165226H201.307Z" fill="#EBEBEB"/>
<path d="M98.5318 101.762C95.7026 101.762 92.8825 101.696 90.0534 101.556C85.2021 101.325 80.0787 100.829 75.5448 98.8544C70.5484 96.6734 67.0301 92.7328 66.3772 88.5691L67.284 88.4452C67.9006 92.3445 71.2194 96.0456 75.9438 98.1109C80.3145 100.019 85.3199 100.498 90.0806 100.73C114.373 101.928 138.24 97.8135 166.604 91.2706C170.769 90.3122 174.931 89.3347 179.091 88.3378C199.702 83.4636 221.02 78.4243 242.566 76.5077C272.317 73.8723 297.78 77.7716 318.255 88.0734L317.82 88.7922C297.508 78.5399 272.217 74.6737 242.656 77.2925C221.202 79.1926 199.929 84.232 179.345 89.0978C175.182 90.0809 171.02 91.0723 166.858 92.0306C141.695 97.8713 120.068 101.762 98.5318 101.762Z" fill="#F0F0F0"/>
<path d="M98.5318 108.735C95.7026 108.735 92.8825 108.66 90.0534 108.528C85.2021 108.289 80.0787 107.793 75.5448 105.827C70.5484 103.646 67.0301 99.697 66.3772 95.5333L67.284 95.4176C67.9006 99.3087 71.2194 103.018 75.9438 105.075C80.3145 106.992 85.3199 107.471 90.0806 107.702C114.373 108.892 138.24 104.778 166.604 98.2347C170.766 97.2764 174.928 96.2933 179.091 95.3102C199.702 90.4278 221.02 85.3967 242.566 83.4801C272.317 80.8365 297.78 84.7441 318.255 95.0459L317.82 95.7646C297.508 85.5124 272.217 81.6461 242.656 84.2649C221.202 86.1733 199.919 91.2044 179.345 96.0703C175.179 97.0616 171.017 98.0392 166.858 99.003C141.704 104.835 120.068 108.735 98.5318 108.735Z" fill="#F0F0F0"/>
<path d="M98.5318 115.699C95.7026 115.699 92.8825 115.633 90.0534 115.493C85.2021 115.253 80.0787 114.766 75.5448 112.791C70.5484 110.61 67.0301 106.661 66.3772 102.498L67.284 102.382C67.9006 106.281 71.2194 109.982 75.9438 112.048C80.3145 113.956 85.3199 114.435 90.0806 114.666C114.373 115.856 138.24 111.742 166.604 105.207C170.769 104.244 174.928 103.266 179.082 102.275C199.702 97.4004 221.011 92.361 242.557 90.4444C272.308 87.8091 297.771 91.7084 318.246 102.01L317.811 102.737C297.499 92.485 272.208 88.6104 242.647 91.2375C221.193 93.1376 199.91 98.177 179.326 103.043C175.164 104.026 171.011 105.009 166.849 105.967C141.695 111.8 120.068 115.699 98.5318 115.699Z" fill="#F0F0F0"/>
<path d="M98.5318 122.663C95.7026 122.663 92.8825 122.597 90.0534 122.457C85.2021 122.226 80.0787 121.73 75.5448 119.755C70.5484 117.574 67.0301 113.634 66.3772 109.462L67.284 109.346C67.9006 113.246 71.2194 116.947 75.9438 119.012C80.3145 120.92 85.3199 121.399 90.0806 121.631C114.373 122.82 138.24 118.706 166.604 112.172C170.766 111.213 174.928 110.222 179.091 109.239C199.702 104.365 221.02 99.3253 242.566 97.4087C272.317 94.7733 297.78 98.6727 318.255 109.016L317.82 109.734C297.508 99.4823 272.217 95.6077 242.656 98.2348C221.202 100.135 199.929 105.174 179.345 110.04C175.182 111.023 171.02 112.015 166.858 112.973C141.695 118.772 120.068 122.663 98.5318 122.663Z" fill="#F0F0F0"/>
<path d="M98.5318 129.627C95.7026 129.627 92.8825 129.561 90.0534 129.429C85.2021 129.19 80.0787 128.694 75.5448 126.728C70.5484 124.538 67.0301 120.598 66.3772 116.434L67.284 116.318C67.9006 120.21 71.2194 123.919 75.9438 125.976C80.3145 127.893 85.3199 128.372 90.0806 128.603C114.373 129.793 138.24 125.679 166.604 119.136C170.766 118.177 174.928 117.194 179.091 116.211C199.702 111.329 221.011 106.298 242.566 104.381C272.317 101.737 297.78 105.645 318.255 115.947L317.82 116.665C297.508 106.413 272.217 102.547 242.656 105.166C221.202 107.074 199.919 112.105 179.345 116.971C175.179 117.962 171.017 118.94 166.858 119.904C141.704 125.736 120.068 129.627 98.5318 129.627Z" fill="#F0F0F0"/>
<path d="M359.604 209.258H296.138V272.002H359.604V209.258Z" fill="#E6E6E6"/>
<path d="M359.595 209.258H315.154V272.002H359.595V209.258Z" fill="#F0F0F0"/>
<path d="M338.834 263.467C346.902 262.74 352.796 256.191 351.998 248.84C351.2 241.489 344.012 236.12 335.943 236.847C327.874 237.574 321.981 244.123 322.779 251.474C323.577 258.824 330.765 264.194 338.834 263.467Z" fill="#E6E6E6"/>
<path d="M330.251 224.046C330.251 222.755 330.672 221.493 331.459 220.42C332.246 219.347 333.365 218.51 334.674 218.016C335.983 217.522 337.423 217.393 338.813 217.645C340.202 217.897 341.479 218.518 342.481 219.431C343.482 220.344 344.165 221.506 344.441 222.772C344.717 224.038 344.576 225.351 344.033 226.543C343.491 227.736 342.573 228.755 341.395 229.472C340.217 230.189 338.832 230.572 337.415 230.572C335.515 230.572 333.693 229.885 332.35 228.661C331.006 227.437 330.251 225.777 330.251 224.046Z" fill="#E0E0E0"/>
<path d="M333.344 249.217C333.344 248.464 333.589 247.728 334.049 247.102C334.508 246.475 335.161 245.987 335.925 245.699C336.688 245.411 337.529 245.335 338.34 245.482C339.151 245.629 339.896 245.992 340.48 246.524C341.065 247.057 341.463 247.736 341.624 248.474C341.786 249.213 341.703 249.979 341.386 250.675C341.07 251.371 340.534 251.966 339.847 252.384C339.159 252.802 338.351 253.026 337.524 253.026C336.975 253.027 336.431 252.929 335.923 252.738C335.415 252.547 334.954 252.267 334.566 251.913C334.177 251.559 333.869 251.139 333.66 250.676C333.45 250.214 333.343 249.718 333.344 249.217Z" fill="#FAFAFA"/>
<path d="M95.1497 209.481H31.6838V272.225H95.1497V209.481Z" fill="#E6E6E6"/>
<path d="M76.1337 209.481H20.5115V272.225H76.1337V209.481Z" fill="#F0F0F0"/>
<path d="M73.5221 211.158H22.6697V220.824H73.5221V211.158Z" fill="#FAFAFA"/>
<path d="M73.5221 222.79H22.6697V270.292H73.5221V222.79Z" fill="#E0E0E0"/>
<path d="M28.8183 218.799C30.4059 218.799 31.6928 217.627 31.6928 216.181C31.6928 214.734 30.4059 213.562 28.8183 213.562C27.2308 213.562 25.9438 214.734 25.9438 216.181C25.9438 217.627 27.2308 218.799 28.8183 218.799Z" fill="#E0E0E0"/>
<path d="M56.9287 218.799C58.5163 218.799 59.8033 217.627 59.8033 216.181C59.8033 214.734 58.5163 213.562 56.9287 213.562C55.3412 213.562 54.0542 214.734 54.0542 216.181C54.0542 217.627 55.3412 218.799 56.9287 218.799Z" fill="#E0E0E0"/>
<path d="M36.8881 216.181C36.8881 216.439 36.8041 216.692 36.6467 216.906C36.4893 217.121 36.2655 217.288 36.0037 217.387C35.7419 217.486 35.4538 217.512 35.1759 217.461C34.898 217.411 34.6427 217.287 34.4423 217.104C34.242 216.921 34.1055 216.689 34.0502 216.436C33.995 216.182 34.0233 215.92 34.1318 215.681C34.2402 215.443 34.4238 215.239 34.6594 215.096C34.8951 214.952 35.1721 214.876 35.4554 214.876C35.8354 214.876 36.1998 215.013 36.4685 215.258C36.7372 215.503 36.8881 215.835 36.8881 216.181Z" fill="#E0E0E0"/>
<path d="M44.2421 216.181C44.2439 216.441 44.1609 216.696 44.0036 216.913C43.8462 217.13 43.6217 217.3 43.3584 217.4C43.0951 217.501 42.805 217.528 42.5247 217.479C42.2444 217.429 41.9867 217.304 41.7841 217.121C41.5816 216.938 41.4434 216.704 41.387 216.449C41.3306 216.194 41.3587 215.929 41.4675 215.689C41.5764 215.448 41.7611 215.242 41.9984 215.098C42.2357 214.953 42.5148 214.876 42.8004 214.876C43.1812 214.876 43.5465 215.013 43.8167 215.258C44.0868 215.502 44.2397 215.834 44.2421 216.181Z" fill="#E0E0E0"/>
<path d="M51.5876 216.181C51.5876 216.439 51.5036 216.692 51.3462 216.906C51.1887 217.121 50.965 217.288 50.7032 217.387C50.4414 217.486 50.1533 217.512 49.8754 217.461C49.5975 217.411 49.3422 217.287 49.1418 217.104C48.9414 216.921 48.805 216.689 48.7497 216.436C48.6944 216.182 48.7228 215.92 48.8312 215.681C48.9397 215.443 49.1233 215.239 49.3589 215.096C49.5945 214.952 49.8715 214.876 50.1549 214.876C50.5349 214.876 50.8993 215.013 51.168 215.258C51.4367 215.503 51.5876 215.835 51.5876 216.181Z" fill="#E0E0E0"/>
<path d="M66.2861 218.799C67.8736 218.799 69.1606 217.627 69.1606 216.181C69.1606 214.734 67.8736 213.562 66.2861 213.562C64.6986 213.562 63.4116 214.734 63.4116 216.181C63.4116 217.627 64.6986 218.799 66.2861 218.799Z" fill="#E0E0E0"/>
<path d="M55.9585 243.204H40.2258V247.722H55.9585V243.204Z" fill="#FAFAFA"/>
<path d="M115.08 281.593C93.4988 281.593 80.2234 279.255 79.5252 275.323C79.2713 273.91 80.6587 272.63 83.3246 271.829C99.1934 267.021 81.6652 216.693 81.5111 216.181C79.5071 210.224 76.5691 209.34 73.7037 209.274C70.1763 209.192 67.5466 209.101 65.3703 209.026C61.1939 208.795 57.0059 208.795 52.8295 209.026C52.3306 209.006 51.8342 209.101 51.3869 209.304C50.9396 209.506 50.5561 209.809 50.2723 210.183C49.1751 211.835 50.3539 215.065 50.898 216.164C50.9554 216.31 50.9504 216.471 50.884 216.614C50.8177 216.757 50.6948 216.872 50.5397 216.936C50.3846 217.001 50.2086 217.01 50.0466 216.962C49.8846 216.914 49.7483 216.812 49.6648 216.676C49.565 216.486 47.416 212.108 49.1116 209.547C49.5032 208.998 50.0414 208.548 50.6758 208.24C51.3103 207.933 52.0201 207.777 52.7388 207.787C56.9666 207.555 61.2059 207.555 65.4338 207.787C67.6101 207.862 70.2397 207.952 73.7581 208.035C76.9681 208.109 80.568 209.093 82.8259 215.809C83.5695 217.924 100.962 267.814 83.8052 273.002C81.9191 273.572 80.7766 274.406 80.9126 275.125C81.239 276.959 88.9649 280.437 115.751 280.354C119.793 280.371 123.833 280.167 127.848 279.743C129.857 279.52 131.781 278.874 133.467 277.854C135.153 276.834 136.555 275.47 137.559 273.869C138.601 272.251 139.212 270.433 139.345 268.561C139.477 266.689 139.126 264.815 138.321 263.088C131.974 249.234 120.775 222.054 117.465 195.66C112.714 157.955 130.278 152.462 131.067 152.247C131.239 152.198 131.425 152.213 131.585 152.288C131.745 152.364 131.865 152.495 131.919 152.652C131.947 152.729 131.958 152.811 131.951 152.892C131.943 152.974 131.918 153.053 131.877 153.125C131.835 153.198 131.779 153.262 131.71 153.314C131.641 153.366 131.561 153.405 131.475 153.428C131.303 153.478 114.246 158.938 118.852 195.511C122.162 221.757 133.289 248.813 139.636 262.609C140.518 264.514 140.901 266.58 140.755 268.644C140.608 270.707 139.937 272.711 138.793 274.497C137.682 276.261 136.134 277.765 134.274 278.889C132.413 280.014 130.291 280.727 128.074 280.974C124.002 281.405 119.905 281.612 115.806 281.593H115.08Z" fill="#E0E0E0"/>
<path d="M192.049 300C289.149 300 367.865 295.813 367.865 290.648C367.865 285.483 289.149 281.296 192.049 281.296C94.9477 281.296 16.2319 285.483 16.2319 290.648C16.2319 295.813 94.9477 300 192.049 300Z" fill="#F5F5F5"/>
<path d="M147.371 125.382L147.471 125.894C147.487 125.979 147.538 126.055 147.614 126.106C147.69 126.157 147.785 126.179 147.879 126.167C147.926 126.16 147.971 126.144 148.012 126.121C148.052 126.098 148.087 126.068 148.115 126.033C148.143 125.998 148.163 125.958 148.174 125.916C148.184 125.873 148.186 125.829 148.178 125.787L144.451 106.199C144.537 106.225 144.625 106.244 144.714 106.257H144.796L145.141 106.307C146.954 106.571 150.436 106.612 152.105 103.258C152.611 102.351 152.887 101.351 152.912 100.334C152.926 100.216 152.926 100.096 152.912 99.9784C152.884 99.4849 152.703 99.0086 152.39 98.6049C152.077 98.2013 151.645 97.8869 151.143 97.6983C151.143 97.6983 146.736 97.0539 144.651 100.177C144.006 101.109 143.631 102.175 143.563 103.275C143.395 103.787 143.376 104.331 143.508 104.853L146.147 118.682L147.371 125.382Z" fill="#F9701F"/>
<path d="M82.7898 107.901C82.8608 107.164 82.6632 106.427 82.2276 105.803C81.5178 104.74 80.4097 103.948 79.1082 103.572C78.3638 103.357 77.6788 102.999 77.0998 102.521C76.5209 102.044 76.0616 101.458 75.7531 100.805V100.284C75.7531 100.197 75.7149 100.113 75.6469 100.051C75.5789 99.9887 75.4866 99.9539 75.3904 99.9539C75.2942 99.9539 75.202 99.9887 75.1339 100.051C75.0659 100.113 75.0277 100.197 75.0277 100.284L74.2388 120.111C74.1599 120.071 74.0781 120.035 73.994 120.004H73.9214C73.8217 120.004 73.7129 119.921 73.595 119.888C71.9174 119.293 68.4807 118.6 66.0868 121.541C65.3903 122.336 64.8949 123.261 64.636 124.25C64.6067 124.367 64.5855 124.486 64.5725 124.606C64.4899 125.094 64.56 125.595 64.7749 126.049C64.9898 126.504 65.3407 126.894 65.7876 127.175C65.7876 127.175 69.9497 128.629 72.6973 125.993C73.5541 125.206 74.1781 124.234 74.5108 123.168C74.7866 122.698 74.927 122.172 74.9189 121.64L75.1547 115.659C75.8589 116.526 76.8362 117.177 77.9566 117.526C78.7517 117.77 79.476 118.175 80.0757 118.71C80.6754 119.245 81.135 119.896 81.4206 120.615C81.4462 120.655 81.4818 120.688 81.5244 120.712C81.5669 120.737 81.6153 120.752 81.6654 120.756H81.7289C81.7913 120.748 81.8482 120.719 81.8885 120.674C81.9287 120.63 81.9494 120.574 81.9465 120.516L82.1278 117.278C82.1712 116.54 81.9655 115.808 81.5384 115.179C80.8197 114.089 79.6974 113.269 78.3738 112.866C77.0896 112.474 76.0085 111.665 75.336 110.594L75.4539 107.604C76.1665 108.7 77.2957 109.52 78.6277 109.909C79.4151 110.138 80.1346 110.529 80.7317 111.05C81.3288 111.571 81.7876 112.209 82.0734 112.916C82.0992 112.953 82.1338 112.984 82.1747 113.007C82.2155 113.029 82.2615 113.044 82.3092 113.048H82.3727C82.433 113.037 82.4879 113.009 82.5288 112.967C82.5698 112.925 82.5946 112.872 82.5994 112.817L82.7898 107.901Z" fill="#F9701F"/>
<path d="M126.034 104.77L124.221 91.3458L123.423 85.4308L123.359 85.1416L105.65 87.116V87.4465L106.457 93.3533L108.361 107.629L107.944 107.546C107.111 107.38 106.254 107.33 105.405 107.397C105.072 107.431 104.742 107.484 104.416 107.554C104.077 107.639 103.747 107.749 103.428 107.885C102.294 108.399 101.378 109.242 100.825 110.281C100.192 111.262 99.8604 112.381 99.8643 113.519C99.8649 114.014 100.019 114.499 100.31 114.917C100.6 115.335 101.015 115.67 101.506 115.882C101.506 115.882 105.867 116.708 108.125 113.726C108.716 112.956 109.118 112.08 109.303 111.156C109.487 110.232 109.451 109.282 109.195 108.372L107.164 93.2872L123.432 91.478L125.146 103.961C123.731 103.622 120.258 103.135 118.127 105.795C118.026 105.917 117.932 106.044 117.846 106.175C117.755 106.315 117.665 106.456 117.583 106.604C117.375 106.969 117.19 107.344 117.03 107.728C116.259 109.645 116.685 110.801 117.238 111.454C117.374 111.61 117.529 111.752 117.701 111.875C117.869 112.01 118.058 112.122 118.263 112.206C118.263 112.206 121.818 112.883 124.175 110.809C124.436 110.577 124.673 110.322 124.883 110.049C125.724 108.946 126.177 107.634 126.179 106.29C126.192 105.78 126.143 105.271 126.034 104.77Z" fill="#F9701F"/>
<path d="M311.871 109.049L315.788 98.6731L315.978 98.194L316.704 96.2691L318.835 90.6349L318.916 90.3458L302.041 85.0586L301.914 85.3725L299.801 90.9984L294.66 104.596L294.324 104.357C293.655 103.876 292.909 103.491 292.112 103.217C291.47 102.988 290.788 102.868 290.099 102.862C288.831 102.867 287.602 103.26 286.608 103.977C285.567 104.607 284.731 105.48 284.187 106.505C283.951 106.951 283.858 107.45 283.919 107.942C283.98 108.434 284.192 108.901 284.531 109.289C284.531 109.289 288.049 111.767 291.513 109.983C292.417 109.529 293.201 108.901 293.811 108.144C294.422 107.386 294.844 106.517 295.05 105.596L299.529 93.7329L314.945 98.7475L311.49 107.984C310.384 107.157 307.491 105.29 304.299 106.835C304.154 106.901 304.009 106.984 303.864 107.067C303.719 107.149 303.565 107.248 303.419 107.347C303.051 107.597 302.706 107.874 302.386 108.174C300.763 109.586 300.572 110.792 300.781 111.602C300.824 111.797 300.894 111.985 300.989 112.164C301.076 112.353 301.196 112.529 301.343 112.684C301.343 112.684 304.208 114.708 307.328 113.783C307.672 113.674 308.006 113.539 308.325 113.378C309.614 112.721 310.651 111.721 311.299 110.512C311.545 110.043 311.736 109.553 311.871 109.049ZM299.81 92.9316L300.472 91.1967L315.96 96.0543L315.253 97.9379L299.81 92.9316Z" fill="#F9701F"/>
<g opacity="0.8">
<path opacity="0.8" d="M147.371 125.382L147.471 125.894C147.487 125.979 147.538 126.055 147.614 126.106C147.69 126.157 147.785 126.179 147.879 126.167C147.926 126.16 147.971 126.144 148.012 126.121C148.052 126.098 148.087 126.068 148.115 126.033C148.143 125.998 148.163 125.958 148.174 125.916C148.184 125.873 148.186 125.829 148.178 125.787L144.451 106.199C144.537 106.225 144.625 106.244 144.714 106.257H144.796L145.141 106.307C146.954 106.571 150.436 106.612 152.105 103.258C152.611 102.351 152.887 101.351 152.912 100.334C152.926 100.216 152.926 100.096 152.912 99.9784C152.884 99.4849 152.703 99.0086 152.39 98.6049C152.077 98.2013 151.645 97.8869 151.143 97.6983C151.143 97.6983 146.736 97.0539 144.651 100.177C144.006 101.109 143.631 102.175 143.563 103.275C143.395 103.787 143.376 104.331 143.508 104.853L146.147 118.682L147.371 125.382Z" fill="white"/>
<path opacity="0.8" d="M82.7898 107.901C82.8608 107.164 82.6632 106.427 82.2276 105.803C81.5178 104.74 80.4097 103.948 79.1082 103.572C78.3638 103.357 77.6788 102.999 77.0998 102.521C76.5209 102.044 76.0616 101.458 75.7531 100.805V100.284C75.7531 100.197 75.7149 100.113 75.6469 100.051C75.5789 99.9887 75.4866 99.9539 75.3904 99.9539C75.2942 99.9539 75.202 99.9887 75.1339 100.051C75.0659 100.113 75.0277 100.197 75.0277 100.284L74.2388 120.111C74.1599 120.071 74.0781 120.035 73.994 120.004H73.9214C73.8217 120.004 73.7129 119.921 73.595 119.888C71.9174 119.293 68.4807 118.6 66.0868 121.541C65.3903 122.336 64.8949 123.261 64.636 124.25C64.6067 124.367 64.5855 124.486 64.5725 124.606C64.4899 125.094 64.56 125.595 64.7749 126.049C64.9898 126.504 65.3407 126.894 65.7876 127.175C65.7876 127.175 69.9497 128.629 72.6973 125.993C73.5541 125.206 74.1781 124.234 74.5108 123.168C74.7866 122.698 74.927 122.172 74.9189 121.64L75.1547 115.659C75.8589 116.526 76.8362 117.177 77.9566 117.526C78.7517 117.77 79.476 118.175 80.0757 118.71C80.6754 119.245 81.135 119.896 81.4206 120.615C81.4462 120.655 81.4818 120.688 81.5244 120.712C81.5669 120.737 81.6153 120.752 81.6654 120.756H81.7289C81.7913 120.748 81.8482 120.719 81.8885 120.674C81.9287 120.63 81.9494 120.574 81.9465 120.516L82.1278 117.278C82.1712 116.54 81.9655 115.808 81.5384 115.179C80.8197 114.089 79.6974 113.269 78.3738 112.866C77.0896 112.474 76.0085 111.665 75.336 110.594L75.4539 107.604C76.1665 108.7 77.2957 109.52 78.6277 109.909C79.4151 110.138 80.1346 110.529 80.7317 111.05C81.3288 111.571 81.7876 112.209 82.0734 112.916C82.0992 112.953 82.1338 112.984 82.1747 113.007C82.2155 113.029 82.2615 113.044 82.3092 113.048H82.3727C82.433 113.037 82.4879 113.009 82.5288 112.967C82.5698 112.925 82.5946 112.872 82.5994 112.817L82.7898 107.901Z" fill="white"/>
<path opacity="0.8" d="M126.034 104.77L124.221 91.3458L123.423 85.4308L123.359 85.1416L105.65 87.116V87.4465L106.457 93.3533L108.361 107.629L107.944 107.546C107.111 107.38 106.254 107.33 105.405 107.397C105.072 107.431 104.742 107.484 104.416 107.554C104.077 107.639 103.747 107.749 103.428 107.885C102.294 108.399 101.378 109.242 100.825 110.281C100.192 111.262 99.8604 112.381 99.8643 113.519C99.8649 114.014 100.019 114.499 100.31 114.917C100.6 115.335 101.015 115.67 101.506 115.882C101.506 115.882 105.867 116.708 108.125 113.726C108.716 112.956 109.118 112.08 109.303 111.156C109.487 110.232 109.451 109.282 109.195 108.372L107.164 93.2872L123.432 91.478L125.146 103.961C123.731 103.622 120.258 103.135 118.127 105.795C118.026 105.917 117.932 106.044 117.846 106.175C117.755 106.315 117.665 106.456 117.583 106.604C117.375 106.969 117.19 107.344 117.03 107.728C116.259 109.645 116.685 110.801 117.238 111.454C117.374 111.61 117.529 111.752 117.701 111.875C117.869 112.01 118.058 112.122 118.263 112.206C118.263 112.206 121.818 112.883 124.175 110.809C124.436 110.577 124.673 110.322 124.883 110.049C125.724 108.946 126.177 107.634 126.179 106.29C126.192 105.78 126.143 105.271 126.034 104.77Z" fill="white"/>
<path opacity="0.8" d="M311.871 109.049L315.788 98.6731L315.978 98.194L316.704 96.2691L318.835 90.6349L318.916 90.3458L302.041 85.0586L301.914 85.3725L299.801 90.9984L294.66 104.596L294.324 104.357C293.655 103.876 292.909 103.491 292.112 103.217C291.47 102.988 290.788 102.868 290.099 102.862C288.831 102.867 287.602 103.26 286.608 103.977C285.567 104.607 284.731 105.48 284.187 106.505C283.951 106.951 283.858 107.45 283.919 107.942C283.98 108.434 284.192 108.901 284.531 109.289C284.531 109.289 288.049 111.767 291.513 109.983C292.417 109.529 293.201 108.901 293.811 108.144C294.422 107.386 294.844 106.517 295.05 105.596L299.529 93.7329L314.945 98.7475L311.49 107.984C310.384 107.157 307.491 105.29 304.299 106.835C304.154 106.901 304.009 106.984 303.864 107.067C303.719 107.149 303.565 107.248 303.419 107.347C303.051 107.597 302.706 107.874 302.386 108.174C300.763 109.586 300.572 110.792 300.781 111.602C300.824 111.797 300.894 111.985 300.989 112.164C301.076 112.353 301.196 112.529 301.343 112.684C301.343 112.684 304.208 114.708 307.328 113.783C307.672 113.674 308.006 113.539 308.325 113.378C309.614 112.721 310.651 111.721 311.299 110.512C311.545 110.043 311.736 109.553 311.871 109.049ZM299.81 92.9316L300.472 91.1967L315.96 96.0543L315.253 97.9379L299.81 92.9316Z" fill="white"/>
</g>
<path d="M168.807 194.289C168.807 187.68 179.244 182.384 192.121 182.384C204.997 182.384 215.434 187.713 215.434 194.289H168.807Z" fill="#F9701F"/>
<path d="M168.807 194.289C168.807 187.68 179.244 182.384 192.121 182.384C204.997 182.384 215.434 187.713 215.434 194.289H168.807Z" fill="#F9701F"/>
<g opacity="0.5">
<path opacity="0.5" d="M168.807 194.289C168.807 187.68 179.244 182.384 192.121 182.384C204.997 182.384 215.434 187.713 215.434 194.289H168.807Z" fill="#F9701F"/>
<path opacity="0.5" d="M168.807 194.289C168.807 187.68 179.244 182.384 192.121 182.384C204.997 182.384 215.434 187.713 215.434 194.289H168.807Z" fill="black"/>
</g>
<path d="M216.849 194.289H166.994V208.019H216.849V194.289Z" fill="#F9701F"/>
<path opacity="0.6" d="M216.849 194.289H166.994V208.019H216.849V194.289Z" fill="white"/>
<path d="M168.372 208.019V274.861H170.576L172.471 208.019H168.372Z" fill="#263238"/>
<path d="M215.317 208.019V274.861H213.113L211.209 208.019H215.317Z" fill="#263238"/>
<path d="M203.673 208.019V274.861H201.469L199.574 208.019H203.673Z" fill="#263238"/>
<path d="M184.685 208.019V274.861H182.917L181.021 208.019H184.685Z" fill="#263238"/>
<path opacity="0.2" d="M203.673 208.019V274.861H201.469L199.574 208.019H203.673Z" fill="white"/>
<path opacity="0.2" d="M184.685 208.019V274.861H182.917L181.021 208.019H184.685Z" fill="white"/>
<path d="M191.06 266.5C184.196 266.549 177.336 266.198 170.521 265.451C162.079 264.419 160.937 263.072 160.937 261.882C160.937 260.693 162.079 259.346 170.521 258.314C177.336 257.567 184.196 257.216 191.06 257.264C197.927 257.216 204.79 257.567 211.608 258.314C220.05 259.346 221.183 260.701 221.183 261.882C221.183 263.064 220.05 264.419 211.608 265.451C204.79 266.198 197.927 266.549 191.06 266.5ZM163.938 261.882C166.178 262.956 176.207 264.319 191.042 264.319C205.877 264.319 215.915 262.956 218.146 261.882C215.915 260.808 205.886 259.445 191.042 259.445C176.198 259.445 166.196 260.808 163.938 261.882Z" fill="#F9701F"/>
<g opacity="0.6">
<path opacity="0.6" d="M190.888 266.5C184.021 266.549 177.158 266.198 170.34 265.451C161.898 264.419 160.764 263.072 160.764 261.882C160.764 260.693 161.898 259.346 170.34 258.314C177.158 257.567 184.021 257.216 190.888 257.264C197.754 257.216 204.617 257.567 211.435 258.314C219.877 259.346 221.011 260.701 221.011 261.882C221.011 263.064 219.877 264.419 211.435 265.451C204.617 266.198 197.754 266.549 190.888 266.5ZM163.784 261.882C166.024 262.956 176.053 264.32 190.888 264.32C205.723 264.32 215.752 262.956 217.991 261.882C215.761 260.808 205.732 259.445 190.888 259.445C176.043 259.445 166.014 260.808 163.784 261.882Z" fill="white"/>
</g>
<path d="M188.893 116.087C188.846 116.13 188.803 116.177 188.766 116.228H188.594L188.893 116.087Z" fill="#263238"/>
<path d="M206.657 129.182C206.657 129.182 206.593 129.182 206.575 129.141C206.557 129.099 206.575 129.141 206.575 129.141L206.657 129.182Z" fill="#263238"/>
<path d="M178.446 71.5022C178.1 71.8419 177.857 72.2575 177.739 72.7084C177.687 72.9343 177.717 73.1696 177.825 73.3784C177.933 73.5873 178.113 73.7581 178.338 73.865C178.591 73.9295 178.858 73.9306 179.112 73.868C179.366 73.8055 179.596 73.6817 179.779 73.5097C181.112 72.4853 181.493 70.7752 181.801 69.2139C181.801 69.2139 180.233 69.9656 180.106 70.04C179.498 70.4733 178.942 70.9634 178.446 71.5022Z" fill="#263238"/>
<path d="M186.852 158.162C184.829 164.063 184.468 170.333 185.8 176.395C188.621 188.109 220.449 189.762 234.023 191.48C227.857 212.356 213.875 255.398 213.875 255.398L223.613 256.628C223.613 256.628 251.08 210.729 255.523 190.01C259.604 171.108 211.997 161.326 211.997 161.326L186.852 158.162Z" fill="#F9701F"/>
<path d="M224.048 256.802C226.397 258.801 228.972 260.932 235.972 262.808C237.523 263.212 237.324 266.583 233.579 266.302C229.834 266.021 224.393 265.344 221.691 265.137C217.284 264.799 215.588 264.865 212.106 264.658C211.689 264.62 211.304 264.435 211.036 264.141C210.768 263.847 210.638 263.469 210.673 263.088L211.825 255.909C211.834 255.834 211.859 255.761 211.9 255.694C211.941 255.628 211.996 255.57 212.062 255.524C212.128 255.477 212.204 255.444 212.285 255.425C212.365 255.406 212.45 255.402 212.532 255.414L222.552 256.174C223.113 256.229 223.638 256.449 224.048 256.802Z" fill="#263238"/>
<path d="M225.753 262.081C226.161 261.635 226.016 260.428 225.753 259.429C225.699 259.173 225.635 258.933 225.581 258.727C225.454 258.239 225.336 257.859 225.3 257.76C225.287 257.726 225.264 257.695 225.234 257.672C225.204 257.649 225.167 257.634 225.128 257.628C225.069 257.635 225.013 257.655 224.964 257.686V257.744C224.655 258.448 224.412 259.174 224.239 259.916C224.044 260.525 224.089 261.177 224.366 261.759C224.456 261.893 224.58 262.006 224.729 262.086C224.878 262.167 225.046 262.213 225.218 262.221C225.313 262.24 225.412 262.237 225.505 262.212C225.598 262.188 225.684 262.143 225.753 262.081ZM224.665 261.618C224.411 260.924 224.43 260.17 224.72 259.487C224.827 259.101 224.957 258.72 225.109 258.347C225.182 258.553 225.245 258.776 225.3 258.991C225.527 259.82 225.625 260.674 225.59 261.527C225.582 261.642 225.534 261.752 225.454 261.841C225.428 261.872 225.393 261.897 225.353 261.911C225.313 261.926 225.27 261.93 225.227 261.924C225.118 261.914 225.013 261.881 224.92 261.828C224.827 261.775 224.749 261.703 224.692 261.618H224.665Z" fill="#F9701F"/>
<path d="M228.166 260.23C228.229 260.066 228.252 259.891 228.235 259.717C228.218 259.543 228.16 259.375 228.066 259.223C227.673 258.705 227.125 258.301 226.488 258.058C226.085 257.874 225.663 257.727 225.228 257.62C225.197 257.605 225.163 257.598 225.128 257.598C225.094 257.598 225.059 257.605 225.029 257.62V257.661V257.719V257.785C225.144 258.145 225.305 258.492 225.509 258.818C225.618 259 225.736 259.181 225.863 259.371C226.389 260.098 227.06 260.734 227.586 260.743C227.722 260.784 228.012 260.718 228.166 260.23ZM225.754 258.578C225.654 258.388 225.564 258.198 225.491 258.025C225.727 258.083 225.957 258.158 226.18 258.248C226.793 258.5 227.331 258.883 227.749 259.363C227.863 259.555 227.889 259.781 227.821 259.991V260.082C227.713 260.396 227.577 260.387 227.531 260.379C227.087 260.429 226.253 259.495 225.754 258.578Z" fill="#F9701F"/>
<path d="M173.006 161.351C173.006 161.351 125.409 171.133 129.48 190.01C133.95 210.704 161.417 256.604 161.417 256.604L171.192 255.397C171.192 255.397 157.209 212.356 151.043 191.48C164.645 189.762 196.446 188.109 199.266 176.395C200.599 170.333 200.237 164.063 198.214 158.162L173.006 161.351Z" fill="#F9701F"/>
<path d="M162.487 256.166L172.462 255.406C172.544 255.394 172.629 255.398 172.709 255.417C172.79 255.435 172.866 255.469 172.932 255.515C172.998 255.562 173.053 255.62 173.094 255.686C173.135 255.752 173.16 255.826 173.169 255.901L174.321 263.08C174.356 263.461 174.226 263.839 173.958 264.133C173.69 264.426 173.305 264.612 172.888 264.65C169.406 264.856 167.71 264.79 163.303 265.129C160.583 265.336 155.142 266.005 151.415 266.294C147.689 266.583 147.471 263.204 149.022 262.799C156.022 260.891 158.597 258.793 160.946 256.793C161.368 256.433 161.911 256.212 162.487 256.166Z" fill="#263238"/>
<path d="M200.618 110.272C200.21 108.833 200.446 107.306 201.274 106.027C202.103 104.747 203.455 103.819 205.034 103.448C206.612 103.077 208.289 103.292 209.693 104.046C211.098 104.801 212.116 106.033 212.524 107.471V107.587C213.43 110.544 214.464 113.684 215.543 116.74C216.622 119.797 217.774 122.821 219.007 125.77C220.223 128.664 221.603 131.499 223.142 134.262C223.868 135.552 224.677 136.802 225.563 138.005C226.3 139.07 227.174 140.052 228.166 140.929L227.685 140.599C227.257 140.334 226.766 140.167 226.252 140.111H226.044C226.384 140.118 226.723 140.079 227.05 139.996C228.145 139.751 229.215 139.425 230.251 139.021C232.518 138.195 234.903 137.104 237.288 135.981C239.673 134.857 242.04 133.668 244.443 132.478C246.846 131.288 249.239 130 251.606 128.818H251.661C252.25 128.524 252.93 128.414 253.595 128.505C254.26 128.596 254.873 128.883 255.342 129.322C256.521 130.429 257.963 132.23 256.739 133.312C254.662 135.122 251.098 136.782 248.904 138.426C246.71 140.07 244.461 141.656 242.13 143.185C239.737 144.758 237.245 146.203 234.667 147.514C233.209 148.226 231.693 148.836 230.133 149.339C229.138 149.671 228.103 149.899 227.05 150.017C226.294 150.099 225.53 150.099 224.774 150.017C223.567 149.899 222.408 149.523 221.392 148.918L221.075 148.703L220.921 148.579C219.176 147.256 217.609 145.75 216.251 144.093C215.017 142.597 213.882 141.035 212.85 139.417C210.893 136.352 209.166 133.17 207.681 129.892C206.194 126.695 204.898 123.448 203.719 120.193C203.138 118.541 202.585 116.939 202.05 115.237C201.515 113.535 201.044 111.932 200.572 110.189L200.618 110.272Z" fill="#263238"/>
<path d="M254 133.527L256.72 133.312C256.72 133.312 255.632 128.355 253.619 126.654C252.569 127.559 251.654 128.587 250.899 129.71C250.844 132.593 254 133.527 254 133.527Z" fill="white"/>
<path d="M254.154 127.505C253.697 127.787 253.37 128.213 253.238 128.701C253.106 129.19 253.177 129.705 253.438 130.149L254.263 131.627C254.446 131.956 254.723 132.233 255.064 132.431C255.406 132.629 255.799 132.739 256.203 132.751L263.358 133.015L267.647 128.942C267.929 128.68 268.107 128.339 268.153 127.974C268.199 127.609 268.11 127.241 267.901 126.927L266.414 124.696C266.187 124.348 265.829 124.088 265.406 123.964C264.983 123.841 264.525 123.863 264.119 124.027L260.991 125.266C260.991 125.266 256.475 126.117 254.154 127.505Z" fill="#F9BBB2"/>
<path d="M205.178 101.904C193.753 100.681 182.209 100.681 170.784 101.904H170.612C169.161 102.136 167.871 102.881 167.021 103.977C166.172 105.072 165.833 106.43 166.078 107.753C169.206 124.804 172.425 142.26 172.153 160.848L211.997 161.187C215.788 134.362 213.929 116.576 212.505 108.314C212.195 106.673 211.317 105.165 209.998 104.012C208.68 102.858 206.991 102.119 205.178 101.904Z" fill="#263238"/>
<path d="M131.176 152.834C128.002 141.813 125.336 109.76 170.784 120.656C174.647 121.581 178.51 122.457 182.119 120.904L185.746 119.351C194.46 115.799 204.236 118.525 206.376 125.96L211.173 142.615C213.303 150.05 206.267 156.816 196.755 157.601C196.755 157.601 194.941 157.733 192.756 157.873C188.775 158.129 185.882 160.624 183.017 163.152C149.266 192.984 134.395 164.044 131.176 152.834Z" fill="#F9701F"/>
<path opacity="0.6" d="M131.176 152.834C128.002 141.813 125.336 109.76 170.784 120.656C174.647 121.581 178.51 122.457 182.119 120.904L185.746 119.351C194.46 115.799 204.236 118.525 206.376 125.96L211.173 142.615C213.303 150.05 206.267 156.816 196.755 157.601C196.755 157.601 194.941 157.733 192.756 157.873C188.775 158.129 185.882 160.624 183.017 163.152C149.266 192.984 134.395 164.044 131.176 152.834Z" fill="white"/>
<path opacity="0.5" d="M175.672 145.754L176.805 149.422C177.156 150.557 177.775 151.608 178.62 152.501C179.465 153.394 180.514 154.107 181.695 154.59C182.875 155.073 184.158 155.314 185.452 155.296C186.745 155.278 188.019 155.001 189.183 154.486C191.961 153.288 194.586 151.814 197.009 150.091C201.818 146.639 205.943 142.461 209.205 137.74L175.672 145.754Z" fill="black"/>
<path d="M193.146 138.294C193.516 139.584 193.458 140.946 192.98 142.206C192.501 143.467 191.624 144.57 190.458 145.377C189.292 146.183 187.889 146.657 186.428 146.738C184.967 146.819 183.512 146.504 182.247 145.832C180.982 145.16 179.964 144.162 179.321 142.963C178.679 141.765 178.44 140.42 178.636 139.098C178.832 137.776 179.454 136.537 180.422 135.536C181.39 134.536 182.663 133.82 184.078 133.477C185.02 133.251 186.003 133.195 186.969 133.315C187.935 133.434 188.865 133.726 189.707 134.173C190.55 134.62 191.287 135.215 191.877 135.922C192.467 136.629 192.898 137.435 193.146 138.294Z" fill="#263238"/>
<path d="M262.832 117.216L191.946 134.134L194.359 142.525L265.245 125.607L262.832 117.216Z" fill="#F9701F"/>
<path d="M265.434 126.332L262.732 116.963L281.503 111.255L284.858 122.92L265.434 126.332Z" fill="#F9701F"/>
<path opacity="0.2" d="M265.434 126.332L262.732 116.963L281.503 111.255L284.858 122.92L265.434 126.332Z" fill="white"/>
<path d="M157.91 138.411L152.199 139.774L156.818 155.837L162.529 154.474L157.91 138.411Z" fill="white"/>
<path d="M263.17 118.463L155.765 144.152L155.88 144.552L263.285 118.863L263.17 118.463Z" fill="white"/>
<path d="M263.824 121.875L156.111 147.167L156.224 147.567L263.938 122.275L263.824 121.875Z" fill="white"/>
<path d="M264.28 122.333L156.86 147.971L156.975 148.371L264.395 122.733L264.28 122.333Z" fill="white"/>
<path d="M264.918 125.729L157.204 151.021L157.317 151.421L265.031 126.129L264.918 125.729Z" fill="white"/>
<path d="M279.163 114.89C279.157 115.069 279.087 115.241 278.965 115.381C278.842 115.521 278.673 115.621 278.483 115.666C278.293 115.71 278.091 115.698 277.91 115.629C277.728 115.561 277.576 115.441 277.476 115.287C277.404 115.176 277.362 115.052 277.352 114.925C277.342 114.797 277.364 114.669 277.418 114.55C277.472 114.432 277.555 114.326 277.661 114.242C277.767 114.158 277.893 114.098 278.03 114.066C278.166 114.034 278.308 114.031 278.446 114.058C278.583 114.085 278.712 114.14 278.822 114.22C278.932 114.3 279.02 114.402 279.079 114.519C279.138 114.635 279.167 114.762 279.163 114.89Z" fill="white"/>
<path d="M280.968 121.168C281.017 121.37 280.981 121.582 280.867 121.761C280.753 121.94 280.569 122.073 280.352 122.135C280.129 122.179 279.895 122.145 279.699 122.039C279.502 121.933 279.356 121.764 279.291 121.565C279.261 121.465 279.253 121.361 279.268 121.258C279.283 121.156 279.32 121.057 279.378 120.967C279.435 120.878 279.512 120.8 279.603 120.738C279.694 120.676 279.797 120.631 279.907 120.606C280.129 120.562 280.362 120.595 280.558 120.699C280.755 120.803 280.901 120.971 280.968 121.168Z" fill="white"/>
<path d="M268.798 117.36C268.791 117.537 268.722 117.707 268.601 117.846C268.479 117.984 268.312 118.084 268.124 118.129C267.936 118.174 267.737 118.163 267.557 118.098C267.376 118.032 267.223 117.915 267.121 117.765C267.128 117.588 267.197 117.417 267.318 117.279C267.44 117.14 267.607 117.041 267.795 116.996C267.983 116.95 268.182 116.961 268.363 117.027C268.543 117.092 268.696 117.209 268.798 117.36Z" fill="white"/>
<path d="M270.386 122.879C270.438 123.038 270.436 123.208 270.381 123.366C270.326 123.524 270.22 123.664 270.076 123.766C269.933 123.869 269.759 123.929 269.577 123.94C269.395 123.951 269.214 123.912 269.056 123.827C268.899 123.743 268.774 123.618 268.696 123.467C268.619 123.317 268.593 123.149 268.622 122.985C268.651 122.821 268.733 122.668 268.859 122.548C268.984 122.427 269.147 122.344 269.325 122.309C269.548 122.264 269.781 122.299 269.978 122.404C270.174 122.51 270.32 122.679 270.386 122.879Z" fill="white"/>
<path d="M166.178 103.464C167.554 102.756 169.177 102.557 170.71 102.909C172.243 103.26 173.569 104.136 174.413 105.354C175.257 106.572 175.554 108.039 175.243 109.451C174.932 110.864 174.037 112.113 172.743 112.94C168.1 115.732 163.321 118.723 158.796 121.796C154.298 124.715 150.053 127.946 146.102 131.462C145.648 131.883 145.24 132.288 144.814 132.726L144.224 133.362C144.544 132.915 144.74 132.405 144.796 131.875C144.841 131.417 144.795 130.955 144.66 130.512C144.605 130.319 144.532 130.131 144.442 129.95C144.37 129.818 144.288 129.677 144.197 129.545C144.068 129.327 143.881 129.143 143.653 129.008C143.572 129.008 143.889 129.264 144.306 129.463C145.371 129.943 146.478 130.341 147.616 130.652C148.876 131.024 150.191 131.371 151.533 131.693C156.919 132.957 162.678 133.982 168.318 134.998L168.372 135.039C169.104 135.172 169.758 135.544 170.211 136.085C170.663 136.626 170.884 137.299 170.83 137.977C170.777 138.656 170.453 139.293 169.921 139.77C169.388 140.246 168.682 140.529 167.937 140.566C161.891 140.904 155.825 140.782 149.801 140.202C148.269 140.045 146.718 139.847 145.122 139.583C143.405 139.292 141.719 138.869 140.08 138.319C138.962 137.946 137.903 137.438 136.934 136.807C136.122 136.258 135.425 135.581 134.876 134.808C134.669 134.534 134.49 134.243 134.341 133.94C134.17 133.608 134.033 133.263 133.932 132.908C133.715 132.145 133.66 131.351 133.769 130.57C133.941 129.375 134.44 128.239 135.22 127.265L135.991 126.332C136.508 125.72 137.025 125.109 137.56 124.547C139.617 122.354 141.828 120.284 144.179 118.351C146.419 116.41 148.767 114.617 151.152 112.915C153.537 111.214 155.931 109.57 158.407 108C160.882 106.43 163.321 104.91 166.005 103.431L166.178 103.464Z" fill="#263238"/>
<path d="M181.167 101.234C180.982 101.463 180.888 101.743 180.902 102.027C180.915 102.311 181.034 102.582 181.24 102.796C182.763 104.34 186.816 107.496 194.578 107.496C199.865 107.496 200.482 105.778 199.956 104.25C199.701 103.588 199.282 102.988 198.732 102.498C198.181 102.008 197.514 101.641 196.782 101.424C192.937 100.078 192.248 97.4258 192.556 94.5261C192.632 93.7167 192.771 92.9133 192.973 92.1221L186.399 87.1653L181.593 83.5056C182.872 88.4541 184.259 97.2358 181.167 101.234Z" fill="#F9BBB2"/>
<path d="M196.864 108.264C195.879 108.171 194.928 107.889 194.071 107.438C192.763 108.099 191.354 108.575 189.89 108.851C190.095 108.204 190.45 107.605 190.93 107.093C191.41 106.582 192.005 106.17 192.674 105.885C193.238 106.216 193.73 106.639 194.125 107.132C194.231 106.672 194.461 106.243 194.796 105.885C194.796 105.885 196.8 106.678 196.864 108.264Z" fill="#F9701F"/>
<path d="M181.312 99.6809C180.079 99.86 178.879 100.197 177.748 100.681C177.141 108.322 190.008 111.255 190.008 111.255C190.355 109.29 191.275 107.447 192.674 105.918C184.078 104.258 181.312 99.6809 181.312 99.6809Z" fill="white"/>
<path d="M194.396 100.094C195.554 100.207 196.696 100.426 197.806 100.747C204.226 105.761 197.634 111.255 197.634 111.255C197.18 109.292 196.205 107.459 194.795 105.918C198.667 103.266 194.396 100.094 194.396 100.094Z" fill="white"/>
<path opacity="0.2" d="M186.463 87.1318C186.397 87.8925 186.428 88.6575 186.553 89.4119C186.862 91.692 190.126 94.063 192.583 94.5091C192.659 93.6969 192.798 92.8908 193 92.0968L186.463 87.1318Z" fill="black"/>
<path d="M179.779 71.0474C180.168 69.8577 180.81 68.7495 181.669 67.786C182.528 66.8225 183.586 66.0225 184.785 65.4318C185.983 64.8411 187.297 64.4712 188.652 64.3433C190.007 64.2154 191.377 64.3319 192.683 64.6862C200.78 66.6772 203.619 77.0781 203.02 83.5963C202.899 85.2958 202.27 86.9329 201.202 88.3302C200.133 89.7275 198.665 90.8319 196.957 91.5237C195.249 92.2154 193.365 92.4683 191.511 92.2548C189.656 92.0414 187.901 91.3697 186.435 90.3127C181.901 87.1073 181.303 82.9353 179.625 75.9215C179.208 74.3124 179.262 72.632 179.779 71.0474Z" fill="#F9BBB2"/>
<path d="M179.453 78.284C181.466 77.8296 183.615 79.9362 184.476 81.5389C185.447 83.3068 184.785 85.1326 182.599 84.7773C180.919 84.4808 179.416 83.6346 178.374 82.3981C177.086 80.8202 177.449 78.7466 179.453 78.284Z" fill="#F9BBB2"/>
<path d="M193.39 75.4501C193.816 75.3593 194.234 75.7889 194.297 76.3672C194.36 76.9455 194.134 77.4494 193.717 77.4907C193.3 77.532 192.892 77.1107 192.81 76.5324C192.728 75.9541 192.955 75.541 193.39 75.4501Z" fill="#263238"/>
<path d="M200.573 74.5832C200.99 74.5337 201.416 74.9633 201.48 75.5415C201.543 76.1198 201.307 76.5742 200.89 76.6651C200.473 76.7559 200.074 76.3264 199.984 75.7481C199.893 75.1698 200.147 74.6245 200.573 74.5832Z" fill="#263238"/>
<path d="M198.26 80.6472C198.705 80.7318 199.165 80.726 199.607 80.6303C200.049 80.5347 200.462 80.3514 200.817 80.0937C199.618 78.844 198.606 77.455 197.807 75.9631L198.26 80.6472Z" fill="#ED847E"/>
<path d="M190.325 73.1041C190.627 72.7817 191.009 72.5301 191.44 72.3705C191.871 72.2109 192.338 72.148 192.801 72.1871C192.85 72.1954 192.9 72.1946 192.948 72.1849C192.997 72.1752 193.043 72.1567 193.084 72.1305C193.124 72.1043 193.159 72.071 193.185 72.0324C193.211 71.9939 193.228 71.951 193.236 71.9062C193.249 71.8156 193.224 71.7238 193.165 71.65C193.105 71.5761 193.017 71.5259 192.919 71.5097C192.332 71.4522 191.739 71.526 191.19 71.7246C190.642 71.9233 190.155 72.2409 189.772 72.6497C189.738 72.6812 189.71 72.7185 189.691 72.7596C189.673 72.8008 189.663 72.8448 189.663 72.8893C189.663 72.9338 189.673 72.9779 189.691 73.019C189.71 73.0601 189.738 73.0974 189.772 73.1289C189.82 73.1624 189.876 73.1851 189.935 73.195C190.003 73.2177 190.076 73.2212 190.146 73.205C190.215 73.1888 190.278 73.1536 190.325 73.1041Z" fill="#263238"/>
<path d="M202.739 72.6991C202.771 72.6645 202.794 72.6246 202.808 72.5817C202.822 72.5388 202.827 72.4937 202.822 72.4492C202.817 72.4046 202.802 72.3614 202.779 72.322C202.755 72.2827 202.723 72.248 202.685 72.2199C202.237 71.8507 201.7 71.5834 201.116 71.4398C200.533 71.2963 199.921 71.2805 199.33 71.3938C199.236 71.4206 199.157 71.4794 199.11 71.5579C199.063 71.6365 199.051 71.7286 199.076 71.8151C199.105 71.9006 199.17 71.9724 199.256 72.0156C199.342 72.0587 199.444 72.0697 199.539 72.0465C200.017 71.9559 200.512 71.9686 200.985 72.0833C201.457 72.198 201.893 72.4117 202.259 72.7073C202.306 72.7434 202.362 72.7684 202.422 72.7799C202.482 72.7914 202.545 72.7892 202.603 72.7734C202.654 72.7583 202.701 72.7329 202.739 72.6991Z" fill="#263238"/>
<path d="M169.379 134.312L164.936 136.476C163.059 139.442 169.633 142.259 169.633 142.259L173.26 145.349C173.726 145.747 174.319 146 174.954 146.07C175.588 146.14 176.231 146.023 176.787 145.737L177.739 145.266C178.083 145.087 178.384 144.847 178.625 144.561C178.867 144.275 179.044 143.949 179.147 143.6C179.25 143.252 179.276 142.888 179.224 142.531C179.173 142.173 179.044 141.828 178.846 141.516L176.053 137.08L169.379 134.312Z" fill="#F9BBB2"/>
<path d="M164.337 140.367L166.848 141.425C166.848 141.425 169.016 136.038 168.381 133.453C166.866 133.859 165.413 134.436 164.056 135.171C163.517 135.96 163.255 136.881 163.305 137.809C163.355 138.738 163.715 139.63 164.337 140.367Z" fill="white"/>
<path d="M182.708 62.2656C186.018 60.8612 189.863 60.9934 193.499 61.3651C195.206 61.6276 196.943 61.6887 198.668 61.5469C199.53 61.4703 200.363 61.2201 201.107 60.8143C201.85 60.4086 202.485 59.8574 202.966 59.2007C204.154 62.183 203.873 65.8923 201.343 68.0485C199.457 69.6429 196.718 70.0972 194.143 70.0394C191.568 69.9816 189.029 69.4942 186.462 69.5024C183.325 69.5024 178.256 73.4926 177.603 69.5603C177.095 66.4953 179.834 63.4965 182.708 62.2656Z" fill="#263238"/>
<path d="M186.444 70.9566C186.443 70.8468 186.415 70.7386 186.36 70.6406C186.306 70.5426 186.227 70.4575 186.13 70.3918C186.034 70.3262 185.922 70.2819 185.803 70.2623C185.684 70.2428 185.562 70.2486 185.447 70.2792L179.344 70.9401C178.111 71.2953 177.385 72.8072 177.004 73.9307C176.494 75.3507 176.148 76.8154 175.971 78.3009C175.682 80.4373 176.234 82.5979 177.53 84.3977C178.324 85.178 178.987 86.0604 179.498 87.0165C179.87 88.0244 179.317 89.4288 178.147 89.4949C184.268 92.3038 183.198 87.2396 183.361 84.819C181.257 84.7612 179.625 83.9103 179.19 82.0267C179.102 81.3941 179.174 80.7517 179.398 80.1478C179.623 79.5439 179.995 78.9943 180.487 78.5405C180.722 78.2759 181.059 78.1023 181.429 78.0548C181.799 78.0073 182.175 78.0893 182.481 78.2844C182.364 80.5893 183.769 83.0594 184.966 85.0917L186.308 83.1503C184.694 81.0849 182.418 77.3674 185.202 76.3099C186.426 75.8308 186.435 72.6998 186.444 70.9566Z" fill="#263238"/>
<path d="M199.23 82.8527C199.071 84.0616 198.996 85.2784 199.003 86.4959C198.813 86.4959 198.613 86.562 198.423 86.5785C195.812 86.909 194.469 86.0994 193.771 85.0997C193.435 84.594 193.213 84.0323 193.118 83.4475C193.053 83.1095 193.029 82.766 193.046 82.4231C194.56 83.1666 197.027 83.0757 198.332 82.9601C198.885 82.9105 199.23 82.8527 199.23 82.8527Z" fill="#2E353A"/>
<path d="M198.332 82.9518L198.287 83.4805C198.275 83.6328 198.206 83.7765 198.09 83.8867C197.974 83.9969 197.819 84.0665 197.652 84.0836C195.685 84.2818 194.207 84.1414 193.345 83.6044C193.265 83.5501 193.2 83.4806 193.153 83.4006C193.106 83.3207 193.078 83.2323 193.073 83.1418C193.049 82.8999 193.049 82.6566 193.073 82.4148C194.56 83.1583 197.027 83.0674 198.332 82.9518Z" fill="white"/>
<path d="M198.396 86.5788C195.784 86.9092 194.442 86.0996 193.744 85.1C194.749 84.9969 195.767 85.0928 196.727 85.3809C197.412 85.6045 197.997 86.025 198.396 86.5788Z" fill="#DE5753"/>
<path d="M211.254 255.158L226.524 257.587L228.8 253.44L210.637 250.557L211.254 255.158Z" fill="#F9701F"/>
<path opacity="0.6" d="M211.254 255.158L226.524 257.587L228.8 253.44L210.637 250.557L211.254 255.158Z" fill="white"/>
<path d="M159.586 258.785C160.003 258.289 160.365 257.802 160.538 257.554C160.578 257.504 160.614 257.452 160.646 257.397C160.646 257.397 160.646 257.397 160.646 257.348C160.669 257.294 160.669 257.236 160.646 257.182C160.627 257.158 160.601 257.138 160.571 257.125C160.541 257.112 160.507 257.106 160.474 257.108C160.444 257.101 160.413 257.101 160.384 257.108C160.229 257.108 160.048 257.182 159.858 257.24C158.67 257.554 157.137 258.066 156.702 258.835L156.62 258.917C156.544 259.103 156.52 259.304 156.552 259.5C156.584 259.697 156.669 259.883 156.802 260.041C156.874 260.145 156.975 260.231 157.094 260.29C157.213 260.35 157.346 260.38 157.482 260.379C158.08 260.363 158.924 259.562 159.586 258.785ZM157.427 259.991C157.367 259.986 157.309 259.967 157.259 259.937C157.208 259.907 157.166 259.866 157.137 259.818C157.049 259.714 156.99 259.591 156.968 259.461C156.946 259.331 156.96 259.198 157.01 259.074C157.246 258.57 158.307 258 159.957 257.645C159.214 258.702 158.089 259.999 157.427 259.991Z" fill="#F9701F"/>
<path d="M161.29 260.734C161.698 259.858 161.127 258.371 160.809 257.644C160.746 257.512 160.71 257.421 160.673 257.355C160.673 257.289 160.619 257.248 160.61 257.248C160.603 257.215 160.586 257.185 160.56 257.161C160.534 257.138 160.501 257.122 160.465 257.116C160.435 257.109 160.404 257.109 160.374 257.116L160.283 257.182C160.283 257.256 160.202 257.33 160.166 257.413V257.496C159.946 257.909 159.779 258.344 159.667 258.793C159.368 259.565 159.384 260.409 159.712 261.172C159.824 261.299 159.978 261.389 160.152 261.43C160.325 261.47 160.508 261.458 160.673 261.395C160.821 261.329 160.951 261.237 161.057 261.123C161.164 261.009 161.243 260.877 161.29 260.734ZM160.465 260.974C160.193 261.064 160.084 260.974 160.02 260.907C159.612 260.42 159.921 258.727 160.41 257.776C160.755 258.545 161.245 259.875 160.918 260.585C160.911 260.604 160.911 260.624 160.918 260.643C160.873 260.725 160.809 260.796 160.731 260.853C160.653 260.91 160.562 260.951 160.465 260.974Z" fill="#F9701F"/>
<path d="M158.661 257.545L174.049 255.901L174.938 251.333L156.621 253.291L158.661 257.545Z" fill="#F9701F"/>
<path opacity="0.6" d="M158.661 257.545L174.049 255.901L174.938 251.333L156.621 253.291L158.661 257.545Z" fill="white"/>
<path d="M229.559 93.7851C233.603 90.1008 233.603 84.1272 229.559 80.4429C225.515 76.7585 218.958 76.7585 214.914 80.4429C210.87 84.1272 210.87 90.1008 214.914 93.7852C218.958 97.4695 225.515 97.4695 229.559 93.7851Z" fill="#F9701F"/>
<path opacity="0.6" d="M229.559 93.7851C233.603 90.1008 233.603 84.1272 229.559 80.4429C225.515 76.7585 218.958 76.7585 214.914 80.4429C210.87 84.1272 210.87 90.1008 214.914 93.7852C218.958 97.4695 225.515 97.4695 229.559 93.7851Z" fill="white"/>
<path d="M222.235 97.4089C220.007 97.4089 217.83 96.8071 215.978 95.6797C214.126 94.5523 212.682 92.9498 211.83 91.075C210.978 89.2001 210.755 87.137 211.189 85.1467C211.624 83.1564 212.696 81.3281 214.271 79.8932C215.846 78.4582 217.853 77.481 220.038 77.0851C222.222 76.6892 224.487 76.8924 226.545 77.669C228.603 78.4456 230.362 79.7607 231.599 81.448C232.837 83.1353 233.497 85.1191 233.497 87.1484C233.495 89.869 232.308 92.4775 230.196 94.4013C228.084 96.325 225.221 97.4067 222.235 97.4089ZM222.235 78.5402C220.366 78.5402 218.539 79.0451 216.986 79.9909C215.432 80.9368 214.221 82.2813 213.505 83.8542C212.79 85.4272 212.603 87.158 212.968 88.8278C213.332 90.4976 214.232 92.0315 215.554 93.2354C216.875 94.4392 218.559 95.2591 220.392 95.5913C222.224 95.9234 224.124 95.7529 225.851 95.1014C227.577 94.4499 229.053 93.3465 230.091 91.9309C231.13 90.5153 231.684 88.851 231.684 87.1484C231.681 84.8661 230.685 82.6778 228.914 81.0639C227.142 79.45 224.74 78.5424 222.235 78.5402Z" fill="#263238"/>
<path d="M233.76 88.7429C233.76 89.6334 233.471 90.5039 232.928 91.2443C232.385 91.9847 231.613 92.5618 230.71 92.9026C229.807 93.2433 228.813 93.3325 227.854 93.1588C226.896 92.9851 226.015 92.5562 225.324 91.9266C224.633 91.2969 224.162 90.4946 223.971 89.6213C223.781 88.7479 223.879 87.8426 224.253 87.0199C224.627 86.1972 225.26 85.494 226.073 84.9993C226.886 84.5045 227.841 84.2405 228.818 84.2405C230.129 84.2405 231.386 84.7148 232.313 85.5592C233.24 86.4036 233.76 87.5488 233.76 88.7429Z" fill="#263238"/>
<path d="M228.828 104.175C227.922 104.176 227.029 103.974 226.229 103.586C225.429 103.199 224.746 102.638 224.24 101.953L225.727 101.011C226.066 101.474 226.526 101.854 227.065 102.115C227.605 102.376 228.208 102.51 228.819 102.506C229.43 102.513 230.034 102.378 230.573 102.115C231.112 101.852 231.569 101.47 231.902 101.003C231.968 100.912 232.053 100.834 232.152 100.774C232.251 100.713 232.363 100.671 232.48 100.649C232.597 100.628 232.717 100.627 232.834 100.648C232.952 100.669 233.063 100.711 233.163 100.771C233.262 100.831 233.347 100.909 233.414 100.999C233.481 101.09 233.527 101.191 233.551 101.298C233.574 101.404 233.574 101.514 233.551 101.621C233.528 101.727 233.483 101.829 233.416 101.92C232.911 102.608 232.227 103.172 231.425 103.562C230.623 103.953 229.728 104.157 228.819 104.158L228.828 104.175Z" fill="#263238"/>
<path d="M224.203 89.7427L233.452 89.817L232.545 106.34L232.364 106.439C231.329 107.076 230.108 107.417 228.859 107.417C227.61 107.417 226.389 107.076 225.354 106.439L225.182 106.34L224.203 89.7427Z" fill="#F9701F"/>
<path opacity="0.5" d="M224.203 89.7427L233.452 89.817L232.545 106.34L232.364 106.439C231.329 107.076 230.108 107.417 228.859 107.417C227.61 107.417 226.389 107.076 225.354 106.439L225.182 106.34L224.203 89.7427Z" fill="black"/>
<path d="M233.779 88.7842H223.904V90.1968H233.779V88.7842Z" fill="#F9701F"/>
<path d="M233.779 88.7842H223.904V90.1968H233.779V88.7842Z" fill="#F9701F"/>
<path d="M233.779 88.7842H223.904V90.1968H233.779V88.7842Z" fill="#F9701F"/>
<g opacity="0.8">
<path opacity="0.2" d="M233.779 88.7842H223.904V90.1968H233.779V88.7842Z" fill="white"/>
</g>
<path d="M230.378 95.5334C230.138 95.8156 229.811 96.0261 229.438 96.1378C229.066 96.2495 228.666 96.2574 228.288 96.1605C227.911 96.0635 227.574 95.8662 227.321 95.5937C227.068 95.3212 226.91 94.986 226.867 94.6311C226.824 94.2761 226.898 93.9176 227.081 93.6015C227.263 93.2854 227.545 93.026 227.89 92.8567C228.235 92.6874 228.627 92.6158 229.017 92.6511C229.407 92.6865 229.777 92.8271 230.079 93.055C230.472 93.352 230.723 93.7766 230.779 94.239C230.834 94.7015 230.691 95.1657 230.378 95.5334Z" fill="#F9701F"/>
<path opacity="0.6" d="M230.668 93.7243C230.827 94.0866 230.854 94.486 230.745 94.8634C230.636 95.2408 230.396 95.5761 230.061 95.8198C229.727 96.0635 229.315 96.2026 228.887 96.2165C228.459 96.2304 228.037 96.1184 227.684 95.897C227.496 95.7917 227.338 95.6473 227.222 95.4757C226.975 95.1544 226.849 94.769 226.862 94.377C226.876 93.985 227.028 93.6074 227.296 93.3007C227.564 92.994 227.934 92.7746 228.351 92.6752C228.767 92.5759 229.208 92.602 229.607 92.7495C229.85 92.8332 230.071 92.9636 230.254 93.1318C230.437 93.3 230.578 93.5021 230.668 93.7243Z" fill="white"/>
<path d="M229.689 93.5677C229.691 93.6448 229.668 93.7207 229.622 93.7856C229.576 93.8506 229.51 93.9016 229.433 93.9323C229.355 93.9629 229.269 93.9718 229.186 93.9578C229.102 93.9437 229.026 93.9074 228.965 93.8535C228.904 93.7995 228.863 93.7304 228.846 93.6548C228.829 93.5793 228.836 93.5008 228.868 93.4294C228.9 93.358 228.955 93.2968 229.025 93.2538C229.096 93.2108 229.178 93.1878 229.263 93.1877C229.375 93.1877 229.482 93.2275 229.561 93.2985C229.641 93.3696 229.687 93.4662 229.689 93.5677Z" fill="#F9701F"/>
<path d="M228.6 115.121H227.413C226.509 115.124 225.616 114.943 224.798 114.591C223.981 114.24 223.26 113.726 222.688 113.089C221.796 112.093 221.306 110.847 221.301 109.561V96.5498H223.114V109.561C223.118 110.465 223.464 111.341 224.094 112.04C224.495 112.488 225.001 112.849 225.576 113.097C226.15 113.344 226.777 113.471 227.413 113.469H228.573L228.6 115.121Z" fill="#263238"/>
<path d="M219.823 284.592C219.701 284.593 219.581 284.572 219.469 284.529C219.357 284.486 219.255 284.424 219.17 284.345C219.001 284.19 218.906 283.98 218.906 283.762C218.906 283.544 219.001 283.335 219.17 283.18L227.893 275.497V107.396C227.893 107.177 227.989 106.967 228.159 106.812C228.329 106.657 228.56 106.57 228.8 106.57C229.041 106.57 229.271 106.657 229.441 106.812C229.611 106.967 229.707 107.177 229.707 107.396V275.844C229.708 275.954 229.684 276.064 229.637 276.166C229.59 276.269 229.522 276.361 229.435 276.439L220.43 284.361C220.267 284.505 220.05 284.587 219.823 284.592Z" fill="#263238"/>
<path d="M236.889 284.593C236.764 284.593 236.639 284.57 236.523 284.525C236.408 284.479 236.304 284.412 236.218 284.328L229.735 277.951V283.147C229.735 283.366 229.639 283.576 229.469 283.731C229.299 283.886 229.069 283.973 228.828 283.973C228.588 283.973 228.357 283.886 228.187 283.731C228.017 283.576 227.921 283.366 227.921 283.147V275.844C227.922 275.679 227.977 275.517 228.08 275.381C228.182 275.244 228.327 275.139 228.496 275.078C228.665 275.017 228.851 275.005 229.028 275.041C229.205 275.077 229.366 275.161 229.49 275.282L237.551 283.205C237.633 283.284 237.697 283.378 237.74 283.48C237.782 283.582 237.801 283.691 237.797 283.8C237.793 283.909 237.765 284.016 237.715 284.116C237.665 284.215 237.594 284.304 237.506 284.378C237.337 284.518 237.117 284.594 236.889 284.593Z" fill="#263238"/>
<path d="M292.583 48.237C292.585 48.9595 292.351 49.6663 291.912 50.2678C291.473 50.8694 290.847 51.3387 290.115 51.6163C289.383 51.894 288.577 51.9675 287.799 51.8275C287.02 51.6876 286.305 51.3404 285.744 50.8301C285.183 50.3198 284.8 49.6692 284.645 48.9606C284.489 48.2521 284.568 47.5175 284.871 46.8498C285.174 46.1821 285.688 45.6113 286.347 45.2097C287.007 44.8081 287.782 44.5938 288.575 44.5938C289.636 44.5937 290.654 44.9773 291.406 45.6603C292.157 46.3433 292.581 47.27 292.583 48.237Z" fill="#F9701F"/>
<path d="M65.4246 56.3338H64.0645V38.5803H83.5422V39.8195H65.4246V56.3338Z" fill="#F9701F"/>
<path d="M83.5422 165.316H64.0645V147.571H65.4246V164.077H83.5422V165.316Z" fill="#F9701F"/>
<path d="M320.349 56.3338H318.988V39.8195H300.862V38.5803H320.349V56.3338Z" fill="#F9701F"/>
<path d="M320.349 165.316H300.862V164.077H318.988V147.571H320.349V165.316Z" fill="#F9701F"/>
<path d="M58.2698 33.1604V170.818H325.826V33.1604H58.2698ZM324.438 169.579H59.6572V34.3996H324.438V169.579Z" fill="#F9701F"/>
<path opacity="0.5" d="M58.2698 33.1604V170.818H325.826V33.1604H58.2698ZM324.438 169.579H59.6572V34.3996H324.438V169.579Z" fill="white"/>
<path d="M298.703 49.7909H297.878V52.0462H296.137V45.115H299.184C299.527 45.1139 299.867 45.1747 300.184 45.2939C300.502 45.4131 300.79 45.5883 301.033 45.8094C301.276 46.0306 301.468 46.2933 301.599 46.5825C301.73 46.8716 301.796 47.1815 301.795 47.4942C301.787 47.9144 301.651 48.3242 301.403 48.6784C301.155 49.0327 300.804 49.3176 300.39 49.5017L302.013 52.0462H300.136L298.703 49.7909ZM297.878 48.403H299.184C299.42 48.3736 299.637 48.267 299.795 48.1029C299.952 47.9389 300.038 47.7285 300.038 47.5108C300.038 47.293 299.952 47.0827 299.795 46.9186C299.637 46.7546 299.42 46.648 299.184 46.6186H297.878V48.403Z" fill="#263238"/>
<path d="M307.726 50.5427V52.0462H302.938V45.115H307.671V46.6433H304.679V47.7916H307.399V49.2952H304.679V50.5261L307.726 50.5427Z" fill="#263238"/>
<path d="M308.434 48.6009C308.42 48.1234 308.513 47.6483 308.707 47.2047C308.902 46.761 309.193 46.358 309.564 46.0203C309.934 45.6825 310.377 45.4171 310.864 45.2401C311.351 45.063 311.872 44.9782 312.396 44.9907C313.044 44.9829 313.683 45.1261 314.252 45.4066C314.822 45.6871 315.304 46.0956 315.652 46.5934L314.155 47.4195C313.968 47.1531 313.706 46.9365 313.397 46.7915C313.089 46.6464 312.743 46.5781 312.396 46.5934C311.795 46.5934 311.218 46.811 310.793 47.1983C310.368 47.5856 310.129 48.111 310.129 48.6587C310.129 49.2065 310.368 49.7318 310.793 50.1191C311.218 50.5065 311.795 50.7241 312.396 50.7241C312.744 50.7419 313.09 50.6748 313.399 50.5295C313.709 50.3842 313.97 50.1661 314.155 49.8979L315.652 50.7241C315.307 51.2246 314.826 51.6353 314.256 51.9162C313.685 52.1971 313.045 52.3385 312.396 52.3267C311.861 52.3415 311.327 52.2542 310.831 52.0707C310.334 51.8871 309.885 51.6112 309.512 51.2605C309.139 50.9099 308.851 50.4923 308.665 50.0343C308.479 49.5764 308.401 49.0882 308.434 48.6009Z" fill="#263238"/>
</svg>
