<svg width="392" height="276" viewBox="0 0 392 276" fill="none" xmlns="http://www.w3.org/2000/svg">
<mask id="mask0" mask-type="alpha" maskUnits="userSpaceOnUse" x="0" y="0" width="392" height="276">
<rect width="392" height="276" fill="#C4C4C4"/>
</mask>
<g mask="url(#mask0)">
<path d="M169.866 105.645C167.405 111.624 152.92 111.212 137.744 104.954C122.568 98.6968 112.247 88.7763 114.707 82.7972C115.286 81.4166 116.934 76.2392 118.582 75.5266C124.238 73.1328 135.005 78.5106 146.662 83.3205C157.518 87.7742 169.933 90.6802 171.859 96.5702C173.017 100.155 170.567 103.941 169.866 105.645Z" fill="#F9701F"/>
<path opacity="0.2" d="M171.859 96.5702C172.783 101.258 170.745 103.507 169.866 105.645C168.986 107.782 166.414 109.185 162.818 109.675C162.368 109.752 161.915 109.804 161.46 109.831C158.702 109.993 155.935 109.847 153.209 109.397C152.819 109.397 152.43 109.274 152.029 109.207C148.83 108.633 145.677 107.822 142.598 106.78L141.485 106.402C140.249 105.967 138.98 105.489 137.71 104.965C136.441 104.442 135.239 103.852 134.047 103.329L133.023 102.839C130.216 101.451 127.511 99.8657 124.928 98.0956L124.015 97.4498C121.761 95.8561 119.695 94.0108 117.858 91.9495C117.58 91.6378 117.324 91.3371 117.079 91.0254C114.685 87.9969 113.739 85.102 114.685 82.7972C115.308 81.3164 116.645 76.2504 118.56 75.5155C120.915 74.8519 123.408 74.8519 125.763 75.5155L126.877 75.7827C132.444 77.2079 139.458 80.3811 146.618 83.3317C155.057 86.8167 165.045 90.4353 169.944 94.6106C170.235 94.8559 170.514 95.1161 170.779 95.39C171.17 95.754 171.531 96.1486 171.859 96.5702V96.5702Z" fill="black"/>
<g opacity="0.2">
<path opacity="0.2" d="M127.434 74.8253L126.921 75.7606L117.88 91.9385C117.602 91.6268 117.346 91.3261 117.101 91.0144L125.786 75.4934L126.465 74.2909L127.434 74.8253Z" fill="black"/>
</g>
<g opacity="0.2">
<path opacity="0.2" d="M134.27 81.4278L124.951 98.129L124.038 97.4833L133.301 80.9156L134.27 81.4278Z" fill="black"/>
</g>
<g opacity="0.2">
<path opacity="0.2" d="M151.405 91.0032L142.598 106.78L141.485 106.402L150.392 90.4131L151.405 91.0032Z" fill="black"/>
</g>
<g opacity="0.2">
<path opacity="0.2" d="M143.433 86.5496L134.07 103.329L133.045 102.839L142.465 85.9595L143.433 86.5496Z" fill="black"/>
</g>
<g opacity="0.2">
<path opacity="0.2" d="M161.793 94.054L153.209 109.397C152.819 109.397 152.43 109.274 152.029 109.208L160.814 93.4973L161.793 94.054Z" fill="black"/>
</g>
<path d="M171.792 100.434C169.331 106.413 155.024 106.179 139.837 99.9105C124.65 93.642 114.34 83.7326 116.812 77.7535C119.283 71.7745 133.58 72.0194 148.767 78.2768C163.954 84.5342 174.253 94.4213 171.792 100.434Z" fill="#F9701F"/>
<path opacity="0.2" d="M166.626 98.2627C164.889 102.483 153.733 101.892 141.719 96.9377C129.705 91.983 121.377 84.5343 123.114 80.3144C124.851 76.0946 136.007 76.6847 148.032 81.6394C160.057 86.5941 168.374 94.0428 166.626 98.2627Z" fill="white"/>
<path d="M246.602 51.5994C250.566 56.71 243.017 69.0801 230.024 79.1342C217.03 89.1883 203.302 93.1966 199.349 88.0415C198.436 86.8613 194.74 82.9087 194.962 81.0604C195.708 74.97 205.718 68.3118 215.694 60.5847C224.98 53.392 233.653 44.0616 239.722 45.3198C243.407 46.1326 245.478 50.152 246.602 51.5994Z" fill="#F9701F"/>
<path opacity="0.2" d="M239.721 45.3643C244.253 46.9008 245.188 49.8179 246.602 51.5994C248.016 53.3808 247.961 56.3537 246.602 59.7273C246.447 60.1393 246.257 60.5512 246.057 60.9743C244.837 63.4496 243.343 65.7801 241.603 67.9221C241.369 68.2338 241.113 68.5344 240.857 68.8462C238.763 71.3435 236.485 73.6807 234.043 75.8384L233.186 76.5844C232.195 77.4418 231.148 78.2991 230.068 79.1341C228.988 79.9692 227.908 80.7597 226.817 81.5057C226.516 81.7284 226.193 81.9399 225.893 82.1515C223.291 83.8966 220.568 85.452 217.743 86.8056C217.397 86.9837 217.063 87.1285 216.741 87.2843C214.23 88.4455 211.597 89.3195 208.891 89.8897C208.49 89.9788 208.1 90.0456 207.711 90.1013C203.892 90.6691 200.908 90.1013 199.382 88.086C198.403 86.8167 194.673 83.1313 194.996 81.116C195.578 78.7337 196.816 76.5621 198.57 74.8475C198.815 74.5691 199.082 74.2908 199.36 74.0013C203.38 69.8371 209.604 65.3723 215.727 60.6403C222.953 55.0732 231.059 48.1812 237.105 46.0212C237.47 45.8871 237.842 45.7719 238.218 45.676C238.711 45.5356 239.214 45.4314 239.721 45.3643V45.3643Z" fill="black"/>
<g opacity="0.2">
<path opacity="0.2" d="M198.77 73.0883L199.327 74.0013L208.858 89.8897C208.457 89.9788 208.067 90.0456 207.677 90.1012L198.536 74.8252L197.824 73.7118L198.77 73.0883Z" fill="black"/>
</g>
<g opacity="0.2">
<path opacity="0.2" d="M207.889 70.4384L217.709 86.8056C217.364 86.9837 217.03 87.1285 216.707 87.2843L206.931 71.0062L207.889 70.4384Z" fill="black"/>
</g>
<g opacity="0.2">
<path opacity="0.2" d="M224.713 60.3508L234.01 75.8496L233.152 76.5956L223.755 60.9187L224.713 60.3508Z" fill="black"/>
</g>
<g opacity="0.2">
<path opacity="0.2" d="M216.896 65.0383L226.784 81.5057C226.483 81.7284 226.16 81.94 225.859 82.1515L215.928 65.6062L216.896 65.0383Z" fill="black"/>
</g>
<g opacity="0.2">
<path opacity="0.2" d="M232.529 52.8353L241.57 67.9221C241.336 68.2339 241.08 68.5345 240.824 68.8462L231.571 53.4143L232.529 52.8353Z" fill="black"/>
</g>
<path d="M226.653 74.7645C239.638 64.7069 246.956 52.4115 242.998 47.3021C239.041 42.1927 225.306 46.2041 212.321 56.2618C199.336 66.3194 192.018 78.6148 195.976 83.7242C199.933 88.8336 213.668 84.8222 226.653 74.7645Z" fill="#F9701F"/>
<path opacity="0.2" d="M225.042 71.6656C235.319 63.7053 241.383 54.3241 238.585 50.712C235.787 47.0999 225.188 50.6249 214.911 58.5852C204.634 66.5454 198.57 75.9267 201.368 79.5388C204.166 83.1508 214.765 79.6259 225.042 71.6656Z" fill="white"/>
<path d="M192.858 27.6609C191.588 34.9872 175.154 38.0825 156.538 34.7422C137.922 31.402 123.882 22.7953 125.184 15.469C125.485 13.7655 126.008 7.56376 127.756 6.32787C133.535 2.25277 146.963 5.65982 161.259 8.1984C174.62 10.57 189.239 10.7593 192.858 16.9164C195.051 20.7021 193.225 25.5677 192.858 27.6609Z" fill="#F9701F"/>
<path opacity="0.2" d="M192.858 16.9278C195.085 21.9827 193.314 25 192.858 27.6277C192.401 30.2553 189.852 32.4488 185.932 33.8962C185.454 34.0855 184.953 34.2414 184.44 34.3972C181.375 35.2589 178.223 35.7779 175.043 35.9449C174.587 35.9449 174.141 35.9449 173.674 36.0228C169.928 36.1606 166.176 36.0229 162.45 35.6109L161.148 35.4438C159.645 35.2546 158.097 35.0319 156.549 34.7535C155.002 34.4752 153.499 34.1634 152.018 33.8183C151.595 33.7292 151.172 33.6179 150.748 33.5176C147.25 32.6538 143.819 31.5375 140.483 30.1774C140.071 30.0215 139.681 29.8434 139.291 29.6875C136.363 28.441 133.584 26.8686 131.008 25C130.618 24.7217 130.262 24.4433 129.894 24.1538C126.443 21.3369 124.672 18.3084 125.173 15.4914C125.507 13.6654 125.775 7.69754 127.734 6.35031C129.694 5.00308 132.5 4.57998 135.84 4.56885H137.176C143.856 4.79153 152.463 6.65093 161.248 8.20971C171.603 10.058 183.728 11.6724 190.252 15.1686C190.635 15.3714 191.007 15.5944 191.366 15.8366C191.891 16.1609 192.39 16.5257 192.858 16.9278Z" fill="black"/>
<g opacity="0.2">
<path opacity="0.2" d="M137.543 3.43298L137.187 4.60207L130.996 25.0221C130.607 24.7437 130.25 24.4654 129.883 24.1759L135.829 4.59093L136.296 3.06555L137.543 3.43298Z" fill="black"/>
</g>
<g opacity="0.2">
<path opacity="0.2" d="M146.852 9.13371L140.472 30.1661C140.06 30.0102 139.67 29.8321 139.28 29.6762L145.627 8.74402L146.852 9.13371Z" fill="black"/>
</g>
<g opacity="0.2">
<path opacity="0.2" d="M168.485 15.7251L162.439 35.6441L161.137 35.4771L167.249 15.3466L168.485 15.7251Z" fill="black"/>
</g>
<g opacity="0.2">
<path opacity="0.2" d="M158.431 12.6744L152.007 33.8293C151.583 33.7402 151.16 33.6289 150.737 33.5287L157.195 12.2736L158.431 12.6744Z" fill="black"/>
</g>
<g opacity="0.2">
<path opacity="0.2" d="M180.922 16.5936L175.032 35.9782C174.576 35.9782 174.13 35.9782 173.663 36.0561L179.686 16.2262L180.922 16.5936Z" fill="black"/>
</g>
<path d="M193.725 21.2644C195.029 13.9389 180.989 5.31403 162.366 2.00021C143.744 -1.3136 127.591 1.93851 126.287 9.26399C124.983 16.5895 139.023 25.2143 157.646 28.5281C176.268 31.842 192.421 28.5898 193.725 21.2644Z" fill="#F9701F"/>
<path opacity="0.2" d="M187.387 20.1445C188.308 14.9682 177.109 8.64635 162.374 6.02417C147.638 3.40199 134.946 5.4725 134.024 10.6488C133.103 15.825 144.302 22.1469 159.038 24.7691C173.774 27.3913 186.466 25.3208 187.387 20.1445Z" fill="white"/>
<path d="M290.059 214.704L175.478 221.384C171.43 221.623 167.459 222.588 163.753 224.235L39.2958 279.905C37.1121 280.865 35.3238 282.545 34.2296 284.665C33.1353 286.785 32.8013 289.215 33.2834 291.552L53.8482 388.808C54.1958 390.375 54.897 391.841 55.8981 393.094C56.8992 394.348 58.1737 395.356 59.6241 396.041C61.0746 396.727 62.6626 397.071 64.2667 397.049C65.8708 397.027 67.4485 396.638 68.8793 395.912L191.722 334.585L305.157 330.788C306.553 330.751 307.925 330.417 309.181 329.808C310.438 329.199 311.551 328.33 312.445 327.257C313.339 326.185 313.995 324.934 314.368 323.589C314.742 322.243 314.824 320.834 314.61 319.454L299.434 226.328C298.644 221.518 294.992 214.559 290.059 214.704Z" fill="#F9701F"/>
<path opacity="0.1" d="M290.059 214.704L175.478 221.384C171.43 221.623 167.459 222.588 163.753 224.235L39.2958 279.905C37.1121 280.865 35.3238 282.545 34.2296 284.665C33.1353 286.785 32.8013 289.215 33.2834 291.552L53.8482 388.808C54.1958 390.375 54.897 391.841 55.8981 393.094C56.8992 394.348 58.1737 395.356 59.6241 396.041C61.0746 396.727 62.6626 397.071 64.2667 397.049C65.8708 397.027 67.4485 396.638 68.8793 395.912L191.722 334.585L305.157 330.788C306.553 330.751 307.925 330.417 309.181 329.808C310.438 329.199 311.551 328.33 312.445 327.257C313.339 326.185 313.995 324.934 314.368 323.589C314.742 322.243 314.824 320.834 314.61 319.454L299.434 226.328C298.644 221.518 294.992 214.559 290.059 214.704Z" fill="black"/>
<path d="M60.071 151.378L-0.0595703 206.806L107.847 323.867L167.978 268.438L60.071 151.378Z" fill="#F9701F"/>
<path opacity="0.5" d="M167.962 268.448L107.826 323.874L-0.0634766 206.821L39.396 170.445L60.0721 151.384L63.5125 155.125L167.962 268.448Z" fill="#FAFAFA"/>
<path d="M60.457 158.534L7.39966 207.442L108.333 316.938L161.391 268.03L60.457 158.534Z" stroke="#F9701F" stroke-miterlimit="10"/>
<path d="M96.3339 250.7C102.42 245.09 101.65 234.355 94.6146 226.723C87.5794 219.091 76.9428 217.452 70.8571 223.062C64.7713 228.671 65.541 239.406 72.5763 247.038C79.6115 254.67 90.2481 256.309 96.3339 250.7Z" fill="#F9701F"/>
<path opacity="0.1" d="M107.192 276.365L85.8254 283.747L39.396 170.445L60.0721 151.384L63.5126 155.125L107.192 276.365Z" fill="black"/>
<path d="M111.355 105.517L34.4722 133.393L88.7414 283.065L165.624 255.189L111.355 105.517Z" fill="#F9701F"/>
<path opacity="0.5" d="M111.355 105.517L34.4722 133.393L88.7414 283.065L165.624 255.189L111.355 105.517Z" fill="#FAFAFA"/>
<path d="M108.938 112.266L41.0994 136.863L91.8618 276.864L159.7 252.266L108.938 112.266Z" stroke="#F9701F" stroke-miterlimit="10"/>
<path d="M106.414 211.127C114.195 208.305 117.634 198.107 114.096 188.349C110.558 178.591 101.382 172.967 93.6007 175.789C85.8196 178.61 82.38 188.808 85.9182 198.566C89.4564 208.324 98.6326 213.948 106.414 211.127Z" fill="#F9701F"/>
<path d="M290.805 218.656L177.793 225.025C173.787 225.245 169.857 226.207 166.203 227.864L43.5712 283.223C41.4111 284.2 39.6489 285.884 38.5759 287.997C37.5029 290.111 37.1834 292.527 37.6701 294.847L58.2348 392.149C58.5661 393.705 59.2497 395.165 60.2333 396.416C61.2168 397.667 62.4741 398.676 63.9084 399.365C65.3428 400.054 66.9161 400.406 68.5074 400.392C70.0986 400.378 71.6656 400 73.0878 399.286L194.116 338.304L305.992 334.763C307.377 334.719 308.737 334.381 309.98 333.77C311.224 333.159 312.323 332.289 313.204 331.22C314.085 330.15 314.728 328.905 315.089 327.567C315.451 326.229 315.523 324.83 315.3 323.462L300.08 230.347C299.289 225.493 295.682 218.523 290.805 218.656Z" fill="#F9701F"/>
<path opacity="0.2" d="M182.392 242.06L279.359 236.092" stroke="black" stroke-width="2" stroke-linecap="round" stroke-linejoin="round"/>
<path opacity="0.2" d="M170.779 244.566L188.493 325.934" stroke="black" stroke-width="2" stroke-linecap="round" stroke-linejoin="round"/>
<path opacity="0.2" d="M54.3047 318.763C54.7389 319.877 165.268 272.445 165.268 272.445C165.567 283.199 162.878 293.825 157.501 303.142C152.123 312.459 144.266 320.102 134.805 325.221C101.536 343.871 54.3047 318.763 54.3047 318.763Z" fill="#FAFAFA"/>
<path opacity="0.2" d="M165.323 272.445C165.323 272.445 179.029 293.077 175.711 328.216Z" fill="black"/>
<g opacity="0.2">
<path opacity="0.2" d="M55.2175 289.982L158.431 244.354" stroke="#FAFAFA" stroke-linecap="round" stroke-linejoin="round" stroke-dasharray="5.2 5.2"/>
<path opacity="0.2" d="M161.081 243.185L163.62 242.06" stroke="#FAFAFA" stroke-linecap="round" stroke-linejoin="round"/>
</g>
<path opacity="0.2" d="M185.643 260.354L282.61 254.375" stroke="black" stroke-width="2" stroke-linecap="round" stroke-linejoin="round"/>
<path d="M265.72 121.099C265.72 121.099 263.281 147.075 253.628 149.313C247.65 150.604 241.417 149.981 235.814 147.531L227.964 141.497L224.134 154.858C224.134 154.858 228.32 160.547 237.061 156.606C237.061 156.606 252.648 163.464 261.266 156.606C269.884 149.747 272.645 130.93 272.645 130.93L265.72 121.099Z" fill="#B97964"/>
<path d="M273.48 108.517C273.48 108.517 266.744 97.0379 269.806 76.2282C272.868 55.4184 290.315 52.8464 297.051 54.3496C303.788 55.8527 309.299 62.3216 313.886 74.636C318.473 86.9504 320.166 90.157 327.815 87.997C335.464 85.8369 355.817 79.0896 361.485 85.091C363.115 86.7302 364.316 88.7459 364.982 90.9597C365.648 93.1735 365.759 95.5172 365.304 97.7839C365.304 97.7839 393.618 90.903 391.168 116.155C388.719 141.407 347.856 164.978 308.987 140.027C270.118 115.075 273.48 108.517 273.48 108.517Z" fill="#263238"/>
<path d="M273.168 169.633C273.168 169.633 265.475 235.803 265.731 266.834C265.987 297.865 277.01 370.994 277.01 370.994H290.605C290.605 370.994 288.812 312.517 289.068 292.509C289.324 272.501 292.909 239.399 292.909 239.399C292.909 239.399 297.263 269.15 302.396 279.66C307.528 290.171 335.999 327.37 355.75 338.916L364.981 330.443C364.981 330.443 344.46 305.057 336.767 292.487C329.073 279.916 322.159 276.353 319.331 252.972C316.503 229.59 321.39 192.19 313.185 169.621L273.168 169.633Z" fill="#263238"/>
<path opacity="0.2" d="M292.909 239.399L286.997 197.457C286.997 197.457 282.332 222.665 291.518 253.45L292.909 239.399Z" fill="black"/>
<path d="M314.643 132.934L328.539 123.181C328.539 123.181 324.842 108.395 319.364 107.66C313.886 106.925 286.697 101.748 269.405 107.66C269.405 107.66 263.192 109.43 261.277 126.877L268.67 129.238C268.67 129.238 271.32 161.906 272.957 166.938H312.416C312.416 166.938 312.862 138.847 314.643 132.934Z" fill="#F9701F"/>
<path d="M317.638 130.83C317.638 130.83 322.905 145.861 323.84 153.945C323.84 153.945 311.325 148.956 308.096 146.674L305.647 137.878L297.363 133.836L294.902 140.517L301.817 149.09C301.817 149.09 320.667 166.727 330.22 162.696C339.773 158.665 326.445 124.684 326.445 124.684L317.638 130.83Z" fill="#B97964"/>
<path d="M282.287 65.016C282.287 65.016 277.466 74.6359 277.834 82.4632C278.201 90.2905 282.154 93.486 289.669 94.5883C289.669 94.5883 292.876 104.609 284.459 105.622C283.813 105.7 283.59 108.25 283.635 108.662C283.857 110.287 285.472 111.178 286.975 111.557C288.558 111.907 290.174 112.087 291.796 112.091C293.499 112.15 295.193 111.821 296.749 111.128C298.306 110.436 299.685 109.398 300.781 108.094C300.959 107.882 302.652 105.722 302.652 105.722C302.652 105.722 298.632 103.729 300.046 90.6802C301.964 89.4315 303.438 87.6073 304.255 85.4694C305.023 85.0618 305.702 84.5053 306.253 83.8324C306.803 83.1595 307.214 82.3837 307.462 81.5502C308.063 78.9448 305.758 75.3374 301.549 78.9448C301.549 78.9448 293.622 74.9365 290.616 60.8964C288.387 63.1735 285.45 64.6261 282.287 65.016V65.016Z" fill="#B97964"/>
<path d="M284.548 80.3256L285.227 75.1816L281.586 79.2122C281.962 79.612 282.424 79.9203 282.937 80.1133C283.451 80.3063 284.002 80.379 284.548 80.3256V80.3256Z" fill="#A24E3F"/>
<path d="M286.663 84.0888C286.663 84.0888 290.504 84.6789 292.353 82.2183" stroke="#222221" stroke-width="0.75" stroke-linecap="round" stroke-linejoin="round"/>
<path d="M290.504 67.9777C291.376 67.7298 292.299 67.7221 293.175 67.9553C294.051 68.1885 294.848 68.654 295.481 69.3027" stroke="#222221" stroke-linecap="round" stroke-linejoin="round"/>
<path d="M283.857 66.8644C283.857 66.8644 281.631 66.5192 280.64 67.7774" stroke="#222221" stroke-linecap="round" stroke-linejoin="round"/>
<path d="M292.052 74.7474C291.952 75.5268 291.451 76.0946 290.939 76.0278C290.427 75.961 290.081 75.2818 290.182 74.5024C290.282 73.7231 290.783 73.1552 291.295 73.222C291.807 73.2888 292.152 73.968 292.052 74.7474Z" fill="#222221"/>
<path d="M283.164 73.024C283.264 72.2496 282.926 71.5672 282.407 71.4999C281.889 71.4325 281.387 72.0058 281.287 72.7802C281.186 73.5547 281.525 74.2371 282.043 74.3044C282.561 74.3717 283.063 73.7985 283.164 73.024Z" fill="#222221"/>
<path d="M291.306 73.2219L289.547 72.4536C289.57 72.6462 289.643 72.8293 289.759 72.985C289.875 73.1406 290.029 73.2633 290.207 73.341C290.384 73.4186 290.579 73.4484 290.772 73.4275C290.965 73.4066 291.149 73.3357 291.306 73.2219V73.2219Z" fill="#222221"/>
<path d="M282.577 71.574L280.818 70.8058C280.841 70.9984 280.914 71.1815 281.03 71.3372C281.146 71.4928 281.3 71.6155 281.478 71.6931C281.655 71.7707 281.85 71.8006 282.043 71.7797C282.236 71.7588 282.42 71.6879 282.577 71.574V71.574Z" fill="#222221"/>
<path d="M271.576 165.201V169.844L314.332 170.201L313.185 164.678L271.576 165.201Z" fill="#F9701F"/>
<path opacity="0.4" d="M271.576 165.201V169.844L314.332 170.201L313.185 164.678L271.576 165.201Z" fill="white"/>
<path d="M272.1 142.666L248.584 224.457C247.802 227.196 246.218 229.638 244.035 231.468C241.852 233.298 239.17 234.432 236.337 234.723C234.533 234.895 232.713 234.729 230.97 234.233L186.021 221.306C182.388 220.258 179.318 217.811 177.486 214.503C175.653 211.195 175.207 207.295 176.246 203.659L199.772 121.845C200.823 118.216 203.269 115.152 206.575 113.324C209.881 111.495 213.777 111.052 217.409 112.091L262.391 125.007C266.016 126.067 269.074 128.52 270.893 131.83C272.713 135.14 273.147 139.037 272.1 142.666Z" fill="#F9701F"/>
<path opacity="0.2" d="M272.1 142.666L248.584 224.457C247.802 227.196 246.218 229.638 244.035 231.468C241.852 233.298 239.17 234.432 236.337 234.723C234.533 234.895 232.713 234.729 230.97 234.233L186.021 221.306C182.388 220.258 179.318 217.811 177.486 214.503C175.653 211.195 175.207 207.295 176.246 203.659L199.772 121.845C200.823 118.216 203.269 115.152 206.575 113.324C209.881 111.495 213.777 111.052 217.409 112.091L262.391 125.007C266.016 126.067 269.074 128.52 270.893 131.83C272.713 135.14 273.147 139.037 272.1 142.666Z" fill="black"/>
<path d="M268.191 143.634L244.676 225.437C244.082 227.519 243.019 229.438 241.57 231.048C240.121 232.657 238.323 233.914 236.314 234.723C234.511 234.895 232.69 234.729 230.948 234.233L186.021 221.306C182.388 220.258 179.318 217.811 177.486 214.503C175.653 211.195 175.207 207.295 176.246 203.659L199.772 121.845C200.367 119.765 201.43 117.85 202.88 116.244C204.329 114.639 206.126 113.386 208.134 112.581C209.938 112.398 211.76 112.564 213.5 113.071L258.393 126.042C262.02 127.084 265.087 129.52 266.923 132.816C268.759 136.113 269.215 140.002 268.191 143.634Z" fill="#F9701F"/>
<path opacity="0.5" d="M268.191 143.634L244.676 225.437C244.082 227.519 243.019 229.438 241.57 231.048C240.121 232.657 238.323 233.914 236.314 234.723C234.511 234.895 232.69 234.729 230.948 234.233L186.021 221.306C182.388 220.258 179.318 217.811 177.486 214.503C175.653 211.195 175.207 207.295 176.246 203.659L199.772 121.845C200.367 119.765 201.43 117.85 202.88 116.244C204.329 114.639 206.126 113.386 208.134 112.581C209.938 112.398 211.76 112.564 213.5 113.071L258.393 126.042C262.02 127.084 265.087 129.52 266.923 132.816C268.759 136.113 269.215 140.002 268.191 143.634Z" fill="#FAFAFA"/>
<path d="M204.973 150.59L200.161 149.234L182.842 210.684L187.654 212.04L204.973 150.59Z" fill="#FAFAFA"/>
<path d="M194.561 213.991L189.751 212.599L207.065 151.172L211.864 152.553L194.561 213.991Z" fill="#FAFAFA"/>
<path d="M201.554 215.995L196.744 214.614L214.057 153.187L218.867 154.568L201.554 215.995Z" fill="#FAFAFA"/>
<path opacity="0.5" d="M246.867 162.618L242.055 161.262L224.736 222.711L229.548 224.067L246.867 162.618Z" fill="black"/>
<path d="M246.257 145.249L243.919 153.588L241.069 152.787C239.688 152.395 238.519 151.472 237.818 150.22C237.116 148.967 236.94 147.488 237.328 146.106L238.886 140.539L244.643 142.187C245.263 142.379 245.781 142.81 246.083 143.384C246.386 143.958 246.449 144.629 246.257 145.249Z" fill="#FAFAFA"/>
<path d="M244.888 141.163L239.131 139.515L240.857 133.413C241.05 132.729 241.376 132.089 241.816 131.53C242.256 130.972 242.802 130.505 243.422 130.158C244.042 129.811 244.725 129.589 245.431 129.505C246.138 129.422 246.853 129.479 247.538 129.672L250.499 130.507L247.916 139.492C247.83 139.803 247.683 140.093 247.484 140.346C247.284 140.599 247.036 140.81 246.754 140.966C246.472 141.121 246.161 141.219 245.841 141.253C245.52 141.286 245.196 141.256 244.888 141.163V141.163Z" fill="#FAFAFA"/>
<path d="M250.343 143.857L256.133 145.516L254.597 150.961C254.407 151.647 254.082 152.288 253.643 152.848C253.204 153.408 252.657 153.876 252.036 154.224C251.415 154.572 250.731 154.793 250.024 154.875C249.317 154.957 248.6 154.898 247.916 154.702L244.91 153.855L247.304 145.527C247.392 145.217 247.541 144.927 247.742 144.675C247.943 144.423 248.192 144.213 248.475 144.057C248.758 143.902 249.068 143.804 249.389 143.77C249.71 143.735 250.034 143.765 250.343 143.857V143.857Z" fill="#FAFAFA"/>
<path d="M258.182 138.29L256.434 144.481L250.644 142.822C250.024 142.64 249.501 142.222 249.188 141.657C248.875 141.092 248.798 140.426 248.974 139.804L251.557 130.819L254.441 131.632C255.124 131.823 255.762 132.147 256.32 132.586C256.877 133.024 257.343 133.568 257.69 134.186C258.038 134.804 258.26 135.485 258.344 136.189C258.429 136.893 258.373 137.607 258.182 138.29Z" fill="#FAFAFA"/>
</g>
</svg>
